<svg width="80" height="80" viewBox="0 0 80 80" fill="none" xmlns="http://www.w3.org/2000/svg">
<path d="M46.6666 6.66669H23.3333C21.5652 6.66669 19.8695 7.36907 18.6192 8.61931C17.369 9.86955 16.6666 11.5652 16.6666 13.3334V60C16.6666 61.7681 17.369 63.4638 18.6192 64.7141C19.8695 65.9643 21.5652 66.6667 23.3333 66.6667H33.3333V76.6667L40 73.3333L46.6666 76.6667V66.6667H56.6666C58.4347 66.6667 60.1304 65.9643 61.3807 64.7141C62.6309 63.4638 63.3333 61.7681 63.3333 60V23.3334L46.6666 6.66669ZM46.6666 50V56.6667L40 53.3334L33.3333 56.6667V50L26.6666 46.6667L33.3333 43.3334V36.6667L40 40L46.6666 36.6667V43.3334L53.3333 46.6667L46.6666 50ZM43.3333 26.6667V11.6667L58.3333 26.6667H43.3333Z" fill="#396FA1"/>
</svg>
