<svg width="81" height="81" viewBox="0 0 81 81" fill="none" xmlns="http://www.w3.org/2000/svg">
<path d="M55.6875 40.5C55.6875 38.205 55.485 35.9775 55.215 33.75H66.6225C67.1625 35.91 67.5 38.1712 67.5 40.5C67.5 41.7487 67.3988 42.9637 67.23 44.145C69.5588 44.4825 71.7188 45.225 73.71 46.305C74.0475 44.415 74.25 42.4912 74.25 40.5C74.25 21.9375 59.0625 6.75 40.5 6.75C21.8362 6.75 6.75 21.9375 6.75 40.5C6.75 59.0625 21.9375 74.25 40.5 74.25C42.4912 74.25 44.415 74.0475 46.305 73.71C44.702 70.7701 43.8662 67.4735 43.875 64.125C43.875 63.1463 43.9762 62.2012 44.1112 61.2562C43.0312 63.3825 41.85 65.4412 40.5 67.365C37.6987 63.315 35.4375 58.8262 34.0538 54H46.6088C48.6358 50.4777 51.6838 47.6533 55.35 45.9C55.5525 44.1113 55.6875 42.3225 55.6875 40.5ZM40.5 13.6013C43.3013 17.6513 45.5625 22.1737 46.9463 27H34.0538C35.4375 22.1737 37.6987 17.6513 40.5 13.6013ZM14.3775 47.25C13.8375 45.09 13.5 42.8288 13.5 40.5C13.5 38.1712 13.8375 35.91 14.3775 33.75H25.785C25.515 35.9775 25.3125 38.205 25.3125 40.5C25.3125 42.795 25.515 45.0225 25.785 47.25H14.3775ZM17.145 54H27C28.1812 58.2188 29.7 62.2687 31.725 66.015C25.5779 63.8944 20.4014 59.6286 17.145 54ZM27 27H17.145C20.3811 21.3543 25.5649 17.0825 31.725 14.985C29.7 18.7312 28.1812 22.7812 27 27ZM48.3975 47.25H32.6025C32.265 45.0225 32.0625 42.795 32.0625 40.5C32.0625 38.205 32.265 35.9438 32.6025 33.75H48.3975C48.7013 35.9438 48.9375 38.205 48.9375 40.5C48.9375 42.795 48.7013 45.0225 48.3975 47.25ZM49.2412 14.985C55.4513 17.1112 60.615 21.3975 63.855 27H53.8988C52.8424 22.8199 51.2783 18.7849 49.2412 14.985ZM75.9375 58.2188L59.9062 74.25L50.625 64.125L54.54 60.21L59.9062 65.5763L72.0225 53.46L75.9375 58.2188Z" fill="white"/>
</svg>
