<svg width="1920" height="1645" viewBox="0 0 1920 1645" fill="none" xmlns="http://www.w3.org/2000/svg">
<path d="M442.5 915.593C231.107 915.593 47.8544 670.574 8.37115 642.905C-31.1121 615.235 -8.62163 0 -8.62163 0H1922.56C1922.56 0 1937.05 1775.18 1922.56 1637.37C1908.06 1499.57 1591.17 1633.81 1471.5 1503.24C1375.21 1398.19 1539 1091.2 1274 1070.57C1077.19 1055.25 1282.5 742.63 1012 721.473C741.5 700.315 653.893 915.593 442.5 915.593Z" fill="#ABD8EB"/>
<path d="M309.038 286.824C15.0425 357.166 -108 0 -108 0H2030C2030 0 1946.16 203.552 1841.08 225.295C1736 247.039 1358.17 154.052 1151.28 144.8C944.395 135.547 603.033 216.481 309.038 286.824Z" fill="#4BADD2" fill-opacity="0.67"/>
</svg>
