<svg width="1621" height="770" viewBox="0 0 1621 770" fill="none" xmlns="http://www.w3.org/2000/svg">
<g id="Group 18160">
<g id="Group 18159">
<path id="Vector 6" d="M1571.47 58.4403L1572.73 57.63L1572.37 57.0588L1571.7 56.9572L1571.47 58.4403ZM1155.93 33.8833L1155.79 32.3896L1155.93 33.8833ZM738.382 131.6L737.726 132.949L738.267 133.212L738.839 133.028L738.382 131.6ZM142.817 33.8833L141.925 32.6769L142.817 33.8833ZM11.3024 236.479L9.96099 237.15L11.3024 236.479ZM82.3101 379.217L83.6593 379.872L83.9801 379.212L83.6555 378.553L82.3101 379.217ZM374.842 678.506L374.716 680L375.082 680.031L375.422 679.889L374.842 678.506ZM1144.43 757.804L1143.66 759.094L1143.92 759.247L1144.22 759.29L1144.43 757.804ZM1464.46 532.187L1463.9 530.797L1462.82 531.236L1462.97 532.391L1464.46 532.187ZM1595.98 350.055L1597.36 350.625L1595.98 350.055ZM422.847 78.3926L422.479 76.9384L422.847 78.3926ZM183.321 570.045L182.437 571.257L183.321 570.045ZM771.885 634.508L771.672 635.992L771.885 634.508ZM1391.45 718.411L1392.55 719.438L1392.55 719.438L1391.45 718.411ZM1564.41 55.8913C1563.59 55.7736 1562.83 56.3429 1562.71 57.163C1562.59 57.983 1563.16 58.7432 1563.98 58.8608L1564.41 55.8913ZM1549.28 56.8056C1550.1 56.9177 1550.86 56.3432 1550.97 55.5224C1551.08 54.7016 1550.51 53.9453 1549.69 53.8332L1549.28 56.8056ZM1534.9 51.8562C1534.08 51.7485 1533.33 52.3272 1533.22 53.1486C1533.11 53.97 1533.69 54.7231 1534.51 54.8307L1534.9 51.8562ZM1519.69 52.9261C1520.51 53.0296 1521.26 52.4473 1521.37 51.6254C1521.47 50.8034 1520.89 50.0532 1520.06 49.9496L1519.69 52.9261ZM1505.27 48.1207C1504.44 48.0211 1503.7 48.6069 1503.6 49.4294C1503.5 50.2518 1504.08 50.9993 1504.91 51.0989L1505.27 48.1207ZM1490.15 49.3457C1490.98 49.4416 1491.72 48.8522 1491.82 48.0294C1491.91 47.2065 1491.32 46.4617 1490.5 46.3658L1490.15 49.3457ZM1475.7 44.6756C1474.87 44.5835 1474.13 45.1763 1474.04 45.9996C1473.95 46.8229 1474.54 47.5649 1475.36 47.657L1475.7 44.6756ZM1460.56 46.0362C1461.38 46.1244 1462.12 45.5282 1462.21 44.7045C1462.3 43.8808 1461.7 43.1415 1460.88 43.0533L1460.56 46.0362ZM1446.05 41.5009C1445.22 41.4166 1444.49 42.0164 1444.4 42.8405C1444.32 43.6646 1444.92 44.401 1445.74 44.4853L1446.05 41.5009ZM1430.92 43.0061C1431.75 43.0863 1432.48 42.483 1432.56 41.6584C1432.64 40.8339 1432.04 40.1004 1431.21 40.0202L1430.92 43.0061ZM1416.37 38.6134C1415.54 38.5373 1414.81 39.1444 1414.74 39.9694C1414.66 40.7943 1415.27 41.5247 1416.09 41.6007L1416.37 38.6134ZM1401.25 40.2719C1402.08 40.3436 1402.81 39.7327 1402.88 38.9074C1402.95 38.082 1402.34 37.3549 1401.51 37.2832L1401.25 40.2719ZM1386.65 36.0328C1385.82 35.9657 1385.1 36.5806 1385.03 37.4063C1384.97 38.232 1385.58 38.9558 1386.41 39.023L1386.65 36.0328ZM1371.55 37.8578C1372.38 37.9202 1373.1 37.3011 1373.16 36.475C1373.22 35.6489 1372.6 34.9287 1371.78 34.8663L1371.55 37.8578ZM1356.9 33.7884C1356.08 33.7311 1355.36 34.3546 1355.3 35.181C1355.24 36.0075 1355.87 36.7239 1356.69 36.7812L1356.9 33.7884ZM1341.85 35.7992C1342.68 35.8512 1343.39 35.2231 1343.44 34.3963C1343.49 33.5695 1342.87 32.8571 1342.04 32.8051L1341.85 35.7992ZM1327.16 31.9203C1326.33 31.874 1325.62 32.507 1325.58 33.3341C1325.53 34.1612 1326.17 34.8693 1326.99 34.9156L1327.16 31.9203ZM1312.12 34.1374C1312.95 34.1777 1313.65 33.5395 1313.69 32.712C1313.73 31.8846 1313.1 31.1812 1312.27 31.141L1312.12 34.1374ZM1297.37 30.4752C1296.54 30.4416 1295.84 31.0853 1295.81 31.913C1295.78 32.7408 1296.42 33.4391 1297.25 33.4727L1297.37 30.4752ZM1282.37 32.9305C1283.2 32.9571 1283.89 32.3074 1283.92 31.4794C1283.94 30.6514 1283.3 29.9587 1282.47 29.9321L1282.37 32.9305ZM1267.56 29.522C1266.74 29.5031 1266.05 30.1592 1266.03 30.9874C1266.01 31.8156 1266.67 32.5023 1267.5 32.5212L1267.56 29.522ZM1252.63 32.2567C1253.46 32.2671 1254.14 31.6041 1254.15 30.7757C1254.16 29.9474 1253.49 29.2674 1252.67 29.2569L1252.63 32.2567ZM1237.74 29.1508C1236.92 29.1497 1236.24 29.8203 1236.24 30.6487C1236.24 31.4772 1236.91 32.1497 1237.74 32.1508L1237.74 29.1508ZM1222.85 32.2211C1223.68 32.2119 1224.34 31.533 1224.33 30.7046C1224.32 29.8762 1223.65 29.2121 1222.82 29.2213L1222.85 32.2211ZM1207.89 29.4888C1207.06 29.5096 1206.41 30.1978 1206.43 31.0259C1206.45 31.8541 1207.14 32.5086 1207.97 32.4879L1207.89 29.4888ZM1193.09 32.9758C1193.92 32.942 1194.56 32.2435 1194.53 31.4158C1194.5 30.5881 1193.8 29.9445 1192.97 29.9783L1193.09 32.9758ZM1178.06 30.7207C1177.23 30.7695 1176.6 31.4796 1176.65 32.3065C1176.7 33.1335 1177.41 33.7643 1178.24 33.7154L1178.06 30.7207ZM1163.4 34.745C1164.23 34.6787 1164.84 33.9555 1164.78 33.1298C1164.71 32.304 1163.99 31.6883 1163.16 31.7546L1163.4 34.745ZM1148.22 33.1319C1147.39 33.2173 1146.79 33.9545 1146.88 34.7785C1146.96 35.6025 1147.7 36.2013 1148.52 36.1159L1148.22 33.1319ZM1133.31 37.8524C1134.13 37.7504 1134.71 37.0013 1134.61 36.1792C1134.51 35.3571 1133.76 34.7732 1132.94 34.8752L1133.31 37.8524ZM1117.7 36.9001C1116.88 37.016 1116.31 37.7749 1116.43 38.5952C1116.54 39.4155 1117.3 39.9865 1118.12 39.8705L1117.7 36.9001ZM1102.96 42.1291C1103.78 42.0012 1104.34 41.2339 1104.21 40.4154C1104.08 39.597 1103.32 39.0372 1102.5 39.1651L1102.96 42.1291ZM1087.33 41.6384C1086.51 41.7768 1085.96 42.5512 1086.1 43.368C1086.24 44.1847 1087.01 44.7346 1087.83 44.5962L1087.33 41.6384ZM1072.73 47.2463C1073.54 47.0986 1074.08 46.3181 1073.94 45.5029C1073.79 44.6878 1073.01 44.1467 1072.19 44.2944L1072.73 47.2463ZM1057.09 47.1123C1056.27 47.2683 1055.74 48.0543 1055.89 48.8679C1056.05 49.6815 1056.84 50.2146 1057.65 50.0587L1057.09 47.1123ZM1042.61 53.0145C1043.42 52.8512 1043.95 52.0603 1043.78 51.2482C1043.62 50.436 1042.83 49.9101 1042.02 50.0735L1042.61 53.0145ZM1026.99 53.1633C1026.18 53.3334 1025.66 54.1286 1025.83 54.9394C1026 55.7501 1026.79 56.2695 1027.6 56.0993L1026.99 53.1633ZM1012.61 59.3052C1013.42 59.1289 1013.94 58.3298 1013.76 57.5204C1013.58 56.7109 1012.78 56.1976 1011.97 56.3739L1012.61 59.3052ZM996.983 59.6949C996.174 59.8768 995.667 60.6795 995.849 61.4877C996.031 62.2959 996.833 62.8036 997.642 62.6216L996.983 59.6949ZM982.691 66.0393C983.498 65.8521 984.001 65.0461 983.813 64.2391C983.626 63.4321 982.82 62.9297 982.013 63.1169L982.691 66.0393ZM967.069 66.6318C966.264 66.8238 965.766 67.6328 965.958 68.4387C966.15 69.2445 966.959 69.7421 967.765 69.55L967.069 66.6318ZM952.866 73.1466C953.67 72.9499 954.163 72.1381 953.967 71.3334C953.77 70.5286 952.958 70.0357 952.154 70.2323L952.866 73.1466ZM937.266 73.9128C936.462 74.1137 935.974 74.9281 936.174 75.7318C936.375 76.5355 937.19 77.0241 937.993 76.8232L937.266 73.9128ZM923.116 80.5831C923.919 80.3781 924.403 79.5612 924.198 78.7585C923.993 77.9559 923.176 77.4714 922.374 77.6764L923.116 80.5831ZM907.5 81.5133C906.699 81.7221 906.218 82.5413 906.427 83.343C906.636 84.1447 907.455 84.6253 908.256 84.4164L907.5 81.5133ZM893.416 88.3192C894.216 88.1067 894.693 87.2853 894.481 86.4846C894.268 85.6839 893.447 85.2071 892.646 85.4196L893.416 88.3192ZM877.812 89.3919C877.012 89.6079 876.539 90.4314 876.755 91.2312C876.971 92.0309 877.795 92.5041 878.594 92.2881L877.812 89.3919ZM863.792 96.3206C864.591 96.1011 865.061 95.2757 864.841 94.4768C864.622 93.678 863.796 93.2083 862.998 93.4277L863.792 96.3206ZM848.202 97.525C847.404 97.7478 846.938 98.5752 847.16 99.3731C847.383 100.171 848.211 100.637 849.008 100.415L848.202 97.525ZM834.245 104.568C835.042 104.342 835.505 103.513 835.279 102.716C835.053 101.919 834.224 101.456 833.427 101.682L834.245 104.568ZM818.68 105.894C817.884 106.123 817.424 106.954 817.654 107.75C817.883 108.547 818.714 109.006 819.51 108.777L818.68 105.894ZM804.827 113.035C805.622 112.802 806.078 111.969 805.846 111.174C805.614 110.379 804.781 109.923 803.986 110.155L804.827 113.035ZM789.215 114.503C788.42 114.738 787.967 115.573 788.203 116.367C788.438 117.161 789.273 117.614 790.067 117.379L789.215 114.503ZM775.346 121.778C776.139 121.539 776.589 120.702 776.35 119.909C776.111 119.116 775.274 118.666 774.481 118.905L775.346 121.778ZM759.77 123.372C758.978 123.615 758.533 124.454 758.775 125.246C759.018 126.038 759.857 126.483 760.649 126.241L759.77 123.372ZM746.059 130.752C746.85 130.505 747.291 129.664 747.043 128.873C746.796 128.083 745.955 127.642 745.164 127.889L746.059 130.752ZM732.395 127.169C731.64 126.828 730.751 127.163 730.41 127.918C730.069 128.673 730.404 129.561 731.159 129.902L732.395 127.169ZM717.623 124.002C718.386 124.324 719.266 123.966 719.588 123.202C719.91 122.439 719.552 121.559 718.789 121.237L717.623 124.002ZM705.058 115.617C704.288 115.311 703.416 115.687 703.11 116.457C702.804 117.227 703.18 118.099 703.95 118.405L705.058 115.617ZM690.142 113.073C690.918 113.364 691.783 112.971 692.074 112.195C692.365 111.42 691.972 110.555 691.196 110.264L690.142 113.073ZM677.272 105.191C676.491 104.914 675.634 105.324 675.358 106.105C675.082 106.886 675.491 107.743 676.272 108.019L677.272 105.191ZM662.284 103.222C663.07 103.483 663.919 103.057 664.181 102.271C664.442 101.485 664.016 100.636 663.23 100.375L662.284 103.222ZM649.141 95.8441C648.35 95.5982 647.509 96.0402 647.263 96.8313C647.018 97.6224 647.46 98.4631 648.251 98.7089L649.141 95.8441ZM634.094 94.4647C634.89 94.6945 635.722 94.2356 635.952 93.4397C636.181 92.6438 635.722 91.8123 634.927 91.5824L634.094 94.4647ZM620.614 87.6117C619.813 87.3987 618.992 87.8751 618.779 88.6757C618.566 89.4762 619.042 90.2979 619.843 90.5108L620.614 87.6117ZM605.544 86.8753C606.349 87.0704 607.16 86.5759 607.355 85.7708C607.551 84.9657 607.056 84.1548 606.251 83.9597L605.544 86.8753ZM591.807 80.6362C590.997 80.46 590.198 80.9734 590.022 81.7829C589.846 82.5924 590.359 83.3914 591.169 83.5676L591.807 80.6362ZM576.713 80.6084C577.526 80.7643 578.312 80.231 578.468 79.4174C578.624 78.6038 578.09 77.8178 577.277 77.662L576.713 80.6084ZM562.669 75.0643C561.851 74.9304 561.08 75.4845 560.946 76.3021C560.812 77.1196 561.366 77.8909 562.184 78.0249L562.669 75.0643ZM547.59 75.8471C548.411 75.9573 549.166 75.3811 549.277 74.5601C549.387 73.739 548.811 72.984 547.99 72.8738L547.59 75.8471ZM533.249 71.1248C532.425 71.0402 531.688 71.6397 531.603 72.4638C531.519 73.2879 532.118 74.0246 532.942 74.1091L533.249 71.1248ZM518.251 72.8496C519.077 72.9061 519.793 72.2819 519.85 71.4554C519.906 70.6289 519.282 69.9131 518.456 69.8566L518.251 72.8496ZM503.625 69.1133C502.797 69.0874 502.104 69.7376 502.078 70.5657C502.052 71.3937 502.703 72.0859 503.531 72.1118L503.625 69.1133ZM488.801 71.9448C489.629 71.9372 490.294 71.2594 490.287 70.4311C490.279 69.6027 489.601 68.9373 488.773 68.945L488.801 71.9448ZM473.917 69.4077C473.09 69.4522 472.456 70.1589 472.5 70.9861C472.545 71.8133 473.251 72.4479 474.079 72.4034L473.917 69.4077ZM459.401 73.5481C460.225 73.4631 460.824 72.7263 460.739 71.9022C460.654 71.0781 459.917 70.479 459.093 70.5639L459.401 73.5481ZM444.341 72.4811C443.523 72.6104 442.964 73.3785 443.093 74.1968C443.223 75.015 443.991 75.5736 444.809 75.4444L444.341 72.4811ZM430.358 78.1612C431.167 77.9837 431.679 77.1838 431.502 76.3746C431.324 75.5654 430.524 75.0534 429.715 75.2309L430.358 78.1612ZM415.333 78.6108C414.523 78.785 414.008 79.5828 414.182 80.3927C414.356 81.2026 415.154 81.7179 415.964 81.5437L415.333 78.6108ZM401.433 84.1181C402.253 84.0039 402.826 83.2461 402.712 82.4256C402.597 81.6051 401.84 81.0325 401.019 81.1468L401.433 84.1181ZM386.572 82.6077C385.745 82.6598 385.117 83.3723 385.169 84.1991C385.221 85.0259 385.934 85.6539 386.76 85.6017L386.572 82.6077ZM371.972 85.971C372.8 85.9817 373.481 85.3189 373.491 84.4905C373.502 83.6621 372.839 82.9819 372.011 82.9712L371.972 85.971ZM357.469 82.2399C356.644 82.1678 355.916 82.7784 355.844 83.6037C355.772 84.4289 356.383 85.1564 357.208 85.2285L357.469 82.2399ZM342.562 83.4216C343.38 83.5517 344.149 82.9938 344.279 82.1757C344.409 81.3575 343.851 80.5889 343.033 80.4588L342.562 83.4216ZM328.73 77.6965C327.922 77.5134 327.119 78.0199 326.936 78.8278C326.753 79.6358 327.259 80.4392 328.067 80.6223L328.73 77.6965ZM313.777 76.9307C314.573 77.1608 315.404 76.7022 315.635 75.9064C315.865 75.1106 315.406 74.2789 314.61 74.0488L313.777 76.9307ZM300.721 69.6378C299.938 69.3677 299.084 69.7836 298.814 70.5667C298.544 71.3499 298.96 72.2037 299.743 72.4739L300.721 69.6378ZM285.909 67.3625C286.68 67.6653 287.55 67.2856 287.853 66.5145C288.156 65.7434 287.776 64.8728 287.005 64.5701L285.909 67.3625ZM273.503 59.0026C272.742 58.6751 271.859 59.0266 271.532 59.7876C271.204 60.5485 271.556 61.4309 272.317 61.7583L273.503 59.0026ZM258.866 55.7839C259.62 56.1276 260.51 55.795 260.853 55.0412C261.197 54.2874 260.864 53.3978 260.111 53.0542L258.866 55.7839ZM246.832 46.913C246.081 46.5629 245.188 46.8877 244.838 47.6385C244.488 48.3893 244.813 49.2818 245.564 49.6319L246.832 46.913ZM232.242 43.4527C232.995 43.7975 233.885 43.4664 234.23 42.7132C234.575 41.9599 234.244 41.0697 233.49 40.7249L232.242 43.4527ZM220.04 34.761C219.278 34.4374 218.397 34.7932 218.074 35.5558C217.75 36.3184 218.106 37.1989 218.868 37.5226L220.04 34.761ZM205.314 32.179C206.094 32.4581 206.953 32.052 207.232 31.272C207.511 30.492 207.105 29.6335 206.325 29.3544L205.314 32.179ZM192.158 25.0258C191.353 24.8287 190.541 25.3213 190.344 26.126C190.147 26.9307 190.639 27.7427 191.444 27.9397L192.158 25.0258ZM177.235 25.6404C178.062 25.6955 178.777 25.0701 178.832 24.2435C178.887 23.4169 178.262 22.7021 177.435 22.647L177.235 25.6404ZM162.458 23.5006C161.645 23.66 161.115 24.4483 161.275 25.2613C161.434 26.0742 162.222 26.6039 163.035 26.4444L162.458 23.5006ZM149.72 31.2474C150.448 30.8517 150.717 29.941 150.321 29.2131C149.926 28.4853 149.015 28.216 148.287 28.6116L149.72 31.2474ZM136.034 37.002C135.365 37.4906 135.219 38.429 135.708 39.098C136.196 39.767 137.135 39.9133 137.804 39.4247L136.034 37.002ZM125.969 48.031C126.639 47.544 126.788 46.6059 126.301 45.9357C125.814 45.2656 124.875 45.1171 124.205 45.6041L125.969 48.031ZM112.386 54.2364C111.719 54.7274 111.576 55.6664 112.067 56.3336C112.558 57.0008 113.497 57.1436 114.165 56.6526L112.386 54.2364ZM102.438 65.3868C103.099 64.8874 103.23 63.9468 102.731 63.2858C102.232 62.6247 101.291 62.4936 100.63 62.9929L102.438 65.3868ZM88.9953 71.9402C88.3434 72.4514 88.2295 73.3943 88.7407 74.0462C89.252 74.698 90.1949 74.812 90.8467 74.3007L88.9953 71.9402ZM79.4615 83.4431C80.1009 82.9165 80.1924 81.9711 79.6657 81.3317C79.139 80.6922 78.1937 80.6008 77.5542 81.1275L79.4615 83.4431ZM66.3538 90.6279C65.7305 91.1735 65.6675 92.1212 66.2131 92.7445C66.7588 93.3679 67.7064 93.4309 68.3298 92.8852L66.3538 90.6279ZM57.5317 102.684C58.1344 102.116 58.1622 101.166 57.5938 100.564C57.0254 99.961 56.0761 99.9332 55.4734 100.502L57.5317 102.684ZM44.9954 110.829C44.4193 111.425 44.4349 112.374 45.0302 112.95C45.6256 113.526 46.5752 113.511 47.1513 112.916L44.9954 110.829ZM37.3163 123.648C37.858 123.021 37.7889 122.074 37.162 121.532C36.5352 120.99 35.588 121.06 35.0463 121.686L37.3163 123.648ZM25.7948 133.153C25.2983 133.816 25.4334 134.756 26.0965 135.253C26.7597 135.749 27.6998 135.614 28.1963 134.951L25.7948 133.153ZM20.0005 146.915C20.4372 146.211 20.2205 145.286 19.5166 144.85C18.8126 144.413 17.8879 144.63 17.4512 145.334L20.0005 146.915ZM10.3222 158.307C9.96508 159.054 10.2815 159.95 11.029 160.307C11.7765 160.664 12.672 160.348 13.0291 159.6L10.3222 158.307ZM7.67548 172.993C7.92835 172.204 7.49382 171.36 6.70493 171.107C5.91604 170.854 5.07153 171.289 4.81866 172.078L7.67548 172.993ZM1.41402 186.541C1.29176 187.361 1.85687 188.124 2.67623 188.246C3.49558 188.368 4.25891 187.803 4.38117 186.984L1.41402 186.541ZM3.54247 201.295C3.515 200.467 2.82153 199.818 1.99356 199.846C1.16558 199.873 0.51665 200.567 0.544121 201.395L3.54247 201.295ZM2.41299 216.159C2.59185 216.968 3.39258 217.478 4.20147 217.3C5.01036 217.121 5.5211 216.32 5.34223 215.511L2.41299 216.159ZM9.6518 229.222C9.33854 228.456 8.46289 228.088 7.69597 228.401C6.92905 228.714 6.56129 229.59 6.87454 230.357L9.6518 229.222ZM13.5312 244.286C13.9018 245.026 14.8028 245.327 15.5438 244.956C16.2847 244.585 16.5849 243.684 16.2142 242.943L13.5312 244.286ZM23.3476 257.212C22.9773 256.471 22.0764 256.171 21.3353 256.541C20.5943 256.911 20.2937 257.812 20.6639 258.553L23.3476 257.212ZM27.7876 272.819C28.1575 273.56 29.0583 273.861 29.7996 273.491C30.5408 273.122 30.8418 272.221 30.4719 271.479L27.7876 272.819ZM37.5874 285.745C37.2178 285.004 36.3171 284.702 35.5757 285.072C34.8343 285.442 34.5329 286.342 34.9025 287.084L37.5874 285.745ZM42.0052 301.34C42.3745 302.082 43.275 302.384 44.0166 302.015C44.7582 301.645 45.06 300.745 44.6908 300.003L42.0052 301.34ZM51.8025 314.295C51.4337 313.553 50.5333 313.251 49.7915 313.62C49.0498 313.989 48.7475 314.889 49.1164 315.631L51.8025 314.295ZM56.2055 329.895C56.574 330.637 57.4742 330.939 58.2162 330.571C58.9581 330.202 59.2609 329.302 58.8923 328.56L56.2055 329.895ZM65.9837 342.847C65.6156 342.105 64.7155 341.802 63.9734 342.17C63.2312 342.538 62.928 343.438 63.2961 344.18L65.9837 342.847ZM70.3826 358.478C70.7503 359.221 71.6501 359.524 72.3925 359.157C73.1349 358.789 73.4386 357.889 73.071 357.147L70.3826 358.478ZM80.1433 371.441C79.7763 370.698 78.8766 370.394 78.134 370.761C77.3913 371.128 77.0868 372.028 77.4538 372.77L80.1433 371.441ZM78.4582 385.554C78.2289 386.35 78.6884 387.181 79.4844 387.41C80.2805 387.64 81.1117 387.18 81.341 386.384L78.4582 385.554ZM78.6523 400.29C78.7434 399.467 78.1497 398.725 77.3263 398.634C76.5029 398.543 75.7615 399.137 75.6705 399.96L78.6523 400.29ZM75.1092 414.588C75.1344 415.416 75.8261 416.067 76.6541 416.042C77.4822 416.017 78.133 415.325 78.1078 414.497L75.1092 414.588ZM79.454 428.713C79.3252 427.895 78.5574 427.336 77.739 427.465C76.9207 427.594 76.3617 428.361 76.4906 429.18L79.454 428.713ZM79.58 443.432C79.8 444.23 80.6258 444.7 81.4245 444.48C82.2232 444.26 82.6923 443.434 82.4723 442.635L79.58 443.432ZM86.9719 456.2C86.6725 455.428 85.8036 455.045 85.0311 455.344C84.2587 455.643 83.8753 456.512 84.1747 457.285L86.9719 456.2ZM90.0439 470.589C90.4112 471.331 91.3109 471.635 92.0535 471.268C92.796 470.901 93.1002 470.001 92.7329 469.258L90.0439 470.589ZM99.5835 481.802C99.1585 481.091 98.2375 480.859 97.5264 481.284C96.8153 481.709 96.5834 482.63 97.0084 483.341L99.5835 481.802ZM104.924 495.565C105.398 496.245 106.333 496.411 107.012 495.937C107.692 495.463 107.858 494.528 107.384 493.849L104.924 495.565ZM115.957 505.345C115.442 504.696 114.499 504.588 113.85 505.103C113.201 505.618 113.093 506.562 113.608 507.211L115.957 505.345ZM122.927 518.293C123.477 518.913 124.425 518.969 125.045 518.419C125.664 517.869 125.72 516.921 125.17 516.302L122.927 518.293ZM134.967 526.796C134.387 526.204 133.438 526.194 132.846 526.774C132.254 527.354 132.244 528.303 132.824 528.895L134.967 526.796ZM143.202 539.029C143.807 539.595 144.756 539.563 145.322 538.958C145.888 538.353 145.856 537.404 145.251 536.838L143.202 539.029ZM155.944 546.447C155.318 545.906 154.37 545.975 153.829 546.601C153.287 547.228 153.356 548.175 153.982 548.717L155.944 546.447ZM165.106 557.989C165.751 558.508 166.696 558.406 167.215 557.76C167.734 557.115 167.632 556.171 166.987 555.651L165.106 557.989ZM178.333 564.481C177.672 563.982 176.731 564.115 176.233 564.776C175.734 565.438 175.867 566.379 176.528 566.877L178.333 564.481ZM188.916 575.963C189.587 576.449 190.525 576.298 191.01 575.627C191.496 574.955 191.345 574.018 190.674 573.532L188.916 575.963ZM203.511 582.726C202.835 582.247 201.899 582.406 201.42 583.082C200.941 583.758 201.1 584.694 201.776 585.173L203.511 582.726ZM214.725 594.26C215.405 594.732 216.34 594.563 216.812 593.883C217.285 593.202 217.116 592.268 216.435 591.795L214.725 594.26ZM229.447 600.723C228.761 600.258 227.829 600.437 227.364 601.123C226.899 601.809 227.078 602.741 227.764 603.206L229.447 600.723ZM240.888 611.991C241.579 612.447 242.51 612.257 242.966 611.566C243.423 610.874 243.233 609.944 242.541 609.487L240.888 611.991ZM255.75 618.085C255.052 617.638 254.125 617.841 253.677 618.538C253.23 619.235 253.433 620.163 254.131 620.61L255.75 618.085ZM267.567 629.083C268.271 629.52 269.196 629.303 269.632 628.598C270.069 627.894 269.852 626.97 269.147 626.533L267.567 629.083ZM282.584 634.702C281.872 634.278 280.951 634.511 280.527 635.223C280.103 635.935 280.336 636.855 281.048 637.279L282.584 634.702ZM294.775 645.275C295.496 645.685 296.411 645.433 296.821 644.713C297.23 643.992 296.978 643.077 296.258 642.667L294.775 645.275ZM310.049 650.294C309.319 649.903 308.41 650.177 308.018 650.907C307.626 651.636 307.901 652.546 308.63 652.938L310.049 650.294ZM322.703 660.233C323.445 660.603 324.345 660.302 324.715 659.56C325.085 658.819 324.784 657.918 324.043 657.548L322.703 660.233ZM338.222 664.298C337.467 663.957 336.579 664.293 336.238 665.048C335.897 665.803 336.233 666.692 336.988 667.032L338.222 664.298ZM351.623 673.188C352.396 673.486 353.264 673.101 353.563 672.329C353.861 671.556 353.476 670.687 352.704 670.389L351.623 673.188ZM367.541 675.395C366.743 675.175 365.917 675.644 365.696 676.443C365.476 677.241 365.945 678.067 366.744 678.287L367.541 675.395ZM382.507 677.115C383.282 676.823 383.673 675.958 383.381 675.183C383.089 674.407 382.223 674.016 381.448 674.308L382.507 677.115ZM396.091 669.06C395.307 669.328 394.889 670.181 395.157 670.965C395.426 671.748 396.278 672.166 397.062 671.898L396.091 669.06ZM411.783 667.059C412.573 666.809 413.011 665.967 412.761 665.177C412.512 664.387 411.669 663.949 410.879 664.198L411.783 667.059ZM425.767 659.669C424.972 659.902 424.517 660.735 424.75 661.53C424.982 662.325 425.816 662.781 426.611 662.548L425.767 659.669ZM441.548 658.333C442.348 658.116 442.82 657.292 442.602 656.492C442.385 655.693 441.561 655.221 440.762 655.438L441.548 658.333ZM455.811 651.502C455.008 651.704 454.52 652.519 454.722 653.322C454.924 654.126 455.74 654.613 456.543 654.411L455.811 651.502ZM471.571 650.776C472.378 650.589 472.88 649.783 472.693 648.976C472.505 648.169 471.699 647.667 470.892 647.854L471.571 650.776ZM486.072 644.473C485.261 644.645 484.745 645.442 484.918 646.253C485.09 647.063 485.887 647.579 486.698 647.407L486.072 644.473ZM501.892 644.306C502.705 644.147 503.236 643.36 503.078 642.547C502.919 641.733 502.132 641.203 501.318 641.361L501.892 644.306ZM516.616 638.521C515.8 638.665 515.256 639.443 515.4 640.259C515.544 641.075 516.322 641.62 517.138 641.476L516.616 638.521ZM532.425 638.917C533.243 638.788 533.802 638.02 533.672 637.201C533.543 636.383 532.774 635.825 531.956 635.954L532.425 638.917ZM547.333 633.661C546.513 633.776 545.941 634.534 546.056 635.354C546.171 636.175 546.929 636.747 547.749 636.632L547.333 633.661ZM563.108 634.62C563.93 634.52 564.516 633.772 564.416 632.95C564.315 632.128 563.568 631.542 562.745 631.642L563.108 634.62ZM578.19 629.901C577.366 629.986 576.767 630.724 576.852 631.548C576.938 632.372 577.675 632.97 578.499 632.885L578.19 629.901ZM593.919 631.429C594.745 631.358 595.357 630.632 595.286 629.807C595.216 628.981 594.49 628.369 593.664 628.44L593.919 631.429ZM609.167 627.261C608.341 627.316 607.715 628.031 607.77 628.858C607.826 629.684 608.54 630.31 609.367 630.255L609.167 627.261ZM624.839 629.366C625.667 629.326 626.305 628.623 626.265 627.796C626.226 626.969 625.523 626.33 624.695 626.37L624.839 629.366ZM640.245 625.769C639.417 625.793 638.765 626.484 638.789 627.312C638.813 628.14 639.504 628.792 640.332 628.768L640.245 625.769ZM655.842 628.464C656.671 628.456 657.335 627.778 657.327 626.95C657.319 626.121 656.641 625.456 655.812 625.465L655.842 628.464ZM671.358 625.46C670.529 625.452 669.851 626.117 669.843 626.946C669.836 627.774 670.501 628.452 671.329 628.46L671.358 625.46ZM686.798 628.757C687.626 628.781 688.317 628.129 688.341 627.301C688.365 626.473 687.713 625.782 686.885 625.758L686.798 628.757ZM702.417 626.365C701.589 626.324 700.886 626.962 700.845 627.789C700.804 628.617 701.442 629.32 702.27 629.361L702.417 626.365ZM717.74 630.277C718.566 630.334 719.283 629.71 719.34 628.884C719.397 628.058 718.774 627.341 717.948 627.284L717.74 630.277ZM733.471 628.521C732.646 628.447 731.917 629.055 731.843 629.88C731.768 630.705 732.377 631.435 733.202 631.509L733.471 628.521ZM748.607 633.058C749.43 633.15 750.172 632.556 750.264 631.733C750.355 630.91 749.762 630.168 748.938 630.077L748.607 633.058ZM764.359 631.955C763.538 631.846 762.784 632.423 762.675 633.245C762.566 634.066 763.143 634.82 763.965 634.929L764.359 631.955ZM779.203 637.101C780.023 637.224 780.787 636.66 780.91 635.841C781.034 635.022 780.47 634.258 779.651 634.134L779.203 637.101ZM794.638 636.505C793.82 636.37 793.048 636.923 792.913 637.74C792.778 638.558 793.331 639.33 794.148 639.465L794.638 636.505ZM809.079 642.045C809.895 642.192 810.675 641.65 810.822 640.835C810.968 640.02 810.426 639.24 809.611 639.093L809.079 642.045ZM824.565 641.894C823.752 641.736 822.965 642.267 822.806 643.08C822.648 643.893 823.179 644.68 823.992 644.839L824.565 641.894ZM838.848 647.835C839.659 648.005 840.453 647.485 840.623 646.674C840.792 645.863 840.272 645.068 839.461 644.899L838.848 647.835ZM854.297 648.104C853.489 647.924 852.687 648.433 852.506 649.241C852.326 650.05 852.835 650.852 853.644 651.032L854.297 648.104ZM868.382 654.426C869.188 654.617 869.997 654.119 870.188 653.313C870.379 652.507 869.881 651.699 869.075 651.507L868.382 654.426ZM883.861 655.122C883.058 654.92 882.243 655.407 882.04 656.211C881.838 657.014 882.326 657.829 883.129 658.032L883.861 655.122ZM897.815 661.83C898.615 662.043 899.437 661.566 899.65 660.766C899.863 659.965 899.386 659.143 898.585 658.931L897.815 661.83ZM913.247 662.93C912.449 662.707 911.621 663.173 911.398 663.971C911.175 664.768 911.64 665.596 912.438 665.819L913.247 662.93ZM926.999 669.997C927.794 670.231 928.628 669.776 928.861 668.981C929.095 668.186 928.64 667.353 927.845 667.119L926.999 669.997ZM942.381 671.495C941.589 671.251 940.75 671.695 940.506 672.487C940.262 673.278 940.706 674.118 941.498 674.362L942.381 671.495ZM955.935 678.913C956.723 679.167 957.568 678.733 957.823 677.945C958.077 677.157 957.643 676.311 956.855 676.057L955.935 678.913ZM971.268 680.805C970.483 680.541 969.633 680.963 969.368 681.749C969.104 682.534 969.526 683.384 970.311 683.649L971.268 680.805ZM984.637 688.573C985.419 688.847 986.275 688.436 986.549 687.654C986.823 686.873 986.412 686.017 985.63 685.742L984.637 688.573ZM999.936 690.866C999.157 690.582 998.296 690.982 998.012 691.76C997.727 692.538 998.128 693.4 998.906 693.684L999.936 690.866ZM1013.1 698.976C1013.87 699.27 1014.74 698.881 1015.03 698.107C1015.33 697.333 1014.94 696.466 1014.16 696.172L1013.1 698.976ZM1028.34 701.669C1027.57 701.364 1026.7 701.742 1026.4 702.512C1026.09 703.283 1026.47 704.154 1027.24 704.458L1028.34 701.669ZM1041.32 710.132C1042.09 710.447 1042.96 710.081 1043.28 709.315C1043.59 708.548 1043.23 707.672 1042.46 707.357L1041.32 710.132ZM1056.5 713.234C1055.74 712.909 1054.86 713.263 1054.53 714.025C1054.21 714.787 1054.56 715.669 1055.32 715.994L1056.5 713.234ZM1069.22 722.036C1069.98 722.371 1070.87 722.029 1071.2 721.272C1071.54 720.514 1071.2 719.628 1070.44 719.293L1069.22 722.036ZM1084.22 725.516C1083.47 725.169 1082.58 725.499 1082.23 726.251C1081.89 727.004 1082.22 727.895 1082.97 728.241L1084.22 725.516ZM1096.76 734.713C1097.51 735.071 1098.4 734.755 1098.76 734.008C1099.12 733.261 1098.8 732.365 1098.05 732.007L1096.76 734.713ZM1111.68 738.664C1110.93 738.294 1110.03 738.595 1109.66 739.336C1109.29 740.077 1109.59 740.978 1110.34 741.348L1111.68 738.664ZM1123.84 748.242C1124.57 748.626 1125.48 748.342 1125.86 747.608C1126.25 746.874 1125.96 745.968 1125.23 745.584L1123.84 748.242ZM1138.61 752.777C1137.89 752.375 1136.98 752.637 1136.57 753.361C1136.17 754.086 1136.43 754.999 1137.16 755.4L1138.61 752.777ZM1151.26 760.171C1152.08 760.267 1152.82 759.677 1152.92 758.854C1153.01 758.031 1152.42 757.287 1151.6 757.191L1151.26 760.171ZM1165.8 758.654C1164.97 758.579 1164.24 759.187 1164.17 760.012C1164.09 760.837 1164.7 761.567 1165.52 761.642L1165.8 758.654ZM1179.84 762.798C1180.66 762.856 1181.38 762.233 1181.44 761.407C1181.5 760.58 1180.87 759.863 1180.05 759.805L1179.84 762.798ZM1194.28 760.661C1193.45 760.62 1192.75 761.257 1192.71 762.084C1192.66 762.912 1193.3 763.616 1194.13 763.657L1194.28 760.661ZM1208.47 764.225C1209.3 764.249 1209.99 763.597 1210.01 762.769C1210.04 761.941 1209.38 761.25 1208.56 761.226L1208.47 764.225ZM1222.83 761.485C1222 761.479 1221.32 762.146 1221.31 762.974C1221.31 763.802 1221.98 764.479 1222.8 764.485L1222.83 761.485ZM1237.14 764.418C1237.97 764.404 1238.63 763.721 1238.62 762.893C1238.61 762.064 1237.92 761.404 1237.09 761.418L1237.14 764.418ZM1251.35 760.998C1250.52 761.034 1249.88 761.733 1249.91 762.561C1249.95 763.389 1250.65 764.031 1251.48 763.996L1251.35 760.998ZM1265.81 763.181C1266.64 763.122 1267.26 762.404 1267.2 761.578C1267.14 760.752 1266.42 760.13 1265.59 760.189L1265.81 763.181ZM1279.79 758.946C1278.96 759.032 1278.37 759.77 1278.45 760.594C1278.54 761.418 1279.28 762.016 1280.1 761.93L1279.79 758.946ZM1294.35 760.182C1295.17 760.066 1295.74 759.306 1295.62 758.486C1295.51 757.666 1294.75 757.095 1293.93 757.212L1294.35 760.182ZM1307.98 754.914C1307.16 755.066 1306.62 755.849 1306.78 756.664C1306.93 757.478 1307.71 758.015 1308.53 757.864L1307.98 754.914ZM1322.6 754.878C1323.4 754.685 1323.9 753.875 1323.71 753.07C1323.51 752.264 1322.7 751.767 1321.9 751.961L1322.6 754.878ZM1335.59 748.245C1334.8 748.487 1334.35 749.325 1334.6 750.117C1334.84 750.91 1335.68 751.356 1336.47 751.113L1335.59 748.245ZM1350.11 746.397C1350.88 746.096 1351.26 745.226 1350.96 744.454C1350.66 743.682 1349.79 743.301 1349.02 743.602L1350.11 746.397ZM1361.94 737.88C1361.2 738.251 1360.9 739.153 1361.27 739.893C1361.65 740.634 1362.55 740.932 1363.29 740.561L1361.94 737.88ZM1375.85 733.335C1376.54 732.879 1376.73 731.949 1376.27 731.257C1375.82 730.566 1374.89 730.375 1374.19 730.832L1375.85 733.335ZM1385.34 722.28C1384.72 722.833 1384.67 723.781 1385.23 724.398C1385.78 725.015 1386.73 725.067 1387.34 724.514L1385.34 722.28ZM1397.57 713.964C1398.12 713.347 1398.07 712.399 1397.45 711.846C1396.83 711.293 1395.89 711.345 1395.33 711.962L1397.57 713.964ZM1404.81 700.865C1404.29 701.508 1404.38 702.452 1405.03 702.975C1405.67 703.498 1406.62 703.4 1407.14 702.757L1404.81 700.865ZM1416.18 691.048C1416.67 690.38 1416.53 689.441 1415.86 688.952C1415.19 688.462 1414.25 688.607 1413.76 689.275L1416.18 691.048ZM1422.1 677.266C1421.64 677.958 1421.84 678.888 1422.53 679.343C1423.22 679.797 1424.15 679.604 1424.61 678.912L1422.1 677.266ZM1432.38 666.353C1432.79 665.637 1432.55 664.719 1431.83 664.302C1431.12 663.885 1430.2 664.128 1429.78 664.844L1432.38 666.353ZM1436.79 652.014C1436.41 652.752 1436.71 653.655 1437.44 654.032C1438.18 654.409 1439.08 654.117 1439.46 653.379L1436.79 652.014ZM1445.82 640.025C1446.15 639.268 1445.81 638.382 1445.05 638.047C1444.29 637.713 1443.41 638.056 1443.07 638.813L1445.82 640.025ZM1448.58 625.302C1448.29 626.078 1448.69 626.942 1449.46 627.233C1450.24 627.523 1451.1 627.13 1451.39 626.354L1448.58 625.302ZM1456.17 612.378C1456.41 611.586 1455.97 610.746 1455.18 610.502C1454.38 610.257 1453.54 610.7 1453.3 611.492L1456.17 612.378ZM1457.19 597.414C1457 598.219 1457.49 599.031 1458.29 599.227C1459.1 599.424 1459.91 598.931 1460.11 598.126L1457.19 597.414ZM1463.18 583.637C1463.32 582.821 1462.78 582.042 1461.97 581.895C1461.15 581.749 1460.37 582.291 1460.23 583.107L1463.18 583.637ZM1462.35 568.648C1462.25 569.471 1462.84 570.214 1463.67 570.307C1464.49 570.4 1465.23 569.809 1465.33 568.986L1462.35 568.648ZM1466.49 554.224C1466.52 553.396 1465.88 552.696 1465.05 552.661C1464.23 552.626 1463.53 553.268 1463.49 554.096L1466.49 554.224ZM1463.52 539.532C1463.56 540.36 1464.26 541.002 1465.08 540.965C1465.91 540.929 1466.55 540.229 1466.52 539.402L1463.52 539.532ZM1471.51 530.155C1472.22 529.731 1472.45 528.81 1472.03 528.099C1471.61 527.387 1470.68 527.154 1469.97 527.578L1471.51 530.155ZM1481.62 519.601C1480.96 520.105 1480.83 521.046 1481.34 521.704C1481.84 522.362 1482.78 522.487 1483.44 521.983L1481.62 519.601ZM1494.51 512.76C1495.12 512.206 1495.17 511.257 1494.62 510.642C1494.06 510.026 1493.12 509.976 1492.5 510.53L1494.51 512.76ZM1502.7 500.735C1502.12 501.326 1502.13 502.276 1502.72 502.856C1503.31 503.436 1504.26 503.426 1504.84 502.835L1502.7 500.735ZM1514.61 492.311C1515.16 491.689 1515.1 490.741 1514.48 490.193C1513.85 489.646 1512.91 489.706 1512.36 490.327L1514.61 492.311ZM1521.51 479.439C1520.99 480.085 1521.09 481.029 1521.74 481.547C1522.38 482.066 1523.33 481.962 1523.85 481.316L1521.51 479.439ZM1532.61 469.921C1533.1 469.254 1532.96 468.315 1532.29 467.823C1531.62 467.332 1530.69 467.473 1530.19 468.14L1532.61 469.921ZM1538.4 456.574C1537.93 457.258 1538.11 458.191 1538.79 458.658C1539.48 459.126 1540.41 458.95 1540.88 458.266L1538.4 456.574ZM1548.77 446.281C1549.22 445.582 1549.01 444.655 1548.31 444.21C1547.61 443.766 1546.69 443.972 1546.24 444.671L1548.77 446.281ZM1553.71 432.528C1553.28 433.24 1553.52 434.16 1554.23 434.583C1554.94 435.007 1555.86 434.773 1556.28 434.061L1553.71 432.528ZM1563.41 421.681C1563.82 420.958 1563.56 420.044 1562.84 419.641C1562.11 419.237 1561.2 419.496 1560.8 420.219L1563.41 421.681ZM1567.57 407.704C1567.19 408.437 1567.47 409.344 1568.2 409.729C1568.94 410.115 1569.84 409.832 1570.23 409.099L1567.57 407.704ZM1576.74 396.348C1577.1 395.606 1576.8 394.706 1576.06 394.338C1575.32 393.97 1574.42 394.273 1574.05 395.015L1576.74 396.348ZM1580.24 382.18C1579.89 382.93 1580.21 383.824 1580.96 384.175C1581.71 384.527 1582.6 384.204 1582.95 383.454L1580.24 382.18ZM1588.9 370.437C1589.23 369.679 1588.89 368.793 1588.13 368.457C1587.38 368.12 1586.49 368.461 1586.15 369.218L1588.9 370.437ZM1591.82 356.142C1591.49 356.905 1591.85 357.785 1592.62 358.107C1593.38 358.429 1594.26 358.071 1594.58 357.307L1591.82 356.142ZM1600.19 343.501C1600.49 342.727 1600.1 341.86 1599.33 341.564C1598.55 341.268 1597.68 341.655 1597.39 342.429L1600.19 343.501ZM1602.43 328.223C1602.17 329.01 1602.6 329.858 1603.39 330.115C1604.18 330.373 1605.02 329.944 1605.28 329.157L1602.43 328.223ZM1609.66 314.577C1609.88 313.778 1609.4 312.953 1608.61 312.735C1607.81 312.516 1606.98 312.987 1606.76 313.786L1609.66 314.577ZM1610.37 299.152C1610.19 299.961 1610.7 300.761 1611.51 300.939C1612.32 301.117 1613.12 300.606 1613.3 299.797L1610.37 299.152ZM1616.2 284.854C1616.34 284.037 1615.79 283.264 1614.97 283.126C1614.16 282.988 1613.38 283.539 1613.25 284.356L1616.2 284.854ZM1615.38 269.438C1615.28 270.26 1615.87 271.006 1616.69 271.103C1617.52 271.2 1618.26 270.611 1618.36 269.789L1615.38 269.438ZM1619.77 254.641C1619.82 253.814 1619.2 253.098 1618.37 253.042C1617.55 252.985 1616.83 253.609 1616.77 254.436L1619.77 254.641ZM1617.44 239.391C1617.42 240.219 1618.08 240.904 1618.91 240.92C1619.73 240.937 1620.42 240.279 1620.44 239.451L1617.44 239.391ZM1620.38 224.209C1620.36 223.381 1619.67 222.728 1618.84 222.75C1618.01 222.773 1617.36 223.463 1617.38 224.291L1620.38 224.209ZM1616.61 209.215C1616.68 210.041 1617.39 210.661 1618.22 210.6C1619.05 210.539 1619.67 209.82 1619.61 208.994L1616.61 209.215ZM1618.14 193.846C1618.04 193.024 1617.3 192.436 1616.47 192.535C1615.65 192.633 1615.06 193.38 1615.16 194.202L1618.14 193.846ZM1613.04 179.293C1613.18 180.111 1613.95 180.665 1614.77 180.53C1615.59 180.396 1616.14 179.624 1616 178.807L1613.04 179.293ZM1613.21 163.822C1613.04 163.012 1612.24 162.492 1611.43 162.661C1610.62 162.831 1610.1 163.625 1610.27 164.436L1613.21 163.822ZM1606.87 149.732C1607.08 150.536 1607.89 151.022 1608.7 150.818C1609.5 150.615 1609.98 149.799 1609.78 148.996L1606.87 149.732ZM1605.75 134.338C1605.51 133.544 1604.67 133.091 1603.88 133.328C1603.09 133.564 1602.63 134.399 1602.87 135.193L1605.75 134.338ZM1598.27 120.812C1598.54 121.596 1599.39 122.013 1600.17 121.745C1600.96 121.476 1601.38 120.624 1601.11 119.84L1598.27 120.812ZM1595.88 105.53C1595.58 104.758 1594.71 104.375 1593.94 104.676C1593.16 104.976 1592.78 105.845 1593.08 106.617L1595.88 105.53ZM1587.32 92.6651C1587.65 93.4241 1588.54 93.77 1589.3 93.4378C1590.06 93.1057 1590.4 92.2212 1590.07 91.4622L1587.32 92.6651ZM1583.67 77.6634C1583.3 76.9201 1582.4 76.614 1581.66 76.9797C1580.91 77.3455 1580.61 78.2445 1580.97 78.9878L1583.67 77.6634ZM1573.99 65.671C1574.4 66.3934 1575.31 66.6502 1576.03 66.2447C1576.76 65.8391 1577.01 64.9248 1576.61 64.2024L1573.99 65.671ZM1571.47 58.4403C1571.7 56.9572 1571.7 56.9572 1571.7 56.9572C1571.7 56.9572 1571.7 56.9572 1571.7 56.9572C1571.7 56.9572 1571.7 56.9571 1571.7 56.9571C1571.7 56.9571 1571.7 56.957 1571.69 56.9569C1571.69 56.9567 1571.69 56.9564 1571.69 56.956C1571.68 56.9553 1571.68 56.9541 1571.67 56.9526C1571.65 56.9496 1571.62 56.9451 1571.58 56.9391C1571.5 56.9272 1571.38 56.9095 1571.22 56.886C1570.91 56.8392 1570.44 56.7697 1569.83 56.679C1568.6 56.4976 1566.78 56.2312 1564.41 55.8913L1563.98 58.8608C1566.35 59.2002 1568.17 59.466 1569.39 59.6468C1570 59.7373 1570.47 59.8065 1570.78 59.853C1570.93 59.8763 1571.05 59.8939 1571.13 59.9057C1571.17 59.9116 1571.2 59.916 1571.22 59.919C1571.23 59.9205 1571.24 59.9216 1571.24 59.9223C1571.24 59.9227 1571.24 59.9229 1571.25 59.9231C1571.25 59.9232 1571.25 59.9233 1571.25 59.9233C1571.25 59.9233 1571.25 59.9234 1571.25 59.9234C1571.25 59.9234 1571.25 59.9234 1571.25 59.9234C1571.25 59.9234 1571.25 59.9234 1571.47 58.4403ZM1549.69 53.8332C1545.33 53.2374 1540.38 52.5733 1534.9 51.8562L1534.51 54.8307C1539.98 55.5472 1544.93 56.2105 1549.28 56.8056L1549.69 53.8332ZM1520.06 49.9496C1515.39 49.3601 1510.45 48.7484 1505.27 48.1207L1504.91 51.0989C1510.08 51.726 1515.02 52.3371 1519.69 52.9261L1520.06 49.9496ZM1490.5 46.3658C1485.72 45.8087 1480.78 45.244 1475.7 44.6756L1475.36 47.657C1480.44 48.2248 1485.38 48.789 1490.15 49.3457L1490.5 46.3658ZM1460.88 43.0533C1456.04 42.5349 1451.09 42.0164 1446.05 41.5009L1445.74 44.4853C1450.78 45.0004 1455.72 45.5183 1460.56 46.0362L1460.88 43.0533ZM1431.21 40.0202C1426.33 39.5455 1421.38 39.0758 1416.37 38.6134L1416.09 41.6007C1421.1 42.0627 1426.05 42.5319 1430.92 43.0061L1431.21 40.0202ZM1401.51 37.2832C1396.61 36.8569 1391.65 36.4394 1386.65 36.0328L1386.41 39.023C1391.4 39.4291 1396.35 39.8461 1401.25 40.2719L1401.51 37.2832ZM1371.78 34.8663C1366.85 34.4942 1361.89 34.1343 1356.9 33.7884L1356.69 36.7812C1361.67 37.1267 1366.63 37.4862 1371.55 37.8578L1371.78 34.8663ZM1342.04 32.8051C1337.09 32.4942 1332.13 32.1986 1327.16 31.9203L1326.99 34.9156C1331.96 35.1936 1336.91 35.4887 1341.85 35.7992L1342.04 32.8051ZM1312.27 31.141C1307.3 30.8997 1302.34 30.6772 1297.37 30.4752L1297.25 33.4727C1302.21 33.6744 1307.17 33.8965 1312.12 34.1374L1312.27 31.141ZM1282.47 29.9321C1277.49 29.7722 1272.52 29.6349 1267.56 29.522L1267.5 32.5212C1272.44 32.6339 1277.4 32.7709 1282.37 32.9305L1282.47 29.9321ZM1252.67 29.2569C1247.67 29.1938 1242.69 29.1578 1237.74 29.1508L1237.74 32.1508C1242.67 32.1577 1247.64 32.1937 1252.63 32.2567L1252.67 29.2569ZM1222.82 29.2213C1217.8 29.2769 1212.82 29.3654 1207.89 29.4888L1207.97 32.4879C1212.88 32.3648 1217.84 32.2765 1222.85 32.2211L1222.82 29.2213ZM1192.97 29.9783C1187.93 30.1844 1182.96 30.431 1178.06 30.7207L1178.24 33.7154C1183.12 33.4269 1188.07 33.1812 1193.09 32.9758L1192.97 29.9783ZM1163.16 31.7546C1160.68 31.9537 1158.22 32.1653 1155.79 32.3896L1156.06 35.3769C1158.49 35.1537 1160.93 34.9432 1163.4 34.745L1163.16 31.7546ZM1155.79 32.3896C1153.29 32.62 1150.76 32.8676 1148.22 33.1319L1148.52 36.1159C1151.06 35.8528 1153.58 35.6062 1156.06 35.3769L1155.79 32.3896ZM1132.94 34.8752C1127.93 35.496 1122.85 36.1723 1117.7 36.9001L1118.12 39.8705C1123.25 39.145 1128.32 38.4709 1133.31 37.8524L1132.94 34.8752ZM1102.5 39.1651C1097.49 39.9479 1092.43 40.7735 1087.33 41.6384L1087.83 44.5962C1092.92 43.7334 1097.97 42.9098 1102.96 42.1291L1102.5 39.1651ZM1072.19 44.2944C1067.19 45.2013 1062.15 46.1417 1057.09 47.1123L1057.65 50.0587C1062.7 49.0899 1067.73 48.1514 1072.73 47.2463L1072.19 44.2944ZM1042.02 50.0735C1037.02 51.0785 1032.01 52.1094 1026.99 53.1633L1027.6 56.0993C1032.62 55.0471 1037.62 54.0178 1042.61 53.0145L1042.02 50.0735ZM1011.97 56.3739C1006.98 57.4622 1001.98 58.5701 996.983 59.6949L997.642 62.6216C1002.63 61.4984 1007.62 60.3919 1012.61 59.3052L1011.97 56.3739ZM982.013 63.1169C977.019 64.2755 972.035 65.4482 967.069 66.6318L967.765 69.55C972.725 68.3678 977.703 67.1965 982.691 66.0393L982.013 63.1169ZM952.154 70.2323C947.163 71.4519 942.198 72.6797 937.266 73.9128L937.993 76.8232C942.92 75.5914 947.88 74.3648 952.866 73.1466L952.154 70.2323ZM922.374 77.6764C917.37 78.9543 912.41 80.2344 907.5 81.5133L908.256 84.4164C913.161 83.1386 918.117 81.8597 923.116 80.5831L922.374 77.6764ZM892.646 85.4196C887.634 86.7499 882.686 88.0753 877.812 89.3919L878.594 92.2881C883.464 90.9726 888.408 89.6484 893.416 88.3192L892.646 85.4196ZM862.998 93.4277C857.967 94.8096 853.031 96.1769 848.202 97.525L849.008 100.415C853.834 99.0675 858.766 97.7013 863.792 96.3206L862.998 93.4277ZM833.427 101.682C828.364 103.117 823.443 104.523 818.68 105.894L819.51 108.777C824.269 107.407 829.186 106.002 834.245 104.568L833.427 101.682ZM803.986 110.155C798.815 111.665 793.884 113.118 789.215 114.503L790.067 117.379C794.733 115.995 799.661 114.544 804.827 113.035L803.986 110.155ZM774.481 118.905C769.034 120.546 764.111 122.043 759.77 123.372L760.649 126.241C764.985 124.913 769.903 123.417 775.346 121.778L774.481 118.905ZM745.164 127.889C742.81 128.625 741.001 129.195 739.78 129.582C739.17 129.775 738.706 129.922 738.395 130.021C738.24 130.071 738.122 130.108 738.043 130.133C738.004 130.146 737.975 130.155 737.955 130.162C737.945 130.165 737.937 130.167 737.932 130.169C737.93 130.17 737.928 130.17 737.927 130.171C737.926 130.171 737.926 130.171 737.925 130.171C737.925 130.171 737.925 130.171 737.925 130.171C737.925 130.171 737.925 130.171 737.925 130.171C737.925 130.171 737.925 130.171 738.382 131.6C738.839 133.028 738.839 133.028 738.839 133.028C738.839 133.028 738.839 133.028 738.839 133.028C738.839 133.028 738.839 133.028 738.839 133.028C738.84 133.028 738.84 133.028 738.841 133.028C738.842 133.028 738.844 133.027 738.846 133.026C738.851 133.025 738.858 133.022 738.868 133.019C738.887 133.013 738.917 133.004 738.955 132.991C739.033 132.966 739.15 132.929 739.305 132.88C739.614 132.781 740.076 132.635 740.685 132.442C741.903 132.057 743.709 131.487 746.059 130.752L745.164 127.889ZM738.382 131.6C739.037 130.251 739.037 130.251 739.037 130.251C739.037 130.251 739.037 130.251 739.037 130.251C739.037 130.251 739.037 130.25 739.037 130.25C739.036 130.25 739.036 130.25 739.035 130.25C739.034 130.249 739.032 130.248 739.03 130.247C739.025 130.245 739.018 130.241 739.008 130.237C738.99 130.228 738.962 130.214 738.925 130.197C738.852 130.161 738.744 130.109 738.601 130.041C738.314 129.904 737.888 129.701 737.327 129.438C736.207 128.912 734.549 128.143 732.395 127.169L731.159 129.902C733.299 130.87 734.944 131.633 736.052 132.153C736.606 132.414 737.026 132.613 737.307 132.747C737.447 132.814 737.553 132.865 737.623 132.899C737.658 132.916 737.684 132.929 737.701 132.937C737.71 132.941 737.716 132.944 737.72 132.946C737.723 132.947 737.724 132.948 737.725 132.948C737.725 132.949 737.726 132.949 737.726 132.949C737.726 132.949 737.726 132.949 737.726 132.949C737.726 132.949 737.726 132.949 737.726 132.949C737.726 132.949 737.726 132.949 738.382 131.6ZM718.789 121.237C714.738 119.529 710.142 117.638 705.058 115.617L703.95 118.405C709.013 120.418 713.59 122.301 717.623 124.002L718.789 121.237ZM691.196 110.264C686.794 108.612 682.145 106.914 677.272 105.191L676.272 108.019C681.126 109.736 685.757 111.428 690.142 113.073L691.196 110.264ZM663.23 100.375C658.678 98.8621 653.977 97.347 649.141 95.8441L648.251 98.7089C653.067 100.206 657.75 101.715 662.284 103.222L663.23 100.375ZM634.927 91.5824C630.253 90.2328 625.478 88.9054 620.614 87.6117L619.843 90.5108C624.685 91.7989 629.44 93.1207 634.094 94.4647L634.927 91.5824ZM606.251 83.9597C601.501 82.8086 596.683 81.6975 591.807 80.6362L591.169 83.5676C596.021 84.6237 600.817 85.7294 605.544 86.8753L606.251 83.9597ZM577.277 77.662C572.45 76.7374 567.577 75.8686 562.669 75.0643L562.184 78.0249C567.064 78.8246 571.91 79.6887 576.713 80.6084L577.277 77.662ZM547.99 72.8738C543.099 72.2169 538.182 71.631 533.249 71.1248L532.942 74.1091C537.843 74.612 542.729 75.1941 547.59 75.8471L547.99 72.8738ZM518.456 69.8566C513.517 69.5186 508.57 69.2681 503.625 69.1133L503.531 72.1118C508.438 72.2654 513.347 72.5141 518.251 72.8496L518.456 69.8566ZM488.773 68.945C483.808 68.9908 478.853 69.1422 473.917 69.4077L474.079 72.4034C478.968 72.1404 483.878 71.9903 488.801 71.9448L488.773 68.945ZM459.093 70.5639C454.144 71.074 449.223 71.7101 444.341 72.4811L444.809 75.4444C449.635 74.6822 454.502 74.0529 459.401 73.5481L459.093 70.5639ZM429.715 75.2309C427.291 75.7628 424.878 76.3316 422.479 76.9384L423.215 79.8468C425.582 79.248 427.964 78.6865 430.358 78.1612L429.715 75.2309ZM422.479 76.9384C420.081 77.5451 417.699 78.1019 415.333 78.6108L415.964 81.5437C418.365 81.0273 420.782 80.4623 423.215 79.8468L422.479 76.9384ZM401.019 81.1468C396.132 81.8274 391.317 82.3085 386.572 82.6077L386.76 85.6017C391.58 85.2978 396.471 84.8092 401.433 84.1181L401.019 81.1468ZM372.011 82.9712C367.087 82.9075 362.24 82.6566 357.469 82.2399L357.208 85.2285C362.051 85.6515 366.972 85.9063 371.972 85.971L372.011 82.9712ZM343.033 80.4588C338.186 79.6883 333.419 78.7594 328.73 77.6965L328.067 80.6223C332.816 81.6987 337.647 82.6403 342.562 83.4216L343.033 80.4588ZM314.61 74.0488C309.9 72.6866 305.271 71.207 300.721 69.6378L299.743 72.4739C304.336 74.058 309.013 75.5532 313.777 76.9307L314.61 74.0488ZM287.005 64.5701C282.421 62.7703 277.921 60.9039 273.503 59.0026L272.317 61.7583C276.76 63.6701 281.29 65.5491 285.909 67.3625L287.005 64.5701ZM260.111 53.0542C255.597 50.9966 251.173 48.9374 246.832 46.913L245.564 49.6319C249.905 51.6564 254.339 53.7204 258.866 55.7839L260.111 53.0542ZM233.49 40.7249C228.912 38.6294 224.43 36.6239 220.04 34.761L218.868 37.5226C223.222 39.3706 227.678 41.3636 232.242 43.4527L233.49 40.7249ZM206.325 29.3544C201.495 27.6261 196.774 26.156 192.158 25.0258L191.444 27.9397C195.938 29.0399 200.558 30.4771 205.314 32.179L206.325 29.3544ZM177.435 22.647C172.317 22.3059 167.326 22.5456 162.458 23.5006L163.035 26.4444C167.613 25.5464 172.341 25.3141 177.235 25.6404L177.435 22.647ZM148.287 28.6116C146.135 29.7816 144.014 31.133 141.925 32.6769L143.708 35.0896C145.69 33.6253 147.693 32.349 149.72 31.2474L148.287 28.6116ZM141.925 32.6769C140.013 34.09 138.047 35.5318 136.034 37.002L137.804 39.4247C139.82 37.9523 141.79 36.507 143.708 35.0896L141.925 32.6769ZM124.205 45.6041C120.362 48.3969 116.41 51.2756 112.386 54.2364L114.165 56.6526C118.18 53.6973 122.127 50.8227 125.969 48.031L124.205 45.6041ZM100.63 62.9929C96.773 65.9064 92.8845 68.8896 88.9953 71.9402L90.8467 74.3007C94.7194 71.2631 98.5932 68.2911 102.438 65.3868L100.63 62.9929ZM77.5542 81.1275C73.7841 84.2327 70.0412 87.4002 66.3538 90.6279L68.3298 92.8852C71.9921 89.6795 75.712 86.5314 79.4615 83.4431L77.5542 81.1275ZM55.4734 100.502C51.8858 103.885 48.3833 107.328 44.9954 110.829L47.1513 112.916C50.5044 109.451 53.974 106.039 57.5317 102.684L55.4734 100.502ZM35.0463 121.686C31.7959 125.448 28.7008 129.271 25.7948 133.153L28.1963 134.951C31.0565 131.13 34.1071 127.362 37.3163 123.648L35.0463 121.686ZM17.4512 145.334C14.8088 149.594 12.4187 153.919 10.3222 158.307L13.0291 159.6C15.074 155.32 17.4103 151.091 20.0005 146.915L17.4512 145.334ZM4.81866 172.078C3.29415 176.834 2.14291 181.656 1.41402 186.541L4.38117 186.984C5.08449 182.27 6.19696 177.606 7.67548 172.993L4.81866 172.078ZM0.544121 201.395C0.705815 206.268 1.31454 211.191 2.41299 216.159L5.34223 215.511C4.2838 210.724 3.69807 205.985 3.54247 201.295L0.544121 201.395ZM6.87454 230.357C7.79655 232.614 8.82417 234.879 9.96099 237.15L12.6437 235.807C11.5403 233.603 10.5443 231.408 9.6518 229.222L6.87454 230.357ZM9.96099 237.15C11.1623 239.55 12.3525 241.929 13.5312 244.286L16.2142 242.943C15.0355 240.587 13.8452 238.208 12.6437 235.807L9.96099 237.15ZM20.6639 258.553C23.096 263.421 25.4717 268.179 27.7876 272.819L30.4719 271.479C28.1558 266.839 25.7799 262.081 23.3476 257.212L20.6639 258.553ZM34.9025 287.084C37.3508 291.995 39.7199 296.751 42.0052 301.34L44.6908 300.003C42.4052 295.413 40.0359 290.657 37.5874 285.745L34.9025 287.084ZM49.1164 315.631C51.607 320.639 53.9726 325.399 56.2055 329.895L58.8923 328.56C56.6592 324.064 54.2934 319.304 51.8025 314.295L49.1164 315.631ZM63.2961 344.18C65.9307 349.492 68.2995 354.272 70.3826 358.478L73.071 357.147C70.9876 352.94 68.6186 348.16 65.9837 342.847L63.2961 344.18ZM77.4538 372.77C78.603 375.095 79.4808 376.873 80.0713 378.069C80.3665 378.667 80.5899 379.12 80.7395 379.423C80.8143 379.575 80.8706 379.689 80.9082 379.765C80.927 379.804 80.9412 379.832 80.9506 379.851C80.9553 379.861 80.9589 379.868 80.9612 379.873C80.9624 379.875 80.9633 379.877 80.9639 379.878C80.9642 379.879 80.9644 379.879 80.9645 379.88C80.9646 379.88 80.9647 379.88 80.9647 379.88C80.9647 379.88 80.9647 379.88 80.9647 379.88C80.9648 379.88 80.9648 379.88 82.3101 379.217C83.6555 378.553 83.6555 378.553 83.6555 378.553C83.6555 378.553 83.6555 378.553 83.6554 378.553C83.6554 378.553 83.6553 378.553 83.6553 378.553C83.6551 378.553 83.6549 378.552 83.6546 378.552C83.654 378.55 83.6531 378.549 83.6519 378.546C83.6496 378.541 83.646 378.534 83.6413 378.525C83.6318 378.505 83.6177 378.477 83.5988 378.438C83.5611 378.362 83.5047 378.248 83.4299 378.096C83.2802 377.793 83.0567 377.34 82.7614 376.741C82.1707 375.545 81.2927 373.767 80.1433 371.441L77.4538 372.77ZM82.3101 379.217C80.9609 378.561 80.9608 378.561 80.9607 378.562C80.9607 378.562 80.9606 378.562 80.9605 378.562C80.9603 378.562 80.9601 378.563 80.9599 378.563C80.9596 378.564 80.9591 378.565 80.9586 378.566C80.9575 378.568 80.9562 378.571 80.9545 378.574C80.9513 378.581 80.947 378.59 80.9417 378.601C80.9309 378.624 80.916 378.656 80.8971 378.697C80.8593 378.778 80.8056 378.897 80.7381 379.05C80.6031 379.358 80.4126 379.809 80.1827 380.398C79.7229 381.576 79.1053 383.308 78.4582 385.554L81.341 386.384C81.9611 384.232 82.5487 382.587 82.9774 381.489C83.1917 380.939 83.3663 380.527 83.4852 380.256C83.5447 380.12 83.5903 380.02 83.62 379.956C83.6348 379.924 83.6457 379.901 83.6523 379.887C83.6556 379.88 83.6579 379.875 83.6591 379.873C83.6597 379.871 83.66 379.871 83.66 379.871C83.6601 379.871 83.66 379.871 83.6599 379.871C83.6598 379.871 83.6598 379.871 83.6597 379.871C83.6596 379.872 83.6595 379.872 83.6595 379.872C83.6594 379.872 83.6593 379.872 82.3101 379.217ZM75.6705 399.96C75.1943 404.267 74.944 409.163 75.1092 414.588L78.1078 414.497C77.9471 409.219 78.1909 404.464 78.6523 400.29L75.6705 399.96ZM76.4906 429.18C77.2005 433.689 78.2069 438.447 79.58 443.432L82.4723 442.635C81.1293 437.76 80.1466 433.112 79.454 428.713L76.4906 429.18ZM84.1747 457.285C85.8437 461.59 87.7881 466.029 90.0439 470.589L92.7329 469.258C90.5163 464.778 88.6081 460.422 86.9719 456.2L84.1747 457.285ZM97.0084 483.341C99.3985 487.34 102.03 491.417 104.924 495.565L107.384 493.849C104.53 489.757 101.937 485.739 99.5835 481.802L97.0084 483.341ZM113.608 507.211C116.505 510.858 119.607 514.554 122.927 518.293L125.17 516.302C121.886 512.602 118.819 508.949 115.957 505.345L113.608 507.211ZM132.824 528.895C136.103 532.243 139.559 535.622 143.202 539.029L145.251 536.838C141.64 533.46 138.215 530.112 134.967 526.796L132.824 528.895ZM153.982 548.717C157.535 551.788 161.241 554.879 165.106 557.989L166.987 555.651C163.148 552.563 159.47 549.495 155.944 546.447L153.982 548.717ZM176.528 566.877C178.462 568.333 180.432 569.794 182.437 571.257L184.205 568.834C182.212 567.379 180.255 565.928 178.333 564.481L176.528 566.877ZM182.437 571.257C184.618 572.849 186.778 574.418 188.916 575.963L190.674 573.532C188.539 571.989 186.383 570.423 184.205 568.834L182.437 571.257ZM201.776 585.173C206.191 588.304 210.507 591.332 214.725 594.26L216.435 591.795C212.226 588.873 207.918 585.851 203.511 582.726L201.776 585.173ZM227.764 603.206C232.258 606.254 236.632 609.18 240.888 611.991L242.541 609.487C238.296 606.684 233.932 603.764 229.447 600.723L227.764 603.206ZM254.131 620.61C258.763 623.581 263.241 626.402 267.567 629.083L269.147 626.533C264.835 623.861 260.37 621.047 255.75 618.085L254.131 620.61ZM281.048 637.279C285.833 640.13 290.406 642.791 294.775 645.275L296.258 642.667C291.907 640.194 287.351 637.543 282.584 634.702L281.048 637.279ZM308.63 652.938C313.641 655.627 318.327 658.05 322.703 660.233L324.043 657.548C319.694 655.38 315.034 652.97 310.049 650.294L308.63 652.938ZM336.988 667.032C342.532 669.534 347.395 671.555 351.623 673.188L352.704 670.389C348.531 668.777 343.718 666.778 338.222 664.298L336.988 667.032ZM366.744 678.287C369.433 679.029 371.4 679.455 372.708 679.697C373.361 679.818 373.85 679.892 374.183 679.937C374.349 679.96 374.475 679.975 374.564 679.985C374.608 679.99 374.643 679.993 374.668 679.996C374.681 679.997 374.691 679.998 374.699 679.999C374.703 679.999 374.706 679.999 374.709 680C374.711 680 374.712 680 374.713 680C374.714 680 374.714 680 374.715 680C374.715 680 374.715 680 374.715 680C374.716 680 374.716 680 374.842 678.506C374.968 677.011 374.968 677.011 374.969 677.011C374.969 677.011 374.969 677.011 374.969 677.011C374.97 677.011 374.97 677.011 374.97 677.011C374.971 677.011 374.971 677.011 374.971 677.011C374.972 677.011 374.972 677.011 374.971 677.011C374.969 677.011 374.966 677.011 374.959 677.01C374.947 677.009 374.925 677.007 374.893 677.003C374.83 676.996 374.728 676.984 374.587 676.965C374.303 676.926 373.861 676.859 373.253 676.747C372.036 676.522 370.153 676.116 367.541 675.395L366.744 678.287ZM374.842 678.506C375.422 679.889 375.422 679.889 375.422 679.889C375.422 679.889 375.422 679.889 375.422 679.889C375.422 679.889 375.422 679.889 375.422 679.889C375.422 679.889 375.422 679.889 375.423 679.889C375.424 679.888 375.425 679.888 375.427 679.887C375.432 679.885 375.438 679.882 375.447 679.878C375.466 679.871 375.493 679.859 375.53 679.844C375.605 679.813 375.717 679.767 375.866 679.706C376.165 679.584 376.614 679.401 377.209 679.164C378.4 678.69 380.175 677.995 382.507 677.115L381.448 674.308C379.098 675.195 377.306 675.896 376.099 676.377C375.495 676.618 375.038 676.803 374.731 676.929C374.577 676.992 374.461 677.04 374.383 677.072C374.344 677.088 374.314 677.101 374.294 677.109C374.284 677.113 374.276 677.116 374.271 677.118C374.268 677.12 374.266 677.12 374.265 677.121C374.264 677.121 374.264 677.122 374.263 677.122C374.263 677.122 374.263 677.122 374.263 677.122C374.263 677.122 374.263 677.122 374.263 677.122C374.262 677.122 374.262 677.122 374.842 678.506ZM397.062 671.898C401.376 670.421 406.295 668.793 411.783 667.059L410.879 664.198C405.368 665.94 400.426 667.576 396.091 669.06L397.062 671.898ZM426.611 662.548C431.305 661.173 436.289 659.762 441.548 658.333L440.762 655.438C435.483 656.872 430.48 658.288 425.767 659.669L426.611 662.548ZM456.543 654.411C461.37 653.197 466.382 651.981 471.571 650.776L470.892 647.854C465.685 649.063 460.656 650.283 455.811 651.502L456.543 654.411ZM486.698 647.407C491.63 646.354 496.696 645.318 501.892 644.306L501.318 641.361C496.105 642.377 491.021 643.417 486.072 644.473L486.698 647.407ZM517.138 641.476C522.131 640.594 527.228 639.74 532.425 638.917L531.956 635.954C526.742 636.779 521.627 637.637 516.616 638.521L517.138 641.476ZM547.749 636.632C552.788 635.926 557.908 635.254 563.108 634.62L562.745 631.642C557.527 632.278 552.389 632.953 547.333 633.661L547.749 636.632ZM578.499 632.885C583.572 632.359 588.714 631.873 593.919 631.429L593.664 628.44C588.44 628.885 583.281 629.374 578.19 629.901L578.499 632.885ZM609.367 630.255C614.469 629.914 619.628 629.617 624.839 629.366L624.695 626.37C619.465 626.621 614.288 626.919 609.167 627.261L609.367 630.255ZM640.332 628.768C645.456 628.619 650.627 628.516 655.842 628.464L655.812 625.465C650.578 625.517 645.388 625.62 640.245 625.769L640.332 628.768ZM671.329 628.46C676.447 628.508 681.604 628.606 686.798 628.757L686.885 625.758C681.671 625.607 676.495 625.508 671.358 625.46L671.329 628.46ZM702.27 629.361C707.395 629.612 712.552 629.917 717.74 630.277L717.948 627.284C712.739 626.922 707.562 626.617 702.417 626.365L702.27 629.361ZM733.202 631.509C738.311 631.969 743.447 632.485 748.607 633.058L748.938 630.077C743.757 629.501 738.601 628.983 733.471 628.521L733.202 631.509ZM763.965 634.929C766.528 635.269 769.098 635.623 771.672 635.992L772.098 633.023C769.513 632.652 766.933 632.296 764.359 631.955L763.965 634.929ZM771.672 635.992C774.191 636.354 776.702 636.723 779.203 637.101L779.651 634.134C777.142 633.756 774.624 633.385 772.098 633.023L771.672 635.992ZM794.148 639.465C799.162 640.295 804.139 641.156 809.079 642.045L809.611 639.093C804.657 638.201 799.666 637.338 794.638 636.505L794.148 639.465ZM823.992 644.839C828.986 645.81 833.938 646.81 838.848 647.835L839.461 644.899C834.538 643.87 829.572 642.868 824.565 641.894L823.992 644.839ZM853.644 651.032C858.603 652.139 863.516 653.271 868.382 654.426L869.075 651.507C864.196 650.349 859.27 649.214 854.297 648.104L853.644 651.032ZM883.129 658.032C888.078 659.276 892.974 660.544 897.815 661.83L898.585 658.931C893.731 657.641 888.823 656.37 883.861 655.122L883.129 658.032ZM912.438 665.819C917.353 667.195 922.207 668.588 926.999 669.997L927.845 667.119C923.041 665.706 918.174 664.309 913.247 662.93L912.438 665.819ZM941.498 674.362C946.381 675.867 951.194 677.385 955.935 678.913L956.855 676.057C952.102 674.525 947.277 673.003 942.381 671.495L941.498 674.362ZM970.311 683.649C975.171 685.284 979.947 686.927 984.637 688.573L985.63 685.742C980.929 684.092 976.14 682.445 971.268 680.805L970.311 683.649ZM998.906 693.684C1003.74 695.451 1008.47 697.216 1013.1 698.976L1014.16 696.172C1009.53 694.408 1004.78 692.638 999.936 690.866L998.906 693.684ZM1027.24 704.458C1032.06 706.365 1036.76 708.259 1041.32 710.132L1042.46 707.357C1037.89 705.479 1033.18 703.58 1028.34 701.669L1027.24 704.458ZM1055.32 715.994C1060.13 718.045 1064.77 720.062 1069.22 722.036L1070.44 719.293C1065.97 717.314 1061.32 715.291 1056.5 713.234L1055.32 715.994ZM1082.97 728.241C1087.84 730.48 1092.44 732.643 1096.76 734.713L1098.05 732.007C1093.72 729.931 1089.1 727.761 1084.22 725.516L1082.97 728.241ZM1110.34 741.348C1115.38 743.867 1119.89 746.179 1123.84 748.242L1125.23 745.584C1121.27 743.512 1116.74 741.191 1111.68 738.664L1110.34 741.348ZM1137.16 755.4C1139.3 756.591 1140.93 757.516 1142.02 758.143C1142.57 758.456 1142.98 758.695 1143.25 758.855C1143.39 758.935 1143.49 758.995 1143.56 759.035C1143.59 759.055 1143.62 759.07 1143.64 759.08C1143.64 759.085 1143.65 759.088 1143.65 759.091C1143.66 759.092 1143.66 759.093 1143.66 759.093C1143.66 759.094 1143.66 759.094 1143.66 759.094C1143.66 759.094 1143.66 759.094 1143.66 759.094C1143.66 759.094 1143.66 759.094 1143.66 759.094C1143.66 759.094 1143.66 759.094 1144.43 757.804C1145.19 756.515 1145.19 756.515 1145.19 756.515C1145.19 756.515 1145.19 756.515 1145.19 756.515C1145.19 756.515 1145.19 756.515 1145.19 756.514C1145.19 756.514 1145.19 756.514 1145.19 756.514C1145.19 756.513 1145.19 756.512 1145.18 756.51C1145.18 756.507 1145.17 756.503 1145.16 756.498C1145.15 756.487 1145.12 756.471 1145.08 756.45C1145.01 756.409 1144.91 756.347 1144.77 756.265C1144.49 756.101 1144.07 755.859 1143.52 755.542C1142.42 754.908 1140.77 753.975 1138.61 752.777L1137.16 755.4ZM1144.43 757.804C1144.22 759.29 1144.22 759.29 1144.22 759.29C1144.22 759.29 1144.22 759.29 1144.22 759.29C1144.22 759.29 1144.22 759.29 1144.22 759.29C1144.22 759.29 1144.22 759.29 1144.22 759.29C1144.22 759.29 1144.22 759.29 1144.22 759.291C1144.23 759.291 1144.24 759.293 1144.25 759.294C1144.27 759.297 1144.3 759.301 1144.34 759.306C1144.41 759.317 1144.53 759.333 1144.68 759.354C1144.99 759.396 1145.45 759.457 1146.04 759.534C1147.24 759.689 1148.99 759.909 1151.26 760.171L1151.6 757.191C1149.35 756.931 1147.61 756.712 1146.43 756.559C1145.84 756.483 1145.39 756.423 1145.09 756.382C1144.94 756.361 1144.82 756.345 1144.75 756.335C1144.71 756.33 1144.68 756.326 1144.66 756.323C1144.65 756.322 1144.65 756.321 1144.64 756.32C1144.64 756.32 1144.64 756.32 1144.64 756.319C1144.64 756.319 1144.64 756.319 1144.64 756.319C1144.64 756.319 1144.64 756.319 1144.64 756.319C1144.64 756.319 1144.64 756.319 1144.64 756.319C1144.64 756.319 1144.64 756.319 1144.43 757.804ZM1165.52 761.642C1169.78 762.031 1174.59 762.428 1179.84 762.798L1180.05 759.805C1174.82 759.437 1170.04 759.042 1165.8 758.654L1165.52 761.642ZM1194.13 763.657C1198.7 763.886 1203.5 764.08 1208.47 764.225L1208.56 761.226C1203.61 761.082 1198.83 760.889 1194.28 760.661L1194.13 763.657ZM1222.8 764.485C1227.48 764.517 1232.27 764.499 1237.14 764.418L1237.09 761.418C1232.25 761.499 1227.48 761.517 1222.83 761.485L1222.8 764.485ZM1251.48 763.996C1256.21 763.794 1261 763.525 1265.81 763.181L1265.59 760.189C1260.82 760.531 1256.06 760.798 1251.35 760.998L1251.48 763.996ZM1280.1 761.93C1284.86 761.434 1289.62 760.854 1294.35 760.182L1293.93 757.212C1289.24 757.878 1284.51 758.453 1279.79 758.946L1280.1 761.93ZM1308.53 757.864C1313.28 756.978 1317.98 755.986 1322.6 754.878L1321.9 751.961C1317.33 753.056 1312.68 754.037 1307.98 754.914L1308.53 757.864ZM1336.47 751.113C1341.14 749.686 1345.7 748.118 1350.11 746.397L1349.02 743.602C1344.68 745.293 1340.2 746.837 1335.59 748.245L1336.47 751.113ZM1363.29 740.561C1367.69 738.351 1371.89 735.947 1375.85 733.335L1374.19 730.832C1370.34 733.372 1366.25 735.717 1361.94 737.88L1363.29 740.561ZM1387.34 724.514C1389.16 722.886 1390.9 721.195 1392.55 719.438L1390.36 717.384C1388.77 719.076 1387.1 720.708 1385.34 722.28L1387.34 724.514ZM1392.55 719.438C1394.26 717.614 1395.93 715.79 1397.57 713.964L1395.33 711.962C1393.71 713.77 1392.06 715.578 1390.36 717.384L1392.55 719.438ZM1407.14 702.757C1410.32 698.847 1413.33 694.941 1416.18 691.048L1413.76 689.275C1410.94 693.128 1407.96 696.994 1404.81 700.865L1407.14 702.757ZM1424.61 678.912C1427.37 674.698 1429.96 670.509 1432.38 666.353L1429.78 664.844C1427.39 668.954 1424.83 673.097 1422.1 677.266L1424.61 678.912ZM1439.46 653.379C1441.77 648.869 1443.88 644.413 1445.82 640.025L1443.07 638.813C1441.16 643.151 1439.07 647.555 1436.79 652.014L1439.46 653.379ZM1451.39 626.354C1453.18 621.585 1454.76 616.92 1456.17 612.378L1453.3 611.492C1451.91 615.979 1450.35 620.589 1448.58 625.302L1451.39 626.354ZM1460.11 598.126C1461.34 593.084 1462.35 588.244 1463.18 583.637L1460.23 583.107C1459.41 587.655 1458.41 592.434 1457.19 597.414L1460.11 598.126ZM1465.33 568.986C1465.94 563.553 1466.3 558.606 1466.49 554.224L1463.49 554.096C1463.31 558.412 1462.95 563.288 1462.35 568.648L1465.33 568.986ZM1466.52 539.402C1466.41 537.022 1466.27 535.178 1466.16 533.923C1466.1 533.296 1466.05 532.816 1466.01 532.49C1465.99 532.327 1465.98 532.203 1465.96 532.118C1465.96 532.076 1465.95 532.043 1465.95 532.02C1465.95 532.009 1465.95 532 1465.95 531.994C1465.95 531.991 1465.95 531.988 1465.95 531.986C1465.95 531.985 1465.95 531.985 1465.95 531.984C1465.95 531.984 1465.95 531.983 1465.95 531.983C1465.95 531.983 1465.95 531.983 1465.95 531.983C1465.95 531.983 1465.95 531.982 1464.46 532.187C1462.97 532.391 1462.97 532.391 1462.97 532.391C1462.97 532.391 1462.97 532.39 1462.97 532.39C1462.97 532.39 1462.97 532.39 1462.97 532.39C1462.97 532.39 1462.97 532.39 1462.97 532.391C1462.97 532.391 1462.97 532.393 1462.98 532.394C1462.98 532.398 1462.98 532.404 1462.98 532.413C1462.98 532.43 1462.98 532.458 1462.99 532.495C1463 532.569 1463.01 532.682 1463.03 532.834C1463.06 533.138 1463.11 533.595 1463.17 534.2C1463.28 535.408 1463.42 537.204 1463.52 539.532L1466.52 539.402ZM1464.46 532.187C1465.03 533.576 1465.03 533.576 1465.03 533.576C1465.03 533.576 1465.03 533.576 1465.03 533.576C1465.03 533.576 1465.03 533.576 1465.03 533.576C1465.03 533.575 1465.03 533.575 1465.03 533.574C1465.03 533.573 1465.03 533.572 1465.04 533.571C1465.04 533.568 1465.05 533.565 1465.06 533.56C1465.09 533.551 1465.12 533.538 1465.15 533.522C1465.23 533.489 1465.34 533.44 1465.49 533.375C1465.78 533.244 1466.2 533.047 1466.75 532.774C1467.85 532.229 1469.45 531.38 1471.51 530.155L1469.97 527.578C1467.99 528.764 1466.45 529.575 1465.42 530.087C1464.9 530.343 1464.51 530.524 1464.26 530.639C1464.13 530.697 1464.04 530.738 1463.97 530.764C1463.94 530.777 1463.92 530.786 1463.91 530.791C1463.9 530.794 1463.9 530.796 1463.9 530.797C1463.9 530.797 1463.89 530.798 1463.89 530.798C1463.89 530.798 1463.89 530.798 1463.89 530.797C1463.9 530.797 1463.9 530.797 1463.9 530.797C1463.9 530.797 1463.9 530.797 1463.9 530.797C1463.9 530.797 1463.9 530.797 1464.46 532.187ZM1483.44 521.983C1486.77 519.437 1490.47 516.389 1494.51 512.76L1492.5 510.53C1488.53 514.106 1484.88 517.103 1481.62 519.601L1483.44 521.983ZM1504.84 502.835C1507.97 499.643 1511.23 496.143 1514.61 492.311L1512.36 490.327C1509.02 494.121 1505.79 497.581 1502.7 500.735L1504.84 502.835ZM1523.85 481.316C1526.71 477.751 1529.63 473.957 1532.61 469.921L1530.19 468.14C1527.24 472.144 1524.34 475.906 1521.51 479.439L1523.85 481.316ZM1540.88 458.266C1543.48 454.457 1546.11 450.464 1548.77 446.281L1546.24 444.671C1543.6 448.827 1540.98 452.792 1538.4 456.574L1540.88 458.266ZM1556.28 434.061C1558.65 430.088 1561.03 425.963 1563.41 421.681L1560.8 420.219C1558.42 424.478 1556.05 428.579 1553.71 432.528L1556.28 434.061ZM1570.23 409.099C1572.39 404.981 1574.56 400.732 1576.74 396.348L1574.05 395.015C1571.88 399.378 1569.72 403.607 1567.57 407.704L1570.23 409.099ZM1582.95 383.454C1584.93 379.231 1586.92 374.892 1588.9 370.437L1586.15 369.218C1584.18 373.656 1582.21 377.975 1580.24 382.18L1582.95 383.454ZM1594.58 357.307C1595.51 355.107 1596.44 352.88 1597.36 350.625L1594.59 349.485C1593.66 351.731 1592.74 353.949 1591.82 356.142L1594.58 357.307ZM1597.36 350.625C1598.34 348.246 1599.28 345.872 1600.19 343.501L1597.39 342.429C1596.49 344.776 1595.56 347.129 1594.59 349.485L1597.36 350.625ZM1605.28 329.157C1606.88 324.272 1608.34 319.411 1609.66 314.577L1606.76 313.786C1605.45 318.573 1604.01 323.386 1602.43 328.223L1605.28 329.157ZM1613.3 299.797C1614.41 294.78 1615.37 289.798 1616.2 284.854L1613.25 284.356C1612.42 289.251 1611.47 294.184 1610.37 299.152L1613.3 299.797ZM1618.36 269.789C1618.96 264.689 1619.42 259.638 1619.77 254.641L1616.77 254.436C1616.44 259.386 1615.97 264.388 1615.38 269.438L1618.36 269.789ZM1620.44 239.451C1620.54 234.302 1620.52 229.22 1620.38 224.209L1617.38 224.291C1617.52 229.256 1617.54 234.291 1617.44 239.391L1620.44 239.451ZM1619.61 208.994C1619.23 203.855 1618.73 198.803 1618.14 193.846L1615.16 194.202C1615.75 199.116 1616.24 204.122 1616.61 209.215L1619.61 208.994ZM1616 178.807C1615.16 173.691 1614.22 168.694 1613.21 163.822L1610.27 164.436C1611.28 169.266 1612.21 174.222 1613.04 179.293L1616 178.807ZM1609.78 148.996C1608.5 143.942 1607.15 139.051 1605.75 134.338L1602.87 135.193C1604.26 139.869 1605.6 144.719 1606.87 149.732L1609.78 148.996ZM1601.11 119.84C1599.38 114.808 1597.63 110.032 1595.88 105.53L1593.08 106.617C1594.82 111.082 1596.56 115.82 1598.27 120.812L1601.11 119.84ZM1590.07 91.4622C1587.82 86.3259 1585.66 81.7116 1583.67 77.6634L1580.97 78.9878C1582.95 82.9982 1585.09 87.572 1587.32 92.6651L1590.07 91.4622ZM1576.61 64.2024C1575.41 62.0647 1574.44 60.4273 1573.78 59.3214C1573.44 58.7685 1573.18 58.3485 1573.01 58.0653C1572.92 57.9237 1572.85 57.8163 1572.81 57.7436C1572.78 57.7072 1572.77 57.6795 1572.75 57.6606C1572.75 57.6511 1572.74 57.6438 1572.74 57.6387C1572.74 57.6362 1572.74 57.6342 1572.74 57.6327C1572.74 57.632 1572.74 57.6314 1572.74 57.631C1572.74 57.6307 1572.73 57.6305 1572.73 57.6304C1572.73 57.6303 1572.73 57.6302 1572.73 57.6302C1572.73 57.6301 1572.73 57.63 1571.47 58.4403C1570.21 59.2506 1570.21 59.2505 1570.21 59.2505C1570.21 59.2505 1570.21 59.2504 1570.21 59.2504C1570.21 59.2504 1570.21 59.2504 1570.21 59.2504C1570.21 59.2505 1570.21 59.2508 1570.21 59.2512C1570.21 59.2519 1570.21 59.2532 1570.21 59.255C1570.22 59.2587 1570.22 59.2646 1570.22 59.2726C1570.23 59.2887 1570.25 59.3135 1570.27 59.3469C1570.31 59.4138 1570.38 59.5153 1570.46 59.6509C1570.63 59.9222 1570.88 60.3299 1571.21 60.8702C1571.86 61.9508 1572.81 63.5616 1573.99 65.671L1576.61 64.2024Z" fill="#396FA1"/>
<path id="Vector 7" d="M1540.5 89.3391L1542.55 87.9088L1541.93 87.0137L1540.85 86.8631L1540.5 89.3391ZM742.959 153.787L741.939 156.069L742.78 156.446L743.665 156.185L742.959 153.787ZM114.883 371.918L117.094 373.085L117.715 371.909L117.087 370.737L114.883 371.918ZM394.932 635.567L394.739 638.06L395.303 638.103L395.831 637.9L394.932 635.567ZM1131.68 705.423L1130.48 707.617L1130.89 707.841L1131.35 707.902L1131.68 705.423ZM1438.06 506.672L1437.18 504.33L1435.28 505.039L1435.58 507.041L1438.06 506.672ZM1368.16 670.72L1369.91 672.506L1368.16 670.72ZM1540.5 89.3391C1540.85 86.8631 1540.84 86.8629 1540.84 86.8626C1540.84 86.8624 1540.84 86.862 1540.83 86.8614C1540.83 86.8603 1540.81 86.8587 1540.8 86.8566C1540.77 86.8524 1540.72 86.8461 1540.66 86.8378C1540.54 86.8212 1540.36 86.7965 1540.13 86.764C1539.65 86.699 1538.95 86.6029 1538.02 86.4781C1536.17 86.2286 1533.44 85.8646 1529.91 85.4059C1522.86 84.4886 1512.61 83.1928 1499.84 81.6779C1474.31 78.6484 1438.69 74.7423 1398.36 71.2361C1317.74 64.2275 1218.1 58.8013 1142.48 65.2153L1142.9 70.1974C1218.07 63.822 1317.34 69.2121 1397.93 76.2173C1438.2 79.718 1473.76 83.6181 1499.25 86.6431C1512 88.1555 1522.23 89.449 1529.27 90.3642C1532.79 90.8218 1535.51 91.1848 1537.36 91.4333C1538.28 91.5575 1538.98 91.6531 1539.45 91.7176C1539.68 91.7498 1539.86 91.7743 1539.98 91.7907C1540.04 91.7989 1540.08 91.805 1540.11 91.8091C1540.13 91.8112 1540.14 91.8127 1540.14 91.8137C1540.15 91.8143 1540.15 91.8146 1540.15 91.8149C1540.15 91.8151 1540.16 91.8152 1540.5 89.3391ZM1142.48 65.2153C1066.87 71.6278 966.774 93.1902 885.678 113.115C845.11 123.082 809.258 132.649 783.548 139.725C770.692 143.263 760.371 146.178 753.263 148.209C749.709 149.224 746.958 150.019 745.095 150.56C744.163 150.83 743.453 151.037 742.976 151.177C742.738 151.246 742.557 151.299 742.436 151.335C742.376 151.353 742.33 151.366 742.3 151.375C742.284 151.379 742.273 151.383 742.265 151.385C742.261 151.386 742.258 151.387 742.256 151.388C742.254 151.388 742.253 151.389 742.959 153.787C743.665 156.185 743.666 156.185 743.668 156.184C743.67 156.184 743.672 156.183 743.676 156.182C743.683 156.18 743.695 156.176 743.71 156.172C743.739 156.163 743.784 156.15 743.844 156.133C743.963 156.097 744.142 156.045 744.379 155.976C744.854 155.837 745.56 155.631 746.488 155.362C748.345 154.823 751.09 154.03 754.637 153.016C761.731 150.989 772.036 148.079 784.874 144.546C810.551 137.479 846.357 127.924 886.871 117.97C967.941 98.0522 1067.71 76.5744 1142.9 70.1974L1142.48 65.2153ZM171.402 65.6391C142.587 85.2341 100.63 111.34 71.078 141.921C56.2826 157.231 44.4134 173.839 38.8796 191.522C33.3152 209.302 34.2 228.049 44.7092 247.371L49.1016 244.982C39.2654 226.898 38.4747 209.557 43.6514 193.015C48.8589 176.375 60.1476 160.427 74.6735 145.395C103.764 115.292 145.104 89.5689 174.214 69.7736L171.402 65.6391ZM44.7092 247.371C65.053 284.775 82.046 316.207 93.9529 338.289C99.9063 349.329 104.588 358.032 107.782 363.975C109.378 366.946 110.603 369.227 111.428 370.765C111.841 371.534 112.154 372.118 112.364 372.509C112.468 372.704 112.547 372.852 112.6 372.95C112.627 372.999 112.646 373.037 112.66 373.061C112.666 373.074 112.671 373.083 112.675 373.089C112.676 373.092 112.677 373.094 112.678 373.096C112.679 373.097 112.679 373.097 112.679 373.098C112.679 373.098 112.68 373.098 114.883 371.918C117.087 370.737 117.087 370.737 117.086 370.736C117.086 370.736 117.086 370.735 117.086 370.734C117.085 370.733 117.083 370.731 117.082 370.727C117.078 370.721 117.073 370.712 117.067 370.7C117.053 370.675 117.034 370.638 117.007 370.588C116.954 370.489 116.875 370.342 116.77 370.146C116.56 369.755 116.247 369.171 115.834 368.401C115.008 366.862 113.783 364.58 112.186 361.608C108.991 355.663 104.308 346.959 98.3538 335.916C86.4446 313.83 69.4487 282.392 49.1016 244.982L44.7092 247.371ZM1438.06 506.672C1438.93 509.014 1438.93 509.013 1438.93 509.012C1438.94 509.012 1438.94 509.011 1438.94 509.01C1438.94 509.008 1438.95 509.006 1438.96 509.004C1438.97 508.999 1438.99 508.993 1439.01 508.985C1439.05 508.969 1439.1 508.947 1439.18 508.918C1439.32 508.86 1439.52 508.776 1439.79 508.662C1440.32 508.434 1441.08 508.089 1442.07 507.605C1444.05 506.637 1446.9 505.113 1450.5 502.863C1457.7 498.362 1467.88 490.958 1479.95 479.287C1504.08 455.942 1535.73 415.557 1566.24 347.248L1561.68 345.209C1531.39 413.006 1500.09 452.843 1476.47 475.693C1464.66 487.12 1454.76 494.307 1447.85 498.623C1444.4 500.781 1441.69 502.221 1439.87 503.116C1438.96 503.563 1438.27 503.873 1437.81 504.069C1437.59 504.166 1437.42 504.235 1437.31 504.278C1437.26 504.299 1437.22 504.314 1437.2 504.323C1437.19 504.327 1437.18 504.33 1437.18 504.331C1437.18 504.332 1437.18 504.332 1437.18 504.332C1437.18 504.332 1437.18 504.331 1437.18 504.331C1437.18 504.331 1437.18 504.33 1438.06 506.672ZM1566.24 347.248C1596.95 278.508 1591.01 213.651 1577.43 166.058C1570.65 142.262 1561.94 122.756 1554.94 109.191C1551.43 102.407 1548.35 97.1041 1546.13 93.4894C1545.03 91.6819 1544.14 90.2959 1543.52 89.3573C1543.21 88.888 1542.97 88.5305 1542.81 88.2881C1542.73 88.1668 1542.66 88.0743 1542.62 88.011C1542.6 87.9793 1542.58 87.9549 1542.57 87.9379C1542.57 87.9294 1542.56 87.9227 1542.56 87.9178C1542.56 87.9154 1542.55 87.9132 1542.55 87.912C1542.55 87.9102 1542.55 87.9088 1540.5 89.3391C1538.45 90.7695 1538.45 90.769 1538.45 90.7691C1538.45 90.7697 1538.45 90.7702 1538.45 90.7715C1538.45 90.774 1538.46 90.7784 1538.46 90.7845C1538.47 90.7969 1538.48 90.8165 1538.5 90.8434C1538.54 90.8972 1538.59 90.9801 1538.67 91.0915C1538.82 91.3144 1539.05 91.6517 1539.34 92.1003C1539.93 92.9975 1540.79 94.3394 1541.87 96.1004C1544.03 99.6226 1547.05 104.82 1550.49 111.486C1557.38 124.821 1565.95 144.017 1572.62 167.43C1585.98 214.255 1591.77 277.842 1561.68 345.209L1566.24 347.248ZM742.959 153.787C743.98 151.505 743.979 151.504 743.977 151.503C743.975 151.503 743.973 151.502 743.97 151.5C743.964 151.498 743.956 151.494 743.944 151.489C743.922 151.479 743.89 151.465 743.847 151.445C743.761 151.407 743.633 151.351 743.466 151.278C743.13 151.13 742.633 150.913 741.981 150.632C740.676 150.071 738.749 149.253 736.254 148.223C731.264 146.165 723.997 143.261 714.875 139.873C696.632 133.098 670.955 124.381 641.206 116.609C581.79 101.087 505.791 89.2426 440.322 104.481L441.456 109.35C505.719 94.393 580.755 105.984 639.942 121.447C669.494 129.167 695.009 137.829 713.134 144.561C722.195 147.926 729.406 150.807 734.347 152.845C736.818 153.865 738.721 154.673 740.003 155.225C740.645 155.501 741.131 155.713 741.456 155.856C741.618 155.927 741.74 155.981 741.821 156.017C741.861 156.035 741.891 156.048 741.911 156.057C741.921 156.061 741.928 156.064 741.933 156.066C741.935 156.067 741.936 156.068 741.938 156.069C741.938 156.069 741.939 156.069 742.959 153.787ZM440.322 104.481C376.286 119.385 324.392 100.033 280.898 81.5618C259.252 72.369 239.443 63.2797 221.464 59.0283C203.362 54.7477 186.672 55.2549 171.402 65.6391L174.214 69.7736C187.906 60.4626 202.991 59.7978 220.314 63.8941C237.76 68.0196 257.026 76.8562 278.943 86.1639C322.576 104.694 375.76 124.641 441.456 109.35L440.322 104.481ZM114.883 371.918C112.672 370.75 112.671 370.753 112.67 370.755C112.669 370.757 112.668 370.76 112.666 370.762C112.664 370.767 112.66 370.773 112.656 370.781C112.649 370.796 112.639 370.815 112.626 370.839C112.602 370.888 112.568 370.955 112.527 371.04C112.443 371.21 112.327 371.454 112.185 371.77C111.901 372.4 111.514 373.318 111.076 374.507C110.202 376.885 109.127 380.352 108.283 384.788C106.595 393.667 105.838 406.414 109.455 422.056C116.7 453.383 141.378 495.889 210.19 542.098L212.978 537.947C144.877 492.216 121.205 450.67 114.327 420.929C110.883 406.038 111.622 393.997 113.195 385.722C113.982 381.581 114.979 378.379 115.769 376.233C116.164 375.16 116.506 374.351 116.745 373.821C116.864 373.556 116.957 373.361 117.017 373.238C117.048 373.176 117.07 373.132 117.083 373.107C117.089 373.094 117.093 373.086 117.095 373.082C117.096 373.08 117.097 373.08 117.096 373.08C117.096 373.08 117.096 373.081 117.096 373.082C117.095 373.083 117.094 373.085 114.883 371.918ZM210.19 542.098C278.736 588.128 324.71 612.097 353.61 624.567C368.062 630.804 378.256 634.169 384.878 635.979C388.19 636.884 390.61 637.401 392.224 637.693C393.032 637.839 393.638 637.929 394.053 637.983C394.261 638.01 394.421 638.029 394.535 638.04C394.592 638.046 394.637 638.051 394.671 638.054C394.688 638.055 394.702 638.057 394.713 638.058C394.719 638.058 394.724 638.058 394.728 638.059C394.73 638.059 394.733 638.059 394.734 638.059C394.736 638.059 394.739 638.06 394.932 635.567C395.126 633.075 395.128 633.075 395.129 633.075C395.13 633.075 395.131 633.075 395.132 633.075C395.133 633.075 395.134 633.075 395.134 633.075C395.134 633.075 395.131 633.075 395.125 633.075C395.113 633.073 395.09 633.071 395.055 633.068C394.985 633.06 394.867 633.047 394.702 633.025C394.37 632.982 393.845 632.905 393.115 632.773C391.655 632.508 389.378 632.025 386.197 631.156C379.833 629.417 369.862 626.134 355.591 619.977C327.045 607.659 281.344 583.856 212.978 537.947L210.19 542.098ZM394.932 635.567C395.831 637.9 395.831 637.9 395.832 637.9C395.833 637.899 395.835 637.899 395.837 637.898C395.841 637.896 395.848 637.893 395.858 637.89C395.877 637.882 395.907 637.871 395.947 637.856C396.027 637.825 396.148 637.779 396.311 637.718C396.635 637.596 397.123 637.415 397.771 637.178C399.067 636.705 401 636.012 403.537 635.138C408.613 633.391 416.107 630.921 425.754 628.041C445.05 622.28 472.957 614.879 507.359 608.334C576.175 595.242 670.921 585.585 774.706 599.287L775.36 594.33C670.903 580.54 575.599 590.262 506.425 603.422C471.832 610.004 443.759 617.447 424.324 623.25C414.606 626.151 407.046 628.642 401.91 630.41C399.341 631.295 397.379 631.998 396.055 632.482C395.393 632.724 394.891 632.91 394.553 633.038C394.383 633.101 394.255 633.15 394.168 633.183C394.125 633.199 394.092 633.212 394.069 633.221C394.058 633.225 394.049 633.228 394.043 633.231C394.04 633.232 394.038 633.233 394.036 633.233C394.034 633.234 394.033 633.234 394.932 635.567ZM774.706 599.287C878.594 613.002 967.566 640.097 1030.57 663.765C1062.06 675.598 1087.06 686.572 1104.18 694.582C1112.73 698.587 1119.32 701.852 1123.76 704.112C1125.98 705.242 1127.66 706.121 1128.79 706.716C1129.36 707.014 1129.78 707.24 1130.06 707.392C1130.2 707.467 1130.31 707.524 1130.38 707.562C1130.41 707.581 1130.44 707.595 1130.45 707.604C1130.46 707.609 1130.47 707.612 1130.47 707.614C1130.47 707.615 1130.48 707.616 1130.48 707.616C1130.48 707.617 1130.48 707.617 1131.68 705.423C1132.88 703.229 1132.87 703.229 1132.87 703.228C1132.87 703.227 1132.87 703.226 1132.87 703.225C1132.86 703.222 1132.85 703.218 1132.84 703.213C1132.83 703.202 1132.8 703.187 1132.76 703.166C1132.68 703.126 1132.57 703.066 1132.43 702.987C1132.14 702.83 1131.7 702.598 1131.13 702.295C1129.98 701.688 1128.27 700.797 1126.03 699.656C1121.54 697.372 1114.9 694.084 1106.29 690.054C1089.08 681.995 1063.96 670.969 1032.32 659.085C969.063 635.319 879.714 608.107 775.36 594.33L774.706 599.287ZM1131.68 705.423C1131.35 707.902 1131.35 707.902 1131.36 707.902C1131.36 707.903 1131.36 707.903 1131.36 707.903C1131.37 707.904 1131.38 707.905 1131.39 707.907C1131.41 707.91 1131.45 707.914 1131.49 707.92C1131.58 707.931 1131.71 707.947 1131.88 707.969C1132.22 708.011 1132.73 708.073 1133.39 708.152C1134.71 708.308 1136.66 708.53 1139.16 708.792C1144.15 709.314 1151.33 709.995 1160.14 710.631C1177.76 711.902 1201.87 712.993 1227.84 712.268C1253.81 711.544 1281.71 709.004 1306.88 702.983C1332 696.974 1354.68 687.433 1369.91 672.506L1366.41 668.935C1352.12 682.938 1330.47 692.199 1305.72 698.121C1281.01 704.031 1253.48 706.551 1227.7 707.27C1201.94 707.988 1178 706.907 1160.5 705.644C1151.75 705.012 1144.62 704.336 1139.68 703.819C1137.2 703.56 1135.28 703.341 1133.98 703.186C1133.33 703.109 1132.83 703.048 1132.5 703.007C1132.33 702.986 1132.2 702.97 1132.12 702.96C1132.08 702.954 1132.05 702.951 1132.03 702.948C1132.02 702.947 1132.01 702.946 1132.01 702.945C1132 702.945 1132 702.944 1132 702.944C1132 702.944 1132 702.944 1131.68 705.423ZM1369.91 672.506C1411.46 631.803 1429.14 590.352 1436.42 559.009C1440.06 543.348 1441.09 530.224 1441.21 520.993C1441.27 516.377 1441.11 512.732 1440.92 510.228C1440.83 508.976 1440.73 508.009 1440.66 507.348C1440.62 507.017 1440.59 506.763 1440.57 506.588C1440.56 506.5 1440.55 506.433 1440.54 506.385C1440.54 506.361 1440.53 506.342 1440.53 506.329C1440.53 506.322 1440.53 506.316 1440.53 506.312C1440.53 506.31 1440.53 506.307 1440.53 506.306C1440.53 506.304 1440.53 506.303 1438.06 506.672C1435.58 507.041 1435.58 507.04 1435.58 507.039C1435.58 507.039 1435.58 507.039 1435.58 507.039C1435.58 507.04 1435.58 507.042 1435.58 507.045C1435.58 507.052 1435.59 507.064 1435.59 507.08C1435.59 507.113 1435.6 507.166 1435.61 507.239C1435.63 507.384 1435.66 507.608 1435.69 507.908C1435.76 508.507 1435.85 509.41 1435.94 510.596C1436.11 512.966 1436.27 516.466 1436.21 520.927C1436.1 529.85 1435.1 542.612 1431.55 557.879C1424.47 588.392 1407.21 628.965 1366.41 668.935L1369.91 672.506Z" fill="#396FA1"/>
</g>
<circle id="circle6" cx="395.5" cy="650.5" r="59.5" fill="#C4C4C4"/>
<circle id="circle7" cx="97.5" cy="375.5" r="59.5" fill="#C4C4C4"/>
<circle id="circle1" cx="182.5" cy="59.5" r="59.5" fill="#C4C4C4"/>
<circle id="circle2" cx="752.5" cy="142.5" r="59.5" fill="#C4C4C4"/>
<circle id="circle4" cx="1451.5" cy="494.5" r="59.5" fill="#C4C4C4"/>
<circle id="circle3" cx="1559.5" cy="83.5" r="59.5" fill="#C4C4C4"/>
<circle id="circle5" cx="1127.5" cy="710.5" r="59.5" fill="#C4C4C4"/>
</g>
</svg>
