<svg width="556" height="537" viewBox="0 0 556 537" fill="none" xmlns="http://www.w3.org/2000/svg">
<g clip-path="url(#clip0_3_401)">
<path d="M468.362 0H192.775V269.875H468.362V0Z" fill="#F4F4F4"/>
<path d="M471.521 0H468.362V269.875H471.521V0Z" fill="#F4F4F4"/>
<path opacity="0.05" d="M471.521 0H468.362V269.875H471.521V0Z" fill="#292A2E"/>
<path opacity="0.05" d="M401.599 185.966V115.358H342.537V156.38H251.049V229.014H212.165V269.875H251.049H258.539H455.105V185.966H401.599Z" fill="#292A2E"/>
<path opacity="0.34" d="M393.129 123.024H350.118V130.691H393.129V123.024Z" fill="#FFFFFA"/>
<path opacity="0.34" d="M393.129 138.911H350.118V146.577H393.129V138.911Z" fill="#FFFFFA"/>
<path opacity="0.34" d="M393.129 154.798H350.118V162.464H393.129V154.798Z" fill="#FFFFFA"/>
<path opacity="0.34" d="M447.478 193.408H439.551V201.074H447.478V193.408Z" fill="#FFFFFA"/>
<path opacity="0.34" d="M447.478 209.295H439.551V216.961H447.478V209.295Z" fill="#FFFFFA"/>
<path opacity="0.34" d="M447.478 225.181H439.551V232.847H447.478V225.181Z" fill="#FFFFFA"/>
<path opacity="0.34" d="M432.812 193.408H424.885V201.074H432.812V193.408Z" fill="#FFFFFA"/>
<path opacity="0.34" d="M432.812 209.295H424.885V216.961H432.812V209.295Z" fill="#FFFFFA"/>
<path opacity="0.34" d="M432.812 225.181H424.885V232.847H432.812V225.181Z" fill="#FFFFFA"/>
<path opacity="0.34" d="M418.543 193.408H410.616V201.074H418.543V193.408Z" fill="#FFFFFA"/>
<path opacity="0.34" d="M418.543 209.295H410.616V216.961H418.543V209.295Z" fill="#FFFFFA"/>
<path opacity="0.34" d="M418.543 225.181H410.616V232.847H418.543V225.181Z" fill="#FFFFFA"/>
<path d="M468.362 133.424H412.909V0H408.323V133.424H258.539V0H253.953V133.424H192.775V137.915H253.953V269.875H258.539V137.915H408.323V269.875H412.909V137.915H468.362V133.424Z" fill="white"/>
<path d="M479.34 269.55H181.796V278.525H479.34V269.55Z" fill="#F4F4F4"/>
<path opacity="0.1" d="M479.34 269.55H181.796V278.525H479.34V269.55Z" fill="#292A2E"/>
<path opacity="0.1" d="M483.636 269.55H479.34V278.525H483.636V269.55Z" fill="#292A2E"/>
<path opacity="0.1" d="M483.636 269.55H479.34V278.525H483.636V269.55Z" fill="#292A2E"/>
<path d="M471.521 4.81744H192.775V11.4906H471.521V4.81744Z" fill="white"/>
<path d="M471.521 17.2814H192.775V23.9545H471.521V17.2814Z" fill="white"/>
<path d="M471.521 29.7447H192.775V36.4178H471.521V29.7447Z" fill="white"/>
<path d="M471.521 42.2086H192.775V48.8818H471.521V42.2086Z" fill="white"/>
<path d="M471.521 54.6726H192.775V61.3457H471.521V54.6726Z" fill="white"/>
<path d="M441.914 0H437.737V68.8713H441.914V0Z" fill="white"/>
<path d="M440.18 78.7624C443.349 78.7624 445.919 76.2462 445.919 73.1423C445.919 70.0384 443.349 67.5222 440.18 67.5222C437.01 67.5222 434.441 70.0384 434.441 73.1423C434.441 76.2462 437.01 78.7624 440.18 78.7624Z" fill="white"/>
<path d="M547.952 537H0.445426C0.386932 537 0.329011 536.989 0.274969 536.967C0.220927 536.945 0.171824 536.913 0.130462 536.872C0.0891007 536.832 0.0562908 536.784 0.0339061 536.731C0.0115213 536.678 0 536.621 0 536.564C0 536.507 0.0115213 536.45 0.0339061 536.397C0.0562908 536.344 0.0891007 536.296 0.130462 536.255C0.171824 536.215 0.220927 536.183 0.274969 536.161C0.329011 536.139 0.386932 536.128 0.445426 536.128H547.951C548.069 536.128 548.182 536.174 548.265 536.255C548.349 536.337 548.396 536.448 548.396 536.564C548.396 536.68 548.349 536.79 548.265 536.872C548.182 536.954 548.069 537 547.951 537H547.952Z" fill="#292A2E"/>
<g opacity="0.65">
<path opacity="0.65" d="M547.952 537H0.445426C0.386932 537 0.329011 536.989 0.274969 536.967C0.220927 536.945 0.171824 536.913 0.130462 536.872C0.0891007 536.832 0.0562908 536.784 0.0339061 536.731C0.0115213 536.678 0 536.621 0 536.564C0 536.507 0.0115213 536.45 0.0339061 536.397C0.0562908 536.344 0.0891007 536.296 0.130462 536.255C0.171824 536.215 0.220927 536.183 0.274969 536.161C0.329011 536.139 0.386932 536.128 0.445426 536.128H547.951C548.069 536.128 548.182 536.174 548.265 536.255C548.349 536.337 548.396 536.448 548.396 536.564C548.396 536.68 548.349 536.79 548.265 536.872C548.182 536.954 548.069 537 547.951 537H547.952Z" fill="#292A2E"/>
</g>
<path d="M38.563 536.233L37.3132 535.997L56.8458 345.921L58.0955 346.157L38.563 536.233Z" fill="#494949"/>
<path d="M111.293 536.233L110.044 535.997L129.576 345.921L130.825 346.157L111.293 536.233Z" fill="#494949"/>
<path d="M272.059 536.233L273.309 535.997L253.777 345.921L252.527 346.157L272.059 536.233Z" fill="#494949"/>
<path d="M199.329 536.233L200.579 535.997L181.047 345.921L179.797 346.157L199.329 536.233Z" fill="#494949"/>
<path d="M173.426 262.269L172.164 262.434L183.575 346.124L184.836 345.959L173.426 262.269Z" fill="#494949"/>
<path d="M42.4546 262.268L41.1931 262.433L52.6036 346.123L53.8651 345.958L42.4546 262.268Z" fill="#494949"/>
<path d="M184.727 339.911H56.6225C53.1662 339.911 50.3643 342.654 50.3643 346.039V346.04C50.3643 349.424 53.1662 352.168 56.6225 352.168H184.727C188.183 352.168 190.985 349.424 190.985 346.04V346.039C190.985 342.654 188.183 339.911 184.727 339.911Z" fill="#292A2E"/>
<path opacity="0.8" d="M184.727 339.911H56.6225C53.1662 339.911 50.3643 342.654 50.3643 346.039V346.04C50.3643 349.424 53.1662 352.168 56.6225 352.168H184.727C188.183 352.168 190.985 349.424 190.985 346.04V346.039C190.985 342.654 188.183 339.911 184.727 339.911Z" fill="white"/>
<path d="M184.725 352.791H56.6225C54.8054 352.774 53.0686 352.055 51.7898 350.791C50.511 349.527 49.7936 347.819 49.7936 346.039C49.7936 344.26 50.511 342.552 51.7898 341.288C53.0686 340.023 54.8054 339.305 56.6225 339.287H184.725C186.542 339.305 188.279 340.023 189.557 341.288C190.836 342.552 191.553 344.26 191.553 346.039C191.553 347.819 190.836 349.527 189.557 350.791C188.279 352.055 186.542 352.774 184.725 352.791ZM56.6225 340.534C55.1418 340.549 53.727 341.136 52.6855 342.167C51.644 343.198 51.0598 344.589 51.0598 346.039C51.0598 347.49 51.644 348.881 52.6855 349.912C53.727 350.943 55.1418 351.53 56.6225 351.545H184.725C186.205 351.53 187.62 350.943 188.662 349.912C189.703 348.881 190.287 347.49 190.287 346.039C190.287 344.589 189.703 343.198 188.662 342.167C187.62 341.136 186.205 340.549 184.725 340.534H56.6225Z" fill="#292A2E"/>
<path d="M255.037 339.911H126.933C123.477 339.911 120.675 342.654 120.675 346.039V346.04C120.675 349.424 123.477 352.168 126.933 352.168H255.037C258.494 352.168 261.296 349.424 261.296 346.04V346.039C261.296 342.654 258.494 339.911 255.037 339.911Z" fill="white"/>
<path d="M255.038 352.791H126.934C126.023 352.8 125.119 352.632 124.275 352.296C123.43 351.961 122.663 351.465 122.015 350.837C121.368 350.209 120.854 349.462 120.503 348.638C120.153 347.815 119.972 346.932 119.972 346.039C119.972 345.147 120.153 344.264 120.503 343.441C120.854 342.617 121.368 341.87 122.015 341.242C122.663 340.614 123.43 340.118 124.275 339.783C125.119 339.447 126.023 339.279 126.934 339.287H255.038C255.949 339.279 256.853 339.447 257.697 339.783C258.541 340.118 259.309 340.614 259.957 341.242C260.604 341.87 261.118 342.617 261.468 343.441C261.819 344.264 262 345.147 262 346.039C262 346.932 261.819 347.815 261.468 348.638C261.118 349.462 260.604 350.209 259.957 350.837C259.309 351.465 258.541 351.961 257.697 352.296C256.853 352.632 255.949 352.8 255.038 352.791ZM126.934 340.534C126.19 340.526 125.453 340.663 124.764 340.936C124.075 341.209 123.448 341.613 122.919 342.125C122.391 342.638 121.971 343.247 121.685 343.919C121.399 344.591 121.251 345.311 121.251 346.039C121.251 346.767 121.399 347.488 121.685 348.16C121.971 348.832 122.391 349.441 122.919 349.953C123.448 350.465 124.075 350.87 124.764 351.143C125.453 351.416 126.19 351.553 126.934 351.545H255.038C255.782 351.553 256.519 351.416 257.208 351.143C257.897 350.87 258.524 350.465 259.053 349.953C259.581 349.441 260 348.832 260.287 348.16C260.573 347.488 260.721 346.767 260.721 346.039C260.721 345.311 260.573 344.591 260.287 343.919C260 343.247 259.581 342.638 259.053 342.125C258.524 341.613 257.897 341.209 257.208 340.936C256.519 340.663 255.782 340.526 255.038 340.534H126.934Z" fill="#292A2E"/>
<path d="M166.408 262.35H42.1678C40.1366 262.35 38.1749 261.626 36.6487 260.313C35.1225 259.001 34.1363 257.189 33.874 255.217L25.6559 193.414C25.5022 192.259 25.602 191.085 25.9485 189.97C26.295 188.856 26.8803 187.827 27.6654 186.951C28.4504 186.076 29.4171 185.375 30.5009 184.894C31.5847 184.414 32.7607 184.165 33.9504 184.166H158.19C160.221 184.166 162.183 184.889 163.709 186.202C165.235 187.515 166.221 189.326 166.484 191.299L174.702 253.101C174.855 254.256 174.756 255.43 174.409 256.545C174.063 257.659 173.477 258.688 172.692 259.564C171.907 260.439 170.941 261.14 169.857 261.621C168.773 262.101 167.598 262.35 166.408 262.35Z" fill="#292A2E"/>
<path opacity="0.8" d="M166.408 262.35H42.1678C40.1366 262.35 38.1749 261.626 36.6487 260.313C35.1225 259.001 34.1363 257.189 33.874 255.217L25.6559 193.414C25.5022 192.259 25.602 191.085 25.9485 189.97C26.295 188.856 26.8803 187.827 27.6654 186.951C28.4504 186.076 29.4171 185.375 30.5009 184.894C31.5847 184.414 32.7607 184.165 33.9504 184.166H158.19C160.221 184.166 162.183 184.889 163.709 186.202C165.235 187.515 166.221 189.326 166.484 191.299L174.702 253.101C174.855 254.256 174.756 255.43 174.409 256.545C174.063 257.659 173.477 258.688 172.692 259.564C171.907 260.439 170.941 261.14 169.857 261.621C168.773 262.101 167.598 262.35 166.408 262.35Z" fill="white"/>
<path d="M166.408 262.973H42.1678C39.9836 262.968 37.8753 262.188 36.2341 260.776C34.5928 259.365 33.53 257.419 33.2427 255.298L25.0246 193.496C24.8593 192.253 24.9666 190.989 25.3395 189.79C25.7123 188.591 26.3421 187.483 27.1869 186.541C28.0316 185.6 29.0718 184.845 30.238 184.328C31.4042 183.811 32.6696 183.544 33.9497 183.544H158.19C160.374 183.549 162.483 184.329 164.124 185.741C165.766 187.153 166.829 189.099 167.116 191.22L175.334 253.022C175.499 254.265 175.391 255.528 175.018 256.728C174.645 257.927 174.015 259.034 173.171 259.976C172.326 260.918 171.286 261.673 170.12 262.19C168.953 262.707 167.688 262.974 166.408 262.974V262.973ZM33.9497 184.789C32.8506 184.789 31.7642 185.018 30.7629 185.462C29.7616 185.906 28.8686 186.554 28.1433 187.363C27.4181 188.172 26.8774 189.122 26.5573 190.152C26.2372 191.182 26.1451 192.266 26.2871 193.334L34.5046 255.136C34.7511 256.957 35.6637 258.628 37.0729 259.84C38.4821 261.052 40.2923 261.722 42.1678 261.727H166.408C167.507 261.727 168.594 261.497 169.595 261.053C170.597 260.609 171.49 259.961 172.215 259.152C172.941 258.343 173.481 257.392 173.801 256.362C174.121 255.332 174.213 254.247 174.071 253.18L165.853 191.378C165.606 189.557 164.694 187.886 163.285 186.674C161.875 185.463 160.065 184.793 158.19 184.789H33.9497Z" fill="#292A2E"/>
<path d="M173.434 262.35H49.1935C47.1622 262.35 45.2003 261.626 43.674 260.313C42.1478 259.001 41.1614 257.189 40.899 255.217L32.6809 193.414C32.5274 192.259 32.6273 191.085 32.9739 189.971C33.3205 188.856 33.9058 187.827 34.6908 186.952C35.4758 186.076 36.4424 185.375 37.5261 184.895C38.6099 184.414 39.7857 184.166 40.9753 184.166H165.215C167.247 184.166 169.209 184.889 170.735 186.202C172.261 187.515 173.248 189.326 173.51 191.299L181.728 253.101C181.882 254.256 181.782 255.43 181.435 256.545C181.088 257.659 180.503 258.688 179.718 259.564C178.933 260.439 177.967 261.14 176.883 261.621C175.799 262.101 174.623 262.35 173.434 262.35Z" fill="white"/>
<path d="M173.434 262.973H49.1934C47.0092 262.968 44.9009 262.188 43.2596 260.776C41.6183 259.365 40.5555 257.419 40.2684 255.298L32.0503 193.496C31.8849 192.253 31.9922 190.989 32.3651 189.79C32.738 188.591 33.3678 187.483 34.2125 186.541C35.0572 185.6 36.0974 184.845 37.2636 184.328C38.4298 183.811 39.6952 183.544 40.9753 183.544H165.215C167.4 183.548 169.509 184.329 171.15 185.741C172.791 187.152 173.854 189.099 174.141 191.22L182.359 253.022C182.524 254.265 182.417 255.528 182.044 256.728C181.671 257.927 181.041 259.034 180.196 259.976C179.352 260.918 178.312 261.673 177.145 262.19C175.979 262.707 174.714 262.974 173.434 262.974V262.973ZM40.9753 184.789C39.8762 184.789 38.7897 185.018 37.7885 185.462C36.7872 185.906 35.8941 186.554 35.1688 187.363C34.4435 188.172 33.9027 189.122 33.5826 190.152C33.2624 191.182 33.1702 192.266 33.3121 193.334L41.5302 255.136C41.7765 256.957 42.689 258.628 44.0982 259.84C45.5075 261.052 47.3179 261.723 49.1934 261.727H173.434C174.533 261.727 175.62 261.497 176.621 261.053C177.623 260.609 178.516 259.961 179.241 259.152C179.967 258.343 180.508 257.392 180.828 256.362C181.148 255.332 181.24 254.247 181.097 253.18L172.879 191.378C172.633 189.557 171.721 187.885 170.311 186.673C168.902 185.461 167.092 184.791 165.216 184.787L40.9753 184.789Z" fill="#292A2E"/>
<path d="M348.655 504.443C348.655 504.443 352.067 521.762 368.625 522.727C385.184 523.692 381.593 536.611 381.593 536.611H318.315V505.651L348.655 504.443Z" fill="#367CFF"/>
<path d="M228.27 493.508C228.27 493.508 223.525 510.524 237.949 518.548C252.372 526.572 243.327 536.611 243.327 536.611L186.546 509.255L200.502 481.474L228.27 493.508Z" fill="#367CFF"/>
<path d="M177.317 89.9495C177.317 89.9495 185.573 83.8471 187.619 69.8004C189.202 58.9242 178.958 65.97 178.958 65.97C178.958 65.97 180.02 58.1285 174.185 58.9062C168.35 59.6838 165.086 67.9229 165.086 67.9229" fill="#0C0C0C"/>
<path d="M144.03 59.824C144.03 59.824 115.081 62.8637 125.546 101.279L128.108 101.446L133.308 101.788" fill="#0C0C0C"/>
<path d="M172.468 141.397C172.341 141.381 170.929 164.329 143.703 162.33C124.855 160.948 118.135 141.365 117.703 141.365C119.735 140.942 122.246 140.3 123.244 140.079C125.419 139.585 127.389 138.454 128.892 136.836C130.394 135.218 131.358 133.191 131.655 131.024C132.207 127.771 131.273 111.129 131.559 107.837L160.491 114.161C160.087 121.112 157.257 137.227 167.172 140.079C168.825 140.551 170.602 140.985 172.468 141.397Z" fill="#E98862"/>
<path opacity="0.52" d="M160.898 133.494C160.444 132.063 160.153 130.589 160.027 129.097C159.709 125.691 159.774 122.261 160.218 118.869C154.338 118.092 148.798 115.715 144.228 112.008C143.691 113.951 140.736 122.441 141.555 124.288C143.098 127.778 150.363 133.494 160.898 133.494Z" fill="#0C0C0C"/>
<path d="M154.926 128.951C143.512 127.949 129.851 120.887 129.654 105.714L129.476 92.0245C129.279 76.8518 137.257 64.4508 151.845 64.2695C166.433 64.0875 177.497 76.2517 177.693 91.4238L177.772 97.4844C177.762 99.5659 177.607 101.644 177.308 103.705C176.56 109.158 175.399 117.447 171.621 123.055C168.053 128.349 162.218 129.592 154.926 128.951Z" fill="#E98862"/>
<path d="M160.222 115.083C162.577 115.188 164.925 114.748 167.075 113.801C167.119 113.783 167.16 113.756 167.193 113.722C167.227 113.688 167.254 113.648 167.272 113.604C167.29 113.56 167.299 113.513 167.299 113.466C167.298 113.419 167.288 113.372 167.269 113.328C167.25 113.285 167.223 113.245 167.188 113.212C167.153 113.179 167.113 113.153 167.068 113.135C167.023 113.118 166.975 113.109 166.927 113.109C166.878 113.11 166.831 113.12 166.786 113.138C162.154 115.073 157.947 114.79 154.621 112.319C154.554 112.267 154.484 112.218 154.412 112.174C154.329 112.136 154.233 112.13 154.146 112.157C154.058 112.184 153.984 112.243 153.938 112.321C153.892 112.399 153.878 112.492 153.898 112.58C153.918 112.668 153.971 112.745 154.046 112.797C154.073 112.813 154.116 112.846 154.174 112.891C155.922 114.195 158.028 114.959 160.222 115.083Z" fill="#0C0C0C"/>
<path d="M160.112 118.501C160.537 118.527 160.964 118.517 161.388 118.471C161.485 118.461 161.574 118.413 161.636 118.339C161.697 118.265 161.726 118.17 161.715 118.075C161.705 117.98 161.656 117.893 161.581 117.832C161.505 117.772 161.408 117.744 161.311 117.754C158.761 118.02 157.544 116.876 157.493 116.827C157.423 116.762 157.33 116.727 157.234 116.728C157.139 116.729 157.047 116.767 156.979 116.833C156.911 116.9 156.872 116.989 156.871 117.083C156.87 117.177 156.906 117.268 156.971 117.336C157.85 118.068 158.959 118.479 160.112 118.501Z" fill="#0C0C0C"/>
<path d="M172.876 100.402C173.868 100.402 174.673 99.6141 174.673 98.6422C174.673 97.6704 173.868 96.8825 172.876 96.8825C171.883 96.8825 171.079 97.6704 171.079 98.6422C171.079 99.6141 171.883 100.402 172.876 100.402Z" fill="#0C0C0C"/>
<path d="M155.321 99.3233C156.313 99.3233 157.118 98.5354 157.118 97.5636C157.118 96.5917 156.313 95.8038 155.321 95.8038C154.328 95.8038 153.524 96.5917 153.524 97.5636C153.524 98.5354 154.328 99.3233 155.321 99.3233Z" fill="#0C0C0C"/>
<path d="M130.62 110.325C126.187 110.381 122.533 105.781 122.475 101.439C122.417 97.0981 125.981 94.6598 130.414 94.6043L132.736 97.4844L134.43 110.278L130.62 110.325Z" fill="#E98862"/>
<path d="M135.028 103.349C135.028 103.349 136.525 81.8805 143.173 80.5551C147.6 79.6721 158.337 85.8218 168.281 83.9643C172.633 83.1542 176.763 84.2067 177.183 86.2188C177.349 87.0158 180.06 75.5632 173.247 66.8742C167.822 59.9574 150.07 58.0007 141.994 60.269C119.631 66.5514 129.499 95.5496 129.499 95.5496L130.497 102.951L135.028 103.349Z" fill="#0C0C0C"/>
<path d="M162.899 110.016C162.908 110.017 162.918 110.017 162.927 110.016C164.356 110.002 166.75 109.822 166.741 108.776C166.731 107.908 164.212 98.5718 163.923 97.51C163.891 97.4272 163.829 97.359 163.749 97.3185C163.669 97.2781 163.576 97.2683 163.489 97.291C163.402 97.3138 163.326 97.3675 163.277 97.4417C163.228 97.5159 163.209 97.6053 163.223 97.6926C164.343 101.828 166.01 108.194 166.017 108.784C165.879 109.034 164.403 109.29 162.924 109.305C162.83 109.307 162.741 109.344 162.675 109.408C162.609 109.472 162.57 109.559 162.568 109.65C162.565 109.742 162.598 109.831 162.66 109.899C162.722 109.967 162.809 110.009 162.902 110.016H162.899Z" fill="#0C0C0C"/>
<path d="M167.776 89.1008C169.277 88.6961 170.862 88.6961 172.363 89.1008C173.101 89.2949 173.805 89.5965 174.451 89.9956C175.089 90.3863 175.675 90.8544 176.193 91.3889C176.293 91.4832 176.351 91.6119 176.354 91.7474C176.358 91.8829 176.307 92.0144 176.213 92.1138C176.119 92.2132 175.989 92.2725 175.851 92.2791C175.713 92.2858 175.577 92.2391 175.474 92.1492L175.441 92.1217C174.961 91.6864 174.426 91.3118 173.85 91.0069C173.286 90.7038 172.677 90.4864 172.045 90.362C170.802 90.1061 169.512 90.1766 168.306 90.5664L168.255 90.5838C168.056 90.6528 167.837 90.6414 167.646 90.5523C167.456 90.4632 167.309 90.3036 167.239 90.1087C167.168 89.9138 167.18 89.6994 167.271 89.5129C167.362 89.3263 167.525 89.1828 167.724 89.1139L167.776 89.1008Z" fill="#0C0C0C"/>
<path d="M157.144 89.9838C156.001 89.4401 154.733 89.2017 153.466 89.2927C152.823 89.3336 152.19 89.4698 151.589 89.6965C150.977 89.9238 150.398 90.2253 149.863 90.5938L149.829 90.6162C149.714 90.6883 149.575 90.7143 149.441 90.6887C149.308 90.6632 149.189 90.5882 149.11 90.4793C149.031 90.3704 148.998 90.2359 149.018 90.1038C149.038 89.9717 149.109 89.8522 149.217 89.77C149.804 89.3081 150.448 88.9203 151.134 88.616C151.828 88.3053 152.567 88.0982 153.324 88.0016C154.082 87.8972 154.852 87.8953 155.611 87.996C156.39 88.0908 157.151 88.2937 157.872 88.5985C158.066 88.6812 158.218 88.8359 158.296 89.0287C158.374 89.2215 158.37 89.4366 158.285 89.6267C158.201 89.8168 158.043 89.9662 157.846 90.0422C157.649 90.1181 157.43 90.1144 157.235 90.0317C157.221 90.0255 157.206 90.0187 157.192 90.0112L157.144 89.9838Z" fill="#0C0C0C"/>
<path d="M165.639 74.3213C168.921 73.6499 170.763 69.2714 169.754 64.5417C168.745 59.812 165.266 56.5221 161.985 57.1935C158.703 57.8649 156.861 62.2433 157.87 66.973C158.88 71.7027 162.358 74.9926 165.639 74.3213Z" fill="#0C0C0C"/>
<path d="M193.102 488.702L240.985 340.776H154.191C136.755 340.776 129.487 326.298 129.487 309.225C129.487 292.152 146.627 277.186 164.061 277.186H281.202C291.836 277.186 303.759 283.554 309.595 292.26C315.432 300.965 313.854 314.454 309.625 324.009L232.948 506.38" fill="#262626"/>
<path opacity="0.8" d="M193.102 488.702L240.985 340.776H154.191C136.755 340.776 129.487 326.298 129.487 309.225C129.487 292.152 146.627 277.186 164.061 277.186H281.202C291.836 277.186 303.759 283.554 309.595 292.26C315.432 300.965 313.854 314.454 309.625 324.009L232.948 506.38" fill="#0A0A0A"/>
<path d="M314.676 520.527L234.612 340.776L129.486 340.769C104.853 338.878 93.572 325.658 93.9309 308.589C94.2847 291.737 102.998 275.091 120.13 275.091H261.822C274.497 275.346 284.47 289.063 289.172 300.593L355.731 509.522" fill="#262626"/>
<path d="M86.7608 275.297C86.7608 275.297 82.0921 305.112 89.4925 321.688C98.7313 342.382 133.365 340.77 133.365 340.77L131.414 275.092L86.7608 275.297Z" fill="#262626"/>
<path d="M292.184 274.711L217.925 259.642C214.831 259.014 211.948 257.632 209.544 255.624C207.14 253.616 205.292 251.046 204.171 248.153L174.963 172.783C174.074 170.521 173.65 168.109 173.715 165.686C173.78 163.263 174.334 160.876 175.344 158.664C176.354 156.451 177.8 154.455 179.6 152.791C181.4 151.127 183.518 149.828 185.832 148.968C188.146 148.108 190.611 147.704 193.085 147.78C195.559 147.855 197.993 148.409 200.248 149.408C202.503 150.408 204.534 151.834 206.224 153.605C207.914 155.375 209.231 157.455 210.098 159.726L235.648 225.653L299.811 238.673C299.811 238.673 293.472 274.972 292.184 274.711Z" fill="#367CFF"/>
<path d="M206.296 191.925C205.439 201.792 199.36 263.343 198.533 275.495H86.8097C86.1677 264.535 83.2851 216.609 80.8512 195.173C78.5273 174.721 75.27 165.414 77.9464 159.058C82.6666 147.849 97.6915 142.842 107.866 141.494C114.079 140.67 123.423 140.079 123.423 140.079C123.423 140.079 124.215 155.753 143.08 156.626C168.762 157.809 167.047 140.079 167.174 140.079C171.334 140.079 193.981 143.042 199.644 146.657C207.642 151.762 210.006 158.719 210.099 165.111C210.207 172.47 207.268 180.733 206.296 191.925Z" fill="#367CFF"/>
<path d="M201.905 242.217H201.879C201.837 242.213 201.796 242.202 201.759 242.183C201.722 242.165 201.689 242.139 201.662 242.108C201.635 242.076 201.615 242.04 201.602 242.001C201.589 241.962 201.584 241.921 201.588 241.88L204.488 207.761C204.491 207.72 204.501 207.68 204.52 207.643C204.539 207.606 204.565 207.573 204.597 207.547C204.629 207.52 204.667 207.5 204.707 207.488C204.747 207.476 204.789 207.472 204.831 207.476C204.873 207.48 204.913 207.491 204.951 207.51C204.988 207.529 205.021 207.554 205.048 207.586C205.075 207.617 205.095 207.653 205.108 207.692C205.121 207.731 205.125 207.772 205.122 207.813L202.222 241.932C202.215 242.01 202.178 242.082 202.12 242.135C202.061 242.187 201.985 242.217 201.905 242.217Z" fill="#0C0C0C"/>
<path d="M219.867 268.729L244.381 194.935C244.811 193.638 245.65 192.509 246.777 191.707C247.904 190.906 249.26 190.474 250.653 190.474H350.525C351.566 190.474 352.592 190.715 353.52 191.178C354.448 191.641 355.25 192.313 355.862 193.138C356.474 193.962 356.877 194.917 357.04 195.924C357.202 196.931 357.119 197.962 356.797 198.931L332.283 272.725C331.853 274.022 331.014 275.152 329.887 275.953C328.76 276.754 327.404 277.186 326.011 277.186H226.139C225.098 277.186 224.072 276.945 223.144 276.482C222.216 276.019 221.414 275.347 220.802 274.523C220.19 273.698 219.787 272.743 219.624 271.736C219.462 270.729 219.545 269.698 219.867 268.729Z" fill="#292A2E"/>
<path opacity="0.2" d="M219.867 268.729L244.381 194.935C244.811 193.638 245.65 192.509 246.777 191.707C247.904 190.906 249.26 190.474 250.653 190.474H350.525C351.566 190.474 352.592 190.715 353.52 191.178C354.448 191.641 355.25 192.313 355.862 193.138C356.474 193.962 356.877 194.917 357.04 195.924C357.202 196.931 357.119 197.962 356.797 198.931L332.283 272.725C331.853 274.022 331.014 275.152 329.887 275.953C328.76 276.754 327.404 277.186 326.011 277.186H226.139C225.098 277.186 224.072 276.945 223.144 276.482C222.216 276.019 221.414 275.347 220.802 274.523C220.19 273.698 219.787 272.743 219.624 271.736C219.462 270.729 219.545 269.698 219.867 268.729Z" fill="white"/>
<path d="M239.864 271.203H173.009C171.344 271.203 169.993 272.525 169.993 274.156V274.232C169.993 275.863 171.344 277.186 173.009 277.186H239.864C241.53 277.186 242.88 275.863 242.88 274.232V274.156C242.88 272.525 241.53 271.203 239.864 271.203Z" fill="#292A2E"/>
<path opacity="0.2" d="M239.864 271.203H173.009C171.344 271.203 169.993 272.525 169.993 274.156V274.232C169.993 275.863 171.344 277.186 173.009 277.186H239.864C241.53 277.186 242.88 275.863 242.88 274.232V274.156C242.88 272.525 241.53 271.203 239.864 271.203Z" fill="white"/>
<path d="M288.332 247.687C294.117 247.687 298.807 243.095 298.807 237.43C298.807 231.765 294.117 227.172 288.332 227.172C282.547 227.172 277.858 231.765 277.858 237.43C277.858 243.095 282.547 247.687 288.332 247.687Z" fill="white"/>
<path d="M207.308 178.17H180.751V210.065H207.308V178.17Z" fill="white"/>
<path d="M180.751 204.767C178.6 204.767 176.498 204.142 174.709 202.972C172.921 201.802 171.527 200.139 170.704 198.193C169.881 196.247 169.665 194.105 170.085 192.039C170.505 189.973 171.54 188.076 173.061 186.586C174.582 185.097 176.52 184.083 178.63 183.672C180.739 183.261 182.926 183.472 184.913 184.278C186.9 185.084 188.599 186.449 189.794 188.2C190.989 189.952 191.627 192.011 191.627 194.117C191.624 196.941 190.477 199.648 188.438 201.644C186.399 203.641 183.635 204.764 180.751 204.767ZM180.751 187.83C179.481 187.83 178.24 188.198 177.184 188.889C176.128 189.58 175.305 190.562 174.819 191.711C174.333 192.861 174.206 194.125 174.454 195.345C174.701 196.564 175.313 197.685 176.211 198.564C177.109 199.444 178.253 200.042 179.499 200.285C180.745 200.528 182.036 200.403 183.209 199.927C184.382 199.451 185.385 198.645 186.091 197.611C186.796 196.577 187.173 195.361 187.173 194.117C187.171 192.45 186.494 190.852 185.29 189.673C184.086 188.494 182.454 187.831 180.751 187.83Z" fill="white"/>
<path d="M182.283 198.842C182.041 198.226 181.585 197.713 180.996 197.393C180.406 197.073 179.721 196.966 179.059 197.092C179.071 197.062 179.078 197.03 179.079 196.998L179.969 196.608C180.593 196.348 181.107 195.885 181.422 195.297C181.738 194.709 181.836 194.032 181.701 193.382C181.607 192.975 181.423 192.594 181.161 192.266C180.899 191.938 180.566 191.671 180.185 191.485C179.805 191.298 179.387 191.196 178.962 191.187C178.537 191.177 178.115 191.26 177.726 191.429L175.625 192.35C175.625 192.342 175.625 192.334 175.621 192.326C175.613 192.309 175.602 192.293 175.59 192.279C176.108 191.897 176.478 191.355 176.64 190.74C176.803 190.126 176.748 189.475 176.484 188.895C175.901 187.349 173.833 187.226 172.465 187.823L166.971 189.994L168.629 188.347C169.149 187.81 169.441 187.1 169.446 186.36C169.452 185.62 169.17 184.906 168.659 184.362C168.384 184.09 168.056 183.876 167.695 183.732C167.333 183.589 166.945 183.519 166.555 183.527C166.165 183.535 165.781 183.621 165.426 183.779C165.07 183.937 164.752 184.165 164.49 184.448L144.954 205.34L151.636 211.641C153.71 213.599 156.335 214.905 159.172 215.392C162.01 215.879 164.931 215.525 167.562 214.375L179.469 209.148C180.093 208.888 180.606 208.425 180.922 207.837C181.237 207.249 181.335 206.572 181.2 205.922C181.065 205.338 180.743 204.811 180.28 204.419C179.818 204.026 179.24 203.789 178.631 203.741C178.637 203.708 178.637 203.675 178.631 203.643C178.624 203.61 178.611 203.579 178.593 203.552C178.574 203.525 178.55 203.501 178.522 203.483C178.493 203.465 178.462 203.452 178.429 203.446L180.627 202.485C181.323 202.197 181.882 201.66 182.189 200.984C182.496 200.307 182.53 199.542 182.283 198.842Z" fill="#E98862"/>
<path opacity="0.2" d="M171.653 194.118C171.59 194.118 171.529 194.097 171.48 194.057C171.431 194.018 171.398 193.964 171.386 193.903C171.375 193.842 171.385 193.78 171.415 193.726C171.446 193.672 171.495 193.63 171.553 193.607L175.27 192.174C175.303 192.161 175.338 192.155 175.373 192.156C175.409 192.156 175.444 192.164 175.476 192.178C175.509 192.191 175.538 192.211 175.563 192.236C175.587 192.261 175.607 192.291 175.62 192.323C175.633 192.355 175.639 192.39 175.638 192.424C175.638 192.459 175.63 192.493 175.616 192.525C175.602 192.557 175.581 192.586 175.556 192.61C175.53 192.634 175.5 192.653 175.467 192.666L171.751 194.099C171.72 194.111 171.686 194.117 171.653 194.118Z" fill="#0C0C0C"/>
<path opacity="0.2" d="M173.726 199.264C173.664 199.263 173.603 199.242 173.555 199.203C173.507 199.164 173.474 199.11 173.462 199.049C173.45 198.989 173.46 198.927 173.49 198.873C173.52 198.819 173.568 198.777 173.626 198.754L178.709 196.752C178.774 196.73 178.846 196.733 178.91 196.761C178.973 196.789 179.023 196.84 179.049 196.903C179.074 196.966 179.074 197.037 179.049 197.1C179.023 197.163 178.973 197.214 178.91 197.242L173.828 199.245C173.795 199.257 173.761 199.263 173.726 199.264Z" fill="#0C0C0C"/>
<path opacity="0.2" d="M175.943 204.851C175.88 204.851 175.819 204.829 175.771 204.789C175.722 204.75 175.689 204.694 175.678 204.634C175.667 204.573 175.678 204.51 175.709 204.456C175.74 204.402 175.789 204.361 175.849 204.339L178.272 203.448C178.339 203.424 178.413 203.426 178.478 203.455C178.544 203.484 178.595 203.537 178.62 203.602C178.645 203.668 178.643 203.741 178.613 203.805C178.584 203.869 178.53 203.918 178.463 203.943L176.04 204.834C176.009 204.845 175.976 204.851 175.943 204.851Z" fill="#0C0C0C"/>
<path d="M187.934 157.883C187.816 157.883 187.701 157.852 187.601 157.792C187.501 157.732 187.42 157.646 187.367 157.544C185.918 154.778 184.115 151.334 184.319 147.725C184.48 144.854 185.855 142.303 187.182 139.84C188.04 138.351 188.771 136.796 189.368 135.189C190.096 132.972 190.28 130.618 189.904 128.319C189.528 126.02 188.603 123.84 187.204 121.956C187.152 121.891 187.114 121.815 187.091 121.735C187.069 121.655 187.064 121.571 187.075 121.488C187.087 121.406 187.115 121.326 187.158 121.255C187.202 121.183 187.259 121.121 187.328 121.071C187.396 121.022 187.474 120.986 187.556 120.967C187.639 120.947 187.725 120.944 187.809 120.957C187.893 120.971 187.973 121.001 188.045 121.045C188.117 121.09 188.179 121.148 188.228 121.216C189.747 123.26 190.752 125.626 191.161 128.122C191.57 130.618 191.372 133.173 190.582 135.58C189.964 137.253 189.205 138.872 188.313 140.422C186.989 142.877 185.74 145.195 185.593 147.794C185.409 151.066 187.053 154.206 188.503 156.976C188.553 157.071 188.577 157.177 188.573 157.283C188.569 157.39 188.537 157.494 188.48 157.585C188.423 157.676 188.343 157.751 188.248 157.803C188.153 157.855 188.046 157.883 187.937 157.883H187.934Z" fill="white"/>
<path d="M198.151 167.609C198.01 167.609 197.873 167.563 197.761 167.478C197.65 167.394 197.57 167.275 197.535 167.142C197.5 167.008 197.511 166.866 197.567 166.739C197.622 166.613 197.72 166.507 197.843 166.441C200.201 165.167 200.465 161.622 199.358 158.931C198.808 157.693 198.165 156.498 197.434 155.355C196.457 153.873 195.662 152.284 195.067 150.619C194.459 148.59 194.421 146.437 194.956 144.388C195.492 142.339 196.581 140.469 198.11 138.975C198.231 138.862 198.393 138.8 198.561 138.803C198.729 138.806 198.888 138.874 199.005 138.992C199.122 139.11 199.187 139.268 199.185 139.433C199.183 139.597 199.115 139.754 198.996 139.869C197.633 141.202 196.662 142.869 196.184 144.696C195.707 146.524 195.741 148.443 196.283 150.253C196.849 151.823 197.602 153.323 198.528 154.719C199.294 155.916 199.965 157.168 200.537 158.464C201.835 161.615 201.546 165.864 198.457 167.531C198.363 167.582 198.258 167.609 198.151 167.609Z" fill="white"/>
<path d="M167.353 221.926L73.6544 259.9C70.2762 261.254 66.5683 261.616 62.9838 260.94C59.3993 260.264 56.0935 258.58 53.4702 256.095C50.8469 253.609 49.0197 250.429 48.212 246.943C47.4043 243.457 47.6509 239.816 48.9218 236.465L76.8679 161.717C80.4809 152.191 90.6589 146.713 100.388 150.251C105.059 151.951 108.85 155.397 110.926 159.834C113.003 164.27 113.195 169.332 111.46 173.907L98.7128 209.285L153.628 188.553" fill="#367CFF"/>
<path d="M167.125 222.265C167.075 222.265 167.026 222.25 166.985 222.223C166.943 222.196 166.911 222.157 166.892 222.112L153.258 188.961L98.5277 209.646C98.4824 209.663 98.433 209.667 98.3854 209.657C98.3379 209.647 98.2943 209.624 98.26 209.59C98.2258 209.556 98.2022 209.514 98.1924 209.467C98.1825 209.42 98.1867 209.372 98.2044 209.328L106.668 188.056C106.692 187.996 106.739 187.947 106.8 187.921C106.861 187.895 106.93 187.894 106.992 187.917C107.054 187.941 107.103 187.988 107.13 188.047C107.157 188.107 107.158 188.174 107.134 188.235L98.877 208.987L153.309 188.415C153.37 188.392 153.438 188.394 153.499 188.419C153.559 188.445 153.607 188.493 153.631 188.552L167.357 221.928C167.381 221.989 167.38 222.056 167.354 222.116C167.328 222.175 167.279 222.223 167.218 222.248C167.188 222.259 167.157 222.265 167.125 222.265Z" fill="#0C0C0C"/>
<path d="M81.3387 216.228C81.2801 216.228 81.2231 216.209 81.1778 216.172C81.1325 216.136 81.1017 216.085 81.0908 216.028C81.0799 215.972 81.0896 215.914 81.1181 215.864C81.1467 215.813 81.1923 215.775 81.2471 215.754L98.389 209.149C98.4197 209.137 98.4527 209.13 98.4859 209.13C98.5191 209.131 98.552 209.137 98.5826 209.15C98.6131 209.163 98.6408 209.181 98.664 209.205C98.6872 209.228 98.7054 209.256 98.7176 209.286C98.7298 209.316 98.7357 209.349 98.735 209.381C98.7343 209.414 98.727 209.446 98.7136 209.475C98.7001 209.505 98.6807 209.532 98.6566 209.554C98.6324 209.577 98.604 209.594 98.5729 209.606L81.4303 216.211C81.4011 216.222 81.37 216.228 81.3387 216.228Z" fill="#0C0C0C"/>
<path d="M85.331 255.466C85.2729 255.466 85.2165 255.447 85.1715 255.411C85.1266 255.375 85.0958 255.324 85.0845 255.269C85.0732 255.213 85.0821 255.155 85.1096 255.105C85.1372 255.055 85.1817 255.016 85.2355 254.994L167.032 221.794C167.062 221.781 167.095 221.775 167.127 221.775C167.16 221.775 167.193 221.781 167.223 221.794C167.254 221.806 167.281 221.824 167.304 221.847C167.327 221.87 167.346 221.897 167.358 221.927C167.371 221.956 167.377 221.988 167.377 222.02C167.377 222.053 167.371 222.084 167.358 222.114C167.346 222.144 167.327 222.171 167.304 222.194C167.281 222.216 167.253 222.234 167.223 222.247L85.4264 255.447C85.3962 255.46 85.3637 255.466 85.331 255.466Z" fill="#0C0C0C"/>
<path d="M500.602 455.282C500.434 455.281 500.272 455.216 500.152 455.099C499.256 454.221 497.795 438.113 493.858 390.154C492.247 370.53 490.726 351.994 489.616 340.73C489.537 339.926 489.218 339.831 489.113 339.801C487.594 339.352 482.972 342.921 480.391 346.046C480.285 346.175 480.131 346.257 479.964 346.274C479.796 346.292 479.628 346.243 479.496 346.139C479.365 346.035 479.281 345.885 479.263 345.72C479.246 345.556 479.295 345.391 479.401 345.263C481.108 343.196 486.669 337.779 489.479 338.607C490.046 338.774 490.752 339.256 490.883 340.61C491.994 351.884 493.516 370.425 495.127 390.054C497.519 419.198 500.229 452.215 501.119 454.294C501.187 454.388 501.228 454.497 501.237 454.612C501.246 454.726 501.222 454.841 501.169 454.943C501.115 455.045 501.034 455.13 500.934 455.19C500.834 455.25 500.719 455.282 500.602 455.282Z" fill="#494949"/>
<path d="M487.981 361.4C498.54 353.111 502.04 340.21 495.798 332.585C489.556 324.959 475.936 325.496 465.377 333.785C454.818 342.073 451.319 354.974 457.561 362.6C463.803 370.226 477.422 369.688 487.981 361.4Z" fill="#0CBC8B"/>
<path opacity="0.2" d="M487.981 361.4C498.54 353.111 502.04 340.21 495.798 332.585C489.556 324.959 475.936 325.496 465.377 333.785C454.818 342.073 451.319 354.974 457.561 362.6C463.803 370.226 477.422 369.688 487.981 361.4Z" fill="white"/>
<path d="M460.52 364.54C460.46 364.54 460.401 364.523 460.35 364.491C460.299 364.46 460.258 364.414 460.232 364.361C460.207 364.307 460.197 364.247 460.205 364.189C460.213 364.13 460.237 364.075 460.276 364.029L490.368 328.492C490.395 328.46 490.428 328.433 490.465 328.413C490.502 328.394 490.543 328.381 490.585 328.377C490.627 328.373 490.669 328.377 490.71 328.389C490.75 328.401 490.787 328.421 490.82 328.447C490.853 328.474 490.879 328.506 490.899 328.543C490.918 328.58 490.93 328.62 490.934 328.661C490.937 328.702 490.932 328.744 490.919 328.783C490.906 328.823 490.885 328.859 490.858 328.89L460.765 364.427C460.735 364.462 460.698 364.491 460.656 364.51C460.613 364.53 460.567 364.54 460.52 364.54Z" fill="white"/>
<path d="M507.166 447.663C507.064 447.663 506.964 447.639 506.874 447.594C506.784 447.548 506.706 447.482 506.647 447.401C506.588 447.32 506.55 447.226 506.536 447.128C506.521 447.029 506.531 446.929 506.565 446.835L517.868 415.001C518.201 414.065 518.768 413.227 519.518 412.562C520.267 411.897 521.175 411.426 522.159 411.194C523.142 410.961 524.169 410.974 525.146 411.231C526.123 411.489 527.018 411.982 527.75 412.665L533.726 418.256C533.848 418.37 533.918 418.527 533.922 418.693C533.926 418.858 533.862 419.018 533.746 419.137C533.629 419.257 533.469 419.326 533.3 419.33C533.131 419.333 532.968 419.271 532.846 419.157L526.87 413.567C526.293 413.027 525.586 412.638 524.815 412.436C524.044 412.233 523.233 412.223 522.457 412.406C521.681 412.589 520.964 412.96 520.373 413.485C519.781 414.01 519.333 414.672 519.07 415.41L507.767 447.244C507.723 447.367 507.642 447.473 507.535 447.548C507.427 447.623 507.298 447.663 507.166 447.663Z" fill="#494949"/>
<path d="M550.422 435.882C558.247 429.816 557.782 416.475 549.384 406.084C540.985 395.693 527.832 392.187 520.007 398.253C512.182 404.318 512.647 417.659 521.046 428.05C529.445 438.441 542.597 441.947 550.422 435.882Z" fill="#0CBC8B"/>
<path d="M495.467 453.251C495.324 453.251 495.185 453.204 495.073 453.117C494.961 453.03 494.882 452.909 494.849 452.773L475.88 375.103C475.75 374.573 475.474 374.089 475.082 373.704C474.689 373.318 474.196 373.046 473.655 372.917C473.115 372.788 472.549 372.808 472.02 372.973C471.49 373.139 471.018 373.445 470.654 373.857L464.807 380.474C464.752 380.535 464.685 380.586 464.611 380.623C464.536 380.66 464.455 380.682 464.371 380.687C464.288 380.693 464.204 380.683 464.125 380.657C464.045 380.632 463.972 380.591 463.909 380.537C463.846 380.484 463.794 380.418 463.756 380.345C463.719 380.272 463.696 380.192 463.69 380.111C463.684 380.029 463.695 379.947 463.721 379.869C463.747 379.792 463.789 379.72 463.844 379.658L469.692 373.041C470.209 372.457 470.881 372.023 471.633 371.788C472.385 371.553 473.189 371.526 473.956 371.71C474.724 371.893 475.424 372.28 475.981 372.828C476.539 373.376 476.931 374.064 477.115 374.816L496.084 452.486C496.123 452.646 496.095 452.816 496.007 452.956C495.919 453.097 495.777 453.198 495.613 453.236C495.565 453.247 495.516 453.252 495.467 453.251Z" fill="#494949"/>
<path d="M488.471 397.728C490.777 384.669 484.674 372.734 474.84 371.068C465.006 369.403 455.165 378.639 452.859 391.697C450.553 404.755 456.656 416.691 466.49 418.357C476.324 420.022 486.165 410.786 488.471 397.728Z" fill="#0CBC8B"/>
<path d="M500.604 455.282C500.577 455.281 500.551 455.28 500.525 455.277C500.357 455.256 500.205 455.172 500.101 455.042C499.997 454.912 499.95 454.746 499.971 454.582L512.084 358.272C512.216 357.222 512.654 356.232 513.347 355.421C514.04 354.61 514.957 354.012 515.989 353.699C517.02 353.386 518.122 353.372 519.162 353.658C520.201 353.944 521.134 354.518 521.849 355.311L535.694 370.667C535.805 370.791 535.862 370.954 535.852 371.119C535.841 371.284 535.764 371.438 535.638 371.547C535.511 371.657 535.345 371.712 535.177 371.702C535.008 371.692 534.851 371.616 534.739 371.492L520.894 356.136C520.342 355.523 519.62 355.079 518.817 354.858C518.013 354.637 517.161 354.648 516.364 354.89C515.566 355.132 514.857 355.595 514.322 356.223C513.787 356.85 513.448 357.616 513.347 358.427L501.232 454.734C501.213 454.885 501.139 455.023 501.023 455.124C500.907 455.225 500.758 455.281 500.604 455.282Z" fill="#494949"/>
<path d="M549.891 379.2C554.721 370.648 549.038 358.516 537.196 352.101C525.354 345.687 511.839 347.42 507.008 355.971C502.178 364.523 507.861 376.656 519.703 383.071C531.545 389.485 545.06 387.752 549.891 379.2Z" fill="#0CBC8B"/>
<path opacity="0.2" d="M550.422 435.882C558.247 429.816 557.782 416.475 549.384 406.084C540.985 395.693 527.832 392.187 520.007 398.253C512.182 404.318 512.647 417.659 521.046 428.05C529.445 438.441 542.597 441.947 550.422 435.882Z" fill="white"/>
<path opacity="0.5" d="M488.471 397.728C490.777 384.669 484.674 372.734 474.84 371.068C465.006 369.403 455.165 378.639 452.859 391.697C450.553 404.755 456.656 416.691 466.49 418.357C476.324 420.022 486.165 410.786 488.471 397.728Z" fill="white"/>
<path opacity="0.5" d="M549.891 379.2C554.721 370.648 549.038 358.516 537.196 352.101C525.354 345.687 511.839 347.42 507.008 355.971C502.178 364.523 507.861 376.656 519.703 383.071C531.545 389.485 545.06 387.752 549.891 379.2Z" fill="white"/>
<path d="M516.095 537H485.109L479.975 439.913H521.231L516.095 537Z" fill="#292A2E"/>
<path opacity="0.3" d="M516.095 537H485.109L479.975 439.913H521.231L516.095 537Z" fill="white"/>
<path d="M550.423 436.189C550.374 436.189 550.327 436.179 550.284 436.159C550.24 436.138 550.202 436.108 550.172 436.072L519.756 398.442C519.704 398.377 519.68 398.295 519.69 398.213C519.699 398.131 519.742 398.056 519.808 398.004C519.874 397.953 519.959 397.93 520.042 397.939C520.126 397.949 520.203 397.99 520.255 398.055L550.671 435.684C550.709 435.73 550.732 435.785 550.738 435.843C550.745 435.901 550.735 435.96 550.709 436.013C550.683 436.066 550.642 436.11 550.592 436.141C550.541 436.173 550.482 436.189 550.423 436.189Z" fill="white"/>
<path d="M547.868 382.215C547.801 382.215 547.735 382.193 547.681 382.153L508.759 354.324C508.726 354.3 508.697 354.27 508.675 354.235C508.653 354.2 508.639 354.161 508.632 354.121C508.626 354.08 508.628 354.039 508.638 353.999C508.647 353.959 508.665 353.922 508.69 353.889C508.715 353.856 508.746 353.828 508.781 353.806C508.817 353.785 508.857 353.771 508.898 353.765C508.939 353.758 508.981 353.76 509.022 353.77C509.063 353.779 509.101 353.797 509.135 353.821L548.056 381.652C548.109 381.691 548.149 381.745 548.169 381.808C548.189 381.87 548.188 381.936 548.168 381.998C548.147 382.06 548.107 382.114 548.053 382.153C547.999 382.191 547.935 382.212 547.868 382.213V382.215Z" fill="white"/>
<path d="M464.908 417.951C464.88 417.951 464.852 417.947 464.826 417.94C464.744 417.919 464.675 417.867 464.632 417.795C464.59 417.724 464.579 417.639 464.6 417.559L476.991 372.099C477.001 372.059 477.019 372.021 477.045 371.988C477.07 371.955 477.102 371.927 477.138 371.906C477.174 371.885 477.215 371.872 477.256 371.866C477.298 371.86 477.341 371.863 477.382 371.874C477.422 371.884 477.461 371.903 477.494 371.928C477.527 371.953 477.555 371.985 477.576 372.021C477.597 372.057 477.61 372.097 477.615 372.138C477.62 372.179 477.617 372.22 477.606 372.26L465.216 417.72C465.198 417.786 465.158 417.845 465.102 417.886C465.046 417.928 464.978 417.951 464.908 417.951Z" fill="white"/>
</g>
<defs>
<clipPath id="clip0_3_401">
<rect width="556" height="537" fill="white"/>
</clipPath>
</defs>
</svg>
