<svg width="627" height="429" viewBox="0 0 627 429" fill="none" xmlns="http://www.w3.org/2000/svg">
<path d="M140.073 350.212L576.121 350.212C586.829 350.212 595.51 341.736 595.51 331.281V19.5618C595.51 9.10635 586.829 0.630554 576.121 0.630554L140.073 0.630554C129.365 0.630554 120.684 9.10635 120.684 19.5618L120.684 331.281C120.684 341.736 129.365 350.212 140.073 350.212Z" fill="white"/>
<path d="M120.037 331.281V19.5626C120.043 14.3755 122.157 9.40248 125.914 5.73494C129.671 2.0674 134.764 0.0048919 140.077 0L576.121 0C581.433 0.00587022 586.526 2.06881 590.282 5.73625C594.038 9.40368 596.151 14.3761 596.157 19.5626V331.281C596.15 336.467 594.038 341.439 590.281 345.107C586.525 348.774 581.433 350.837 576.121 350.843H140.077C134.764 350.838 129.671 348.776 125.914 345.108C122.157 341.441 120.043 336.468 120.037 331.281ZM140.077 1.26199C135.107 1.26747 130.343 3.19732 126.83 6.62817C123.316 10.059 121.339 14.7107 121.334 19.5626V331.281C121.339 336.133 123.316 340.784 126.83 344.215C130.343 347.646 135.107 349.576 140.077 349.581H576.121C581.09 349.576 585.854 347.646 589.368 344.215C592.882 340.784 594.858 336.133 594.863 331.281V19.5626C594.858 14.7108 592.882 10.0591 589.368 6.62822C585.854 3.19735 581.09 1.26747 576.121 1.26199H140.077Z" fill="#292A2E"/>
<path d="M546.612 203.643H256C255.681 203.643 255.375 203.519 255.15 203.299C254.925 203.079 254.798 202.781 254.798 202.469V40.5329C254.798 40.3788 254.829 40.2262 254.889 40.0839C254.95 39.9416 255.038 39.8122 255.15 39.7033C255.262 39.5943 255.394 39.5079 255.54 39.4489C255.686 39.39 255.842 39.3596 256 39.3596C256.157 39.3596 256.314 39.39 256.46 39.4489C256.605 39.5079 256.738 39.5943 256.849 39.7033C256.961 39.8122 257.049 39.9416 257.11 40.0839C257.17 40.2262 257.201 40.3788 257.201 40.5329V201.296H546.612C546.931 201.296 547.236 201.42 547.462 201.64C547.687 201.86 547.814 202.158 547.814 202.469C547.814 202.781 547.687 203.079 547.462 203.299C547.236 203.519 546.931 203.643 546.612 203.643Z" fill="#0CBC8B"/>
<path opacity="0.2" d="M276.201 179.408H276.855C286.281 179.408 295.522 176.855 303.552 172.035C311.581 167.214 318.084 160.313 322.338 152.1L359.609 80.1306C378.52 43.6166 431.972 43.7489 450.691 80.3524L487.263 151.87C491.493 160.143 498 167.101 506.055 171.964C514.109 176.828 523.392 179.404 532.862 179.404" fill="#0CBC8B"/>
<path d="M532.863 180.429C523.192 180.461 513.706 177.846 505.481 172.879C497.256 167.912 490.621 160.793 486.331 152.331L449.76 80.8129C445.709 72.6646 439.374 65.8054 431.49 61.0317C423.607 56.258 414.498 53.7656 405.222 53.844H405.085C395.833 53.7441 386.741 56.2028 378.859 60.936C370.978 65.6691 364.629 72.4834 360.547 80.5911L323.275 152.561C318.958 160.961 312.327 168.019 304.128 172.942C295.929 177.866 286.486 180.46 276.86 180.432H276.207C276.067 180.436 275.928 180.412 275.798 180.363C275.668 180.313 275.549 180.238 275.449 180.143C275.349 180.048 275.269 179.934 275.215 179.808C275.16 179.682 275.133 179.547 275.133 179.411C275.133 179.274 275.16 179.139 275.215 179.014C275.269 178.888 275.349 178.774 275.449 178.679C275.549 178.584 275.668 178.509 275.798 178.459C275.928 178.41 276.067 178.386 276.207 178.39H276.86C286.099 178.416 295.162 175.927 303.031 171.203C310.901 166.478 317.265 159.704 321.409 151.642L358.681 79.6729C362.997 71.2716 369.627 64.2122 377.827 59.2885C386.026 54.3647 395.47 51.7718 405.096 51.8013H405.231C414.88 51.7948 424.338 54.4226 432.538 59.3878C440.738 64.353 447.352 71.4578 451.635 79.8999L488.206 151.418C492.324 159.54 498.692 166.373 506.586 171.14C514.481 175.908 523.587 178.418 532.869 178.387C533.142 178.394 533.401 178.504 533.591 178.695C533.781 178.886 533.888 179.142 533.888 179.408C533.888 179.674 533.781 179.93 533.591 180.121C533.401 180.311 533.142 180.422 532.869 180.429H532.863Z" fill="#0CBC8B"/>
<g opacity="0.2">
<path opacity="0.2" d="M245.994 241.715C248.285 238.065 251.094 234.75 254.338 231.87C255.803 230.57 257.518 228.859 259.462 228.296C260.144 228.128 260.858 228.13 261.538 228.304C262.219 228.477 262.843 228.814 263.354 229.286C265.816 231.236 267.422 234.069 270.203 235.667C272.831 237.176 275.887 237.08 278.711 236.19C281.759 235.228 284.541 233.615 287.44 232.32C290.091 231.137 293.128 230.076 296.054 230.841C299.461 231.729 301.866 234.592 305.02 235.997C306.791 236.819 308.786 237.06 310.708 236.685C312.972 236.249 315.088 235.163 317.25 234.408C327.092 230.989 337.62 229.882 347.981 231.177C349.427 231.357 349.413 229.137 347.981 228.959C338.625 227.804 329.125 228.558 320.082 231.172C317.761 231.845 315.506 232.673 313.259 233.55C311.266 234.327 309.21 235.028 307.072 234.405C303.637 233.408 301.179 230.444 297.882 229.117C291.446 226.529 285.302 231.255 279.601 233.517C276.951 234.568 273.969 235.257 271.348 233.752C268.56 232.151 266.964 229.151 264.388 227.28C263.719 226.762 262.95 226.382 262.127 226.162C261.304 225.942 260.445 225.887 259.599 226C257.252 226.361 255.312 228.103 253.577 229.569C249.838 232.747 246.62 236.465 244.036 240.596C243.269 241.815 245.233 242.931 245.997 241.715H245.994Z" fill="#367CFF"/>
</g>
<g opacity="0.2">
<path opacity="0.2" d="M147.146 79.3491C166.494 78.3245 185.857 77.6436 205.234 77.3065C210.768 77.2113 216.304 77.1441 221.84 77.1046C222.141 77.1046 222.43 76.9878 222.643 76.7798C222.856 76.5719 222.976 76.2898 222.976 75.9957C222.976 75.7016 222.856 75.4195 222.643 75.2115C222.43 75.0036 222.141 74.8867 221.84 74.8867C202.465 75.0252 183.096 75.5082 163.735 76.3357C158.204 76.5728 152.675 76.838 147.146 77.1312C145.693 77.2089 145.684 79.4268 147.146 79.3491Z" fill="#367CFF"/>
<path opacity="0.2" d="M151.3 92.1961C170.384 91.1251 189.48 90.318 208.589 89.7749C213.995 89.6211 219.401 89.4893 224.807 89.3793C226.267 89.349 226.272 87.1311 224.807 87.1614C205.696 87.5557 186.594 88.2122 167.499 89.1309C162.098 89.3917 156.698 89.6741 151.3 89.9782C149.847 90.0595 149.837 92.2781 151.3 92.1961Z" fill="#367CFF"/>
<path opacity="0.2" d="M151.34 107.199C170.888 107.913 220.855 103.816 226.3 103.006C227.738 102.792 227.128 100.654 225.694 100.867C206.519 103.721 156.803 105.181 151.34 104.981C149.878 104.927 149.881 107.145 151.34 107.199Z" fill="#367CFF"/>
<path opacity="0.2" d="M151.322 123.245C163.322 121.955 175.408 121.603 187.465 122.192C188.926 122.266 188.922 120.048 187.465 119.974C175.408 119.385 163.322 119.737 151.322 121.027C149.884 121.182 149.869 123.401 151.322 123.245Z" fill="#367CFF"/>
</g>
<g opacity="0.2">
<path opacity="0.2" d="M438.891 230.354C431.892 230.217 424.894 230.299 417.897 230.601C416.878 230.646 415.355 230.439 414.875 231.565C414.709 232.276 414.688 233.011 414.811 233.729C414.857 235.405 414.842 237.082 414.825 238.757C414.787 242.432 414.682 246.107 414.663 249.782C414.626 250.769 414.647 251.756 414.724 252.74C414.719 252.948 414.766 253.155 414.86 253.341C414.955 253.528 415.095 253.69 415.268 253.812C415.771 254.026 416.321 254.117 416.868 254.078C417.7 254.127 418.533 254.165 419.367 254.192C426.213 254.435 433.072 254.202 439.911 254.635C440.164 254.633 440.406 254.534 440.586 254.359C440.765 254.184 440.866 253.947 440.868 253.7L439.979 234.119L439.852 231.291C439.797 230.093 437.883 230.086 437.936 231.291L438.824 250.872L438.953 253.7L439.911 252.765C434.308 252.413 428.689 252.506 423.079 252.417C421.72 252.394 420.362 252.363 419.004 252.312C418.352 252.286 417.699 252.256 417.046 252.221C416.759 252.179 416.468 252.161 416.178 252.169C416.564 252.766 416.718 252.936 416.64 252.681C416.633 252.654 416.628 252.627 416.623 252.601C416.584 252.635 416.631 252.759 416.618 252.459C416.611 252.259 416.6 252.06 416.594 251.861C416.579 251.343 416.579 250.82 416.579 250.3C416.584 247.001 416.676 243.702 416.723 240.404C416.747 238.713 416.767 237.022 416.755 235.331C416.75 234.718 416.743 234.107 416.722 233.496C416.735 233.234 416.724 232.973 416.689 232.713C416.669 232.593 416.661 232.47 416.665 232.348L416.416 232.54L417.264 232.501C424.469 232.171 431.679 232.08 438.894 232.226C439.02 232.226 439.144 232.202 439.26 232.154C439.377 232.107 439.482 232.038 439.571 231.951C439.66 231.864 439.73 231.761 439.778 231.647C439.826 231.534 439.851 231.412 439.851 231.289C439.851 231.166 439.826 231.044 439.777 230.931C439.729 230.817 439.658 230.714 439.569 230.627C439.48 230.541 439.374 230.472 439.258 230.425C439.141 230.378 439.017 230.354 438.891 230.354Z" fill="#367CFF"/>
<path opacity="0.2" d="M420.8 241.989C421.796 244.526 423.421 246.781 425.53 248.553C426.525 249.37 427.358 249.598 428.501 248.88C429.814 248.057 431.143 247.258 432.457 246.441C435.659 244.437 438.778 242.311 441.975 240.305C443.664 239.244 445.393 238.248 447.142 237.287C447.351 237.156 447.5 236.952 447.557 236.717C447.615 236.482 447.578 236.235 447.453 236.026C447.328 235.817 447.125 235.664 446.887 235.598C446.649 235.532 446.394 235.559 446.175 235.672C442.773 237.543 439.54 239.635 436.297 241.754C433.901 243.319 431.483 244.849 429.043 246.345C428.589 246.623 427.533 247.501 427.15 247.448C426.676 247.382 425.73 246.191 425.419 245.856C424.236 244.577 423.298 243.101 422.651 241.498C422.202 240.39 420.348 240.875 420.804 241.995L420.8 241.989Z" fill="#367CFF"/>
<path opacity="0.2" d="M420.8 275.168C421.796 277.704 423.422 279.958 425.53 281.729C426.525 282.547 427.358 282.775 428.501 282.058C429.814 281.234 431.143 280.435 432.457 279.613C435.659 277.61 438.778 275.484 441.975 273.477C443.664 272.416 445.393 271.42 447.142 270.459C447.351 270.328 447.5 270.124 447.557 269.889C447.615 269.654 447.578 269.407 447.453 269.198C447.328 268.989 447.125 268.836 446.887 268.77C446.649 268.704 446.394 268.73 446.175 268.844C442.773 270.714 439.54 272.808 436.297 274.927C433.901 276.491 431.483 278.021 429.043 279.517C428.589 279.794 427.533 280.673 427.15 280.62C426.676 280.554 425.73 279.363 425.419 279.028C424.236 277.749 423.298 276.273 422.651 274.67C422.202 273.561 420.348 274.047 420.804 275.168H420.8Z" fill="#367CFF"/>
<path opacity="0.2" d="M420.8 308.384C421.796 310.92 423.422 313.175 425.53 314.947C426.525 315.764 427.358 315.991 428.501 315.274C429.814 314.451 431.143 313.653 432.457 312.831C435.659 310.827 438.778 308.701 441.975 306.695C443.664 305.635 445.393 304.639 447.142 303.677C447.351 303.547 447.5 303.343 447.557 303.108C447.615 302.873 447.578 302.625 447.453 302.416C447.328 302.208 447.125 302.054 446.887 301.988C446.649 301.922 446.394 301.949 446.175 302.062C442.773 303.933 439.54 306.026 436.297 308.144C433.901 309.709 431.483 311.239 429.043 312.735C428.589 313.013 427.533 313.891 427.15 313.838C426.676 313.772 425.73 312.581 425.419 312.246C424.236 310.968 423.298 309.492 422.651 307.889C422.202 306.78 420.348 307.265 420.804 308.386L420.8 308.384Z" fill="#367CFF"/>
<path opacity="0.2" d="M438.891 263.528C431.892 263.391 424.894 263.473 417.897 263.774C416.878 263.819 415.355 263.612 414.875 264.739C414.709 265.449 414.688 266.185 414.811 266.903C414.857 268.578 414.842 270.256 414.825 271.93C414.787 275.606 414.682 279.281 414.663 282.957C414.626 283.943 414.647 284.93 414.724 285.914C414.719 286.123 414.766 286.329 414.86 286.516C414.955 286.703 415.095 286.865 415.268 286.987C415.771 287.2 416.321 287.292 416.868 287.252C417.701 287.3 418.534 287.336 419.367 287.365C426.213 287.609 433.072 287.377 439.911 287.809C440.164 287.807 440.406 287.708 440.585 287.533C440.764 287.358 440.866 287.121 440.868 286.874L439.979 267.293L439.852 264.465C439.797 263.266 437.883 263.26 437.936 264.465L438.824 284.046L438.953 286.874L439.911 285.939C434.308 285.587 428.689 285.68 423.079 285.59C421.72 285.568 420.362 285.537 419.004 285.485C418.352 285.46 417.699 285.43 417.046 285.394C416.759 285.352 416.468 285.335 416.178 285.343C416.564 285.939 416.718 286.11 416.64 285.854C416.633 285.828 416.628 285.801 416.623 285.774C416.584 285.808 416.631 285.933 416.618 285.633C416.611 285.433 416.6 285.233 416.594 285.034C416.579 284.517 416.579 283.994 416.579 283.474C416.584 280.175 416.676 276.876 416.723 273.578C416.747 271.887 416.767 270.195 416.755 268.504C416.75 267.892 416.743 267.281 416.722 266.669C416.735 266.408 416.724 266.146 416.689 265.887C416.668 265.765 416.66 265.641 416.665 265.518L416.416 265.711L417.264 265.671C424.469 265.341 431.679 265.25 438.894 265.396C439.137 265.381 439.365 265.276 439.532 265.102C439.698 264.928 439.791 264.699 439.791 264.461C439.79 264.223 439.697 263.994 439.53 263.821C439.363 263.647 439.134 263.543 438.891 263.528Z" fill="#367CFF"/>
<path opacity="0.2" d="M438.891 296.702C431.892 296.565 424.894 296.647 417.897 296.948C416.878 296.993 415.355 296.787 414.875 297.913C414.709 298.624 414.688 299.359 414.811 300.077C414.857 301.752 414.842 303.43 414.825 305.104C414.787 308.78 414.682 312.455 414.663 316.13C414.626 317.116 414.647 318.104 414.724 319.088C414.719 319.296 414.766 319.503 414.86 319.69C414.955 319.877 415.095 320.038 415.268 320.161C415.771 320.375 416.321 320.466 416.868 320.426C417.701 320.474 418.534 320.51 419.367 320.54C426.213 320.783 433.072 320.55 439.911 320.983C440.164 320.981 440.406 320.882 440.585 320.708C440.764 320.533 440.866 320.296 440.868 320.049L439.979 300.468L439.852 297.64C439.797 296.441 437.883 296.435 437.936 297.64L438.824 317.22L438.953 320.049L439.911 319.113C434.308 318.762 428.689 318.855 423.079 318.765C421.72 318.743 420.362 318.712 419.004 318.66C418.352 318.635 417.699 318.605 417.046 318.569C416.759 318.527 416.468 318.51 416.178 318.518C416.564 319.114 416.718 319.284 416.64 319.028C416.633 319.003 416.628 318.976 416.623 318.949C416.584 318.983 416.631 319.108 416.618 318.807C416.611 318.608 416.6 318.408 416.594 318.209C416.579 317.691 416.579 317.168 416.579 316.649C416.584 313.35 416.676 310.051 416.723 306.752C416.747 305.062 416.767 303.37 416.755 301.679C416.75 301.067 416.743 300.455 416.722 299.844C416.735 299.583 416.724 299.321 416.689 299.062C416.668 298.94 416.66 298.816 416.665 298.692L416.416 298.885C416.699 298.871 416.981 298.858 417.264 298.846C424.469 298.516 431.679 298.424 438.894 298.571C439.138 298.557 439.368 298.453 439.536 298.279C439.704 298.105 439.797 297.874 439.797 297.635C439.797 297.396 439.702 297.166 439.534 296.993C439.365 296.819 439.135 296.715 438.891 296.702Z" fill="#367CFF"/>
<path opacity="0.2" d="M454.622 236.556C454.583 237.267 454.729 237.977 455.048 238.618C455.366 239.259 455.846 239.811 456.443 240.221C457.04 240.632 457.733 240.887 458.459 240.964C459.185 241.04 459.918 240.936 460.591 240.659C462.037 240.049 462.534 238.924 463.289 237.683C463.805 236.835 464.19 237.117 465.036 237.454C465.892 237.785 466.791 237.999 467.708 238.088C471.656 238.521 475.777 237.268 479.677 236.793C483.819 236.288 487.987 236.01 492.161 235.96C496.953 235.907 501.743 236.15 506.502 236.688C507.725 236.825 507.714 234.953 506.502 234.817C498.746 233.94 490.918 233.852 483.144 234.553C479.433 234.891 475.791 235.519 472.111 236.053C470.265 236.408 468.363 236.384 466.527 235.983C465.218 235.628 463.998 234.684 462.677 235.551C461.426 236.373 461.364 238.164 460.021 238.86C459.639 239.055 459.209 239.146 458.778 239.122C458.347 239.098 457.931 238.961 457.574 238.724C457.217 238.488 456.932 238.161 456.749 237.78C456.567 237.398 456.494 236.975 456.538 236.556C456.593 235.353 454.678 235.356 454.622 236.556Z" fill="#367CFF"/>
<path opacity="0.2" d="M452.637 269.733C452.901 272.223 455.969 272.419 457.733 271.264C458.964 270.457 460.027 269.206 461.646 269.785C463.149 270.324 464.338 271.362 465.95 271.678C469.313 272.336 472.954 271.255 476.295 270.859C480.071 270.413 483.863 270.143 487.673 270.051C491.961 269.952 496.251 270.075 500.526 270.421C501.755 270.519 501.748 268.646 500.526 268.55C493.629 267.992 486.695 268.017 479.802 268.624C476.389 268.928 473.024 269.551 469.621 269.905C468.073 270.161 466.483 269.993 465.027 269.418C463.824 268.856 462.742 268.006 461.393 267.792C459.885 267.553 458.698 268.221 457.541 269.086C457.055 269.538 456.47 269.875 455.829 270.071C455.537 270.125 454.598 270.175 454.551 269.73C454.426 268.547 452.507 268.531 452.636 269.73L452.637 269.733Z" fill="#367CFF"/>
<path opacity="0.2" d="M455.296 302.208C455.483 304.998 458.893 305.722 461.174 304.873C462.764 304.281 464.288 302.89 466.057 302.871C467.064 302.974 468.04 303.276 468.924 303.758C469.897 304.159 470.901 304.484 471.927 304.731C475.801 305.658 479.837 305.544 483.784 305.248C488.073 304.93 492.345 304.548 496.647 304.429C501.706 304.29 506.763 304.39 511.818 304.729C513.049 304.81 513.044 302.94 511.818 302.859C503.616 302.324 495.384 302.404 487.194 303.098C483.43 303.541 479.633 303.665 475.846 303.467C474.015 303.322 472.211 302.947 470.478 302.353C468.823 301.774 467.311 300.814 465.481 301.047C463.588 301.287 462.187 302.55 460.441 303.147C459.539 303.454 457.3 303.546 457.21 302.203C457.129 301.008 455.214 300.999 455.295 302.203L455.296 302.208Z" fill="#367CFF"/>
</g>
<g opacity="0.2">
<path opacity="0.2" d="M493.588 43.4064C494.666 40.8979 496.005 38.5039 497.584 36.2618C498.114 35.51 498.837 34.1711 499.951 34.6006C500.979 34.9976 501.908 36.1598 502.677 36.9073C504.248 38.4354 505.822 40.07 507.788 41.1213C509.734 42.1748 512.017 42.464 514.174 41.9301C516.439 41.38 518.45 40.1313 520.493 39.0786C522.747 37.8519 525.29 37.2214 527.87 37.2496C530.658 37.4045 533.422 37.8456 536.115 38.5655C538.911 39.202 541.718 39.7595 544.564 40.152C551 41.0433 557.518 41.2295 563.996 40.7073C565.442 40.589 565.455 38.3703 563.996 38.4894C557.981 38.9843 551.93 38.8587 545.943 38.1145C542.955 37.7241 539.99 37.1867 537.058 36.5043C534.271 35.7777 531.424 35.2928 528.55 35.0553C525.839 34.8993 523.13 35.403 520.668 36.5213C518.548 37.4824 516.601 38.8398 514.375 39.565C513.324 39.9326 512.197 40.0431 511.092 39.8868C509.987 39.7304 508.938 39.3121 508.037 38.6683C506.144 37.4033 504.662 35.626 502.985 34.1171C501.966 33.2004 500.805 32.2097 499.328 32.2689C497.993 32.3229 497.022 33.2795 496.271 34.2569C494.394 36.7397 492.834 39.4366 491.626 42.2879C491.485 42.5441 491.448 42.8432 491.523 43.1248C491.599 43.4064 491.781 43.6495 492.033 43.8049C492.294 43.9514 492.603 43.9918 492.894 43.9174C493.185 43.843 493.434 43.6597 493.588 43.4072V43.4064Z" fill="#367CFF"/>
</g>
<g opacity="0.2">
<path opacity="0.2" d="M501.138 60.309L503.08 58.0764L504.172 56.8196C504.442 56.4241 504.762 56.0637 505.125 55.7468C505.751 55.3491 506.651 56.2178 507.223 56.5187C508.007 56.931 508.837 57.2535 509.697 57.4797C513.075 58.3669 516.645 57.7984 520.004 57.1175C523.695 56.2513 527.453 55.6804 531.239 55.4104C535.197 55.2426 539.157 55.4489 543.114 55.5021C547.616 55.6734 552.123 55.2866 556.526 54.351C557.945 54.0132 557.344 51.8736 555.92 52.2122C547.883 54.1255 539.577 52.865 531.413 53.1851C527.575 53.4218 523.765 53.9808 520.025 54.856C516.611 55.5694 512.846 56.3043 509.458 55.0888C507.792 54.49 506.02 52.6174 504.147 53.6982C503.298 54.3298 502.558 55.0907 501.957 55.9516L499.534 58.7425C498.593 59.8248 500.192 61.404 501.14 60.3105L501.138 60.309Z" fill="#367CFF"/>
</g>
<path d="M626.243 429H0.757171C0.556357 429 0.363768 428.922 0.22177 428.784C0.0797732 428.645 0 428.457 0 428.261C0 428.065 0.0797732 427.877 0.22177 427.738C0.363768 427.599 0.556357 427.521 0.757171 427.521H626.243C626.444 427.521 626.636 427.599 626.778 427.738C626.92 427.877 627 428.065 627 428.261C627 428.457 626.92 428.645 626.778 428.784C626.636 428.922 626.444 429 626.243 429Z" fill="#292A2E"/>
<path d="M427.949 427.88H512.381V404.222H427.949V427.88Z" fill="#367CFF"/>
<path opacity="0.69" d="M427.949 427.88H512.381V404.222H427.949V427.88Z" fill="white"/>
<path opacity="0.65" d="M439.287 427.88H450.35V404.222H439.287V427.88Z" fill="white"/>
<path opacity="0.65" d="M455.591 422.739H501.592V408.719H455.591V422.739Z" fill="white"/>
<path d="M407.817 404.245H491.089V380.587H407.817V404.245Z" fill="#367CFF"/>
<path opacity="0.6" d="M407.817 404.245H491.089V380.587H407.817V404.245Z" fill="white"/>
<path opacity="0.42" d="M418.458 399.103H463.827V385.084H418.458V399.103Z" fill="white"/>
<path opacity="0.42" d="M468.995 404.246H479.907V380.588H468.995V404.246Z" fill="white"/>
<path d="M367.158 427.88L422.011 365.208L403.592 349.838L348.738 412.51L367.158 427.88Z" fill="#367CFF"/>
<path opacity="0.78" d="M367.158 427.88L422.011 365.208L403.592 349.838L348.738 412.51L367.158 427.88Z" fill="white"/>
<path opacity="0.2" d="M374.525 419.463L381.712 411.251L363.293 395.881L356.105 404.093L374.525 419.463Z" fill="#367CFF"/>
<path opacity="0.2" d="M381.113 404.021L410.999 369.875L400.084 360.767L370.198 394.913L381.113 404.021Z" fill="#367CFF"/>
<path d="M601.636 307.172L522.982 399.095L524.726 400.518L603.379 308.595L601.636 307.172Z" fill="#292A2E"/>
<path d="M566.729 390.848H557.454V422.74H566.729V390.848Z" fill="#367CFF"/>
<path d="M557.454 407.403L566.728 412.544V405.601L557.454 407.403Z" fill="#292A2E"/>
<path d="M575.799 422.739H549.586C548.234 422.739 547.137 423.809 547.137 425.13V425.13C547.137 426.451 548.234 427.521 549.586 427.521H575.799C577.151 427.521 578.247 426.451 578.247 425.13V425.13C578.247 423.809 577.151 422.739 575.799 422.739Z" fill="#367CFF"/>
<path d="M562.091 415.502C553.501 415.489 545.006 413.753 537.131 410.402C529.257 407.05 522.172 402.155 516.315 396.019C516.11 395.803 516.001 395.517 516.012 395.223C516.023 394.929 516.154 394.651 516.375 394.45C516.595 394.25 516.889 394.144 517.19 394.155C517.491 394.166 517.776 394.293 517.981 394.509C523.716 400.538 530.683 405.325 538.432 408.56C546.181 411.795 554.539 413.406 562.966 413.289C571.393 413.172 579.701 411.329 587.352 407.88C595.004 404.43 601.828 399.451 607.385 393.265C612.942 387.078 617.107 379.822 619.611 371.964C622.115 364.107 622.902 355.825 621.921 347.652C620.941 339.479 618.214 331.598 613.918 324.519C609.622 317.44 603.852 311.32 596.981 306.555C596.856 306.472 596.749 306.365 596.667 306.241C596.585 306.117 596.529 305.979 596.502 305.833C596.475 305.688 596.479 305.539 596.512 305.395C596.545 305.251 596.607 305.115 596.695 304.994C596.783 304.874 596.894 304.772 597.023 304.695C597.151 304.617 597.294 304.565 597.444 304.542C597.593 304.519 597.746 304.526 597.892 304.561C598.039 304.597 598.177 304.66 598.299 304.749C609.1 312.246 617.181 322.902 621.373 335.177C625.566 347.452 625.654 360.71 621.624 373.037C617.594 385.364 609.655 396.121 598.954 403.754C588.253 411.387 575.344 415.501 562.091 415.502Z" fill="#292A2E"/>
<path d="M562.091 407.403C592.023 407.403 616.288 383.711 616.288 354.486C616.288 325.261 592.023 301.569 562.091 301.569C532.16 301.569 507.895 325.261 507.895 354.486C507.895 383.711 532.16 407.403 562.091 407.403Z" fill="#367CFF"/>
<path opacity="0.5" d="M562.091 407.403C592.023 407.403 616.288 383.711 616.288 354.486C616.288 325.261 592.023 301.569 562.091 301.569C532.16 301.569 507.895 325.261 507.895 354.486C507.895 383.711 532.16 407.403 562.091 407.403Z" fill="white"/>
<g opacity="0.4">
<path opacity="0.4" d="M612.602 373.716C609.138 382.369 603.406 389.98 595.98 395.788C588.554 401.595 579.696 405.396 570.292 406.808C569.58 404.597 568.868 402.379 568.164 400.169C566.96 396.42 565.832 392.073 568.027 388.783C569.087 387.194 570.776 386.129 572.291 384.946C575.499 382.42 578.062 379.201 579.779 375.543C580.642 373.687 581.384 371.602 583.118 370.464C584.204 369.845 585.417 369.471 586.669 369.369C591.183 368.801 595.751 368.791 600.267 369.34C603.463 369.687 606.697 370.242 609.543 371.698C610.633 372.263 611.659 372.939 612.602 373.716Z" fill="white"/>
</g>
<g opacity="0.4">
<path opacity="0.4" d="M616.244 352.393C610.895 351.832 605.711 350.249 600.987 347.735C599.067 346.802 597.359 345.499 595.967 343.906C594.879 342.458 594.102 340.811 593.681 339.063C593.068 336.758 592.848 334.37 593.03 331.996C593.295 328.573 594.355 324.898 592.681 321.882C591.447 319.649 588.979 318.348 586.51 317.535C584.042 316.722 581.445 316.278 579.128 315.14C577.854 314.598 576.807 313.649 576.16 312.448C575.723 311.236 575.631 309.93 575.895 308.671C576.186 306.965 576.63 305.288 577.22 303.658C588.136 306.761 597.778 313.135 604.781 321.881C611.784 330.627 615.794 341.3 616.244 352.393Z" fill="white"/>
</g>
<g opacity="0.4">
<path opacity="0.4" d="M563.53 345.998C563.878 354.618 549.621 354.973 547.63 362.447C546.047 366.957 547.962 371.859 548.894 376.538C551.506 389.691 540.376 394.6 530.009 397.135C519.462 389.57 512.073 378.535 509.208 366.066C506.342 353.597 508.194 340.537 514.42 329.297C516.364 329.011 518.331 328.9 520.296 328.964C525.921 327.671 529.586 322.488 534.447 319.427C542.193 314.452 554.058 313.084 555.973 322.436C557.457 329.667 550.696 330.791 552.68 336.816C554.3 341.385 562.485 341.266 563.53 345.998Z" fill="white"/>
</g>
<path d="M327.069 177.802C327.275 177.249 327.593 176.743 328.006 176.315C328.418 175.887 328.915 175.545 329.467 175.31C330.019 175.076 330.615 174.953 331.217 174.951C331.819 174.948 332.415 175.066 332.969 175.296C334.026 175.777 334.856 176.632 335.292 177.688C335.727 178.744 335.736 179.922 335.316 180.984L333.272 186.477L346.095 173.711C347.685 172.077 350.713 171.067 352.473 172.933C353.997 174.35 357.52 174.787 358.091 177.443C358.111 177.457 358.075 201.762 356.597 203.277C350.326 209.709 335.166 210.951 326.708 207.686L313.397 202.547L327.069 177.802Z" fill="#E98862"/>
<g opacity="0.1">
<path opacity="0.1" d="M327.069 177.802C327.275 177.249 327.593 176.743 328.006 176.315C328.418 175.887 328.915 175.545 329.467 175.31C330.019 175.076 330.615 174.953 331.217 174.951C331.819 174.948 332.415 175.066 332.969 175.296C334.026 175.777 334.856 176.632 335.292 177.688C335.727 178.744 335.736 179.922 335.316 180.984L333.272 186.477L346.095 173.711C347.685 172.077 350.713 171.067 352.473 172.933C353.997 174.35 357.52 174.787 358.091 177.443C358.111 177.457 358.075 201.762 356.597 203.277C350.326 209.709 335.166 210.951 326.708 207.686L313.397 202.547L327.069 177.802Z" fill="#0C0C0C"/>
</g>
<path d="M340.179 204.116C339.696 204.116 339.22 204.004 338.79 203.787C338.361 203.571 337.991 203.258 337.71 202.873C337.43 202.489 337.249 202.044 337.18 201.577C337.112 201.11 337.159 200.634 337.318 200.189L389.799 52.5782C389.924 52.2048 390.124 51.8594 390.387 51.5622C390.65 51.2651 390.972 51.0221 391.332 50.8476C391.693 50.6731 392.085 50.5704 392.487 50.5457C392.888 50.5209 393.291 50.5746 393.671 50.7035C394.051 50.8323 394.401 51.0339 394.701 51.2964C395 51.5588 395.243 51.8769 395.415 52.2321C395.587 52.5872 395.685 52.9723 395.703 53.3648C395.721 53.7573 395.659 54.1494 395.52 54.5181L343.04 202.125C342.834 202.706 342.448 203.21 341.935 203.567C341.423 203.924 340.809 204.116 340.179 204.116Z" fill="#0A0A0A"/>
<path d="M339.628 193.003C339.843 192.26 340.301 191.605 340.932 191.139C341.563 190.673 342.332 190.422 343.124 190.422C343.114 190.361 343.048 190.218 343.155 190.207L340.43 188.916C339.618 188.552 338.97 187.914 338.603 187.12C338.236 186.326 338.176 185.428 338.434 184.594C338.717 183.779 339.299 183.095 340.069 182.675C340.838 182.255 341.74 182.129 342.599 182.321C342.587 182.288 342.604 182.252 342.603 182.217L341.484 181.687C340.722 181.341 340.105 180.748 339.738 180.01C339.371 179.271 339.277 178.431 339.472 177.632C339.604 177.134 339.848 176.671 340.186 176.275C340.524 175.88 340.948 175.564 341.427 175.348C341.906 175.132 342.427 175.022 342.955 175.027C343.482 175.032 344.001 175.151 344.476 175.376L347.059 176.601C347.064 176.586 347.054 176.572 347.059 176.558C347.065 176.544 347.09 176.536 347.102 176.52C346.471 176.028 346.03 175.342 345.852 174.574C345.673 173.806 345.766 173.002 346.117 172.292C346.903 170.405 349.471 170.334 351.141 171.126L356.204 174.019C356.985 174.466 357.641 175.094 358.113 175.848C358.586 176.602 358.86 177.459 358.911 178.341C359.366 185.978 360.053 205.95 354.723 203.423L341.6 197.201C340.841 196.814 340.235 196.192 339.877 195.432C339.52 194.672 339.432 193.817 339.628 193.003Z" fill="#E98862"/>
<path d="M58.4976 172.497C58.4976 172.497 56.8727 196.314 51.3847 204.952C35.5871 229.831 31.0084 257.816 46.8303 272.436C62.6521 287.056 163.563 287.26 171.208 253.631C177.644 225.32 163.832 222.276 160.472 198.923C158.951 188.353 154.766 166.195 154.766 166.195" fill="#0A0A0A"/>
<path d="M145.088 248.701C144.914 248.679 142.98 279.995 105.72 277.265C79.9247 275.378 70.7274 248.654 70.133 248.654C72.9141 248.078 77.5979 247.238 78.8329 246.595C82.8944 244.463 87.919 242.246 89.2296 234.544C89.9868 230.108 88.7041 207.395 89.0979 202.902L128.698 211.531C128.144 221.016 124.272 243.007 137.845 246.898C140.102 247.547 142.534 248.139 145.088 248.701Z" fill="#E98862"/>
<path opacity="0.5" d="M129.249 237.916C128.629 235.964 128.229 233.952 128.058 231.916C127.622 227.268 127.709 222.588 128.317 217.959C120.27 216.899 112.689 213.655 106.435 208.598C105.7 211.249 101.656 222.834 102.775 225.354C104.892 230.116 114.837 237.916 129.249 237.916Z" fill="#0C0C0C"/>
<path d="M124.131 228.159C108.521 229.637 88.3225 223.537 84.1377 203.238L80.3624 184.923C76.1783 164.625 83.7053 146.024 103.28 142.177C122.853 138.333 140.876 151.911 145.06 172.209L146.732 180.318C148.337 188.106 151.985 225.528 124.131 228.159Z" fill="#E98862"/>
<path opacity="0.1" d="M114.209 201.559C116.778 201.26 118.678 199.526 118.453 197.686C118.229 195.846 115.964 194.598 113.395 194.897C110.826 195.196 108.925 196.93 109.15 198.77C109.375 200.61 111.64 201.859 114.209 201.559Z" fill="#0C0C0C"/>
<path opacity="0.1" d="M141.355 194.204C141.582 196.041 143.849 197.288 146.419 196.993C146.863 196.941 147.3 196.844 147.723 196.704C147.842 194.513 147.85 192.405 147.784 190.454C147.071 190.28 146.33 190.238 145.601 190.33C143.03 190.626 141.131 192.36 141.355 194.204Z" fill="#0C0C0C"/>
<path opacity="0.5" d="M130.006 199.883L130.045 199.877C130.838 199.715 131.622 199.511 132.392 199.265C133.542 198.89 135.046 198.273 134.836 197.258C134.599 196.101 128.779 184.26 128.119 182.916C128.059 182.801 127.955 182.715 127.831 182.674C127.706 182.633 127.57 182.641 127.452 182.697C127.333 182.753 127.242 182.851 127.197 182.972C127.152 183.092 127.156 183.225 127.21 183.342C129.691 188.385 133.688 196.675 133.848 197.455C133.723 197.818 131.816 198.527 129.848 198.914C129.783 198.924 129.72 198.947 129.664 198.981C129.608 199.015 129.559 199.059 129.52 199.112C129.481 199.164 129.454 199.223 129.438 199.286C129.423 199.349 129.421 199.414 129.431 199.478C129.442 199.541 129.465 199.603 129.5 199.658C129.535 199.712 129.58 199.76 129.634 199.798C129.687 199.836 129.748 199.863 129.812 199.878C129.877 199.893 129.943 199.895 130.009 199.885L130.006 199.883Z" fill="#0C0C0C"/>
<path d="M64.745 191.497L82.2932 188.151C95.5482 182.738 99.3091 160.181 99.3091 160.181C99.3091 160.181 115.669 175.393 154.768 166.195C154.768 166.195 146.275 112.902 88.5421 129.078C69.9263 134.294 56.7409 152.821 58.702 177.36C60.0763 194.557 64.745 191.497 64.745 191.497Z" fill="#0A0A0A"/>
<path d="M86.6287 209.184C80.6796 210.353 74.5768 205.087 73.3782 199.277C72.1796 193.468 76.3433 189.318 82.2917 188.149L86.1585 191.438L91.7412 208.177L86.6287 209.184Z" fill="#E98862"/>
<path d="M132.331 173.472C133.819 172.444 135.56 171.82 137.376 171.663C138.287 171.578 139.206 171.628 140.102 171.811C141.006 171.991 141.884 172.281 142.715 172.675L142.741 172.687C142.833 172.726 142.938 172.729 143.032 172.695C143.126 172.66 143.203 172.591 143.246 172.503C143.288 172.414 143.294 172.312 143.261 172.219C143.228 172.126 143.159 172.05 143.069 172.006C142.189 171.552 141.254 171.208 140.286 170.983C139.311 170.751 138.306 170.664 137.305 170.725C135.277 170.834 133.316 171.473 131.626 172.573C131.563 172.615 131.509 172.668 131.468 172.73C131.426 172.792 131.397 172.862 131.383 172.934C131.369 173.007 131.369 173.082 131.385 173.155C131.4 173.228 131.43 173.297 131.473 173.358C131.516 173.419 131.57 173.472 131.634 173.513C131.698 173.553 131.769 173.581 131.843 173.595C131.918 173.609 131.995 173.608 132.069 173.593C132.144 173.578 132.214 173.549 132.277 173.507L132.291 173.498L132.331 173.472Z" fill="#0C0C0C"/>
<path d="M116.302 175.635C114.309 175.248 112.246 175.391 110.329 176.047C109.381 176.366 108.488 176.822 107.679 177.4C106.873 177.97 106.144 178.637 105.508 179.385C105.441 179.459 105.406 179.556 105.412 179.654C105.417 179.753 105.462 179.846 105.537 179.912C105.612 179.979 105.71 180.014 105.811 180.01C105.913 180.006 106.008 179.964 106.077 179.892L106.098 179.871C106.711 179.197 107.408 178.601 108.173 178.097C108.93 177.592 109.761 177.202 110.637 176.941C112.376 176.408 114.229 176.334 116.007 176.727L116.051 176.737C116.2 176.773 116.357 176.749 116.488 176.671C116.619 176.593 116.713 176.467 116.749 176.321C116.786 176.176 116.761 176.022 116.681 175.894C116.601 175.766 116.473 175.675 116.323 175.639L116.302 175.635Z" fill="#0C0C0C"/>
<path d="M82.3045 187.87C94.1013 183.582 98.0151 175.628 99.2213 169.709C100.001 165.762 99.9281 161.699 99.007 157.781L98.642 157.878C99.5487 161.746 99.6186 165.756 98.8472 169.651C97.6577 175.473 93.7984 183.299 82.1728 187.524L82.3045 187.87Z" fill="#0C0C0C"/>
<path d="M175.437 252.425L287.443 288.982L254.558 303.255L310.405 191.384L356.049 212.153L304.231 325.856C301.611 331.606 296.958 336.243 291.125 338.921C285.292 341.598 278.666 342.136 272.46 340.438L271.346 340.129L157.643 308.96L175.437 252.425Z" fill="#367CFF"/>
<path d="M105.024 269.437C79.2115 268.249 78.125 246.856 78.125 246.856C78.125 246.856 65.3348 247.666 56.8318 248.787C42.912 250.623 33.729 255.234 26.4253 262.369C19.6274 269.006 15.4887 276.188 19.8682 322.039C23.0392 355.237 20.8071 428.261 20.8071 428.261H178.109C178.109 428.261 189.094 322.762 190.396 307.82C192.882 279.292 199.902 272.993 185.677 258.298C175.361 247.64 148.727 246.856 138.007 246.858C137.829 246.858 140.178 271.054 105.024 269.437Z" fill="#367CFF"/>
<path d="M158.755 357.423L182.434 347.097C182.954 346.87 183.517 346.752 184.087 346.749C184.657 346.746 185.221 346.86 185.743 347.081C186.266 347.303 186.736 347.629 187.122 348.038C187.509 348.446 187.804 348.929 187.989 349.455C188.299 350.437 188.226 351.497 187.782 352.428C187.338 353.36 186.556 354.098 185.587 354.498L180.509 356.716L199.749 356.909C201.888 356.894 204.524 358.212 204.383 360.557C204.388 361.462 204.079 362.341 203.507 363.053C202.934 363.764 202.132 364.266 201.23 364.475C201.235 364.495 201.238 364.515 201.24 364.535C201.237 364.55 201.234 364.566 201.23 364.581L204.529 364.558C205.139 364.554 205.743 364.683 206.297 364.936C206.85 365.188 207.338 365.558 207.727 366.019C208.115 366.479 208.393 367.018 208.541 367.597C208.689 368.175 208.703 368.779 208.582 369.363C208.372 370.281 207.846 371.1 207.091 371.685C206.336 372.269 205.399 372.582 204.436 372.572L203.032 372.582C203.013 372.622 202.988 372.658 202.956 372.689C203.906 372.897 204.749 373.429 205.334 374.188C205.92 374.948 206.21 375.886 206.152 376.835C206.058 377.872 205.567 378.836 204.777 379.535C203.987 380.234 202.955 380.616 201.889 380.605L198.402 380.63C198.451 380.663 198.491 380.707 198.52 380.758C198.548 380.81 198.564 380.867 198.565 380.925C198.563 380.995 198.539 381.063 198.498 381.12C199.291 381.535 199.923 382.193 200.296 382.993C200.669 383.793 200.763 384.69 200.563 385.547C200.333 386.442 199.801 387.236 199.053 387.8C198.304 388.363 197.382 388.663 196.437 388.652L167.014 388.856C162.898 388.885 158.866 387.713 155.437 385.49C152.007 383.267 149.336 380.095 147.765 376.38C146.41 373.177 146.388 369.584 147.703 366.366C149.018 363.147 151.566 360.555 154.807 359.142L158.755 357.423Z" fill="#E98862"/>
<g opacity="0.2">
<path opacity="0.2" d="M182.185 364.378C182.186 364.475 182.227 364.567 182.298 364.635C182.368 364.703 182.464 364.741 182.563 364.741L200.861 364.902C200.961 364.903 201.058 364.865 201.13 364.797C201.201 364.728 201.242 364.634 201.243 364.536C201.244 364.438 201.205 364.344 201.134 364.274C201.064 364.204 200.968 364.164 200.868 364.163L182.57 364.002C182.47 364.002 182.373 364.041 182.302 364.11C182.231 364.18 182.191 364.274 182.191 364.372L182.185 364.378Z" fill="#0C0C0C"/>
</g>
<g opacity="0.2">
<path opacity="0.2" d="M181.889 372.255C181.891 372.352 181.931 372.445 182.002 372.513C182.073 372.581 182.168 372.619 182.268 372.619L202.689 372.799C202.789 372.799 202.885 372.76 202.956 372.691C203.027 372.621 203.067 372.527 203.067 372.429C203.064 372.332 203.023 372.24 202.953 372.172C202.882 372.103 202.788 372.063 202.689 372.06L182.269 371.88C182.168 371.88 182.072 371.919 182.001 371.988C181.93 372.057 181.89 372.152 181.89 372.25L181.889 372.255Z" fill="#0C0C0C"/>
</g>
<g opacity="0.2">
<path opacity="0.2" d="M181.519 380.785C181.52 380.882 181.561 380.975 181.632 381.043C181.703 381.111 181.798 381.149 181.898 381.149L198.187 381.293C198.236 381.293 198.286 381.284 198.332 381.266C198.378 381.248 198.42 381.221 198.455 381.187C198.491 381.153 198.519 381.112 198.538 381.068C198.558 381.023 198.568 380.975 198.569 380.926C198.569 380.878 198.56 380.83 198.541 380.785C198.522 380.74 198.495 380.699 198.46 380.664C198.425 380.629 198.384 380.602 198.338 380.583C198.292 380.564 198.243 380.554 198.193 380.553L181.904 380.41C181.804 380.41 181.708 380.449 181.637 380.518C181.566 380.587 181.526 380.682 181.526 380.78L181.519 380.785Z" fill="#0C0C0C"/>
</g>
<path d="M165.532 398.589L34.2484 427.728C29.8871 428.192 25.4751 427.662 21.3586 426.181C17.2422 424.7 13.5332 422.308 10.5227 419.192C7.51219 416.076 5.28208 412.322 4.00734 408.223C2.7326 404.124 2.4479 399.793 3.17559 395.569L18.1994 277.576C18.818 273.986 20.1548 270.549 22.1335 267.463C24.1122 264.377 26.694 261.702 29.7316 259.59C32.7692 257.479 36.2031 255.972 39.8371 255.156C43.4712 254.34 47.2342 254.231 50.9115 254.835C54.5887 255.439 58.1081 256.744 61.2687 258.676C64.4293 260.608 67.1692 263.129 69.332 266.095C71.4948 269.061 73.0382 272.413 73.8739 275.962C74.7096 279.51 74.8214 283.184 74.2028 286.775L66.965 371.226L158.177 351.072L165.532 398.589Z" fill="#367CFF"/>
<path d="M48.5082 374.547C48.4131 374.547 48.3217 374.511 48.2522 374.448C48.1826 374.384 48.1401 374.298 48.1331 374.205C48.126 374.113 48.1549 374.021 48.214 373.948C48.2732 373.875 48.3582 373.827 48.4522 373.812L66.7462 369.998C66.7955 369.991 66.8458 369.992 66.8943 370.004C66.9428 370.015 66.9885 370.036 67.0286 370.065C67.0688 370.094 67.1026 370.13 67.1281 370.172C67.1536 370.214 67.1702 370.261 67.177 370.309C67.1918 370.406 67.1666 370.504 67.107 370.583C67.0474 370.662 66.9582 370.714 66.859 370.729L48.565 374.543C48.5462 374.546 48.5272 374.547 48.5082 374.547Z" fill="#0C0C0C"/>
<path d="M38.1864 428.26C38.086 428.267 37.9872 428.234 37.9116 428.169C37.8361 428.104 37.79 428.013 37.7836 427.914C37.7772 427.816 37.8109 427.72 37.8774 427.646C37.9438 427.572 38.0376 427.527 38.138 427.521L164.708 398.417L157.536 351.619L66.8688 370.73C66.8102 370.737 66.7506 370.731 66.6948 370.712C66.639 370.693 66.5884 370.662 66.547 370.621C66.5057 370.579 66.475 370.529 66.4574 370.473C66.4398 370.418 66.4357 370.359 66.4456 370.302L71.5307 322.048C71.5384 322 71.5559 321.954 71.5822 321.912C71.6084 321.871 71.643 321.835 71.6837 321.807C71.7244 321.778 71.7705 321.758 71.8193 321.748C71.868 321.737 71.9185 321.736 71.9676 321.745C72.0666 321.761 72.1549 321.815 72.2132 321.895C72.2714 321.975 72.2947 322.074 72.2781 322.171L67.2807 369.93L157.712 350.804C157.761 350.791 157.812 350.787 157.862 350.793C157.912 350.8 157.96 350.816 158.004 350.841C158.047 350.866 158.085 350.899 158.115 350.939C158.146 350.978 158.168 351.023 158.18 351.071L165.535 398.588C165.558 398.681 165.543 398.78 165.493 398.863C165.444 398.945 165.363 399.006 165.268 399.031L38.2372 428.257C38.2203 428.26 38.2034 428.261 38.1864 428.26Z" fill="#0C0C0C"/>
<path d="M135.236 203.884C130.164 206.402 124.377 207.198 118.79 206.147C118.596 206.111 118.396 206.13 118.213 206.201C118.03 206.272 117.872 206.392 117.757 206.548C117.641 206.704 117.574 206.889 117.562 207.081C117.55 207.272 117.595 207.464 117.69 207.632C119.356 210.498 123.308 215.394 130.085 213.398C134.462 212.109 136.117 207.712 136.73 204.993C136.772 204.805 136.758 204.609 136.689 204.429C136.621 204.248 136.502 204.091 136.345 203.974C136.188 203.858 136 203.787 135.804 203.771C135.608 203.755 135.411 203.794 135.236 203.884Z" fill="white"/>
<path d="M135.553 181.858C136.907 181.858 138.004 180.786 138.004 179.464C138.004 178.143 136.907 177.071 135.553 177.071C134.2 177.071 133.102 178.143 133.102 179.464C133.102 180.786 134.2 181.858 135.553 181.858Z" fill="#0C0C0C"/>
<path d="M112.002 185.884C113.355 185.884 114.453 184.812 114.453 183.491C114.453 182.169 113.355 181.097 112.002 181.097C110.648 181.097 109.551 182.169 109.551 183.491C109.551 184.812 110.648 185.884 112.002 185.884Z" fill="#0C0C0C"/>
<path d="M190.042 318.212C190.027 318.213 190.011 318.213 189.996 318.212C189.946 318.206 189.898 318.191 189.855 318.167C189.812 318.143 189.774 318.111 189.743 318.072C189.713 318.034 189.69 317.99 189.677 317.943C189.664 317.897 189.66 317.848 189.666 317.799L192.102 298.521C192.107 298.472 192.122 298.425 192.147 298.382C192.171 298.34 192.204 298.302 192.243 298.272C192.283 298.242 192.328 298.221 192.376 298.208C192.425 298.196 192.475 298.193 192.525 298.2C192.624 298.212 192.714 298.262 192.776 298.339C192.838 298.417 192.865 298.514 192.853 298.612L190.417 317.89C190.405 317.979 190.361 318.061 190.292 318.12C190.223 318.179 190.134 318.212 190.042 318.212Z" fill="#0C0C0C"/>
</svg>
