<svg width="740" height="706" viewBox="0 0 740 706" fill="none" xmlns="http://www.w3.org/2000/svg">
<rect x="514.241" width="501.086" height="575.334" rx="123" transform="rotate(63.3326 514.241 0)" fill="#396FA1"/>
<path d="M187.073 559.212H623.121C633.83 559.212 642.51 550.736 642.51 540.281V228.562C642.51 218.106 633.83 209.631 623.121 209.631L187.073 209.631C176.365 209.631 167.684 218.106 167.684 228.562L167.684 540.281C167.684 550.736 176.365 559.212 187.073 559.212Z" fill="white"/>
<path d="M167.038 540.281V228.563C167.044 223.375 169.157 218.402 172.914 214.735C176.671 211.067 181.764 209.005 187.077 209H623.121C628.433 209.006 633.526 211.069 637.282 214.736C641.038 218.404 643.151 223.376 643.157 228.563V540.281C643.151 545.467 641.038 550.439 637.282 554.107C633.526 557.774 628.433 559.837 623.121 559.843H187.077C181.764 559.838 176.671 557.776 172.914 554.108C169.157 550.441 167.044 545.468 167.038 540.281V540.281ZM187.077 210.262C182.108 210.267 177.344 212.197 173.83 215.628C170.316 219.059 168.339 223.711 168.334 228.563V540.281C168.339 545.133 170.316 549.784 173.83 553.215C177.344 556.646 182.108 558.576 187.077 558.581H623.121C628.09 558.576 632.854 556.646 636.368 553.215C639.882 549.784 641.858 545.133 641.864 540.281V228.563C641.858 223.711 639.882 219.059 636.368 215.628C632.854 212.197 628.09 210.267 623.121 210.262H187.077Z" fill="#292A2E"/>
<path d="M593.612 412.642H303C302.681 412.642 302.376 412.519 302.15 412.299C301.925 412.079 301.798 411.78 301.798 411.469V249.533C301.798 249.379 301.829 249.226 301.89 249.084C301.95 248.941 302.039 248.812 302.15 248.703C302.262 248.594 302.394 248.508 302.54 248.449C302.686 248.39 302.842 248.359 303 248.359C303.158 248.359 303.314 248.39 303.46 248.449C303.606 248.508 303.738 248.594 303.85 248.703C303.961 248.812 304.05 248.941 304.11 249.084C304.171 249.226 304.202 249.379 304.202 249.533V410.296H593.612C593.931 410.296 594.237 410.419 594.462 410.639C594.687 410.86 594.814 411.158 594.814 411.469C594.814 411.78 594.687 412.079 594.462 412.299C594.237 412.519 593.931 412.642 593.612 412.642V412.642Z" fill="#0CBC8B"/>
<path opacity="0.2" d="M323.201 388.408H323.855C333.281 388.408 342.523 385.855 350.552 381.035C358.581 376.214 365.084 369.313 369.338 361.1L406.61 289.131C425.52 252.617 478.972 252.749 497.691 289.352L534.263 360.87C538.493 369.143 545.001 376.101 553.055 380.964C561.109 385.828 570.392 388.404 579.862 388.404V388.404" fill="#0CBC8B"/>
<path d="M579.863 389.429C570.193 389.461 560.706 386.845 552.481 381.879C544.256 376.912 537.622 369.793 533.332 361.33L496.76 289.813C492.709 281.664 486.374 274.805 478.491 270.031C470.607 265.258 461.499 262.765 452.223 262.844H452.085C442.833 262.744 433.741 265.203 425.859 269.936C417.978 274.669 411.629 281.483 407.547 289.591L370.275 361.56C365.958 369.96 359.327 377.018 351.128 381.942C342.929 386.865 333.486 389.459 323.861 389.432H323.207C323.068 389.436 322.929 389.412 322.798 389.362C322.668 389.313 322.549 389.238 322.449 389.143C322.349 389.048 322.27 388.934 322.215 388.808C322.161 388.682 322.133 388.547 322.133 388.411C322.133 388.274 322.161 388.139 322.215 388.013C322.27 387.888 322.349 387.774 322.449 387.679C322.549 387.583 322.668 387.509 322.798 387.459C322.929 387.409 323.068 387.386 323.207 387.389H323.861C333.099 387.416 342.162 384.927 350.031 380.202C357.901 375.478 364.265 368.704 368.41 360.642L405.682 288.673C409.997 280.271 416.627 273.212 424.827 268.288C433.026 263.364 442.47 260.772 452.096 260.801H452.232C461.88 260.795 471.338 263.422 479.538 268.388C487.738 273.353 494.352 280.458 498.635 288.9L535.206 360.417C539.324 368.54 545.692 375.373 553.587 380.14C561.481 384.907 570.587 387.418 579.87 387.386C580.142 387.393 580.401 387.504 580.591 387.695C580.781 387.886 580.888 388.141 580.888 388.408C580.888 388.674 580.781 388.93 580.591 389.12C580.401 389.311 580.142 389.422 579.87 389.429H579.863Z" fill="#0CBC8B"/>
<g opacity="0.2">
<path opacity="0.2" d="M292.994 450.716C295.285 447.066 298.094 443.751 301.338 440.87C302.803 439.571 304.518 437.86 306.462 437.297C307.144 437.128 307.858 437.131 308.538 437.304C309.219 437.477 309.843 437.815 310.354 438.286C312.816 440.236 314.422 443.07 317.203 444.667C319.831 446.176 322.887 446.08 325.711 445.19C328.759 444.229 331.541 442.616 334.44 441.321C337.091 440.138 340.128 439.076 343.054 439.842C346.461 440.729 348.866 443.592 352.02 444.998C353.791 445.819 355.786 446.06 357.708 445.685C359.972 445.25 362.088 444.164 364.25 443.408C374.092 439.989 384.62 438.883 394.981 440.178C396.427 440.357 396.413 438.138 394.981 437.96C385.625 436.805 376.125 437.558 367.082 440.172C364.761 440.845 362.506 441.673 360.259 442.55C358.266 443.328 356.21 444.029 354.072 443.405C350.637 442.409 348.179 439.444 344.882 438.117C338.446 435.53 332.302 440.256 326.601 442.517C323.951 443.568 320.969 444.257 318.348 442.753C315.56 441.151 313.964 438.151 311.388 436.28C310.719 435.763 309.95 435.383 309.127 435.163C308.304 434.943 307.445 434.887 306.599 435C304.252 435.362 302.312 437.104 300.578 438.57C296.838 441.747 293.62 445.466 291.036 449.596C290.269 450.815 292.233 451.931 292.997 450.716H292.994Z" fill="#367CFF"/>
</g>
<g opacity="0.2">
<path opacity="0.2" d="M194.146 288.349C213.494 287.324 232.857 286.644 252.234 286.306C257.769 286.211 263.304 286.144 268.84 286.105C269.141 286.105 269.43 285.988 269.643 285.78C269.856 285.572 269.976 285.29 269.976 284.996C269.976 284.702 269.856 284.419 269.643 284.212C269.43 284.004 269.141 283.887 268.84 283.887C249.465 284.025 230.096 284.508 210.735 285.336C205.204 285.573 199.675 285.838 194.146 286.131C192.693 286.209 192.684 288.427 194.146 288.349V288.349Z" fill="#367CFF"/>
<path opacity="0.2" d="M198.3 301.196C217.384 300.125 236.48 299.318 255.589 298.775C260.995 298.621 266.401 298.489 271.807 298.379C273.267 298.349 273.272 296.131 271.807 296.161C252.696 296.556 233.594 297.212 214.499 298.131C209.098 298.392 203.698 298.674 198.3 298.978C196.847 299.059 196.837 301.278 198.3 301.196V301.196Z" fill="#367CFF"/>
<path opacity="0.2" d="M198.34 316.199C217.888 316.914 267.855 312.816 273.3 312.006C274.738 311.792 274.128 309.655 272.694 309.867C253.519 312.721 203.803 314.181 198.34 313.981C196.877 313.928 196.881 316.146 198.34 316.199Z" fill="#367CFF"/>
<path opacity="0.2" d="M198.322 332.245C210.322 330.955 222.408 330.603 234.465 331.192C235.926 331.266 235.922 329.048 234.465 328.974C222.408 328.385 210.322 328.737 198.322 330.027C196.884 330.182 196.869 332.401 198.322 332.245Z" fill="#367CFF"/>
</g>
<g opacity="0.2">
<path opacity="0.2" d="M485.891 439.355C478.893 439.217 471.895 439.299 464.897 439.601C463.878 439.646 462.355 439.439 461.876 440.566C461.71 441.276 461.688 442.011 461.811 442.73C461.858 444.405 461.842 446.082 461.825 447.757C461.787 451.432 461.683 455.107 461.663 458.783C461.627 459.769 461.647 460.756 461.724 461.74C461.719 461.948 461.766 462.155 461.861 462.342C461.955 462.529 462.095 462.69 462.268 462.813C462.772 463.026 463.321 463.117 463.869 463.078C464.7 463.127 465.533 463.165 466.367 463.192C473.213 463.435 480.072 463.202 486.911 463.635C487.164 463.634 487.407 463.535 487.586 463.36C487.765 463.185 487.866 462.948 487.868 462.7L486.98 443.119L486.852 440.291C486.797 439.093 484.883 439.086 484.936 440.291L485.824 459.872L485.953 462.7L486.911 461.765C481.308 461.413 475.69 461.506 470.079 461.417C468.721 461.395 467.362 461.364 466.005 461.312C465.352 461.287 464.699 461.256 464.047 461.221C463.759 461.179 463.469 461.162 463.178 461.169C463.565 461.766 463.719 461.937 463.64 461.681C463.633 461.654 463.628 461.628 463.623 461.601C463.584 461.635 463.631 461.759 463.619 461.459C463.611 461.259 463.6 461.061 463.594 460.861C463.579 460.343 463.579 459.821 463.579 459.3C463.584 456.001 463.676 452.703 463.723 449.405C463.747 447.713 463.767 446.022 463.755 444.331C463.75 443.719 463.743 443.107 463.722 442.496C463.735 442.235 463.724 441.973 463.689 441.714C463.669 441.593 463.661 441.471 463.666 441.349L463.417 441.541L464.264 441.501C471.469 441.172 478.679 441.08 485.894 441.227C486.02 441.226 486.144 441.202 486.261 441.155C486.377 441.107 486.482 441.038 486.571 440.951C486.66 440.864 486.731 440.761 486.779 440.647C486.827 440.534 486.851 440.412 486.851 440.289C486.851 440.166 486.826 440.045 486.777 439.931C486.729 439.818 486.658 439.714 486.569 439.628C486.48 439.541 486.374 439.472 486.258 439.425C486.141 439.378 486.017 439.354 485.891 439.355V439.355Z" fill="#367CFF"/>
<path opacity="0.2" d="M467.801 450.989C468.796 453.526 470.422 455.781 472.531 457.553C473.525 458.37 474.359 458.598 475.501 457.88C476.814 457.057 478.144 456.258 479.457 455.441C482.659 453.437 485.778 451.311 488.976 449.305C490.664 448.244 492.393 447.248 494.143 446.287C494.351 446.156 494.5 445.952 494.558 445.717C494.616 445.482 494.578 445.235 494.453 445.026C494.328 444.817 494.126 444.664 493.888 444.598C493.649 444.532 493.394 444.559 493.176 444.672C489.773 446.543 486.54 448.635 483.297 450.754C480.902 452.319 478.484 453.849 476.043 455.345C475.589 455.623 474.533 456.501 474.15 456.448C473.676 456.382 472.731 455.191 472.419 454.856C471.236 453.577 470.299 452.101 469.651 450.498C469.202 449.39 467.349 449.875 467.804 450.995L467.801 450.989Z" fill="#367CFF"/>
<path opacity="0.2" d="M467.801 484.168C468.797 486.704 470.422 488.958 472.531 490.729C473.525 491.547 474.359 491.775 475.501 491.058C476.814 490.234 478.144 489.435 479.457 488.613C482.659 486.61 485.778 484.484 488.976 482.477C490.664 481.416 492.393 480.42 494.143 479.459C494.351 479.328 494.5 479.124 494.558 478.889C494.616 478.654 494.578 478.407 494.453 478.198C494.328 477.989 494.126 477.836 493.888 477.77C493.649 477.704 493.394 477.73 493.176 477.844C489.773 479.714 486.54 481.808 483.297 483.927C480.902 485.491 478.484 487.021 476.043 488.517C475.589 488.794 474.533 489.673 474.15 489.62C473.676 489.554 472.731 488.363 472.419 488.028C471.236 486.749 470.299 485.273 469.651 483.67C469.202 482.561 467.349 483.047 467.804 484.168H467.801Z" fill="#367CFF"/>
<path opacity="0.2" d="M467.801 517.384C468.797 519.921 470.422 522.176 472.531 523.947C473.525 524.764 474.359 524.992 475.501 524.275C476.814 523.451 478.144 522.653 479.457 521.831C482.659 519.828 485.778 517.702 488.976 515.695C490.664 514.635 492.393 513.639 494.143 512.677C494.351 512.547 494.5 512.343 494.558 512.108C494.616 511.873 494.578 511.625 494.453 511.417C494.328 511.208 494.126 511.055 493.888 510.989C493.649 510.923 493.394 510.949 493.176 511.063C489.773 512.933 486.54 515.027 483.297 517.145C480.902 518.709 478.484 520.239 476.043 521.735C475.589 522.013 474.533 522.892 474.15 522.838C473.676 522.773 472.731 521.581 472.419 521.247C471.236 519.968 470.299 518.492 469.651 516.889C469.202 515.78 467.349 516.266 467.804 517.387L467.801 517.384Z" fill="#367CFF"/>
<path opacity="0.2" d="M485.891 472.528C478.893 472.391 471.895 472.473 464.897 472.775C463.878 472.82 462.355 472.613 461.876 473.739C461.71 474.45 461.688 475.185 461.811 475.903C461.858 477.579 461.842 479.256 461.825 480.931C461.787 484.606 461.683 488.281 461.663 491.957C461.627 492.943 461.647 493.931 461.724 494.914C461.719 495.123 461.766 495.329 461.861 495.516C461.955 495.703 462.095 495.865 462.268 495.987C462.772 496.201 463.321 496.292 463.869 496.253C464.701 496.3 465.534 496.336 466.367 496.366C473.213 496.61 480.072 496.377 486.911 496.809C487.164 496.807 487.407 496.708 487.586 496.533C487.765 496.358 487.866 496.121 487.868 495.874L486.98 476.293L486.852 473.465C486.797 472.267 484.883 472.26 484.936 473.465L485.824 493.046L485.953 495.874L486.911 494.939C481.308 494.587 475.69 494.68 470.079 494.591C468.721 494.568 467.362 494.537 466.005 494.486C465.352 494.461 464.699 494.43 464.047 494.395C463.759 494.352 463.469 494.335 463.178 494.343C463.565 494.939 463.719 495.11 463.64 494.855C463.633 494.828 463.628 494.801 463.623 494.774C463.584 494.809 463.631 494.933 463.619 494.633C463.611 494.433 463.6 494.234 463.594 494.035C463.579 493.517 463.579 492.994 463.579 492.474C463.584 489.175 463.676 485.877 463.723 482.578C463.747 480.887 463.767 479.195 463.755 477.505C463.75 476.893 463.743 476.281 463.722 475.669C463.735 475.408 463.724 475.147 463.689 474.888C463.669 474.765 463.661 474.642 463.666 474.518L463.417 474.711L464.264 474.671C471.469 474.341 478.679 474.25 485.894 474.397C486.137 474.381 486.365 474.276 486.532 474.102C486.699 473.928 486.791 473.699 486.791 473.461C486.79 473.223 486.697 472.994 486.53 472.821C486.363 472.648 486.134 472.543 485.891 472.528V472.528Z" fill="#367CFF"/>
<path opacity="0.2" d="M485.891 505.702C478.893 505.565 471.895 505.647 464.897 505.948C463.878 505.993 462.355 505.787 461.876 506.913C461.71 507.624 461.688 508.359 461.811 509.077C461.858 510.752 461.842 512.43 461.825 514.104C461.787 517.78 461.683 521.455 461.663 525.13C461.627 526.116 461.647 527.104 461.724 528.088C461.719 528.296 461.766 528.503 461.861 528.69C461.955 528.877 462.095 529.038 462.268 529.161C462.772 529.375 463.321 529.466 463.869 529.426C464.701 529.474 465.534 529.51 466.367 529.54C473.213 529.783 480.072 529.55 486.911 529.983C487.164 529.981 487.406 529.882 487.586 529.708C487.765 529.533 487.866 529.296 487.868 529.049L486.98 509.468L486.852 506.64C486.797 505.441 484.883 505.435 484.936 506.64L485.824 526.22L485.953 529.049L486.911 528.113C481.308 527.762 475.69 527.855 470.079 527.765C468.721 527.743 467.362 527.712 466.005 527.66C465.352 527.635 464.699 527.605 464.047 527.569C463.759 527.527 463.469 527.51 463.178 527.518C463.565 528.114 463.719 528.284 463.64 528.028C463.633 528.003 463.628 527.976 463.623 527.949C463.584 527.983 463.631 528.108 463.619 527.807C463.611 527.608 463.6 527.408 463.594 527.209C463.579 526.691 463.579 526.168 463.579 525.649C463.584 522.35 463.676 519.051 463.723 515.752C463.747 514.062 463.767 512.37 463.755 510.679C463.75 510.067 463.743 509.455 463.722 508.844C463.735 508.583 463.724 508.321 463.689 508.062C463.669 507.94 463.661 507.816 463.666 507.692L463.417 507.885C463.699 507.871 463.982 507.858 464.264 507.846C471.469 507.516 478.679 507.424 485.894 507.571C486.138 507.557 486.368 507.453 486.536 507.279C486.704 507.105 486.798 506.874 486.797 506.635C486.797 506.396 486.703 506.166 486.534 505.993C486.366 505.819 486.135 505.715 485.891 505.702V505.702Z" fill="#367CFF"/>
<path opacity="0.2" d="M501.623 445.556C501.583 446.268 501.729 446.978 502.048 447.619C502.366 448.26 502.846 448.812 503.443 449.222C504.04 449.632 504.734 449.888 505.459 449.964C506.185 450.041 506.919 449.936 507.591 449.66C509.037 449.049 509.534 447.925 510.289 446.684C510.805 445.836 511.19 446.118 512.036 446.455C512.892 446.786 513.791 446.999 514.708 447.089C518.657 447.522 522.777 446.269 526.677 445.794C530.82 445.289 534.988 445.011 539.162 444.961C543.953 444.907 548.743 445.15 553.502 445.689C554.725 445.825 554.714 443.954 553.502 443.818C545.746 442.941 537.918 442.853 530.144 443.554C526.434 443.892 522.791 444.52 519.111 445.054C517.265 445.409 515.363 445.385 513.527 444.983C512.218 444.628 510.998 443.685 509.677 444.552C508.426 445.374 508.364 447.165 507.021 447.861C506.639 448.056 506.209 448.147 505.778 448.123C505.348 448.099 504.931 447.961 504.574 447.725C504.217 447.489 503.932 447.162 503.75 446.78C503.567 446.398 503.494 445.975 503.538 445.556C503.593 444.353 501.678 444.356 501.623 445.556V445.556Z" fill="#367CFF"/>
<path opacity="0.2" d="M499.637 478.733C499.901 481.223 502.969 481.419 504.733 480.264C505.964 479.457 507.027 478.206 508.646 478.785C510.149 479.324 511.338 480.362 512.95 480.678C516.313 481.336 519.955 480.255 523.295 479.859C527.071 479.413 530.864 479.144 534.673 479.051C538.961 478.952 543.252 479.075 547.526 479.421C548.755 479.519 548.748 477.647 547.526 477.551C540.629 476.992 533.695 477.017 526.802 477.625C523.389 477.928 520.024 478.551 516.621 478.905C515.074 479.161 513.483 478.993 512.028 478.419C510.825 477.857 509.742 477.006 508.393 476.792C506.885 476.553 505.699 477.222 504.541 478.087C504.055 478.539 503.47 478.876 502.83 479.071C502.537 479.125 501.598 479.175 501.552 478.73C501.427 477.547 499.507 477.531 499.637 478.73L499.637 478.733Z" fill="#367CFF"/>
<path opacity="0.2" d="M502.297 511.208C502.484 513.998 505.893 514.723 508.174 513.873C509.764 513.282 511.289 511.891 513.057 511.871C514.065 511.974 515.04 512.276 515.924 512.758C516.897 513.16 517.901 513.485 518.927 513.731C522.801 514.658 526.837 514.545 530.784 514.249C535.073 513.93 539.345 513.549 543.647 513.43C548.706 513.291 553.763 513.391 558.819 513.73C560.049 513.811 560.044 511.94 558.819 511.859C550.616 511.324 542.384 511.404 534.195 512.098C530.43 512.542 526.633 512.665 522.846 512.468C521.016 512.322 519.212 511.948 517.479 511.354C515.823 510.774 514.311 509.815 512.481 510.047C510.588 510.288 509.188 511.55 507.441 512.147C506.539 512.455 504.3 512.546 504.21 511.203C504.13 510.008 502.214 509.999 502.295 511.203L502.297 511.208Z" fill="#367CFF"/>
</g>
<g opacity="0.2">
<path opacity="0.2" d="M540.588 252.407C541.667 249.898 543.006 247.504 544.584 245.262C545.114 244.51 545.838 243.171 546.952 243.601C547.98 243.998 548.908 245.16 549.677 245.908C551.249 247.436 552.822 249.07 554.788 250.122C556.734 251.175 559.018 251.464 561.174 250.93C563.44 250.38 565.45 249.132 567.494 248.079C569.747 246.852 572.29 246.222 574.87 246.25C577.658 246.405 580.422 246.846 583.116 247.566C585.912 248.202 588.719 248.76 591.565 249.152C598.001 250.044 604.518 250.23 610.996 249.708C612.442 249.589 612.455 247.371 610.996 247.49C604.982 247.985 598.93 247.859 592.943 247.115C589.955 246.724 586.99 246.187 584.058 245.505C581.271 244.778 578.424 244.293 575.55 244.056C572.839 243.9 570.131 244.403 567.669 245.522C565.548 246.483 563.601 247.84 561.376 248.565C560.325 248.933 559.197 249.043 558.092 248.887C556.987 248.731 555.938 248.312 555.037 247.669C553.144 246.404 551.663 244.626 549.986 243.117C548.966 242.201 547.805 241.21 546.328 241.269C544.994 241.323 544.023 242.28 543.271 243.257C541.394 245.74 539.835 248.437 538.627 251.288C538.485 251.544 538.448 251.843 538.524 252.125C538.599 252.407 538.782 252.65 539.034 252.805C539.294 252.952 539.604 252.992 539.895 252.918C540.186 252.843 540.435 252.66 540.588 252.407V252.407Z" fill="#367CFF"/>
</g>
<g opacity="0.2">
<path opacity="0.2" d="M548.139 269.31L550.08 267.077L551.172 265.82C551.442 265.425 551.763 265.064 552.125 264.748C552.752 264.35 553.651 265.218 554.224 265.519C555.008 265.932 555.838 266.254 556.697 266.48C560.076 267.368 563.645 266.799 567.005 266.118C570.696 265.252 574.453 264.681 578.24 264.411C582.197 264.243 586.157 264.45 590.114 264.503C594.617 264.674 599.123 264.287 603.526 263.352C604.946 263.014 604.345 260.874 602.92 261.213C594.884 263.126 586.578 261.866 578.414 262.186C574.576 262.423 570.766 262.982 567.026 263.857C563.612 264.57 559.846 265.305 556.458 264.09C554.792 263.491 553.02 261.618 551.147 262.699C550.298 263.331 549.559 264.091 548.958 264.952L546.535 267.743C545.593 268.826 547.193 270.405 548.14 269.311L548.139 269.31Z" fill="#367CFF"/>
</g>
<path d="M673.243 638H47.7572C47.5564 638 47.3638 637.922 47.2218 637.784C47.0798 637.645 47 637.457 47 637.261C47 637.065 47.0798 636.877 47.2218 636.738C47.3638 636.599 47.5564 636.521 47.7572 636.521H673.243C673.444 636.521 673.636 636.599 673.778 636.738C673.92 636.877 674 637.065 674 637.261C674 637.457 673.92 637.645 673.778 637.784C673.636 637.922 673.444 638 673.243 638Z" fill="#292A2E"/>
<path d="M474.949 636.88H559.381V613.222H474.949V636.88Z" fill="#367CFF"/>
<path opacity="0.69" d="M474.949 636.88H559.381V613.222H474.949V636.88Z" fill="white"/>
<path opacity="0.65" d="M486.287 636.88H497.351V613.222H486.287V636.88Z" fill="white"/>
<path opacity="0.65" d="M502.591 631.739H548.592V617.72H502.591V631.739Z" fill="white"/>
<path d="M454.817 613.245H538.089V589.587H454.817V613.245Z" fill="#367CFF"/>
<path opacity="0.6" d="M454.817 613.245H538.089V589.587H454.817V613.245Z" fill="white"/>
<path opacity="0.42" d="M465.457 608.104H510.826V594.084H465.457V608.104Z" fill="white"/>
<path opacity="0.42" d="M515.995 613.246H526.906V589.588H515.995V613.246Z" fill="white"/>
<path d="M414.158 636.881L469.011 574.209L450.592 558.839L395.738 621.511L414.158 636.881Z" fill="#367CFF"/>
<path opacity="0.78" d="M414.158 636.881L469.011 574.209L450.592 558.839L395.738 621.511L414.158 636.881Z" fill="white"/>
<path opacity="0.2" d="M421.525 628.463L428.712 620.251L410.293 604.881L403.105 613.094L421.525 628.463Z" fill="#367CFF"/>
<path opacity="0.2" d="M428.113 613.021L457.999 578.876L447.084 569.768L417.198 603.913L428.113 613.021Z" fill="#367CFF"/>
<path d="M648.636 516.173L569.982 608.096L571.726 609.518L650.379 517.595L648.636 516.173Z" fill="#292A2E"/>
<path d="M613.729 599.848H604.454V631.74H613.729V599.848Z" fill="#367CFF"/>
<path d="M604.454 616.403L613.729 621.544V614.602L604.454 616.403Z" fill="#292A2E"/>
<path d="M622.799 631.739H596.586C595.234 631.739 594.138 632.81 594.138 634.13V634.131C594.138 635.451 595.234 636.522 596.586 636.522H622.799C624.151 636.522 625.248 635.451 625.248 634.131V634.13C625.248 632.81 624.151 631.739 622.799 631.739Z" fill="#367CFF"/>
<path d="M609.092 624.502C600.502 624.489 592.006 622.754 584.132 619.402C576.257 616.051 569.172 611.155 563.315 605.019C563.11 604.804 563.001 604.517 563.012 604.223C563.024 603.929 563.154 603.651 563.375 603.451C563.596 603.251 563.889 603.144 564.19 603.155C564.492 603.166 564.776 603.293 564.981 603.509C570.716 609.539 577.684 614.326 585.433 617.561C593.182 620.796 601.54 622.407 609.967 622.289C618.393 622.172 626.701 620.329 634.352 616.88C642.004 613.431 648.829 608.452 654.386 602.265C659.942 596.079 664.107 588.822 666.611 580.965C669.115 573.108 669.902 564.825 668.922 556.652C667.941 548.479 665.215 540.599 660.919 533.519C656.622 526.44 650.852 520.32 643.981 515.555C643.856 515.472 643.75 515.365 643.667 515.242C643.585 515.118 643.529 514.979 643.502 514.834C643.476 514.688 643.479 514.539 643.512 514.395C643.545 514.251 643.608 514.115 643.695 513.995C643.783 513.875 643.894 513.773 644.023 513.695C644.152 513.617 644.295 513.566 644.444 513.543C644.594 513.52 644.746 513.526 644.893 513.562C645.04 513.597 645.178 513.661 645.299 513.749C656.1 521.246 664.181 531.902 668.374 544.177C672.567 556.452 672.654 569.711 668.625 582.038C664.595 594.365 656.656 605.122 645.955 612.755C635.253 620.388 622.344 624.502 609.092 624.502Z" fill="#292A2E"/>
<path d="M609.092 616.403C639.023 616.403 663.288 592.711 663.288 563.486C663.288 534.261 639.023 510.569 609.092 510.569C579.16 510.569 554.896 534.261 554.896 563.486C554.896 592.711 579.16 616.403 609.092 616.403Z" fill="#367CFF"/>
<path opacity="0.5" d="M609.092 616.403C639.023 616.403 663.288 592.711 663.288 563.486C663.288 534.261 639.023 510.569 609.092 510.569C579.16 510.569 554.896 534.261 554.896 563.486C554.896 592.711 579.16 616.403 609.092 616.403Z" fill="white"/>
<g opacity="0.4">
<path opacity="0.4" d="M659.603 582.717C656.138 591.369 650.406 598.981 642.98 604.788C635.554 610.596 626.696 614.396 617.292 615.808C616.58 613.598 615.868 611.38 615.164 609.169C613.96 605.421 612.832 601.074 615.027 597.784C616.087 596.195 617.777 595.13 619.291 593.947C622.499 591.421 625.062 588.202 626.779 584.543C627.642 582.688 628.385 580.603 630.118 579.464C631.204 578.846 632.417 578.472 633.67 578.37C638.183 577.802 642.752 577.792 647.268 578.341C650.464 578.688 653.697 579.242 656.543 580.699C657.634 581.263 658.659 581.94 659.603 582.717V582.717Z" fill="white"/>
</g>
<g opacity="0.4">
<path opacity="0.4" d="M663.245 561.393C657.895 560.832 652.711 559.249 647.988 556.735C646.067 555.802 644.36 554.499 642.967 552.906C641.879 551.458 641.102 549.811 640.681 548.063C640.068 545.758 639.848 543.37 640.03 540.996C640.295 537.573 641.355 533.898 639.681 530.882C638.447 528.649 635.979 527.348 633.51 526.535C631.042 525.722 628.445 525.278 626.128 524.14C624.854 523.598 623.808 522.649 623.16 521.448C622.723 520.236 622.631 518.93 622.895 517.671C623.187 515.965 623.63 514.288 624.22 512.658C635.137 515.761 644.778 522.135 651.781 530.881C658.784 539.627 662.794 550.3 663.245 561.393V561.393Z" fill="white"/>
</g>
<g opacity="0.4">
<path opacity="0.4" d="M610.53 554.999C610.879 563.619 596.621 563.974 594.63 571.448C593.047 575.958 594.962 580.859 595.894 585.539C598.506 598.691 587.376 603.6 577.01 606.136C566.462 598.571 559.073 587.535 556.208 575.067C553.342 562.598 555.194 549.538 561.42 538.298C563.364 538.012 565.331 537.9 567.296 537.965C572.922 536.671 576.586 531.489 581.447 528.428C589.193 523.453 601.058 522.085 602.973 531.437C604.457 538.668 597.696 539.791 599.68 545.817C601.3 550.385 609.485 550.267 610.53 554.999Z" fill="white"/>
</g>
<path d="M374.069 386.802C374.275 386.249 374.593 385.744 375.006 385.315C375.418 384.887 375.915 384.545 376.467 384.31C377.019 384.076 377.615 383.954 378.217 383.951C378.819 383.949 379.415 384.066 379.969 384.296C381.026 384.777 381.856 385.632 382.292 386.688C382.727 387.744 382.736 388.922 382.316 389.984L380.272 395.477L393.095 382.711C394.685 381.078 397.713 380.068 399.473 381.934C400.996 383.35 404.52 383.787 405.091 386.443C405.111 386.457 405.075 410.762 403.597 412.278C397.326 418.709 382.166 419.952 373.708 416.686L360.397 411.547L374.069 386.802Z" fill="#E98862"/>
<g opacity="0.1">
<path opacity="0.1" d="M374.069 386.802C374.275 386.249 374.593 385.744 375.006 385.315C375.418 384.887 375.915 384.545 376.467 384.31C377.019 384.076 377.615 383.954 378.217 383.951C378.819 383.949 379.415 384.066 379.969 384.296C381.026 384.777 381.856 385.632 382.292 386.688C382.727 387.744 382.736 388.922 382.316 389.984L380.272 395.477L393.095 382.711C394.685 381.078 397.713 380.068 399.473 381.934C400.996 383.35 404.52 383.787 405.091 386.443C405.111 386.457 405.075 410.762 403.597 412.278C397.326 418.709 382.166 419.952 373.708 416.686L360.397 411.547L374.069 386.802Z" fill="#0C0C0C"/>
</g>
<path d="M387.179 413.117C386.696 413.117 386.22 413.004 385.79 412.788C385.361 412.571 384.991 412.258 384.711 411.873C384.43 411.489 384.249 411.045 384.18 410.578C384.112 410.111 384.159 409.634 384.318 409.189L436.799 261.578C436.924 261.205 437.124 260.86 437.387 260.562C437.65 260.265 437.972 260.022 438.332 259.848C438.693 259.673 439.085 259.571 439.487 259.546C439.888 259.521 440.291 259.575 440.671 259.704C441.051 259.833 441.401 260.034 441.701 260.297C442 260.559 442.243 260.877 442.415 261.232C442.587 261.587 442.685 261.973 442.703 262.365C442.721 262.758 442.659 263.15 442.52 263.518L390.04 411.125C389.834 411.706 389.448 412.21 388.935 412.567C388.423 412.924 387.809 413.116 387.179 413.117V413.117Z" fill="#0A0A0A"/>
<path d="M386.628 402.003C386.843 401.26 387.3 400.605 387.932 400.139C388.563 399.674 389.332 399.422 390.124 399.422C390.114 399.361 390.048 399.218 390.155 399.207L387.43 397.916C386.618 397.552 385.969 396.915 385.603 396.12C385.236 395.326 385.176 394.429 385.434 393.595C385.717 392.779 386.299 392.096 387.069 391.676C387.838 391.256 388.74 391.129 389.599 391.321C389.587 391.289 389.604 391.252 389.603 391.218L388.484 390.687C387.722 390.341 387.105 389.749 386.738 389.01C386.371 388.271 386.277 387.431 386.472 386.633C386.604 386.134 386.848 385.671 387.186 385.276C387.524 384.881 387.948 384.564 388.427 384.348C388.905 384.132 389.427 384.023 389.955 384.028C390.482 384.032 391.001 384.152 391.476 384.376L394.059 385.601C394.064 385.586 394.054 385.572 394.059 385.558C394.065 385.544 394.09 385.536 394.102 385.52C393.471 385.029 393.03 384.343 392.852 383.575C392.673 382.806 392.766 382.002 393.117 381.293C393.903 379.405 396.471 379.334 398.141 380.126L403.204 383.02C403.985 383.466 404.641 384.095 405.113 384.849C405.586 385.603 405.86 386.459 405.911 387.342C406.366 394.978 407.053 414.95 401.723 412.423L388.6 406.201C387.841 405.815 387.234 405.192 386.877 404.432C386.52 403.672 386.432 402.818 386.628 402.003Z" fill="#E98862"/>
<path d="M105.498 381.497C105.498 381.497 103.873 405.314 98.3848 413.952C82.5872 438.831 78.0086 466.817 93.8304 481.437C109.652 496.056 210.564 496.26 218.208 462.632C224.644 434.321 210.832 431.276 207.472 407.923C205.951 397.354 201.766 375.195 201.766 375.195" fill="#0A0A0A"/>
<path d="M192.088 457.701C191.914 457.679 189.981 488.996 152.72 486.266C126.925 484.379 117.728 457.655 117.133 457.655C119.914 457.078 124.598 456.238 125.833 455.595C129.895 453.464 134.919 451.246 136.23 443.544C136.987 439.109 135.704 416.396 136.098 411.902L175.698 420.531C175.145 430.017 171.273 452.007 184.845 455.899C187.102 456.547 189.535 457.139 192.088 457.701Z" fill="#E98862"/>
<path opacity="0.5" d="M176.249 446.916C175.629 444.965 175.229 442.953 175.058 440.916C174.622 436.269 174.709 431.589 175.317 426.96C167.27 425.899 159.689 422.656 153.435 417.599C152.7 420.25 148.656 431.835 149.776 434.354C151.893 439.117 161.837 446.916 176.249 446.916Z" fill="#0C0C0C"/>
<path d="M171.131 437.159C155.521 438.638 135.323 432.537 131.138 412.239L127.362 393.923C123.178 373.625 130.705 355.024 150.28 351.178C169.853 347.333 187.876 360.911 192.06 381.21L193.732 389.318C195.338 397.106 198.985 434.528 171.131 437.159Z" fill="#E98862"/>
<path opacity="0.1" d="M161.209 410.559C163.778 410.26 165.678 408.526 165.453 406.686C165.229 404.846 162.964 403.597 160.395 403.897C157.826 404.196 155.925 405.93 156.15 407.77C156.375 409.61 158.64 410.858 161.209 410.559Z" fill="#0C0C0C"/>
<path opacity="0.1" d="M188.355 403.205C188.582 405.042 190.849 406.289 193.419 405.993C193.863 405.941 194.3 405.844 194.723 405.704C194.842 403.514 194.85 401.406 194.784 399.455C194.071 399.281 193.33 399.239 192.601 399.331C190.03 399.626 188.131 401.36 188.355 403.205Z" fill="#0C0C0C"/>
<path opacity="0.5" d="M177.006 408.883L177.045 408.877C177.838 408.715 178.622 408.511 179.392 408.265C180.542 407.89 182.046 407.273 181.836 406.258C181.599 405.101 175.779 393.26 175.119 391.916C175.059 391.801 174.955 391.715 174.831 391.674C174.706 391.633 174.57 391.641 174.452 391.697C174.333 391.753 174.242 391.851 174.197 391.972C174.152 392.092 174.156 392.225 174.21 392.342C176.691 397.385 180.688 405.675 180.848 406.455C180.723 406.818 178.816 407.527 176.848 407.914C176.783 407.924 176.72 407.947 176.664 407.981C176.608 408.015 176.559 408.059 176.52 408.112C176.481 408.164 176.454 408.223 176.438 408.286C176.423 408.349 176.421 408.414 176.431 408.478C176.442 408.541 176.465 408.603 176.5 408.658C176.535 408.712 176.58 408.76 176.634 408.798C176.687 408.836 176.748 408.863 176.812 408.878C176.877 408.893 176.943 408.895 177.009 408.885L177.006 408.883Z" fill="#0C0C0C"/>
<path d="M111.745 400.498L129.293 397.151C142.548 391.738 146.309 369.182 146.309 369.182C146.309 369.182 162.668 384.393 201.768 375.195C201.768 375.195 193.275 321.902 135.542 338.078C116.926 343.294 103.741 361.821 105.702 386.36C107.076 403.557 111.745 400.498 111.745 400.498Z" fill="#0A0A0A"/>
<path d="M133.629 418.184C127.68 419.353 121.577 414.087 120.379 408.277C119.18 402.468 123.344 398.318 129.292 397.149L133.159 400.439L138.742 417.177L133.629 418.184Z" fill="#E98862"/>
<path d="M179.331 382.472C180.819 381.444 182.56 380.82 184.376 380.663C185.287 380.578 186.206 380.628 187.102 380.811C188.007 380.991 188.884 381.281 189.715 381.675L189.742 381.687C189.834 381.726 189.938 381.729 190.032 381.695C190.126 381.66 190.203 381.591 190.246 381.503C190.289 381.414 190.294 381.312 190.261 381.219C190.228 381.126 190.159 381.05 190.069 381.006C189.189 380.552 188.254 380.208 187.286 379.983C186.311 379.751 185.306 379.664 184.305 379.725C182.277 379.834 180.316 380.473 178.626 381.573C178.563 381.615 178.51 381.668 178.468 381.73C178.426 381.792 178.397 381.862 178.383 381.934C178.369 382.007 178.37 382.082 178.385 382.155C178.401 382.228 178.431 382.297 178.473 382.358C178.516 382.419 178.571 382.472 178.634 382.513C178.698 382.553 178.769 382.581 178.844 382.595C178.918 382.609 178.995 382.608 179.07 382.593C179.144 382.578 179.215 382.549 179.277 382.507L179.291 382.498L179.331 382.472Z" fill="#0C0C0C"/>
<path d="M163.302 384.635C161.309 384.249 159.246 384.391 157.329 385.048C156.381 385.367 155.488 385.822 154.679 386.4C153.873 386.97 153.144 387.637 152.508 388.385C152.441 388.459 152.406 388.556 152.412 388.655C152.417 388.753 152.462 388.846 152.537 388.913C152.612 388.979 152.71 389.015 152.811 389.011C152.913 389.007 153.008 388.964 153.077 388.892L153.098 388.872C153.711 388.198 154.408 387.602 155.173 387.097C155.93 386.593 156.761 386.203 157.637 385.941C159.376 385.408 161.229 385.335 163.007 385.727L163.051 385.738C163.2 385.773 163.357 385.749 163.488 385.671C163.619 385.593 163.713 385.467 163.749 385.322C163.786 385.176 163.761 385.023 163.681 384.895C163.601 384.767 163.473 384.675 163.323 384.64L163.302 384.635Z" fill="#0C0C0C"/>
<path d="M129.305 396.87C141.101 392.582 145.015 384.629 146.221 378.71C147.001 374.762 146.928 370.7 146.007 366.781L145.642 366.879C146.549 370.746 146.619 374.756 145.847 378.651C144.658 384.473 140.798 392.3 129.173 396.524L129.305 396.87Z" fill="#0C0C0C"/>
<path d="M222.437 461.426L334.443 497.982L301.558 512.255L357.405 400.384L403.049 421.154L351.231 534.857C348.611 540.607 343.958 545.244 338.125 547.921C332.292 550.598 325.666 551.137 319.46 549.438L318.346 549.13L204.643 517.961L222.437 461.426Z" fill="#367CFF"/>
<path d="M152.024 478.437C126.212 477.249 125.125 455.856 125.125 455.856C125.125 455.856 112.335 456.666 103.832 457.787C89.9121 459.623 80.7292 464.234 73.4255 471.369C66.6276 478.007 62.4889 485.188 66.8684 531.039C70.0394 564.237 67.8073 637.261 67.8073 637.261H225.11C225.11 637.261 236.095 531.763 237.396 516.821C239.882 488.292 246.903 481.994 232.678 467.298C222.361 456.64 195.728 455.856 185.008 455.858C184.829 455.858 187.178 480.055 152.024 478.437Z" fill="#367CFF"/>
<path d="M205.754 566.423L229.433 556.097C229.954 555.87 230.517 555.752 231.087 555.749C231.656 555.746 232.221 555.86 232.743 556.081C233.266 556.303 233.735 556.629 234.122 557.038C234.509 557.446 234.804 557.929 234.989 558.455C235.299 559.437 235.225 560.497 234.782 561.428C234.338 562.36 233.555 563.098 232.586 563.498L227.509 565.716L246.749 565.909C248.888 565.894 251.524 567.212 251.383 569.557C251.388 570.462 251.079 571.341 250.507 572.053C249.934 572.764 249.132 573.266 248.23 573.475C248.235 573.495 248.238 573.515 248.239 573.535C248.237 573.55 248.234 573.566 248.229 573.581L251.528 573.558C252.139 573.554 252.743 573.683 253.297 573.936C253.85 574.188 254.338 574.558 254.727 575.019C255.115 575.479 255.393 576.018 255.541 576.597C255.689 577.175 255.703 577.779 255.582 578.363C255.372 579.281 254.846 580.1 254.091 580.685C253.336 581.269 252.399 581.582 251.436 581.572L250.032 581.582C250.013 581.622 249.988 581.658 249.956 581.689C250.906 581.897 251.749 582.429 252.334 583.188C252.92 583.948 253.21 584.886 253.152 585.835C253.058 586.872 252.567 587.836 251.777 588.535C250.987 589.234 249.955 589.616 248.889 589.605L245.401 589.63C245.451 589.663 245.491 589.707 245.52 589.758C245.548 589.81 245.564 589.867 245.565 589.925C245.563 589.995 245.539 590.063 245.498 590.12C246.291 590.535 246.923 591.193 247.296 591.993C247.669 592.793 247.762 593.69 247.562 594.547C247.333 595.442 246.801 596.236 246.052 596.8C245.304 597.363 244.382 597.663 243.437 597.652L214.014 597.856C209.897 597.885 205.866 596.713 202.437 594.49C199.007 592.267 196.336 589.095 194.765 585.38V585.38C193.41 582.177 193.388 578.584 194.703 575.366C196.018 572.147 198.566 569.555 201.807 568.142L205.754 566.423Z" fill="#E98862"/>
<g opacity="0.2">
<path opacity="0.2" d="M229.185 573.378C229.186 573.475 229.227 573.567 229.298 573.635C229.368 573.703 229.464 573.741 229.563 573.741L247.861 573.902C247.961 573.903 248.058 573.865 248.13 573.797C248.201 573.728 248.242 573.634 248.243 573.536C248.244 573.438 248.205 573.344 248.134 573.274C248.064 573.204 247.968 573.164 247.868 573.163L229.57 573.002C229.47 573.002 229.373 573.041 229.302 573.11C229.231 573.18 229.191 573.274 229.191 573.372L229.185 573.378Z" fill="#0C0C0C"/>
</g>
<g opacity="0.2">
<path opacity="0.2" d="M228.889 581.255C228.891 581.352 228.931 581.445 229.002 581.513C229.073 581.581 229.168 581.619 229.268 581.619L249.689 581.799C249.789 581.799 249.885 581.76 249.956 581.691C250.027 581.621 250.067 581.527 250.067 581.429C250.064 581.332 250.023 581.24 249.953 581.172C249.882 581.103 249.788 581.063 249.689 581.06L229.269 580.88C229.168 580.88 229.072 580.919 229.001 580.988C228.93 581.057 228.89 581.152 228.89 581.25L228.889 581.255Z" fill="#0C0C0C"/>
</g>
<g opacity="0.2">
<path opacity="0.2" d="M228.519 589.785C228.52 589.882 228.56 589.975 228.631 590.043C228.702 590.111 228.798 590.149 228.897 590.149L245.186 590.293C245.236 590.293 245.285 590.284 245.331 590.266C245.377 590.248 245.419 590.221 245.455 590.187C245.49 590.153 245.519 590.112 245.538 590.068C245.557 590.023 245.568 589.975 245.568 589.927C245.569 589.878 245.559 589.83 245.541 589.785C245.522 589.74 245.495 589.699 245.46 589.664C245.425 589.63 245.383 589.602 245.338 589.583C245.292 589.564 245.243 589.554 245.193 589.554L228.904 589.41C228.804 589.41 228.707 589.449 228.636 589.518C228.565 589.588 228.525 589.682 228.525 589.78L228.519 589.785Z" fill="#0C0C0C"/>
</g>
<path d="M212.532 607.59L81.2484 636.729C76.8871 637.192 72.4751 636.663 68.3586 635.182C64.2421 633.701 60.5332 631.308 57.5227 628.193C54.5122 625.077 52.2821 621.322 51.0073 617.224C49.7326 613.125 49.4479 608.794 50.1756 604.569L65.1994 486.577C65.8179 482.987 67.1547 479.55 69.1334 476.464C71.1121 473.378 73.694 470.703 76.7316 468.591C79.7692 466.479 83.203 464.972 86.8371 464.156C90.4711 463.34 94.2342 463.231 97.9114 463.835C101.589 464.439 105.108 465.745 108.269 467.677C111.429 469.609 114.169 472.129 116.332 475.095C118.495 478.061 120.038 481.414 120.874 484.962C121.71 488.511 121.821 492.185 121.203 495.775L113.965 580.227L205.177 560.073L212.532 607.59Z" fill="#367CFF"/>
<path d="M95.508 583.548C95.4129 583.547 95.3215 583.512 95.252 583.448C95.1825 583.385 95.1399 583.298 95.1329 583.206C95.1258 583.113 95.1547 583.021 95.2139 582.948C95.273 582.876 95.358 582.827 95.452 582.813L113.746 578.999C113.795 578.991 113.846 578.993 113.894 579.004C113.943 579.016 113.988 579.037 114.028 579.066C114.069 579.094 114.102 579.131 114.128 579.173C114.153 579.215 114.17 579.261 114.177 579.309C114.192 579.406 114.166 579.505 114.107 579.584C114.047 579.662 113.958 579.715 113.859 579.729L95.5648 583.543C95.546 583.546 95.527 583.548 95.508 583.548V583.548Z" fill="#0C0C0C"/>
<path d="M85.1863 637.261C85.0859 637.267 84.9871 637.234 84.9115 637.169C84.836 637.104 84.7899 637.013 84.7835 636.915C84.7771 636.817 84.8108 636.72 84.8772 636.646C84.9437 636.573 85.0374 636.528 85.1378 636.521L211.707 607.417L204.536 560.62L113.869 579.731C113.81 579.738 113.751 579.732 113.695 579.713C113.639 579.694 113.588 579.662 113.547 579.621C113.506 579.579 113.475 579.529 113.457 579.474C113.44 579.418 113.436 579.36 113.445 579.302L118.531 531.048C118.538 531 118.556 530.954 118.582 530.912C118.608 530.871 118.643 530.835 118.684 530.807C118.724 530.779 118.77 530.759 118.819 530.748C118.868 530.737 118.918 530.736 118.968 530.745C119.067 530.761 119.155 530.816 119.213 530.895C119.271 530.975 119.295 531.074 119.278 531.171L114.281 578.93L204.712 559.804C204.761 559.791 204.811 559.787 204.862 559.794C204.912 559.8 204.96 559.816 205.003 559.841C205.047 559.866 205.085 559.899 205.115 559.939C205.145 559.978 205.167 560.023 205.18 560.071L212.535 607.588C212.558 607.682 212.543 607.78 212.493 607.863C212.443 607.946 212.363 608.006 212.268 608.032L85.237 637.258C85.2202 637.26 85.2033 637.261 85.1863 637.261Z" fill="#0C0C0C"/>
<path d="M182.236 412.884C177.164 415.402 171.377 416.198 165.79 415.147C165.596 415.111 165.396 415.13 165.213 415.201C165.03 415.272 164.872 415.392 164.757 415.548C164.641 415.704 164.574 415.889 164.562 416.081C164.55 416.272 164.595 416.464 164.69 416.632C166.356 419.498 170.308 424.394 177.085 422.398C181.461 421.109 183.117 416.712 183.73 413.993C183.772 413.805 183.758 413.609 183.689 413.429C183.621 413.248 183.502 413.091 183.345 412.974C183.188 412.858 183 412.787 182.804 412.771C182.608 412.755 182.411 412.794 182.236 412.884V412.884Z" fill="white"/>
<path d="M182.554 390.858C183.907 390.858 185.004 389.786 185.004 388.464C185.004 387.143 183.907 386.071 182.554 386.071C181.2 386.071 180.103 387.143 180.103 388.464C180.103 389.786 181.2 390.858 182.554 390.858Z" fill="#0C0C0C"/>
<path d="M159.002 394.884C160.355 394.884 161.453 393.812 161.453 392.491C161.453 391.169 160.355 390.098 159.002 390.098C157.648 390.098 156.551 391.169 156.551 392.491C156.551 393.812 157.648 394.884 159.002 394.884Z" fill="#0C0C0C"/>
<path d="M237.042 527.212C237.027 527.213 237.011 527.213 236.995 527.212C236.946 527.206 236.898 527.191 236.855 527.167C236.812 527.143 236.774 527.111 236.743 527.073C236.713 527.034 236.69 526.99 236.677 526.944C236.663 526.897 236.66 526.848 236.666 526.8L239.102 507.521C239.107 507.472 239.122 507.425 239.146 507.383C239.171 507.34 239.204 507.303 239.243 507.273C239.282 507.243 239.328 507.221 239.376 507.208C239.424 507.196 239.475 507.193 239.524 507.2C239.624 507.212 239.714 507.262 239.776 507.34C239.837 507.417 239.865 507.515 239.853 507.612L237.417 526.891C237.405 526.979 237.361 527.061 237.292 527.12C237.223 527.179 237.134 527.212 237.042 527.212V527.212Z" fill="#0C0C0C"/>
</svg>
