<svg width="757" height="721" viewBox="0 0 757 721" fill="none" xmlns="http://www.w3.org/2000/svg">
<rect x="527.241" width="510.022" height="590.002" rx="123" transform="rotate(63.3326 527.241 0)" fill="#396FA2"/>
<g clip-path="url(#clip0_230_324)">
<path d="M562.362 181H286.775V450.875H562.362V181Z" fill="#F4F4F4"/>
<path d="M565.521 181H562.362V450.875H565.521V181Z" fill="#F4F4F4"/>
<path opacity="0.05" d="M565.521 181H562.362V450.875H565.521V181Z" fill="#292A2E"/>
<path opacity="0.05" d="M495.6 366.966V296.357H436.537V337.38H345.049V410.014H306.165V450.875H345.049H352.54H549.106V366.966H495.6Z" fill="#292A2E"/>
<path opacity="0.34" d="M487.129 304.023H444.119V311.69H487.129V304.023Z" fill="#FFFFFA"/>
<path opacity="0.34" d="M487.129 319.91H444.119V327.577H487.129V319.91Z" fill="#FFFFFA"/>
<path opacity="0.34" d="M487.129 335.797H444.119V343.463H487.129V335.797Z" fill="#FFFFFA"/>
<path opacity="0.34" d="M541.479 374.408H533.551V382.075H541.479V374.408Z" fill="#FFFFFA"/>
<path opacity="0.34" d="M541.479 390.295H533.551V397.961H541.479V390.295Z" fill="#FFFFFA"/>
<path opacity="0.34" d="M541.479 406.182H533.551V413.848H541.479V406.182Z" fill="#FFFFFA"/>
<path opacity="0.34" d="M526.813 374.408H518.885V382.075H526.813V374.408Z" fill="#FFFFFA"/>
<path opacity="0.34" d="M526.813 390.295H518.885V397.961H526.813V390.295Z" fill="#FFFFFA"/>
<path opacity="0.34" d="M526.813 406.182H518.885V413.848H526.813V406.182Z" fill="#FFFFFA"/>
<path opacity="0.34" d="M512.543 374.408H504.616V382.075H512.543V374.408Z" fill="#FFFFFA"/>
<path opacity="0.34" d="M512.543 390.295H504.616V397.961H512.543V390.295Z" fill="#FFFFFA"/>
<path opacity="0.34" d="M512.543 406.182H504.616V413.848H512.543V406.182Z" fill="#FFFFFA"/>
<path d="M562.362 314.424H506.91V181H502.323V314.424H352.54V181H347.954V314.424H286.775V318.915H347.954V450.875H352.54V318.915H502.323V450.875H506.91V318.915H562.362V314.424Z" fill="white"/>
<path d="M573.34 450.551H275.796V459.526H573.34V450.551Z" fill="#F4F4F4"/>
<path opacity="0.1" d="M573.34 450.551H275.796V459.526H573.34V450.551Z" fill="#292A2E"/>
<path opacity="0.1" d="M577.636 450.551H573.34V459.526H577.636V450.551Z" fill="#292A2E"/>
<path opacity="0.1" d="M577.636 450.551H573.34V459.526H577.636V450.551Z" fill="#292A2E"/>
<path d="M565.521 185.818H286.775V192.492H565.521V185.818Z" fill="white"/>
<path d="M565.521 198.283H286.775V204.956H565.521V198.283Z" fill="white"/>
<path d="M565.521 210.746H286.775V217.419H565.521V210.746Z" fill="white"/>
<path d="M565.521 223.209H286.775V229.882H565.521V223.209Z" fill="white"/>
<path d="M565.521 235.674H286.775V242.347H565.521V235.674Z" fill="white"/>
<path d="M535.914 181H531.737V249.871H535.914V181Z" fill="white"/>
<path d="M534.18 259.762C537.349 259.762 539.919 257.245 539.919 254.142C539.919 251.038 537.349 248.521 534.18 248.521C531.01 248.521 528.441 251.038 528.441 254.142C528.441 257.245 531.01 259.762 534.18 259.762Z" fill="white"/>
<path d="M641.952 717.999H94.4454C94.3869 717.999 94.329 717.988 94.275 717.966C94.2209 717.944 94.1718 717.912 94.1305 717.872C94.0891 717.831 94.0563 717.783 94.0339 717.73C94.0115 717.677 94 717.62 94 717.563C94 717.506 94.0115 717.449 94.0339 717.396C94.0563 717.343 94.0891 717.295 94.1305 717.255C94.1718 717.214 94.2209 717.182 94.275 717.16C94.329 717.138 94.3869 717.127 94.4454 717.127H641.95C642.069 717.127 642.182 717.173 642.265 717.255C642.349 717.337 642.396 717.447 642.396 717.563C642.396 717.679 642.349 717.79 642.265 717.872C642.182 717.953 642.069 717.999 641.95 717.999H641.952Z" fill="#292A2E"/>
<g opacity="0.65">
<path opacity="0.65" d="M641.952 717.999H94.4454C94.3869 717.999 94.329 717.988 94.275 717.966C94.2209 717.944 94.1718 717.912 94.1305 717.872C94.0891 717.831 94.0563 717.783 94.0339 717.73C94.0115 717.677 94 717.62 94 717.563C94 717.506 94.0115 717.449 94.0339 717.396C94.0563 717.343 94.0891 717.295 94.1305 717.255C94.1718 717.214 94.2209 717.182 94.275 717.16C94.329 717.138 94.3869 717.127 94.4454 717.127H641.95C642.069 717.127 642.182 717.173 642.265 717.255C642.349 717.337 642.396 717.447 642.396 717.563C642.396 717.679 642.349 717.79 642.265 717.872C642.182 717.953 642.069 717.999 641.95 717.999H641.952Z" fill="#292A2E"/>
</g>
<path d="M132.563 717.231L131.313 716.996L150.846 526.92L152.096 527.155L132.563 717.231Z" fill="#494949"/>
<path d="M205.294 717.231L204.044 716.996L223.577 526.92L224.826 527.155L205.294 717.231Z" fill="#494949"/>
<path d="M366.059 717.231L367.309 716.996L347.777 526.92L346.527 527.155L366.059 717.231Z" fill="#494949"/>
<path d="M293.329 717.231L294.579 716.996L275.047 526.92L273.797 527.155L293.329 717.231Z" fill="#494949"/>
<path d="M267.426 443.269L266.164 443.434L277.575 527.123L278.836 526.958L267.426 443.269Z" fill="#494949"/>
<path d="M136.455 443.267L135.193 443.432L146.604 527.121L147.865 526.956L136.455 443.267Z" fill="#494949"/>
<path d="M278.727 520.91H150.622C147.166 520.91 144.364 523.654 144.364 527.039V527.039C144.364 530.424 147.166 533.168 150.622 533.168H278.727C282.183 533.168 284.985 530.424 284.985 527.039V527.039C284.985 523.654 282.183 520.91 278.727 520.91Z" fill="#292A2E"/>
<path opacity="0.8" d="M278.727 520.91H150.622C147.166 520.91 144.364 523.654 144.364 527.039V527.039C144.364 530.424 147.166 533.168 150.622 533.168H278.727C282.183 533.168 284.985 530.424 284.985 527.039V527.039C284.985 523.654 282.183 520.91 278.727 520.91Z" fill="white"/>
<path d="M278.724 533.791H150.622C148.805 533.774 147.068 533.055 145.79 531.791C144.511 530.526 143.793 528.819 143.793 527.039C143.793 525.26 144.511 523.552 145.79 522.287C147.068 521.023 148.805 520.304 150.622 520.287H278.724C280.542 520.304 282.278 521.023 283.557 522.287C284.836 523.552 285.553 525.26 285.553 527.039C285.553 528.819 284.836 530.526 283.557 531.791C282.278 533.055 280.542 533.774 278.724 533.791V533.791ZM150.622 521.533C149.142 521.549 147.727 522.136 146.685 523.167C145.644 524.197 145.06 525.589 145.06 527.039C145.06 528.489 145.644 529.881 146.685 530.912C147.727 531.943 149.142 532.529 150.622 532.545H278.724C280.205 532.529 281.62 531.943 282.661 530.912C283.703 529.881 284.287 528.489 284.287 527.039C284.287 525.589 283.703 524.197 282.661 523.167C281.62 522.136 280.205 521.549 278.724 521.533H150.622Z" fill="#292A2E"/>
<path d="M349.038 520.91H220.933C217.477 520.91 214.675 523.654 214.675 527.039V527.039C214.675 530.424 217.477 533.168 220.933 533.168H349.038C352.494 533.168 355.296 530.424 355.296 527.039V527.039C355.296 523.654 352.494 520.91 349.038 520.91Z" fill="white"/>
<path d="M349.038 533.791H220.934C220.023 533.8 219.119 533.632 218.275 533.296C217.43 532.961 216.663 532.465 216.015 531.837C215.368 531.209 214.854 530.462 214.503 529.638C214.153 528.815 213.972 527.932 213.972 527.039C213.972 526.147 214.153 525.264 214.503 524.44C214.854 523.617 215.368 522.87 216.015 522.242C216.663 521.614 217.43 521.118 218.275 520.783C219.119 520.447 220.023 520.279 220.934 520.287H349.038C349.949 520.279 350.853 520.447 351.697 520.783C352.541 521.118 353.309 521.614 353.957 522.242C354.604 522.87 355.118 523.617 355.468 524.44C355.819 525.264 356 526.147 356 527.039C356 527.932 355.819 528.815 355.468 529.638C355.118 530.462 354.604 531.209 353.957 531.837C353.309 532.465 352.541 532.961 351.697 533.296C350.853 533.632 349.949 533.8 349.038 533.791V533.791ZM220.934 521.534C220.19 521.526 219.453 521.663 218.764 521.936C218.075 522.209 217.448 522.613 216.919 523.125C216.391 523.637 215.971 524.247 215.685 524.919C215.399 525.591 215.251 526.311 215.251 527.039C215.251 527.767 215.399 528.488 215.685 529.16C215.971 529.832 216.391 530.441 216.919 530.953C217.448 531.465 218.075 531.87 218.764 532.143C219.453 532.416 220.19 532.553 220.934 532.545H349.038C349.782 532.553 350.519 532.416 351.208 532.143C351.897 531.87 352.524 531.465 353.053 530.953C353.581 530.441 354 529.832 354.287 529.16C354.573 528.488 354.721 527.767 354.721 527.039C354.721 526.311 354.573 525.591 354.287 524.919C354 524.247 353.581 523.637 353.053 523.125C352.524 522.613 351.897 522.209 351.208 521.936C350.519 521.663 349.782 521.526 349.038 521.534H220.934Z" fill="#292A2E"/>
<path d="M260.408 443.348H136.168C134.137 443.348 132.175 442.624 130.649 441.312C129.123 439.999 128.136 438.188 127.874 436.215L119.656 374.413C119.502 373.257 119.602 372.083 119.949 370.969C120.295 369.854 120.88 368.825 121.665 367.95C122.451 367.074 123.417 366.373 124.501 365.893C125.585 365.412 126.761 365.164 127.95 365.164H252.19C254.221 365.164 256.183 365.888 257.709 367.2C259.235 368.513 260.222 370.325 260.484 372.297L268.702 434.1C268.856 435.255 268.756 436.429 268.409 437.543C268.063 438.658 267.477 439.687 266.692 440.562C265.908 441.437 264.941 442.139 263.857 442.619C262.774 443.099 261.598 443.348 260.408 443.348Z" fill="#292A2E"/>
<path opacity="0.8" d="M260.408 443.348H136.168C134.137 443.348 132.175 442.624 130.649 441.312C129.123 439.999 128.136 438.188 127.874 436.215L119.656 374.413C119.502 373.257 119.602 372.083 119.949 370.969C120.295 369.854 120.88 368.825 121.665 367.95C122.451 367.074 123.417 366.373 124.501 365.893C125.585 365.412 126.761 365.164 127.95 365.164H252.19C254.221 365.164 256.183 365.888 257.709 367.2C259.235 368.513 260.222 370.325 260.484 372.297L268.702 434.1C268.856 435.255 268.756 436.429 268.409 437.543C268.063 438.658 267.477 439.687 266.692 440.562C265.908 441.437 264.941 442.139 263.857 442.619C262.774 443.099 261.598 443.348 260.408 443.348Z" fill="white"/>
<path d="M260.408 443.972H136.168C133.984 443.967 131.875 443.187 130.234 441.776C128.593 440.364 127.53 438.418 127.243 436.298L119.025 374.495C118.859 373.252 118.967 371.989 119.339 370.789C119.712 369.59 120.342 368.483 121.187 367.541C122.032 366.599 123.072 365.844 124.238 365.327C125.404 364.81 126.67 364.543 127.95 364.543H252.19C254.374 364.548 256.483 365.328 258.124 366.74C259.766 368.152 260.829 370.099 261.116 372.219L269.334 434.021C269.499 435.264 269.391 436.528 269.018 437.727C268.645 438.926 268.015 440.034 267.171 440.975C266.326 441.917 265.286 442.672 264.12 443.189C262.953 443.706 261.688 443.973 260.408 443.973V443.972ZM127.95 365.788C126.851 365.788 125.764 366.018 124.763 366.462C123.762 366.905 122.869 367.553 122.143 368.362C121.418 369.171 120.877 370.122 120.557 371.151C120.237 372.181 120.145 373.266 120.287 374.333L128.505 436.136C128.751 437.956 129.664 439.627 131.073 440.839C132.482 442.051 134.292 442.722 136.168 442.726H260.408C261.507 442.726 262.594 442.496 263.595 442.052C264.597 441.608 265.49 440.96 266.215 440.151C266.941 439.342 267.481 438.391 267.801 437.361C268.121 436.331 268.213 435.246 268.071 434.179L259.853 372.377C259.606 370.556 258.694 368.885 257.285 367.674C255.875 366.462 254.065 365.792 252.19 365.788H127.95Z" fill="#292A2E"/>
<path d="M267.434 443.348H143.194C141.163 443.348 139.201 442.624 137.674 441.312C136.148 439.999 135.162 438.188 134.899 436.215L126.681 374.413C126.528 373.257 126.628 372.083 126.974 370.969C127.321 369.855 127.906 368.825 128.691 367.95C129.476 367.075 130.443 366.374 131.527 365.893C132.61 365.413 133.786 365.164 134.976 365.164H259.216C261.247 365.164 263.209 365.888 264.735 367.2C266.262 368.513 267.248 370.325 267.51 372.297L275.728 434.1C275.882 435.255 275.782 436.429 275.435 437.543C275.089 438.658 274.503 439.687 273.719 440.562C272.934 441.437 271.967 442.139 270.883 442.619C269.799 443.099 268.624 443.348 267.434 443.348V443.348Z" fill="white"/>
<path d="M267.434 443.972H143.194C141.009 443.967 138.901 443.187 137.26 441.776C135.619 440.364 134.556 438.418 134.269 436.298L126.05 374.495C125.885 373.252 125.992 371.989 126.365 370.789C126.738 369.59 127.368 368.483 128.213 367.541C129.057 366.599 130.098 365.844 131.264 365.327C132.43 364.81 133.695 364.543 134.976 364.543H259.216C261.4 364.548 263.509 365.328 265.15 366.74C266.792 368.152 267.854 370.099 268.141 372.219L276.359 434.021C276.524 435.264 276.417 436.528 276.044 437.727C275.671 438.926 275.041 440.034 274.197 440.976C273.352 441.917 272.312 442.672 271.146 443.189C269.979 443.706 268.714 443.973 267.434 443.973V443.972ZM134.976 365.788C133.876 365.788 132.79 366.018 131.789 366.462C130.787 366.905 129.894 367.553 129.169 368.362C128.444 369.171 127.903 370.122 127.583 371.151C127.263 372.181 127.17 373.266 127.312 374.333L135.53 436.136C135.777 437.956 136.689 439.628 138.098 440.84C139.508 442.052 141.318 442.722 143.194 442.726H267.434C268.533 442.726 269.62 442.496 270.621 442.052C271.623 441.608 272.516 440.96 273.242 440.151C273.967 439.342 274.508 438.391 274.828 437.361C275.148 436.331 275.24 435.246 275.098 434.179L266.88 372.377C266.633 370.556 265.721 368.885 264.312 367.673C262.902 366.461 261.092 365.79 259.216 365.786L134.976 365.788Z" fill="#292A2E"/>
<path d="M442.655 685.443C442.655 685.443 446.067 702.763 462.625 703.727C479.184 704.692 475.593 717.611 475.593 717.611H412.315V686.651L442.655 685.443Z" fill="#367CFF"/>
<path d="M322.27 674.509C322.27 674.509 317.525 691.524 331.949 699.548C346.372 707.572 337.327 717.611 337.327 717.611L280.546 690.255L294.502 662.475L322.27 674.509Z" fill="#367CFF"/>
<path d="M271.317 270.951C271.317 270.951 279.573 264.849 281.619 250.802C283.203 239.926 272.958 246.972 272.958 246.972C272.958 246.972 274.02 239.13 268.185 239.908C262.35 240.685 259.086 248.925 259.086 248.925" fill="#0C0C0C"/>
<path d="M238.03 240.824C238.03 240.824 209.081 243.864 219.546 282.279L222.108 282.447L227.308 282.788" fill="#0C0C0C"/>
<path d="M266.468 322.398C266.341 322.382 264.929 345.329 237.703 343.33C218.855 341.948 212.135 322.366 211.703 322.366C213.735 321.943 216.246 321.301 217.244 321.08C219.419 320.586 221.389 319.454 222.892 317.837C224.394 316.219 225.358 314.192 225.655 312.025C226.207 308.772 225.273 292.129 225.559 288.838L254.491 295.162C254.087 302.113 251.257 318.228 261.172 321.08C262.825 321.552 264.602 321.986 266.468 322.398Z" fill="#E98862"/>
<path opacity="0.52" d="M254.897 314.495C254.444 313.065 254.152 311.59 254.027 310.098C253.709 306.692 253.773 303.263 254.218 299.87C248.337 299.093 242.798 296.716 238.228 293.01C237.691 294.953 234.736 303.442 235.555 305.289C237.098 308.779 244.363 314.495 254.897 314.495Z" fill="#0C0C0C"/>
<path d="M248.926 309.952C237.512 308.949 223.851 301.887 223.654 286.714L223.476 273.025C223.279 257.852 231.257 245.451 245.845 245.27C260.433 245.088 271.496 257.252 271.693 272.424L271.772 278.485C271.762 280.566 271.607 282.644 271.308 284.705C270.56 290.158 269.399 298.447 265.621 304.055C262.053 309.349 256.218 310.592 248.926 309.952Z" fill="#E98862"/>
<path d="M254.222 296.083C256.577 296.188 258.925 295.749 261.075 294.802C261.119 294.783 261.16 294.756 261.193 294.722C261.227 294.688 261.254 294.648 261.272 294.605C261.29 294.561 261.299 294.514 261.298 294.466C261.298 294.419 261.288 294.372 261.269 294.329C261.25 294.285 261.222 294.246 261.188 294.213C261.153 294.18 261.112 294.153 261.068 294.136C261.023 294.118 260.975 294.109 260.926 294.11C260.878 294.11 260.83 294.12 260.786 294.139C256.154 296.074 251.947 295.79 248.621 293.319C248.554 293.267 248.484 293.219 248.412 293.174C248.328 293.136 248.233 293.13 248.146 293.158C248.058 293.185 247.984 293.243 247.938 293.322C247.892 293.4 247.877 293.492 247.898 293.58C247.918 293.668 247.971 293.746 248.046 293.797C248.073 293.813 248.115 293.846 248.173 293.892C249.922 295.196 252.028 295.959 254.222 296.083Z" fill="#0C0C0C"/>
<path d="M254.112 299.502C254.537 299.528 254.964 299.518 255.388 299.472C255.485 299.462 255.574 299.414 255.636 299.34C255.697 299.266 255.726 299.17 255.715 299.075C255.705 298.98 255.657 298.893 255.581 298.833C255.505 298.773 255.408 298.745 255.311 298.755C252.761 299.021 251.544 297.876 251.493 297.827C251.423 297.763 251.33 297.727 251.235 297.729C251.139 297.73 251.047 297.768 250.979 297.834C250.911 297.9 250.873 297.99 250.871 298.084C250.87 298.178 250.906 298.269 250.972 298.337C251.85 299.068 252.959 299.48 254.112 299.502V299.502Z" fill="#0C0C0C"/>
<path d="M266.876 281.402C267.868 281.402 268.673 280.614 268.673 279.643C268.673 278.671 267.868 277.883 266.876 277.883C265.883 277.883 265.079 278.671 265.079 279.643C265.079 280.614 265.883 281.402 266.876 281.402Z" fill="#0C0C0C"/>
<path d="M249.321 280.324C250.313 280.324 251.118 279.536 251.118 278.564C251.118 277.593 250.313 276.805 249.321 276.805C248.328 276.805 247.524 277.593 247.524 278.564C247.524 279.536 248.328 280.324 249.321 280.324Z" fill="#0C0C0C"/>
<path d="M224.62 291.327C220.186 291.382 216.533 286.782 216.475 282.441C216.417 278.099 219.981 275.661 224.414 275.605L226.736 278.486L228.43 291.279L224.62 291.327Z" fill="#E98862"/>
<path d="M229.028 284.349C229.028 284.349 230.525 262.88 237.173 261.555C241.6 260.672 252.337 266.822 262.281 264.964C266.633 264.154 270.763 265.206 271.183 267.219C271.349 268.016 274.06 256.563 267.247 247.874C261.822 240.957 244.07 239 235.994 241.269C213.631 247.551 223.499 276.549 223.499 276.549L224.497 283.95L229.028 284.349Z" fill="#0C0C0C"/>
<path d="M256.899 291.017C256.908 291.017 256.918 291.017 256.927 291.017C258.356 291.002 260.75 290.823 260.741 289.776C260.731 288.909 258.212 279.572 257.923 278.51C257.891 278.428 257.829 278.359 257.749 278.319C257.669 278.278 257.576 278.269 257.489 278.291C257.402 278.314 257.326 278.368 257.277 278.442C257.228 278.516 257.209 278.606 257.223 278.693C258.343 282.828 260.01 289.194 260.017 289.785C259.879 290.034 258.403 290.29 256.924 290.305C256.83 290.307 256.741 290.344 256.675 290.408C256.609 290.473 256.57 290.559 256.568 290.651C256.565 290.742 256.598 290.831 256.66 290.899C256.722 290.967 256.809 291.009 256.902 291.017H256.899Z" fill="#0C0C0C"/>
<path d="M261.776 270.1C263.277 269.696 264.862 269.696 266.364 270.1C267.101 270.295 267.805 270.596 268.451 270.995C269.089 271.386 269.675 271.854 270.194 272.389C270.293 272.483 270.351 272.612 270.354 272.747C270.358 272.882 270.308 273.014 270.213 273.113C270.119 273.213 269.989 273.272 269.851 273.279C269.713 273.285 269.577 273.239 269.474 273.149L269.441 273.121C268.961 272.686 268.426 272.311 267.851 272.007C267.286 271.703 266.677 271.486 266.045 271.362C264.802 271.106 263.512 271.176 262.306 271.566L262.255 271.583C262.056 271.652 261.837 271.641 261.646 271.552C261.456 271.463 261.309 271.303 261.239 271.108C261.169 270.913 261.18 270.699 261.271 270.512C261.362 270.326 261.525 270.182 261.724 270.113L261.776 270.1Z" fill="#0C0C0C"/>
<path d="M251.144 270.984C250.002 270.44 248.733 270.202 247.466 270.293C246.823 270.334 246.19 270.47 245.589 270.697C244.978 270.924 244.398 271.225 243.863 271.594L243.829 271.616C243.714 271.688 243.575 271.714 243.441 271.689C243.308 271.663 243.189 271.588 243.11 271.479C243.031 271.37 242.999 271.236 243.018 271.104C243.038 270.972 243.109 270.852 243.217 270.77C243.804 270.308 244.448 269.92 245.134 269.616C245.829 269.305 246.567 269.098 247.324 269.002C248.083 268.897 248.852 268.895 249.611 268.996C250.39 269.091 251.151 269.294 251.872 269.599C252.066 269.681 252.219 269.836 252.296 270.029C252.374 270.222 252.37 270.437 252.286 270.627C252.201 270.817 252.043 270.966 251.846 271.042C251.649 271.118 251.43 271.114 251.236 271.032C251.221 271.026 251.206 271.019 251.192 271.011L251.144 270.984Z" fill="#0C0C0C"/>
<path d="M259.639 255.322C262.921 254.651 264.763 250.272 263.754 245.543C262.745 240.813 259.266 237.523 255.985 238.195C252.704 238.866 250.861 243.244 251.871 247.974C252.88 252.704 256.358 255.994 259.639 255.322Z" fill="#0C0C0C"/>
<path d="M287.102 669.704L334.985 521.778H248.191C230.755 521.778 223.487 507.299 223.487 490.227C223.487 473.154 240.627 458.188 258.061 458.188H375.202C385.836 458.188 397.759 464.556 403.595 473.261C409.432 481.966 407.854 495.455 403.625 505.01L326.948 687.381" fill="#262626"/>
<path opacity="0.8" d="M287.102 669.704L334.985 521.778H248.191C230.755 521.778 223.487 507.299 223.487 490.227C223.487 473.154 240.627 458.188 258.061 458.188H375.202C385.836 458.188 397.759 464.556 403.595 473.261C409.432 481.966 407.854 495.455 403.625 505.01L326.948 687.381" fill="#0A0A0A"/>
<path d="M408.676 701.528L328.612 521.777L223.486 521.77C198.853 519.879 187.572 506.659 187.931 489.59C188.284 472.738 196.998 456.092 214.13 456.092H355.821C368.497 456.347 378.469 470.064 383.172 481.594L449.731 690.523" fill="#262626"/>
<path d="M180.761 456.297C180.761 456.297 176.092 486.112 183.492 502.688C192.731 523.382 227.365 521.77 227.365 521.77L225.413 456.092L180.761 456.297Z" fill="#262626"/>
<path d="M386.184 455.712L311.925 440.643C308.831 440.015 305.948 438.633 303.544 436.625C301.14 434.617 299.292 432.047 298.171 429.154L268.963 353.784C268.074 351.522 267.65 349.11 267.715 346.687C267.78 344.264 268.334 341.877 269.344 339.664C270.354 337.451 271.8 335.456 273.6 333.792C275.4 332.128 277.518 330.829 279.832 329.969C282.146 329.109 284.611 328.705 287.085 328.78C289.559 328.856 291.993 329.41 294.248 330.409C296.503 331.409 298.534 332.835 300.224 334.605C301.914 336.376 303.231 338.456 304.098 340.726L329.648 406.654L393.811 419.674C393.811 419.674 387.472 455.973 386.184 455.712Z" fill="#367CFF"/>
<path d="M300.296 372.926C299.439 382.792 293.36 444.344 292.533 456.496H180.81C180.168 445.536 177.285 397.61 174.851 376.174C172.527 355.722 169.27 346.415 171.946 340.059C176.667 328.849 191.691 323.843 201.866 322.495C208.079 321.671 217.423 321.08 217.423 321.08C217.423 321.08 218.215 336.754 237.08 337.626C262.762 338.81 261.047 321.08 261.174 321.08C265.334 321.08 287.981 324.043 293.644 327.657C301.642 332.763 304.006 339.719 304.099 346.111C304.207 353.471 301.268 361.734 300.296 372.926Z" fill="#367CFF"/>
<path d="M295.905 423.217H295.878C295.837 423.213 295.796 423.202 295.759 423.183C295.722 423.165 295.689 423.139 295.662 423.108C295.635 423.076 295.614 423.04 295.602 423.001C295.589 422.962 295.584 422.921 295.588 422.88L298.488 388.761C298.49 388.72 298.501 388.68 298.52 388.643C298.539 388.606 298.565 388.573 298.597 388.547C298.629 388.52 298.666 388.5 298.707 388.488C298.747 388.476 298.789 388.472 298.831 388.476C298.873 388.48 298.913 388.491 298.95 388.51C298.987 388.529 299.021 388.554 299.048 388.586C299.075 388.617 299.095 388.653 299.108 388.692C299.12 388.731 299.125 388.772 299.122 388.813L296.221 422.932C296.214 423.01 296.178 423.082 296.12 423.135C296.061 423.187 295.985 423.217 295.905 423.217Z" fill="#0C0C0C"/>
<path d="M313.867 449.729L338.381 375.936C338.812 374.639 339.65 373.509 340.777 372.708C341.904 371.906 343.261 371.475 344.653 371.475H444.525C445.566 371.475 446.593 371.716 447.52 372.179C448.448 372.642 449.25 373.313 449.862 374.138C450.474 374.963 450.878 375.918 451.04 376.925C451.203 377.932 451.12 378.962 450.797 379.932L426.284 453.725C425.853 455.022 425.014 456.152 423.887 456.953C422.761 457.755 421.404 458.186 420.011 458.186H320.139C319.098 458.186 318.072 457.945 317.144 457.482C316.217 457.019 315.414 456.348 314.802 455.523C314.191 454.698 313.787 453.743 313.624 452.736C313.462 451.729 313.545 450.699 313.867 449.729V449.729Z" fill="#292A2E"/>
<path opacity="0.2" d="M313.867 449.729L338.381 375.936C338.812 374.639 339.65 373.509 340.777 372.708C341.904 371.906 343.261 371.475 344.653 371.475H444.525C445.566 371.475 446.593 371.716 447.52 372.179C448.448 372.642 449.25 373.313 449.862 374.138C450.474 374.963 450.878 375.918 451.04 376.925C451.203 377.932 451.12 378.962 450.797 379.932L426.284 453.725C425.853 455.022 425.014 456.152 423.887 456.953C422.761 457.755 421.404 458.186 420.011 458.186H320.139C319.098 458.186 318.072 457.945 317.144 457.482C316.217 457.019 315.414 456.348 314.802 455.523C314.191 454.698 313.787 453.743 313.624 452.736C313.462 451.729 313.545 450.699 313.867 449.729V449.729Z" fill="white"/>
<path d="M333.864 452.203H267.009C265.344 452.203 263.993 453.526 263.993 455.157V455.233C263.993 456.864 265.344 458.186 267.009 458.186H333.864C335.53 458.186 336.88 456.864 336.88 455.233V455.157C336.88 453.526 335.53 452.203 333.864 452.203Z" fill="#292A2E"/>
<path opacity="0.2" d="M333.864 452.203H267.009C265.344 452.203 263.993 453.526 263.993 455.157V455.233C263.993 456.864 265.344 458.186 267.009 458.186H333.864C335.53 458.186 336.88 456.864 336.88 455.233V455.157C336.88 453.526 335.53 452.203 333.864 452.203Z" fill="white"/>
<path d="M382.332 428.689C388.117 428.689 392.806 424.096 392.806 418.431C392.806 412.766 388.117 408.174 382.332 408.174C376.547 408.174 371.857 412.766 371.857 418.431C371.857 424.096 376.547 428.689 382.332 428.689Z" fill="white"/>
<path d="M301.308 359.172H274.751V391.066H301.308V359.172Z" fill="white"/>
<path d="M274.751 385.769C272.6 385.769 270.498 385.144 268.709 383.974C266.921 382.804 265.527 381.14 264.704 379.194C263.881 377.248 263.665 375.107 264.085 373.041C264.505 370.975 265.54 369.077 267.061 367.588C268.582 366.099 270.52 365.084 272.63 364.673C274.739 364.262 276.926 364.473 278.913 365.279C280.9 366.086 282.599 367.451 283.794 369.202C284.989 370.953 285.627 373.012 285.627 375.119C285.624 377.942 284.477 380.649 282.438 382.646C280.399 384.643 277.635 385.766 274.751 385.769V385.769ZM274.751 368.831C273.481 368.831 272.24 369.2 271.184 369.891C270.128 370.582 269.305 371.564 268.819 372.713C268.333 373.862 268.206 375.127 268.454 376.346C268.701 377.566 269.313 378.687 270.211 379.566C271.109 380.445 272.253 381.044 273.499 381.287C274.745 381.529 276.036 381.405 277.209 380.929C278.382 380.453 279.385 379.647 280.091 378.612C280.796 377.578 281.173 376.362 281.173 375.119C281.171 373.452 280.494 371.853 279.29 370.674C278.086 369.496 276.454 368.833 274.751 368.831Z" fill="white"/>
<path d="M276.283 379.843C276.041 379.227 275.585 378.714 274.995 378.394C274.406 378.074 273.72 377.968 273.058 378.093C273.071 378.063 273.078 378.031 273.078 377.999L273.969 377.609C274.593 377.349 275.106 376.886 275.422 376.298C275.737 375.71 275.836 375.034 275.7 374.383C275.607 373.977 275.422 373.596 275.16 373.268C274.898 372.939 274.565 372.672 274.185 372.486C273.805 372.299 273.387 372.197 272.962 372.188C272.537 372.178 272.115 372.261 271.726 372.431L269.625 373.351C269.625 373.343 269.625 373.335 269.62 373.327C269.612 373.31 269.602 373.295 269.59 373.28C270.108 372.898 270.478 372.356 270.64 371.741C270.802 371.127 270.747 370.476 270.484 369.896C269.9 368.35 267.832 368.227 266.465 368.824L260.971 370.995L262.629 369.348C263.149 368.811 263.441 368.101 263.446 367.361C263.451 366.621 263.17 365.907 262.658 365.363C262.384 365.091 262.056 364.877 261.694 364.733C261.333 364.59 260.945 364.52 260.555 364.528C260.165 364.536 259.78 364.622 259.425 364.78C259.07 364.939 258.752 365.166 258.489 365.449L238.954 386.341L245.635 392.643C247.71 394.6 250.334 395.906 253.172 396.393C256.009 396.88 258.931 396.526 261.561 395.376L273.468 390.149C274.092 389.889 274.606 389.426 274.921 388.838C275.237 388.25 275.335 387.574 275.2 386.923C275.064 386.339 274.742 385.812 274.28 385.42C273.818 385.027 273.24 384.79 272.63 384.742C272.637 384.709 272.637 384.676 272.631 384.644C272.624 384.611 272.611 384.581 272.592 384.553C272.573 384.526 272.549 384.502 272.521 384.484C272.493 384.466 272.462 384.453 272.428 384.447L274.627 383.486C275.323 383.198 275.881 382.661 276.189 381.985C276.496 381.308 276.53 380.543 276.283 379.843V379.843Z" fill="#E98862"/>
<path opacity="0.2" d="M265.652 375.118C265.589 375.118 265.528 375.097 265.48 375.058C265.431 375.019 265.398 374.964 265.386 374.903C265.374 374.843 265.385 374.78 265.415 374.726C265.446 374.672 265.494 374.63 265.553 374.608L269.269 373.175C269.302 373.162 269.337 373.156 269.373 373.156C269.408 373.157 269.443 373.164 269.476 373.178C269.508 373.192 269.538 373.212 269.562 373.237C269.587 373.262 269.606 373.291 269.619 373.324C269.632 373.356 269.639 373.39 269.638 373.425C269.637 373.46 269.63 373.494 269.616 373.526C269.601 373.558 269.581 373.586 269.556 373.61C269.53 373.635 269.5 373.654 269.467 373.666L265.751 375.1C265.72 375.112 265.686 375.118 265.652 375.118V375.118Z" fill="#0C0C0C"/>
<path opacity="0.2" d="M267.726 380.264C267.664 380.264 267.603 380.243 267.555 380.204C267.507 380.165 267.474 380.11 267.462 380.05C267.45 379.99 267.46 379.928 267.49 379.874C267.52 379.82 267.568 379.778 267.626 379.755L272.709 377.753C272.774 377.731 272.846 377.734 272.909 377.762C272.972 377.79 273.022 377.841 273.048 377.904C273.074 377.967 273.074 378.038 273.048 378.101C273.023 378.164 272.973 378.215 272.91 378.243L267.827 380.246C267.795 380.258 267.761 380.264 267.726 380.264V380.264Z" fill="#0C0C0C"/>
<path opacity="0.2" d="M269.943 385.851C269.88 385.851 269.819 385.829 269.77 385.789C269.722 385.75 269.689 385.695 269.678 385.634C269.666 385.573 269.677 385.51 269.708 385.456C269.74 385.402 269.789 385.361 269.848 385.339L272.272 384.449C272.339 384.424 272.413 384.426 272.478 384.455C272.543 384.484 272.594 384.537 272.62 384.603C272.645 384.668 272.643 384.741 272.613 384.805C272.584 384.869 272.529 384.919 272.462 384.943L270.039 385.834C270.009 385.845 269.976 385.851 269.943 385.851V385.851Z" fill="#0C0C0C"/>
<path d="M281.934 338.883C281.816 338.883 281.701 338.852 281.601 338.792C281.501 338.732 281.42 338.646 281.367 338.544C279.918 335.778 278.115 332.335 278.319 328.725C278.48 325.854 279.855 323.303 281.182 320.84C282.04 319.351 282.771 317.796 283.368 316.189C284.096 313.972 284.28 311.618 283.904 309.319C283.528 307.02 282.603 304.84 281.204 302.956C281.152 302.891 281.113 302.815 281.091 302.735C281.069 302.655 281.064 302.571 281.075 302.488C281.087 302.406 281.115 302.326 281.158 302.255C281.201 302.183 281.259 302.121 281.327 302.071C281.396 302.022 281.474 301.986 281.556 301.967C281.639 301.947 281.725 301.944 281.809 301.957C281.893 301.971 281.973 302.001 282.045 302.045C282.117 302.09 282.179 302.148 282.227 302.216C283.747 304.26 284.752 306.626 285.161 309.122C285.57 311.618 285.372 314.173 284.582 316.58C283.964 318.253 283.205 319.872 282.313 321.422C280.989 323.877 279.739 326.195 279.593 328.794C279.409 332.066 281.053 335.206 282.503 337.976C282.553 338.071 282.577 338.177 282.573 338.283C282.569 338.39 282.537 338.494 282.48 338.585C282.423 338.676 282.343 338.751 282.248 338.803C282.153 338.855 282.046 338.883 281.937 338.883H281.934Z" fill="white"/>
<path d="M292.151 348.609C292.01 348.608 291.873 348.563 291.761 348.478C291.65 348.393 291.57 348.275 291.535 348.141C291.5 348.007 291.511 347.866 291.567 347.739C291.622 347.612 291.72 347.507 291.843 347.44C294.201 346.166 294.465 342.621 293.358 339.93C292.808 338.693 292.165 337.498 291.434 336.355C290.457 334.873 289.662 333.283 289.067 331.619C288.459 329.589 288.421 327.437 288.956 325.388C289.492 323.339 290.581 321.469 292.11 319.975C292.231 319.861 292.393 319.8 292.561 319.803C292.729 319.806 292.888 319.874 293.005 319.992C293.122 320.11 293.187 320.268 293.185 320.432C293.183 320.597 293.115 320.754 292.996 320.869C291.633 322.202 290.662 323.869 290.184 325.696C289.707 327.523 289.741 329.443 290.283 331.252C290.849 332.823 291.602 334.322 292.528 335.719C293.294 336.916 293.965 338.167 294.537 339.463C295.835 342.615 295.546 346.863 292.457 348.531C292.363 348.581 292.258 348.608 292.151 348.609Z" fill="white"/>
<path d="M261.353 402.927L167.654 440.901C164.276 442.255 160.568 442.617 156.984 441.941C153.399 441.265 150.093 439.581 147.47 437.096C144.847 434.61 143.02 431.43 142.212 427.944C141.404 424.458 141.651 420.817 142.922 417.466L170.868 342.718C174.481 333.192 184.659 327.714 194.388 331.253C199.059 332.952 202.85 336.398 204.926 340.835C207.003 345.271 207.195 350.333 205.46 354.908L192.713 390.286L247.627 369.554" fill="#367CFF"/>
<path d="M261.124 403.265C261.075 403.265 261.026 403.25 260.985 403.223C260.943 403.196 260.911 403.157 260.892 403.112L247.258 369.961L192.528 390.646C192.482 390.663 192.433 390.667 192.385 390.657C192.338 390.647 192.294 390.624 192.26 390.59C192.226 390.556 192.202 390.514 192.192 390.467C192.182 390.42 192.187 390.372 192.204 390.328L200.667 369.056C200.692 368.996 200.739 368.947 200.8 368.921C200.861 368.895 200.93 368.894 200.992 368.917C201.053 368.941 201.103 368.988 201.13 369.047C201.157 369.107 201.158 369.174 201.134 369.235L192.877 389.987L247.309 369.415C247.37 369.392 247.438 369.394 247.499 369.419C247.559 369.445 247.607 369.493 247.631 369.552L261.357 402.928C261.381 402.989 261.379 403.056 261.354 403.116C261.328 403.175 261.279 403.223 261.218 403.248C261.188 403.259 261.156 403.265 261.124 403.265V403.265Z" fill="#0C0C0C"/>
<path d="M175.339 397.228C175.28 397.229 175.223 397.209 175.178 397.173C175.133 397.136 175.102 397.085 175.091 397.029C175.08 396.972 175.09 396.914 175.118 396.864C175.147 396.814 175.192 396.775 175.247 396.755L192.389 390.149C192.42 390.137 192.453 390.131 192.486 390.131C192.519 390.131 192.552 390.138 192.583 390.15C192.613 390.163 192.641 390.182 192.664 390.205C192.687 390.228 192.705 390.256 192.718 390.286C192.73 390.317 192.736 390.349 192.735 390.381C192.734 390.414 192.727 390.446 192.714 390.476C192.7 390.506 192.681 390.532 192.657 390.555C192.632 390.577 192.604 390.595 192.573 390.606L175.43 397.211C175.401 397.222 175.37 397.228 175.339 397.228V397.228Z" fill="#0C0C0C"/>
<path d="M179.331 436.466C179.273 436.466 179.216 436.447 179.171 436.411C179.126 436.375 179.096 436.325 179.084 436.269C179.073 436.213 179.082 436.155 179.11 436.105C179.137 436.055 179.182 436.016 179.235 435.995L261.032 402.794C261.062 402.782 261.094 402.775 261.127 402.775C261.16 402.775 261.193 402.782 261.223 402.794C261.253 402.807 261.281 402.825 261.304 402.847C261.327 402.87 261.346 402.897 261.358 402.927C261.371 402.957 261.377 402.989 261.377 403.021C261.377 403.053 261.371 403.085 261.358 403.115C261.345 403.144 261.327 403.171 261.304 403.194C261.28 403.217 261.253 403.235 261.222 403.247L179.426 436.448C179.396 436.46 179.364 436.466 179.331 436.466Z" fill="#0C0C0C"/>
<path d="M594.603 636.281C594.434 636.281 594.272 636.216 594.153 636.099C593.256 635.221 591.795 619.113 587.859 571.154C586.248 551.529 584.726 532.994 583.616 521.73C583.537 520.925 583.219 520.831 583.114 520.801C581.594 520.352 576.972 523.921 574.392 527.046C574.286 527.174 574.132 527.256 573.964 527.274C573.796 527.291 573.628 527.243 573.497 527.139C573.365 527.035 573.282 526.884 573.264 526.72C573.246 526.556 573.296 526.391 573.402 526.263C575.108 524.196 580.67 518.779 583.48 519.607C584.047 519.774 584.752 520.256 584.883 521.61C585.994 532.884 587.516 551.425 589.127 571.053C591.519 600.198 594.229 633.215 595.119 635.294C595.188 635.387 595.229 635.497 595.237 635.612C595.246 635.726 595.222 635.84 595.169 635.943C595.116 636.045 595.034 636.13 594.935 636.19C594.835 636.25 594.72 636.281 594.603 636.281V636.281Z" fill="#494949"/>
<path d="M581.982 542.4C592.541 534.112 596.04 521.211 589.798 513.585C583.557 505.959 569.937 506.497 559.378 514.785C548.819 523.074 545.319 535.975 551.561 543.6C557.803 551.226 571.423 550.689 581.982 542.4Z" fill="#0CBC8B"/>
<path opacity="0.2" d="M581.982 542.4C592.541 534.112 596.04 521.211 589.798 513.585C583.557 505.959 569.937 506.497 559.378 514.785C548.819 523.074 545.319 535.975 551.561 543.6C557.803 551.226 571.423 550.689 581.982 542.4Z" fill="white"/>
<path d="M554.521 545.539C554.46 545.539 554.401 545.523 554.35 545.491C554.299 545.459 554.258 545.414 554.233 545.36C554.207 545.306 554.198 545.247 554.205 545.188C554.213 545.129 554.238 545.074 554.276 545.028L584.369 509.492C584.395 509.459 584.428 509.433 584.465 509.413C584.502 509.393 584.543 509.381 584.585 509.377C584.627 509.372 584.669 509.376 584.71 509.389C584.75 509.401 584.788 509.421 584.82 509.447C584.853 509.473 584.88 509.506 584.899 509.543C584.919 509.579 584.931 509.619 584.934 509.661C584.938 509.702 584.933 509.743 584.92 509.783C584.907 509.822 584.886 509.859 584.858 509.89L554.766 545.427C554.736 545.462 554.698 545.49 554.656 545.51C554.614 545.529 554.567 545.539 554.521 545.539Z" fill="white"/>
<path d="M601.166 628.664C601.064 628.664 600.964 628.64 600.874 628.595C600.784 628.549 600.706 628.483 600.647 628.402C600.588 628.321 600.55 628.227 600.536 628.129C600.521 628.03 600.531 627.93 600.565 627.836L611.868 596.002C612.201 595.066 612.768 594.227 613.518 593.562C614.267 592.897 615.175 592.427 616.159 592.195C617.142 591.962 618.169 591.975 619.146 592.232C620.123 592.489 621.018 592.982 621.75 593.666L627.726 599.257C627.848 599.371 627.918 599.528 627.922 599.693C627.926 599.858 627.862 600.018 627.746 600.138C627.629 600.257 627.469 600.327 627.3 600.33C627.131 600.334 626.968 600.272 626.846 600.158L620.87 594.568C620.293 594.028 619.586 593.639 618.815 593.436C618.044 593.233 617.233 593.223 616.457 593.407C615.681 593.59 614.964 593.961 614.373 594.486C613.781 595.011 613.333 595.673 613.07 596.411L601.767 628.245C601.723 628.367 601.642 628.473 601.535 628.548C601.427 628.623 601.298 628.664 601.166 628.664Z" fill="#494949"/>
<path d="M644.423 616.882C652.248 610.817 651.783 597.476 643.384 587.085C634.985 576.694 621.833 573.188 614.008 579.254C606.182 585.319 606.648 598.66 615.046 609.051C623.445 619.442 636.597 622.948 644.423 616.882Z" fill="#0CBC8B"/>
<path d="M589.467 634.252C589.324 634.252 589.186 634.204 589.073 634.117C588.961 634.031 588.882 633.909 588.849 633.773L569.88 556.103C569.75 555.574 569.474 555.089 569.082 554.704C568.689 554.318 568.196 554.046 567.656 553.917C567.116 553.788 566.55 553.808 566.02 553.974C565.49 554.139 565.018 554.445 564.654 554.857L558.807 561.474C558.752 561.536 558.686 561.586 558.611 561.623C558.536 561.66 558.455 561.682 558.371 561.688C558.288 561.694 558.204 561.683 558.125 561.658C558.046 561.632 557.972 561.591 557.909 561.537C557.846 561.484 557.794 561.419 557.757 561.345C557.719 561.272 557.697 561.193 557.691 561.111C557.685 561.029 557.695 560.947 557.721 560.87C557.748 560.792 557.789 560.72 557.844 560.658L563.692 554.041C564.209 553.457 564.881 553.023 565.633 552.789C566.386 552.554 567.19 552.526 567.957 552.71C568.724 552.893 569.424 553.28 569.982 553.828C570.539 554.376 570.931 555.064 571.115 555.816L590.084 633.486C590.123 633.647 590.096 633.816 590.007 633.957C589.919 634.098 589.777 634.198 589.613 634.237C589.565 634.247 589.516 634.252 589.467 634.252V634.252Z" fill="#494949"/>
<path d="M582.471 578.728C584.777 565.67 578.674 553.734 568.84 552.069C559.006 550.404 549.165 559.639 546.859 572.698C544.553 585.756 550.656 597.692 560.49 599.357C570.324 601.022 580.165 591.787 582.471 578.728Z" fill="#0CBC8B"/>
<path d="M594.604 636.281C594.577 636.281 594.551 636.279 594.525 636.276C594.357 636.256 594.205 636.172 594.101 636.041C593.997 635.911 593.95 635.746 593.971 635.582L606.084 539.272C606.216 538.222 606.654 537.232 607.347 536.421C608.04 535.609 608.957 535.011 609.989 534.699C611.02 534.386 612.122 534.372 613.162 534.658C614.201 534.944 615.134 535.518 615.849 536.311L629.694 551.667C629.805 551.791 629.862 551.953 629.852 552.118C629.841 552.283 629.764 552.437 629.638 552.547C629.511 552.656 629.345 552.712 629.177 552.702C629.008 552.691 628.851 552.616 628.739 552.492L614.894 537.135C614.342 536.522 613.62 536.079 612.817 535.858C612.013 535.637 611.161 535.648 610.364 535.89C609.566 536.132 608.857 536.595 608.322 537.222C607.787 537.85 607.448 538.615 607.347 539.427L595.232 635.734C595.213 635.884 595.139 636.023 595.023 636.124C594.907 636.224 594.758 636.28 594.604 636.281Z" fill="#494949"/>
<path d="M643.891 560.201C648.722 551.649 643.038 539.516 631.197 533.102C619.355 526.688 605.839 528.42 601.009 536.972C596.178 545.524 601.862 557.657 613.703 564.071C625.545 570.486 639.061 568.753 643.891 560.201Z" fill="#0CBC8B"/>
<path opacity="0.2" d="M644.423 616.882C652.248 610.817 651.783 597.476 643.384 587.085C634.985 576.694 621.833 573.188 614.008 579.254C606.182 585.319 606.648 598.66 615.046 609.051C623.445 619.442 636.597 622.948 644.423 616.882Z" fill="white"/>
<path opacity="0.5" d="M582.471 578.728C584.777 565.67 578.674 553.734 568.84 552.069C559.006 550.404 549.165 559.639 546.859 572.698C544.553 585.756 550.656 597.692 560.49 599.357C570.324 601.022 580.165 591.787 582.471 578.728Z" fill="white"/>
<path opacity="0.5" d="M643.891 560.201C648.722 551.649 643.038 539.516 631.197 533.102C619.355 526.688 605.839 528.42 601.009 536.972C596.178 545.524 601.862 557.657 613.703 564.071C625.545 570.486 639.061 568.753 643.891 560.201Z" fill="white"/>
<path d="M610.096 718.001H579.11L573.975 620.914H615.231L610.096 718.001Z" fill="#292A2E"/>
<path opacity="0.3" d="M610.096 718.001H579.11L573.975 620.914H615.231L610.096 718.001Z" fill="white"/>
<path d="M644.423 617.19C644.375 617.19 644.327 617.179 644.284 617.159C644.241 617.138 644.203 617.109 644.173 617.072L613.757 579.443C613.704 579.378 613.68 579.295 613.69 579.213C613.7 579.131 613.742 579.056 613.809 579.005C613.875 578.954 613.959 578.93 614.043 578.94C614.127 578.949 614.203 578.991 614.256 579.056L644.672 616.684C644.709 616.73 644.732 616.785 644.739 616.844C644.746 616.902 644.735 616.961 644.709 617.013C644.683 617.066 644.643 617.111 644.592 617.142C644.541 617.173 644.483 617.19 644.423 617.19Z" fill="white"/>
<path d="M641.869 563.216C641.801 563.215 641.735 563.194 641.681 563.154L602.76 535.325C602.726 535.301 602.697 535.271 602.675 535.236C602.654 535.201 602.639 535.162 602.633 535.121C602.626 535.081 602.628 535.04 602.638 535C602.648 534.96 602.666 534.923 602.69 534.89C602.715 534.857 602.746 534.829 602.782 534.807C602.817 534.786 602.857 534.772 602.898 534.765C602.939 534.759 602.982 534.761 603.022 534.771C603.063 534.78 603.101 534.798 603.135 534.822L642.056 562.653C642.109 562.692 642.149 562.746 642.169 562.808C642.189 562.87 642.188 562.937 642.168 562.999C642.147 563.061 642.107 563.115 642.053 563.153C642 563.192 641.935 563.213 641.869 563.214V563.216Z" fill="white"/>
<path d="M558.908 598.951C558.88 598.951 558.853 598.948 558.826 598.94C558.744 598.919 558.675 598.867 558.633 598.795C558.59 598.724 558.579 598.639 558.601 598.559L570.991 553.099C571.001 553.059 571.02 553.022 571.045 552.989C571.07 552.955 571.102 552.927 571.138 552.906C571.175 552.885 571.215 552.872 571.257 552.866C571.299 552.861 571.341 552.863 571.382 552.874C571.423 552.885 571.461 552.903 571.494 552.928C571.528 552.954 571.556 552.985 571.577 553.021C571.597 553.057 571.611 553.097 571.616 553.138C571.621 553.179 571.617 553.22 571.606 553.26L559.216 598.72C559.198 598.786 559.158 598.845 559.102 598.887C559.046 598.928 558.978 598.951 558.908 598.951Z" fill="white"/>
</g>
<defs>
<clipPath id="clip0_230_324">
<rect width="556" height="537" fill="white" transform="translate(94 181)"/>
</clipPath>
</defs>
</svg>
