<svg width="1920" height="3076" viewBox="0 0 1920 3076" fill="none" xmlns="http://www.w3.org/2000/svg">
<path d="M1488.05 2017.19C1669.45 1809.53 2037.72 1813.87 2095.44 1795.9C2153.15 1777.94 2663.71 2262.92 2663.71 2262.92L1006.5 4159.92C1006.5 4159.92 -534.784 2838.56 -403.665 2928C-272.545 3017.45 -116.22 2605.17 98.9201 2585.84C272.023 2570.29 395.862 2962.16 641.034 2717.37C823.121 2535.57 916.175 2972.45 1166.52 2722.66C1416.87 2472.86 1306.64 2224.84 1488.05 2017.19Z" fill="#5DB0DC"/>
<path d="M633.5 1908C501.677 2082.4 277 1927.5 163 2046C48.9999 2164.5 -79 2231 -79 2231C-79 2231 -416.497 1128.83 361.676 591.773C1139.85 54.7128 1973.46 967.418 2005 990.999C2036.54 1014.58 2103.37 1228.75 1935.5 1257C1800.43 1279.73 1874.09 1325.37 1564.5 1433C1371.82 1499.99 955.292 1221.26 771.5 1433C587.708 1644.74 765.323 1733.6 633.5 1908Z" fill="#ABD8EB"/>
</svg>
