<svg width="1920" height="2802" viewBox="0 0 1920 2802" fill="none" xmlns="http://www.w3.org/2000/svg">
<path d="M1518.13 1704.02C1736.74 1705.17 1925.09 1925.51 1965.8 1950.49C2006.5 1975.48 2001.95 2187.33 2001.95 2187.33C2001.95 2187.33 1387.18 3032.06 491.076 2730.4C-405.022 2428.75 -9.04433 1089.19 -9.04562 1049.81C-9.04692 1010.43 333.633 1054.81 456.777 1172.34C555.859 1266.91 385.032 1540.84 658.98 1560.75C862.439 1575.54 648.646 1854.29 928.279 1874.7C1207.91 1895.11 1299.52 1702.86 1518.13 1704.02Z" fill="#ABD8EB"/>
<path d="M442.5 915.593C231.107 915.593 47.8544 670.574 8.37115 642.905C-31.1121 615.235 -8.62163 0 -8.62163 0H1922.56C1922.56 0 1937.05 1775.18 1922.56 1637.37C1908.06 1499.57 1591.17 1633.81 1471.5 1503.24C1375.21 1398.19 1539 1091.2 1274 1070.57C1077.19 1055.25 1282.5 742.63 1012 721.473C741.5 700.315 653.893 915.593 442.5 915.593Z" fill="#ABD8EB"/>
<path d="M309.038 286.824C15.0425 357.166 -108 0 -108 0H2030C2030 0 1946.16 203.552 1841.08 225.295C1736 247.039 1358.17 154.052 1151.28 144.8C944.395 135.547 603.033 216.481 309.038 286.824Z" fill="#4BADD2" fill-opacity="0.67"/>
</svg>
