<svg width="1621" height="743" viewBox="0 0 1621 743" fill="none" xmlns="http://www.w3.org/2000/svg">
<path d="M1571.47 36.4403L1572.73 35.63L1572.37 35.0588L1571.7 34.9572L1571.47 36.4403ZM1155.93 11.8833L1155.79 10.3896L1155.93 11.8833ZM738.382 109.6L737.726 110.949L738.267 111.212L738.839 111.028L738.382 109.6ZM142.817 11.8833L141.925 10.6769L142.817 11.8833ZM11.3024 214.479L9.96099 215.15L11.3024 214.479ZM82.3101 357.217L83.6593 357.872L83.9801 357.212L83.6555 356.553L82.3101 357.217ZM374.842 656.506L374.716 658L375.082 658.031L375.422 657.889L374.842 656.506ZM1144.43 735.804L1143.66 737.094L1143.92 737.247L1144.22 737.29L1144.43 735.804ZM1464.46 510.187L1463.9 508.797L1462.82 509.236L1462.97 510.391L1464.46 510.187ZM1595.98 328.055L1597.36 328.625L1595.98 328.055ZM422.847 56.3926L422.479 54.9384L422.847 56.3926ZM183.321 548.045L182.437 549.257L183.321 548.045ZM771.885 612.508L771.672 613.992L771.885 612.508ZM1391.45 696.411L1392.55 697.438L1392.55 697.438L1391.45 696.411ZM1564.41 33.8913C1563.59 33.7736 1562.83 34.3429 1562.71 35.163C1562.59 35.983 1563.16 36.7432 1563.98 36.8608L1564.41 33.8913ZM1549.28 34.8056C1550.1 34.9177 1550.86 34.3432 1550.97 33.5224C1551.08 32.7016 1550.51 31.9453 1549.69 31.8332L1549.28 34.8056ZM1534.9 29.8562C1534.08 29.7485 1533.33 30.3272 1533.22 31.1486C1533.11 31.97 1533.69 32.7231 1534.51 32.8307L1534.9 29.8562ZM1519.69 30.9261C1520.51 31.0296 1521.26 30.4473 1521.37 29.6254C1521.47 28.8034 1520.89 28.0532 1520.06 27.9496L1519.69 30.9261ZM1505.27 26.1207C1504.44 26.0211 1503.7 26.6069 1503.6 27.4294C1503.5 28.2518 1504.08 28.9993 1504.91 29.0989L1505.27 26.1207ZM1490.15 27.3457C1490.98 27.4416 1491.72 26.8522 1491.82 26.0294C1491.91 25.2065 1491.32 24.4617 1490.5 24.3658L1490.15 27.3457ZM1475.7 22.6756C1474.87 22.5835 1474.13 23.1763 1474.04 23.9996C1473.95 24.8229 1474.54 25.5649 1475.36 25.657L1475.7 22.6756ZM1460.56 24.0362C1461.38 24.1244 1462.12 23.5282 1462.21 22.7045C1462.3 21.8808 1461.7 21.1415 1460.88 21.0533L1460.56 24.0362ZM1446.05 19.5009C1445.22 19.4166 1444.49 20.0164 1444.4 20.8405C1444.32 21.6646 1444.92 22.401 1445.74 22.4853L1446.05 19.5009ZM1430.92 21.0061C1431.75 21.0863 1432.48 20.483 1432.56 19.6584C1432.64 18.8339 1432.04 18.1004 1431.21 18.0202L1430.92 21.0061ZM1416.37 16.6134C1415.54 16.5373 1414.81 17.1444 1414.74 17.9694C1414.66 18.7943 1415.27 19.5247 1416.09 19.6007L1416.37 16.6134ZM1401.25 18.2719C1402.08 18.3436 1402.81 17.7327 1402.88 16.9074C1402.95 16.082 1402.34 15.3549 1401.51 15.2832L1401.25 18.2719ZM1386.65 14.0328C1385.82 13.9657 1385.1 14.5806 1385.03 15.4063C1384.97 16.232 1385.58 16.9558 1386.41 17.023L1386.65 14.0328ZM1371.55 15.8578C1372.38 15.9202 1373.1 15.3011 1373.16 14.475C1373.22 13.6489 1372.6 12.9287 1371.78 12.8663L1371.55 15.8578ZM1356.9 11.7884C1356.08 11.7311 1355.36 12.3546 1355.3 13.181C1355.24 14.0075 1355.87 14.7239 1356.69 14.7812L1356.9 11.7884ZM1341.85 13.7992C1342.68 13.8512 1343.39 13.2231 1343.44 12.3963C1343.49 11.5695 1342.87 10.8571 1342.04 10.8051L1341.85 13.7992ZM1327.16 9.92028C1326.33 9.87397 1325.62 10.507 1325.58 11.3341C1325.53 12.1612 1326.17 12.8693 1326.99 12.9156L1327.16 9.92028ZM1312.12 12.1374C1312.95 12.1777 1313.65 11.5395 1313.69 10.712C1313.73 9.88458 1313.1 9.1812 1312.27 9.14098L1312.12 12.1374ZM1297.37 8.47522C1296.54 8.44156 1295.84 9.08528 1295.81 9.91303C1295.78 10.7408 1296.42 11.4391 1297.25 11.4727L1297.37 8.47522ZM1282.37 10.9305C1283.2 10.9571 1283.89 10.3074 1283.92 9.47944C1283.94 8.65144 1283.3 7.95867 1282.47 7.93208L1282.37 10.9305ZM1267.56 7.52198C1266.74 7.50309 1266.05 8.15918 1266.03 8.9874C1266.01 9.81561 1266.67 10.5023 1267.5 10.5212L1267.56 7.52198ZM1252.63 10.2567C1253.46 10.2671 1254.14 9.60408 1254.15 8.77572C1254.16 7.94736 1253.49 7.26736 1252.67 7.2569L1252.63 10.2567ZM1237.74 7.15083C1236.92 7.14967 1236.24 7.8203 1236.24 8.64873C1236.24 9.47715 1236.91 10.1497 1237.74 10.1508L1237.74 7.15083ZM1222.85 10.2211C1223.68 10.2119 1224.34 9.53297 1224.33 8.7046C1224.32 7.87622 1223.65 7.21212 1222.82 7.22129L1222.85 10.2211ZM1207.89 7.48883C1207.06 7.50958 1206.41 8.19776 1206.43 9.02593C1206.45 9.8541 1207.14 10.5086 1207.97 10.4879L1207.89 7.48883ZM1193.09 10.9758C1193.92 10.942 1194.56 10.2435 1194.53 9.41579C1194.5 8.58805 1193.8 7.94449 1192.97 7.97835L1193.09 10.9758ZM1178.06 8.72066C1177.23 8.76954 1176.6 9.47956 1176.65 10.3065C1176.7 11.1335 1177.41 11.7643 1178.24 11.7154L1178.06 8.72066ZM1163.4 12.745C1164.23 12.6787 1164.84 11.9555 1164.78 11.1298C1164.71 10.304 1163.99 9.68831 1163.16 9.75461L1163.4 12.745ZM1148.22 11.1319C1147.39 11.2173 1146.79 11.9545 1146.88 12.7785C1146.96 13.6025 1147.7 14.2013 1148.52 14.1159L1148.22 11.1319ZM1133.31 15.8524C1134.13 15.7504 1134.71 15.0013 1134.61 14.1792C1134.51 13.3571 1133.76 12.7732 1132.94 12.8752L1133.31 15.8524ZM1117.7 14.9001C1116.88 15.016 1116.31 15.7749 1116.43 16.5952C1116.54 17.4155 1117.3 17.9865 1118.12 17.8705L1117.7 14.9001ZM1102.96 20.1291C1103.78 20.0012 1104.34 19.2339 1104.21 18.4154C1104.08 17.597 1103.32 17.0372 1102.5 17.1651L1102.96 20.1291ZM1087.33 19.6384C1086.51 19.7768 1085.96 20.5512 1086.1 21.368C1086.24 22.1847 1087.01 22.7346 1087.83 22.5962L1087.33 19.6384ZM1072.73 25.2463C1073.54 25.0986 1074.08 24.3181 1073.94 23.5029C1073.79 22.6878 1073.01 22.1467 1072.19 22.2944L1072.73 25.2463ZM1057.09 25.1123C1056.27 25.2683 1055.74 26.0543 1055.89 26.8679C1056.05 27.6815 1056.84 28.2146 1057.65 28.0587L1057.09 25.1123ZM1042.61 31.0145C1043.42 30.8512 1043.95 30.0603 1043.78 29.2482C1043.62 28.436 1042.83 27.9101 1042.02 28.0735L1042.61 31.0145ZM1026.99 31.1633C1026.18 31.3334 1025.66 32.1286 1025.83 32.9394C1026 33.7501 1026.79 34.2695 1027.6 34.0993L1026.99 31.1633ZM1012.61 37.3052C1013.42 37.1289 1013.94 36.3298 1013.76 35.5204C1013.58 34.7109 1012.78 34.1976 1011.97 34.3739L1012.61 37.3052ZM996.983 37.6949C996.174 37.8768 995.667 38.6795 995.849 39.4877C996.031 40.2959 996.833 40.8036 997.642 40.6216L996.983 37.6949ZM982.691 44.0393C983.498 43.8521 984.001 43.0461 983.813 42.2391C983.626 41.4321 982.82 40.9297 982.013 41.1169L982.691 44.0393ZM967.069 44.6318C966.264 44.8238 965.766 45.6328 965.958 46.4387C966.15 47.2445 966.959 47.7421 967.765 47.55L967.069 44.6318ZM952.866 51.1466C953.67 50.9499 954.163 50.1381 953.967 49.3334C953.77 48.5286 952.958 48.0357 952.154 48.2323L952.866 51.1466ZM937.266 51.9128C936.462 52.1137 935.974 52.9281 936.174 53.7318C936.375 54.5355 937.19 55.0241 937.993 54.8232L937.266 51.9128ZM923.116 58.5831C923.919 58.3781 924.403 57.5612 924.198 56.7585C923.993 55.9559 923.176 55.4714 922.374 55.6764L923.116 58.5831ZM907.5 59.5133C906.699 59.7221 906.218 60.5413 906.427 61.343C906.636 62.1447 907.455 62.6253 908.256 62.4164L907.5 59.5133ZM893.416 66.3192C894.216 66.1067 894.693 65.2853 894.481 64.4846C894.268 63.6839 893.447 63.2071 892.646 63.4196L893.416 66.3192ZM877.812 67.3919C877.012 67.6079 876.539 68.4314 876.755 69.2312C876.971 70.0309 877.795 70.5041 878.594 70.2881L877.812 67.3919ZM863.792 74.3206C864.591 74.1011 865.061 73.2757 864.841 72.4768C864.622 71.678 863.796 71.2083 862.998 71.4277L863.792 74.3206ZM848.202 75.525C847.404 75.7478 846.938 76.5752 847.16 77.3731C847.383 78.171 848.211 78.6373 849.008 78.4146L848.202 75.525ZM834.245 82.5679C835.042 82.3419 835.505 81.5126 835.279 80.7156C835.053 79.9186 834.224 79.4557 833.427 79.6816L834.245 82.5679ZM818.68 83.8941C817.884 84.1233 817.424 84.9544 817.654 85.7505C817.883 86.5466 818.714 87.0062 819.51 86.7771L818.68 83.8941ZM804.827 91.0347C805.622 90.8024 806.078 89.9694 805.846 89.1742C805.614 88.379 804.781 87.9227 803.986 88.155L804.827 91.0347ZM789.215 92.5025C788.42 92.738 787.967 93.5728 788.203 94.3671C788.438 95.1613 789.273 95.6142 790.067 95.3787L789.215 92.5025ZM775.346 99.7779C776.139 99.539 776.589 98.7023 776.35 97.9091C776.111 97.1158 775.274 96.6664 774.481 96.9053L775.346 99.7779ZM759.77 101.372C758.978 101.615 758.533 102.454 758.775 103.246C759.018 104.038 759.857 104.483 760.649 104.241L759.77 101.372ZM746.059 108.752C746.85 108.505 747.291 107.664 747.043 106.873C746.796 106.083 745.955 105.642 745.164 105.889L746.059 108.752ZM732.395 105.169C731.64 104.828 730.751 105.163 730.41 105.918C730.069 106.673 730.404 107.561 731.159 107.902L732.395 105.169ZM717.623 102.002C718.386 102.324 719.266 101.966 719.588 101.202C719.91 100.439 719.552 99.5593 718.789 99.2374L717.623 102.002ZM705.058 93.6172C704.288 93.3113 703.416 93.6873 703.11 94.4571C702.804 95.227 703.18 96.0991 703.95 96.4051L705.058 93.6172ZM690.142 91.0727C690.918 91.3637 691.783 90.9708 692.074 90.1952C692.365 89.4195 691.972 88.5549 691.196 88.2639L690.142 91.0727ZM677.272 83.1907C676.491 82.9144 675.634 83.3237 675.358 84.1047C675.082 84.8857 675.491 85.7428 676.272 86.019L677.272 83.1907ZM662.284 81.2215C663.07 81.4828 663.919 81.0572 664.181 80.2711C664.442 79.4849 664.016 78.6358 663.23 78.3746L662.284 81.2215ZM649.141 73.8441C648.35 73.5982 647.509 74.0402 647.263 74.8313C647.018 75.6224 647.46 76.4631 648.251 76.7089L649.141 73.8441ZM634.094 72.4647C634.89 72.6945 635.722 72.2356 635.952 71.4397C636.181 70.6438 635.722 69.8123 634.927 69.5824L634.094 72.4647ZM620.614 65.6117C619.813 65.3987 618.992 65.8751 618.779 66.6757C618.566 67.4762 619.042 68.2979 619.843 68.5108L620.614 65.6117ZM605.544 64.8753C606.349 65.0704 607.16 64.5759 607.355 63.7708C607.551 62.9657 607.056 62.1548 606.251 61.9597L605.544 64.8753ZM591.807 58.6362C590.997 58.46 590.198 58.9734 590.022 59.7829C589.846 60.5924 590.359 61.3914 591.169 61.5676L591.807 58.6362ZM576.713 58.6084C577.526 58.7643 578.312 58.231 578.468 57.4174C578.624 56.6038 578.09 55.8178 577.277 55.662L576.713 58.6084ZM562.669 53.0643C561.851 52.9304 561.08 53.4845 560.946 54.3021C560.812 55.1196 561.366 55.8909 562.184 56.0249L562.669 53.0643ZM547.59 53.8471C548.411 53.9573 549.166 53.3811 549.277 52.5601C549.387 51.739 548.811 50.984 547.99 50.8738L547.59 53.8471ZM533.249 49.1248C532.425 49.0402 531.688 49.6397 531.603 50.4638C531.519 51.2879 532.118 52.0246 532.942 52.1091L533.249 49.1248ZM518.251 50.8496C519.077 50.9061 519.793 50.2819 519.85 49.4554C519.906 48.6289 519.282 47.9131 518.456 47.8566L518.251 50.8496ZM503.625 47.1133C502.797 47.0874 502.104 47.7376 502.078 48.5657C502.052 49.3937 502.703 50.0859 503.531 50.1118L503.625 47.1133ZM488.801 49.9448C489.629 49.9372 490.294 49.2594 490.287 48.4311C490.279 47.6027 489.601 46.9373 488.773 46.945L488.801 49.9448ZM473.917 47.4077C473.09 47.4522 472.456 48.1589 472.5 48.9861C472.545 49.8133 473.251 50.4479 474.079 50.4034L473.917 47.4077ZM459.401 51.5481C460.225 51.4631 460.824 50.7263 460.739 49.9022C460.654 49.0781 459.917 48.479 459.093 48.5639L459.401 51.5481ZM444.341 50.4811C443.523 50.6104 442.964 51.3785 443.093 52.1968C443.223 53.015 443.991 53.5736 444.809 53.4444L444.341 50.4811ZM430.358 56.1612C431.167 55.9837 431.679 55.1838 431.502 54.3746C431.324 53.5654 430.524 53.0534 429.715 53.2309L430.358 56.1612ZM415.333 56.6108C414.523 56.785 414.008 57.5828 414.182 58.3927C414.356 59.2026 415.154 59.7179 415.964 59.5437L415.333 56.6108ZM401.433 62.1181C402.253 62.0039 402.826 61.2461 402.712 60.4256C402.597 59.6051 401.84 59.0325 401.019 59.1468L401.433 62.1181ZM386.572 60.6077C385.745 60.6598 385.117 61.3723 385.169 62.1991C385.221 63.0259 385.934 63.6539 386.76 63.6017L386.572 60.6077ZM371.972 63.971C372.8 63.9817 373.481 63.3189 373.491 62.4905C373.502 61.6621 372.839 60.9819 372.011 60.9712L371.972 63.971ZM357.469 60.2399C356.644 60.1678 355.916 60.7784 355.844 61.6037C355.772 62.4289 356.383 63.1564 357.208 63.2285L357.469 60.2399ZM342.562 61.4216C343.38 61.5517 344.149 60.9938 344.279 60.1757C344.409 59.3575 343.851 58.5889 343.033 58.4588L342.562 61.4216ZM328.73 55.6965C327.922 55.5134 327.119 56.0199 326.936 56.8278C326.753 57.6358 327.259 58.4392 328.067 58.6223L328.73 55.6965ZM313.777 54.9307C314.573 55.1608 315.404 54.7022 315.635 53.9064C315.865 53.1106 315.406 52.2789 314.61 52.0488L313.777 54.9307ZM300.721 47.6378C299.938 47.3677 299.084 47.7836 298.814 48.5667C298.544 49.3499 298.96 50.2037 299.743 50.4739L300.721 47.6378ZM285.909 45.3625C286.68 45.6653 287.55 45.2856 287.853 44.5145C288.156 43.7434 287.776 42.8728 287.005 42.5701L285.909 45.3625ZM273.503 37.0026C272.742 36.6751 271.859 37.0266 271.532 37.7876C271.204 38.5485 271.556 39.4309 272.317 39.7583L273.503 37.0026ZM258.866 33.7839C259.62 34.1276 260.51 33.795 260.853 33.0412C261.197 32.2874 260.864 31.3978 260.111 31.0542L258.866 33.7839ZM246.832 24.913C246.081 24.5629 245.188 24.8877 244.838 25.6385C244.488 26.3893 244.813 27.2818 245.564 27.6319L246.832 24.913ZM232.242 21.4527C232.995 21.7975 233.885 21.4664 234.23 20.7132C234.575 19.9599 234.244 19.0697 233.49 18.7249L232.242 21.4527ZM220.04 12.761C219.278 12.4374 218.397 12.7932 218.074 13.5558C217.75 14.3184 218.106 15.1989 218.868 15.5226L220.04 12.761ZM205.314 10.179C206.094 10.4581 206.953 10.052 207.232 9.27202C207.511 8.49202 207.105 7.63346 206.325 7.35437L205.314 10.179ZM192.158 3.02577C191.353 2.82875 190.541 3.32134 190.344 4.12599C190.147 4.93065 190.639 5.74267 191.444 5.93969L192.158 3.02577ZM177.235 3.64039C178.062 3.69549 178.777 3.07008 178.832 2.24349C178.887 1.41689 178.262 0.702139 177.435 0.647035L177.235 3.64039ZM162.458 1.50056C161.645 1.66003 161.115 2.44832 161.275 3.26125C161.434 4.07418 162.222 4.60392 163.035 4.44445L162.458 1.50056ZM149.72 9.24736C150.448 8.85172 150.717 7.94095 150.321 7.21311C149.926 6.48526 149.015 6.21596 148.287 6.6116L149.72 9.24736ZM136.034 15.002C135.365 15.4906 135.219 16.429 135.708 17.098C136.196 17.767 137.135 17.9133 137.804 17.4247L136.034 15.002ZM125.969 26.031C126.639 25.544 126.788 24.6059 126.301 23.9357C125.814 23.2656 124.875 23.1171 124.205 23.6041L125.969 26.031ZM112.386 32.2364C111.719 32.7274 111.576 33.6664 112.067 34.3336C112.558 35.0008 113.497 35.1436 114.165 34.6526L112.386 32.2364ZM102.438 43.3868C103.099 42.8874 103.23 41.9468 102.731 41.2858C102.232 40.6247 101.291 40.4936 100.63 40.9929L102.438 43.3868ZM88.9953 49.9402C88.3434 50.4514 88.2295 51.3943 88.7407 52.0462C89.252 52.698 90.1949 52.812 90.8467 52.3007L88.9953 49.9402ZM79.4615 61.4431C80.1009 60.9165 80.1924 59.9711 79.6657 59.3317C79.139 58.6922 78.1937 58.6008 77.5542 59.1275L79.4615 61.4431ZM66.3538 68.6279C65.7305 69.1735 65.6675 70.1212 66.2131 70.7445C66.7588 71.3679 67.7064 71.4309 68.3298 70.8852L66.3538 68.6279ZM57.5317 80.684C58.1344 80.1157 58.1622 79.1663 57.5938 78.5636C57.0254 77.961 56.0761 77.9332 55.4734 78.5015L57.5317 80.684ZM44.9954 88.8293C44.4193 89.4246 44.4349 90.3743 45.0302 90.9504C45.6256 91.5265 46.5752 91.5109 47.1513 90.9155L44.9954 88.8293ZM37.3163 101.648C37.858 101.021 37.7889 100.074 37.162 99.5321C36.5352 98.9904 35.588 99.0595 35.0463 99.6864L37.3163 101.648ZM25.7948 111.153C25.2983 111.816 25.4334 112.756 26.0965 113.253C26.7597 113.749 27.6998 113.614 28.1963 112.951L25.7948 111.153ZM20.0005 124.915C20.4372 124.211 20.2205 123.286 19.5166 122.85C18.8126 122.413 17.8879 122.63 17.4512 123.334L20.0005 124.915ZM10.3222 136.307C9.96508 137.054 10.2815 137.95 11.029 138.307C11.7765 138.664 12.672 138.348 13.0291 137.6L10.3222 136.307ZM7.67548 150.993C7.92835 150.204 7.49382 149.36 6.70493 149.107C5.91604 148.854 5.07153 149.289 4.81866 150.078L7.67548 150.993ZM1.41402 164.541C1.29176 165.361 1.85687 166.124 2.67623 166.246C3.49558 166.368 4.25891 165.803 4.38117 164.984L1.41402 164.541ZM3.54247 179.295C3.515 178.467 2.82153 177.818 1.99356 177.846C1.16558 177.873 0.51665 178.567 0.544121 179.395L3.54247 179.295ZM2.41299 194.159C2.59185 194.968 3.39258 195.478 4.20147 195.3C5.01036 195.121 5.5211 194.32 5.34223 193.511L2.41299 194.159ZM9.6518 207.222C9.33854 206.456 8.46289 206.088 7.69597 206.401C6.92905 206.714 6.56129 207.59 6.87454 208.357L9.6518 207.222ZM13.5312 222.286C13.9018 223.026 14.8028 223.327 15.5438 222.956C16.2847 222.585 16.5849 221.684 16.2142 220.943L13.5312 222.286ZM23.3476 235.212C22.9773 234.471 22.0764 234.171 21.3353 234.541C20.5943 234.911 20.2937 235.812 20.6639 236.553L23.3476 235.212ZM27.7876 250.819C28.1575 251.56 29.0583 251.861 29.7996 251.491C30.5408 251.122 30.8418 250.221 30.4719 249.479L27.7876 250.819ZM37.5874 263.745C37.2178 263.004 36.3171 262.702 35.5757 263.072C34.8343 263.442 34.5329 264.342 34.9025 265.084L37.5874 263.745ZM42.0052 279.34C42.3745 280.082 43.275 280.384 44.0166 280.015C44.7582 279.645 45.06 278.745 44.6908 278.003L42.0052 279.34ZM51.8025 292.295C51.4337 291.553 50.5333 291.251 49.7915 291.62C49.0498 291.989 48.7475 292.889 49.1164 293.631L51.8025 292.295ZM56.2055 307.895C56.574 308.637 57.4742 308.939 58.2162 308.571C58.9581 308.202 59.2609 307.302 58.8923 306.56L56.2055 307.895ZM65.9837 320.847C65.6156 320.105 64.7155 319.802 63.9734 320.17C63.2312 320.538 62.928 321.438 63.2961 322.18L65.9837 320.847ZM70.3826 336.478C70.7503 337.221 71.6501 337.524 72.3925 337.157C73.1349 336.789 73.4386 335.889 73.071 335.147L70.3826 336.478ZM80.1433 349.441C79.7763 348.698 78.8766 348.394 78.134 348.761C77.3913 349.128 77.0868 350.028 77.4538 350.77L80.1433 349.441ZM78.4582 363.554C78.2289 364.35 78.6884 365.181 79.4844 365.41C80.2805 365.64 81.1117 365.18 81.341 364.384L78.4582 363.554ZM78.6523 378.29C78.7434 377.467 78.1497 376.725 77.3263 376.634C76.5029 376.543 75.7615 377.137 75.6705 377.96L78.6523 378.29ZM75.1092 392.588C75.1344 393.416 75.8261 394.067 76.6541 394.042C77.4822 394.017 78.133 393.325 78.1078 392.497L75.1092 392.588ZM79.454 406.713C79.3252 405.895 78.5574 405.336 77.739 405.465C76.9207 405.594 76.3617 406.361 76.4906 407.18L79.454 406.713ZM79.58 421.432C79.8 422.23 80.6258 422.7 81.4245 422.48C82.2232 422.26 82.6923 421.434 82.4723 420.635L79.58 421.432ZM86.9719 434.2C86.6725 433.428 85.8036 433.045 85.0311 433.344C84.2587 433.643 83.8753 434.512 84.1747 435.285L86.9719 434.2ZM90.0439 448.589C90.4112 449.331 91.3109 449.635 92.0535 449.268C92.796 448.901 93.1002 448.001 92.7329 447.258L90.0439 448.589ZM99.5835 459.802C99.1585 459.091 98.2375 458.859 97.5264 459.284C96.8153 459.709 96.5834 460.63 97.0084 461.341L99.5835 459.802ZM104.924 473.565C105.398 474.245 106.333 474.411 107.012 473.937C107.692 473.463 107.858 472.528 107.384 471.849L104.924 473.565ZM115.957 483.345C115.442 482.696 114.499 482.588 113.85 483.103C113.201 483.618 113.093 484.562 113.608 485.211L115.957 483.345ZM122.927 496.293C123.477 496.913 124.425 496.969 125.045 496.419C125.664 495.869 125.72 494.921 125.17 494.302L122.927 496.293ZM134.967 504.796C134.387 504.204 133.438 504.194 132.846 504.774C132.254 505.354 132.244 506.303 132.824 506.895L134.967 504.796ZM143.202 517.029C143.807 517.595 144.756 517.563 145.322 516.958C145.888 516.353 145.856 515.404 145.251 514.838L143.202 517.029ZM155.944 524.447C155.318 523.906 154.37 523.975 153.829 524.601C153.287 525.228 153.356 526.175 153.982 526.717L155.944 524.447ZM165.106 535.989C165.751 536.508 166.696 536.406 167.215 535.76C167.734 535.115 167.632 534.171 166.987 533.651L165.106 535.989ZM178.333 542.481C177.672 541.982 176.731 542.115 176.233 542.776C175.734 543.438 175.867 544.379 176.528 544.877L178.333 542.481ZM188.916 553.963C189.587 554.449 190.525 554.298 191.01 553.627C191.496 552.955 191.345 552.018 190.674 551.532L188.916 553.963ZM203.511 560.726C202.835 560.247 201.899 560.406 201.42 561.082C200.941 561.758 201.1 562.694 201.776 563.173L203.511 560.726ZM214.725 572.26C215.405 572.732 216.34 572.563 216.812 571.883C217.285 571.202 217.116 570.268 216.435 569.795L214.725 572.26ZM229.447 578.723C228.761 578.258 227.829 578.437 227.364 579.123C226.899 579.809 227.078 580.741 227.764 581.206L229.447 578.723ZM240.888 589.991C241.579 590.447 242.51 590.257 242.966 589.566C243.423 588.874 243.233 587.944 242.541 587.487L240.888 589.991ZM255.75 596.085C255.052 595.638 254.125 595.841 253.677 596.538C253.23 597.235 253.433 598.163 254.131 598.61L255.75 596.085ZM267.567 607.083C268.271 607.52 269.196 607.303 269.632 606.598C270.069 605.894 269.852 604.97 269.147 604.533L267.567 607.083ZM282.584 612.702C281.872 612.278 280.951 612.511 280.527 613.223C280.103 613.935 280.336 614.855 281.048 615.279L282.584 612.702ZM294.775 623.275C295.496 623.685 296.411 623.433 296.821 622.713C297.23 621.992 296.978 621.077 296.258 620.667L294.775 623.275ZM310.049 628.294C309.319 627.903 308.41 628.177 308.018 628.907C307.626 629.636 307.901 630.546 308.63 630.938L310.049 628.294ZM322.703 638.233C323.445 638.603 324.345 638.302 324.715 637.56C325.085 636.819 324.784 635.918 324.043 635.548L322.703 638.233ZM338.222 642.298C337.467 641.957 336.579 642.293 336.238 643.048C335.897 643.803 336.233 644.692 336.988 645.032L338.222 642.298ZM351.623 651.188C352.396 651.486 353.264 651.101 353.563 650.329C353.861 649.556 353.476 648.687 352.704 648.389L351.623 651.188ZM367.541 653.395C366.743 653.175 365.917 653.644 365.696 654.443C365.476 655.241 365.945 656.067 366.744 656.287L367.541 653.395ZM382.507 655.115C383.282 654.823 383.673 653.958 383.381 653.183C383.089 652.407 382.223 652.016 381.448 652.308L382.507 655.115ZM396.091 647.06C395.307 647.328 394.889 648.181 395.157 648.965C395.426 649.748 396.278 650.166 397.062 649.898L396.091 647.06ZM411.783 645.059C412.573 644.809 413.011 643.967 412.761 643.177C412.512 642.387 411.669 641.949 410.879 642.198L411.783 645.059ZM425.767 637.669C424.972 637.902 424.517 638.735 424.75 639.53C424.982 640.325 425.816 640.781 426.611 640.548L425.767 637.669ZM441.548 636.333C442.348 636.116 442.82 635.292 442.602 634.492C442.385 633.693 441.561 633.221 440.762 633.438L441.548 636.333ZM455.811 629.502C455.008 629.704 454.52 630.519 454.722 631.322C454.924 632.126 455.74 632.613 456.543 632.411L455.811 629.502ZM471.571 628.776C472.378 628.589 472.88 627.783 472.693 626.976C472.505 626.169 471.699 625.667 470.892 625.854L471.571 628.776ZM486.072 622.473C485.261 622.645 484.745 623.442 484.918 624.253C485.09 625.063 485.887 625.579 486.698 625.407L486.072 622.473ZM501.892 622.306C502.705 622.147 503.236 621.36 503.078 620.547C502.919 619.733 502.132 619.203 501.318 619.361L501.892 622.306ZM516.616 616.521C515.8 616.665 515.256 617.443 515.4 618.259C515.544 619.075 516.322 619.62 517.138 619.476L516.616 616.521ZM532.425 616.917C533.243 616.788 533.802 616.02 533.672 615.201C533.543 614.383 532.774 613.825 531.956 613.954L532.425 616.917ZM547.333 611.661C546.513 611.776 545.941 612.534 546.056 613.354C546.171 614.175 546.929 614.747 547.749 614.632L547.333 611.661ZM563.108 612.62C563.93 612.52 564.516 611.772 564.416 610.95C564.315 610.128 563.568 609.542 562.745 609.642L563.108 612.62ZM578.19 607.901C577.366 607.986 576.767 608.724 576.852 609.548C576.938 610.372 577.675 610.97 578.499 610.885L578.19 607.901ZM593.919 609.429C594.745 609.358 595.357 608.632 595.286 607.807C595.216 606.981 594.49 606.369 593.664 606.44L593.919 609.429ZM609.167 605.261C608.341 605.316 607.715 606.031 607.77 606.858C607.826 607.684 608.54 608.31 609.367 608.255L609.167 605.261ZM624.839 607.366C625.667 607.326 626.305 606.623 626.265 605.796C626.226 604.969 625.523 604.33 624.695 604.37L624.839 607.366ZM640.245 603.769C639.417 603.793 638.765 604.484 638.789 605.312C638.813 606.14 639.504 606.792 640.332 606.768L640.245 603.769ZM655.842 606.464C656.671 606.456 657.335 605.778 657.327 604.95C657.319 604.121 656.641 603.456 655.812 603.465L655.842 606.464ZM671.358 603.46C670.529 603.452 669.851 604.117 669.843 604.946C669.836 605.774 670.501 606.452 671.329 606.46L671.358 603.46ZM686.798 606.757C687.626 606.781 688.317 606.129 688.341 605.301C688.365 604.473 687.713 603.782 686.885 603.758L686.798 606.757ZM702.417 604.365C701.589 604.324 700.886 604.962 700.845 605.789C700.804 606.617 701.442 607.32 702.27 607.361L702.417 604.365ZM717.74 608.277C718.566 608.334 719.283 607.71 719.34 606.884C719.397 606.058 718.774 605.341 717.948 605.284L717.74 608.277ZM733.471 606.521C732.646 606.447 731.917 607.055 731.843 607.88C731.768 608.705 732.377 609.435 733.202 609.509L733.471 606.521ZM748.607 611.058C749.43 611.15 750.172 610.556 750.264 609.733C750.355 608.91 749.762 608.168 748.938 608.077L748.607 611.058ZM764.359 609.955C763.538 609.846 762.784 610.423 762.675 611.245C762.566 612.066 763.143 612.82 763.965 612.929L764.359 609.955ZM779.203 615.101C780.023 615.224 780.787 614.66 780.91 613.841C781.034 613.022 780.47 612.258 779.651 612.134L779.203 615.101ZM794.638 614.505C793.82 614.37 793.048 614.923 792.913 615.74C792.778 616.558 793.331 617.33 794.148 617.465L794.638 614.505ZM809.079 620.045C809.895 620.192 810.675 619.65 810.822 618.835C810.968 618.02 810.426 617.24 809.611 617.093L809.079 620.045ZM824.565 619.894C823.752 619.736 822.965 620.267 822.806 621.08C822.648 621.893 823.179 622.68 823.992 622.839L824.565 619.894ZM838.848 625.835C839.659 626.005 840.453 625.485 840.623 624.674C840.792 623.863 840.272 623.068 839.461 622.899L838.848 625.835ZM854.297 626.104C853.489 625.924 852.687 626.433 852.506 627.241C852.326 628.05 852.835 628.852 853.644 629.032L854.297 626.104ZM868.382 632.426C869.188 632.617 869.997 632.119 870.188 631.313C870.379 630.507 869.881 629.699 869.075 629.507L868.382 632.426ZM883.861 633.122C883.058 632.92 882.243 633.407 882.04 634.211C881.838 635.014 882.326 635.829 883.129 636.032L883.861 633.122ZM897.815 639.83C898.615 640.043 899.437 639.566 899.65 638.766C899.863 637.965 899.386 637.143 898.585 636.931L897.815 639.83ZM913.247 640.93C912.449 640.707 911.621 641.173 911.398 641.971C911.175 642.768 911.64 643.596 912.438 643.819L913.247 640.93ZM926.999 647.997C927.794 648.231 928.628 647.776 928.861 646.981C929.095 646.186 928.64 645.353 927.845 645.119L926.999 647.997ZM942.381 649.495C941.589 649.251 940.75 649.695 940.506 650.487C940.262 651.278 940.706 652.118 941.498 652.362L942.381 649.495ZM955.935 656.913C956.723 657.167 957.568 656.733 957.823 655.945C958.077 655.157 957.643 654.311 956.855 654.057L955.935 656.913ZM971.268 658.805C970.483 658.541 969.633 658.963 969.368 659.749C969.104 660.534 969.526 661.384 970.311 661.649L971.268 658.805ZM984.637 666.573C985.419 666.847 986.275 666.436 986.549 665.654C986.823 664.873 986.412 664.017 985.63 663.742L984.637 666.573ZM999.936 668.866C999.157 668.582 998.296 668.982 998.012 669.76C997.727 670.538 998.128 671.4 998.906 671.684L999.936 668.866ZM1013.1 676.976C1013.87 677.27 1014.74 676.881 1015.03 676.107C1015.33 675.333 1014.94 674.466 1014.16 674.172L1013.1 676.976ZM1028.34 679.669C1027.57 679.364 1026.7 679.742 1026.4 680.512C1026.09 681.283 1026.47 682.154 1027.24 682.458L1028.34 679.669ZM1041.32 688.132C1042.09 688.447 1042.96 688.081 1043.28 687.315C1043.59 686.548 1043.23 685.672 1042.46 685.357L1041.32 688.132ZM1056.5 691.234C1055.74 690.909 1054.86 691.263 1054.53 692.025C1054.21 692.787 1054.56 693.669 1055.32 693.994L1056.5 691.234ZM1069.22 700.036C1069.98 700.371 1070.87 700.029 1071.2 699.272C1071.54 698.514 1071.2 697.628 1070.44 697.293L1069.22 700.036ZM1084.22 703.516C1083.47 703.169 1082.58 703.499 1082.23 704.251C1081.89 705.004 1082.22 705.895 1082.97 706.241L1084.22 703.516ZM1096.76 712.713C1097.51 713.071 1098.4 712.755 1098.76 712.008C1099.12 711.261 1098.8 710.365 1098.05 710.007L1096.76 712.713ZM1111.68 716.664C1110.93 716.294 1110.03 716.595 1109.66 717.336C1109.29 718.077 1109.59 718.978 1110.34 719.348L1111.68 716.664ZM1123.84 726.242C1124.57 726.626 1125.48 726.342 1125.86 725.608C1126.25 724.874 1125.96 723.968 1125.23 723.584L1123.84 726.242ZM1138.61 730.777C1137.89 730.375 1136.98 730.637 1136.57 731.361C1136.17 732.086 1136.43 732.999 1137.16 733.4L1138.61 730.777ZM1151.26 738.171C1152.08 738.267 1152.82 737.677 1152.92 736.854C1153.01 736.031 1152.42 735.287 1151.6 735.191L1151.26 738.171ZM1165.8 736.654C1164.97 736.579 1164.24 737.187 1164.17 738.012C1164.09 738.837 1164.7 739.567 1165.52 739.642L1165.8 736.654ZM1179.84 740.798C1180.66 740.856 1181.38 740.233 1181.44 739.407C1181.5 738.58 1180.87 737.863 1180.05 737.805L1179.84 740.798ZM1194.28 738.661C1193.45 738.62 1192.75 739.257 1192.71 740.084C1192.66 740.912 1193.3 741.616 1194.13 741.657L1194.28 738.661ZM1208.47 742.225C1209.3 742.249 1209.99 741.597 1210.01 740.769C1210.04 739.941 1209.38 739.25 1208.56 739.226L1208.47 742.225ZM1222.83 739.485C1222 739.479 1221.32 740.146 1221.31 740.974C1221.31 741.802 1221.98 742.479 1222.8 742.485L1222.83 739.485ZM1237.14 742.418C1237.97 742.404 1238.63 741.721 1238.62 740.893C1238.61 740.064 1237.92 739.404 1237.09 739.418L1237.14 742.418ZM1251.35 738.998C1250.52 739.034 1249.88 739.733 1249.91 740.561C1249.95 741.389 1250.65 742.031 1251.48 741.996L1251.35 738.998ZM1265.81 741.181C1266.64 741.122 1267.26 740.404 1267.2 739.578C1267.14 738.752 1266.42 738.13 1265.59 738.189L1265.81 741.181ZM1279.79 736.946C1278.96 737.032 1278.37 737.77 1278.45 738.594C1278.54 739.418 1279.28 740.016 1280.1 739.93L1279.79 736.946ZM1294.35 738.182C1295.17 738.066 1295.74 737.306 1295.62 736.486C1295.51 735.666 1294.75 735.095 1293.93 735.212L1294.35 738.182ZM1307.98 732.914C1307.16 733.066 1306.62 733.849 1306.78 734.664C1306.93 735.478 1307.71 736.015 1308.53 735.864L1307.98 732.914ZM1322.6 732.878C1323.4 732.685 1323.9 731.875 1323.71 731.07C1323.51 730.264 1322.7 729.767 1321.9 729.961L1322.6 732.878ZM1335.59 726.245C1334.8 726.487 1334.35 727.325 1334.6 728.117C1334.84 728.91 1335.68 729.356 1336.47 729.113L1335.59 726.245ZM1350.11 724.397C1350.88 724.096 1351.26 723.226 1350.96 722.454C1350.66 721.682 1349.79 721.301 1349.02 721.602L1350.11 724.397ZM1361.94 715.88C1361.2 716.251 1360.9 717.153 1361.27 717.893C1361.65 718.634 1362.55 718.932 1363.29 718.561L1361.94 715.88ZM1375.85 711.335C1376.54 710.879 1376.73 709.949 1376.27 709.257C1375.82 708.566 1374.89 708.375 1374.19 708.832L1375.85 711.335ZM1385.34 700.28C1384.72 700.833 1384.67 701.781 1385.23 702.398C1385.78 703.015 1386.73 703.067 1387.34 702.514L1385.34 700.28ZM1397.57 691.964C1398.12 691.347 1398.07 690.399 1397.45 689.846C1396.83 689.293 1395.89 689.345 1395.33 689.962L1397.57 691.964ZM1404.81 678.865C1404.29 679.508 1404.38 680.452 1405.03 680.975C1405.67 681.498 1406.62 681.4 1407.14 680.757L1404.81 678.865ZM1416.18 669.048C1416.67 668.38 1416.53 667.441 1415.86 666.952C1415.19 666.462 1414.25 666.607 1413.76 667.275L1416.18 669.048ZM1422.1 655.266C1421.64 655.958 1421.84 656.888 1422.53 657.343C1423.22 657.797 1424.15 657.604 1424.61 656.912L1422.1 655.266ZM1432.38 644.353C1432.79 643.637 1432.55 642.719 1431.83 642.302C1431.12 641.885 1430.2 642.128 1429.78 642.844L1432.38 644.353ZM1436.79 630.014C1436.41 630.752 1436.71 631.655 1437.44 632.032C1438.18 632.409 1439.08 632.117 1439.46 631.379L1436.79 630.014ZM1445.82 618.025C1446.15 617.268 1445.81 616.382 1445.05 616.047C1444.29 615.713 1443.41 616.056 1443.07 616.813L1445.82 618.025ZM1448.58 603.302C1448.29 604.078 1448.69 604.942 1449.46 605.233C1450.24 605.523 1451.1 605.13 1451.39 604.354L1448.58 603.302ZM1456.17 590.378C1456.41 589.586 1455.97 588.746 1455.18 588.502C1454.38 588.257 1453.54 588.7 1453.3 589.492L1456.17 590.378ZM1457.19 575.414C1457 576.219 1457.49 577.031 1458.29 577.227C1459.1 577.424 1459.91 576.931 1460.11 576.126L1457.19 575.414ZM1463.18 561.637C1463.32 560.821 1462.78 560.042 1461.97 559.895C1461.15 559.749 1460.37 560.291 1460.23 561.107L1463.18 561.637ZM1462.35 546.648C1462.25 547.471 1462.84 548.214 1463.67 548.307C1464.49 548.4 1465.23 547.809 1465.33 546.986L1462.35 546.648ZM1466.49 532.224C1466.52 531.396 1465.88 530.696 1465.05 530.661C1464.23 530.626 1463.53 531.268 1463.49 532.096L1466.49 532.224ZM1463.52 517.532C1463.56 518.36 1464.26 519.002 1465.08 518.965C1465.91 518.929 1466.55 518.229 1466.52 517.402L1463.52 517.532ZM1471.51 508.155C1472.22 507.731 1472.45 506.81 1472.03 506.099C1471.61 505.387 1470.68 505.154 1469.97 505.578L1471.51 508.155ZM1481.62 497.601C1480.96 498.105 1480.83 499.046 1481.34 499.704C1481.84 500.362 1482.78 500.487 1483.44 499.983L1481.62 497.601ZM1494.51 490.76C1495.12 490.206 1495.17 489.257 1494.62 488.642C1494.06 488.026 1493.12 487.976 1492.5 488.53L1494.51 490.76ZM1502.7 478.735C1502.12 479.326 1502.13 480.276 1502.72 480.856C1503.31 481.436 1504.26 481.426 1504.84 480.835L1502.7 478.735ZM1514.61 470.311C1515.16 469.689 1515.1 468.741 1514.48 468.193C1513.85 467.646 1512.91 467.706 1512.36 468.327L1514.61 470.311ZM1521.51 457.439C1520.99 458.085 1521.09 459.029 1521.74 459.547C1522.38 460.066 1523.33 459.962 1523.85 459.316L1521.51 457.439ZM1532.61 447.921C1533.1 447.254 1532.96 446.315 1532.29 445.823C1531.62 445.332 1530.69 445.473 1530.19 446.14L1532.61 447.921ZM1538.4 434.574C1537.93 435.258 1538.11 436.191 1538.79 436.658C1539.48 437.126 1540.41 436.95 1540.88 436.266L1538.4 434.574ZM1548.77 424.281C1549.22 423.582 1549.01 422.655 1548.31 422.21C1547.61 421.766 1546.69 421.972 1546.24 422.671L1548.77 424.281ZM1553.71 410.528C1553.28 411.24 1553.52 412.16 1554.23 412.583C1554.94 413.007 1555.86 412.773 1556.28 412.061L1553.71 410.528ZM1563.41 399.681C1563.82 398.958 1563.56 398.044 1562.84 397.641C1562.11 397.237 1561.2 397.496 1560.8 398.219L1563.41 399.681ZM1567.57 385.704C1567.19 386.437 1567.47 387.344 1568.2 387.729C1568.94 388.115 1569.84 387.832 1570.23 387.099L1567.57 385.704ZM1576.74 374.348C1577.1 373.606 1576.8 372.706 1576.06 372.338C1575.32 371.97 1574.42 372.273 1574.05 373.015L1576.74 374.348ZM1580.24 360.18C1579.89 360.93 1580.21 361.824 1580.96 362.175C1581.71 362.527 1582.6 362.204 1582.95 361.454L1580.24 360.18ZM1588.9 348.437C1589.23 347.679 1588.89 346.793 1588.13 346.457C1587.38 346.12 1586.49 346.461 1586.15 347.218L1588.9 348.437ZM1591.82 334.142C1591.49 334.905 1591.85 335.785 1592.62 336.107C1593.38 336.429 1594.26 336.071 1594.58 335.307L1591.82 334.142ZM1600.19 321.501C1600.49 320.727 1600.1 319.86 1599.33 319.564C1598.55 319.268 1597.68 319.655 1597.39 320.429L1600.19 321.501ZM1602.43 306.223C1602.17 307.01 1602.6 307.858 1603.39 308.115C1604.18 308.373 1605.02 307.944 1605.28 307.157L1602.43 306.223ZM1609.66 292.577C1609.88 291.778 1609.4 290.953 1608.61 290.735C1607.81 290.516 1606.98 290.987 1606.76 291.786L1609.66 292.577ZM1610.37 277.152C1610.19 277.961 1610.7 278.761 1611.51 278.939C1612.32 279.117 1613.12 278.606 1613.3 277.797L1610.37 277.152ZM1616.2 262.854C1616.34 262.037 1615.79 261.264 1614.97 261.126C1614.16 260.988 1613.38 261.539 1613.25 262.356L1616.2 262.854ZM1615.38 247.438C1615.28 248.26 1615.87 249.006 1616.69 249.103C1617.52 249.2 1618.26 248.611 1618.36 247.789L1615.38 247.438ZM1619.77 232.641C1619.82 231.814 1619.2 231.098 1618.37 231.042C1617.55 230.985 1616.83 231.609 1616.77 232.436L1619.77 232.641ZM1617.44 217.391C1617.42 218.219 1618.08 218.904 1618.91 218.92C1619.73 218.937 1620.42 218.279 1620.44 217.451L1617.44 217.391ZM1620.38 202.209C1620.36 201.381 1619.67 200.728 1618.84 200.75C1618.01 200.773 1617.36 201.463 1617.38 202.291L1620.38 202.209ZM1616.61 187.215C1616.68 188.041 1617.39 188.661 1618.22 188.6C1619.05 188.539 1619.67 187.82 1619.61 186.994L1616.61 187.215ZM1618.14 171.846C1618.04 171.024 1617.3 170.436 1616.47 170.535C1615.65 170.633 1615.06 171.38 1615.16 172.202L1618.14 171.846ZM1613.04 157.293C1613.18 158.111 1613.95 158.665 1614.77 158.53C1615.59 158.396 1616.14 157.624 1616 156.807L1613.04 157.293ZM1613.21 141.822C1613.04 141.012 1612.24 140.492 1611.43 140.661C1610.62 140.831 1610.1 141.625 1610.27 142.436L1613.21 141.822ZM1606.87 127.732C1607.08 128.536 1607.89 129.022 1608.7 128.818C1609.5 128.615 1609.98 127.799 1609.78 126.996L1606.87 127.732ZM1605.75 112.338C1605.51 111.544 1604.67 111.091 1603.88 111.328C1603.09 111.564 1602.63 112.399 1602.87 113.193L1605.75 112.338ZM1598.27 98.8118C1598.54 99.5956 1599.39 100.013 1600.17 99.7449C1600.96 99.4765 1601.38 98.6236 1601.11 97.8398L1598.27 98.8118ZM1595.88 83.53C1595.58 82.7579 1594.71 82.3753 1593.94 82.6755C1593.16 82.9757 1592.78 83.845 1593.08 84.6171L1595.88 83.53ZM1587.32 70.6651C1587.65 71.4241 1588.54 71.77 1589.3 71.4378C1590.06 71.1057 1590.4 70.2212 1590.07 69.4622L1587.32 70.6651ZM1583.67 55.6634C1583.3 54.9201 1582.4 54.614 1581.66 54.9797C1580.91 55.3455 1580.61 56.2445 1580.97 56.9878L1583.67 55.6634ZM1573.99 43.671C1574.4 44.3934 1575.31 44.6502 1576.03 44.2447C1576.76 43.8391 1577.01 42.9248 1576.61 42.2024L1573.99 43.671ZM1571.47 36.4403C1571.7 34.9572 1571.7 34.9572 1571.7 34.9572C1571.7 34.9572 1571.7 34.9572 1571.7 34.9572C1571.7 34.9572 1571.7 34.9571 1571.7 34.9571C1571.7 34.9571 1571.7 34.957 1571.69 34.9569C1571.69 34.9567 1571.69 34.9564 1571.69 34.956C1571.68 34.9553 1571.68 34.9541 1571.67 34.9526C1571.65 34.9496 1571.62 34.9451 1571.58 34.9391C1571.5 34.9272 1571.38 34.9095 1571.22 34.886C1570.91 34.8392 1570.44 34.7697 1569.83 34.679C1568.6 34.4976 1566.78 34.2312 1564.41 33.8913L1563.98 36.8608C1566.35 37.2002 1568.17 37.466 1569.39 37.6468C1570 37.7373 1570.47 37.8065 1570.78 37.853C1570.93 37.8763 1571.05 37.8939 1571.13 37.9057C1571.17 37.9116 1571.2 37.916 1571.22 37.919C1571.23 37.9205 1571.24 37.9216 1571.24 37.9223C1571.24 37.9227 1571.24 37.9229 1571.25 37.9231C1571.25 37.9232 1571.25 37.9233 1571.25 37.9233C1571.25 37.9233 1571.25 37.9234 1571.25 37.9234C1571.25 37.9234 1571.25 37.9234 1571.25 37.9234C1571.25 37.9234 1571.25 37.9234 1571.47 36.4403ZM1549.69 31.8332C1545.33 31.2374 1540.38 30.5733 1534.9 29.8562L1534.51 32.8307C1539.98 33.5472 1544.93 34.2105 1549.28 34.8056L1549.69 31.8332ZM1520.06 27.9496C1515.39 27.3601 1510.45 26.7484 1505.27 26.1207L1504.91 29.0989C1510.08 29.726 1515.02 30.3371 1519.69 30.9261L1520.06 27.9496ZM1490.5 24.3658C1485.72 23.8087 1480.78 23.244 1475.7 22.6756L1475.36 25.657C1480.44 26.2248 1485.38 26.789 1490.15 27.3457L1490.5 24.3658ZM1460.88 21.0533C1456.04 20.5349 1451.09 20.0164 1446.05 19.5009L1445.74 22.4853C1450.78 23.0004 1455.72 23.5183 1460.56 24.0362L1460.88 21.0533ZM1431.21 18.0202C1426.33 17.5455 1421.38 17.0758 1416.37 16.6134L1416.09 19.6007C1421.1 20.0627 1426.05 20.5319 1430.92 21.0061L1431.21 18.0202ZM1401.51 15.2832C1396.61 14.8569 1391.65 14.4394 1386.65 14.0328L1386.41 17.023C1391.4 17.4291 1396.35 17.8461 1401.25 18.2719L1401.51 15.2832ZM1371.78 12.8663C1366.85 12.4942 1361.89 12.1343 1356.9 11.7884L1356.69 14.7812C1361.67 15.1267 1366.63 15.4862 1371.55 15.8578L1371.78 12.8663ZM1342.04 10.8051C1337.09 10.4942 1332.13 10.1986 1327.16 9.92028L1326.99 12.9156C1331.96 13.1936 1336.91 13.4887 1341.85 13.7992L1342.04 10.8051ZM1312.27 9.14098C1307.3 8.89969 1302.34 8.67718 1297.37 8.47522L1297.25 11.4727C1302.21 11.6744 1307.17 11.8965 1312.12 12.1374L1312.27 9.14098ZM1282.47 7.93208C1277.49 7.77221 1272.52 7.6349 1267.56 7.52198L1267.5 10.5212C1272.44 10.6339 1277.4 10.7709 1282.37 10.9305L1282.47 7.93208ZM1252.67 7.2569C1247.67 7.19375 1242.69 7.15776 1237.74 7.15083L1237.74 10.1508C1242.67 10.1577 1247.64 10.1937 1252.63 10.2567L1252.67 7.2569ZM1222.82 7.22129C1217.8 7.27687 1212.82 7.36535 1207.89 7.48883L1207.97 10.4879C1212.88 10.3648 1217.84 10.2765 1222.85 10.2211L1222.82 7.22129ZM1192.97 7.97835C1187.93 8.18439 1182.96 8.43103 1178.06 8.72066L1178.24 11.7154C1183.12 11.4269 1188.07 11.1812 1193.09 10.9758L1192.97 7.97835ZM1163.16 9.75461C1160.68 9.95371 1158.22 10.1653 1155.79 10.3896L1156.06 13.3769C1158.49 13.1537 1160.93 12.9432 1163.4 12.745L1163.16 9.75461ZM1155.79 10.3896C1153.29 10.62 1150.76 10.8676 1148.22 11.1319L1148.52 14.1159C1151.06 13.8528 1153.58 13.6062 1156.06 13.3769L1155.79 10.3896ZM1132.94 12.8752C1127.93 13.496 1122.85 14.1723 1117.7 14.9001L1118.12 17.8705C1123.25 17.145 1128.32 16.4709 1133.31 15.8524L1132.94 12.8752ZM1102.5 17.1651C1097.49 17.9479 1092.43 18.7735 1087.33 19.6384L1087.83 22.5962C1092.92 21.7334 1097.97 20.9098 1102.96 20.1291L1102.5 17.1651ZM1072.19 22.2944C1067.19 23.2013 1062.15 24.1417 1057.09 25.1123L1057.65 28.0587C1062.7 27.0899 1067.73 26.1514 1072.73 25.2463L1072.19 22.2944ZM1042.02 28.0735C1037.02 29.0785 1032.01 30.1094 1026.99 31.1633L1027.6 34.0993C1032.62 33.0471 1037.62 32.0178 1042.61 31.0145L1042.02 28.0735ZM1011.97 34.3739C1006.98 35.4622 1001.98 36.5701 996.983 37.6949L997.642 40.6216C1002.63 39.4984 1007.62 38.3919 1012.61 37.3052L1011.97 34.3739ZM982.013 41.1169C977.019 42.2755 972.035 43.4482 967.069 44.6318L967.765 47.55C972.725 46.3678 977.703 45.1965 982.691 44.0393L982.013 41.1169ZM952.154 48.2323C947.163 49.4519 942.198 50.6797 937.266 51.9128L937.993 54.8232C942.92 53.5914 947.88 52.3648 952.866 51.1466L952.154 48.2323ZM922.374 55.6764C917.37 56.9543 912.41 58.2344 907.5 59.5133L908.256 62.4164C913.161 61.1386 918.117 59.8597 923.116 58.5831L922.374 55.6764ZM892.646 63.4196C887.634 64.7499 882.686 66.0753 877.812 67.3919L878.594 70.2881C883.464 68.9726 888.408 67.6484 893.416 66.3192L892.646 63.4196ZM862.998 71.4277C857.967 72.8096 853.031 74.1769 848.202 75.525L849.008 78.4146C853.834 77.0675 858.766 75.7013 863.792 74.3206L862.998 71.4277ZM833.427 79.6816C828.364 81.1171 823.443 82.5233 818.68 83.8941L819.51 86.7771C824.269 85.4074 829.186 84.0022 834.245 82.5679L833.427 79.6816ZM803.986 88.155C798.815 89.6654 793.884 91.1179 789.215 92.5025L790.067 95.3787C794.733 93.9952 799.661 92.5438 804.827 91.0347L803.986 88.155ZM774.481 96.9053C769.034 98.5459 764.111 100.043 759.77 101.372L760.649 104.241C764.985 102.913 769.903 101.417 775.346 99.7779L774.481 96.9053ZM745.164 105.889C742.81 106.625 741.001 107.195 739.78 107.582C739.17 107.775 738.706 107.922 738.395 108.021C738.24 108.071 738.122 108.108 738.043 108.133C738.004 108.146 737.975 108.155 737.955 108.162C737.945 108.165 737.937 108.167 737.932 108.169C737.93 108.17 737.928 108.17 737.927 108.171C737.926 108.171 737.926 108.171 737.925 108.171C737.925 108.171 737.925 108.171 737.925 108.171C737.925 108.171 737.925 108.171 737.925 108.171C737.925 108.171 737.925 108.171 738.382 109.6C738.839 111.028 738.839 111.028 738.839 111.028C738.839 111.028 738.839 111.028 738.839 111.028C738.839 111.028 738.839 111.028 738.839 111.028C738.84 111.028 738.84 111.028 738.841 111.028C738.842 111.028 738.844 111.027 738.846 111.026C738.851 111.025 738.858 111.022 738.868 111.019C738.887 111.013 738.917 111.004 738.955 110.991C739.033 110.966 739.15 110.929 739.305 110.88C739.614 110.781 740.076 110.635 740.685 110.442C741.903 110.057 743.709 109.487 746.059 108.752L745.164 105.889ZM738.382 109.6C739.037 108.251 739.037 108.251 739.037 108.251C739.037 108.251 739.037 108.251 739.037 108.251C739.037 108.251 739.037 108.25 739.037 108.25C739.036 108.25 739.036 108.25 739.035 108.25C739.034 108.249 739.032 108.248 739.03 108.247C739.025 108.245 739.018 108.241 739.008 108.237C738.99 108.228 738.962 108.214 738.925 108.197C738.852 108.161 738.744 108.109 738.601 108.041C738.314 107.904 737.888 107.701 737.327 107.438C736.207 106.912 734.549 106.143 732.395 105.169L731.159 107.902C733.299 108.87 734.944 109.633 736.052 110.153C736.606 110.414 737.026 110.613 737.307 110.747C737.447 110.814 737.553 110.865 737.623 110.899C737.658 110.916 737.684 110.929 737.701 110.937C737.71 110.941 737.716 110.944 737.72 110.946C737.723 110.947 737.724 110.948 737.725 110.948C737.725 110.949 737.726 110.949 737.726 110.949C737.726 110.949 737.726 110.949 737.726 110.949C737.726 110.949 737.726 110.949 737.726 110.949C737.726 110.949 737.726 110.949 738.382 109.6ZM718.789 99.2374C714.738 97.5291 710.142 95.6378 705.058 93.6172L703.95 96.4051C709.013 98.4176 713.59 100.301 717.623 102.002L718.789 99.2374ZM691.196 88.2639C686.794 86.6124 682.145 84.9138 677.272 83.1907L676.272 86.019C681.126 87.7355 685.757 89.4277 690.142 91.0727L691.196 88.2639ZM663.23 78.3746C658.678 76.8621 653.977 75.347 649.141 73.8441L648.251 76.7089C653.067 78.2058 657.75 79.7149 662.284 81.2215L663.23 78.3746ZM634.927 69.5824C630.253 68.2328 625.478 66.9054 620.614 65.6117L619.843 68.5108C624.685 69.7989 629.44 71.1207 634.094 72.4647L634.927 69.5824ZM606.251 61.9597C601.501 60.8086 596.683 59.6975 591.807 58.6362L591.169 61.5676C596.021 62.6237 600.817 63.7294 605.544 64.8753L606.251 61.9597ZM577.277 55.662C572.45 54.7374 567.577 53.8686 562.669 53.0643L562.184 56.0249C567.064 56.8246 571.91 57.6887 576.713 58.6084L577.277 55.662ZM547.99 50.8738C543.099 50.2169 538.182 49.631 533.249 49.1248L532.942 52.1091C537.843 52.612 542.729 53.1941 547.59 53.8471L547.99 50.8738ZM518.456 47.8566C513.517 47.5186 508.57 47.2681 503.625 47.1133L503.531 50.1118C508.438 50.2654 513.347 50.5141 518.251 50.8496L518.456 47.8566ZM488.773 46.945C483.808 46.9908 478.853 47.1422 473.917 47.4077L474.079 50.4034C478.968 50.1404 483.878 49.9903 488.801 49.9448L488.773 46.945ZM459.093 48.5639C454.144 49.074 449.223 49.7101 444.341 50.4811L444.809 53.4444C449.635 52.6822 454.502 52.0529 459.401 51.5481L459.093 48.5639ZM429.715 53.2309C427.291 53.7628 424.878 54.3316 422.479 54.9384L423.215 57.8468C425.582 57.248 427.964 56.6865 430.358 56.1612L429.715 53.2309ZM422.479 54.9384C420.081 55.5451 417.699 56.1019 415.333 56.6108L415.964 59.5437C418.365 59.0273 420.782 58.4623 423.215 57.8468L422.479 54.9384ZM401.019 59.1468C396.132 59.8274 391.317 60.3085 386.572 60.6077L386.76 63.6017C391.58 63.2978 396.471 62.8092 401.433 62.1181L401.019 59.1468ZM372.011 60.9712C367.087 60.9075 362.24 60.6566 357.469 60.2399L357.208 63.2285C362.051 63.6515 366.972 63.9063 371.972 63.971L372.011 60.9712ZM343.033 58.4588C338.186 57.6883 333.419 56.7594 328.73 55.6965L328.067 58.6223C332.816 59.6987 337.647 60.6403 342.562 61.4216L343.033 58.4588ZM314.61 52.0488C309.9 50.6866 305.271 49.207 300.721 47.6378L299.743 50.4739C304.336 52.058 309.013 53.5532 313.777 54.9307L314.61 52.0488ZM287.005 42.5701C282.421 40.7703 277.921 38.9039 273.503 37.0026L272.317 39.7583C276.76 41.6701 281.29 43.5491 285.909 45.3625L287.005 42.5701ZM260.111 31.0542C255.597 28.9966 251.173 26.9374 246.832 24.913L245.564 27.6319C249.905 29.6564 254.339 31.7204 258.866 33.7839L260.111 31.0542ZM233.49 18.7249C228.912 16.6294 224.43 14.6239 220.04 12.761L218.868 15.5226C223.222 17.3706 227.678 19.3636 232.242 21.4527L233.49 18.7249ZM206.325 7.35437C201.495 5.62613 196.774 4.15597 192.158 3.02577L191.444 5.93969C195.938 7.03989 200.558 8.47707 205.314 10.179L206.325 7.35437ZM177.435 0.647035C172.317 0.305866 167.326 0.545638 162.458 1.50056L163.035 4.44445C167.613 3.54636 172.341 3.3141 177.235 3.64039L177.435 0.647035ZM148.287 6.6116C146.135 7.78164 144.014 9.13298 141.925 10.6769L143.708 13.0896C145.69 11.6253 147.693 10.349 149.72 9.24736L148.287 6.6116ZM141.925 10.6769C140.013 12.09 138.047 13.5318 136.034 15.002L137.804 17.4247C139.82 15.9523 141.79 14.507 143.708 13.0896L141.925 10.6769ZM124.205 23.6041C120.362 26.3969 116.41 29.2756 112.386 32.2364L114.165 34.6526C118.18 31.6973 122.127 28.8227 125.969 26.031L124.205 23.6041ZM100.63 40.9929C96.773 43.9064 92.8845 46.8896 88.9953 49.9402L90.8467 52.3007C94.7194 49.2631 98.5932 46.2911 102.438 43.3868L100.63 40.9929ZM77.5542 59.1275C73.7841 62.2327 70.0412 65.4002 66.3538 68.6279L68.3298 70.8852C71.9921 67.6795 75.712 64.5314 79.4615 61.4431L77.5542 59.1275ZM55.4734 78.5015C51.8858 81.885 48.3833 85.3283 44.9954 88.8293L47.1513 90.9155C50.5044 87.4505 53.974 84.0393 57.5317 80.684L55.4734 78.5015ZM35.0463 99.6864C31.7959 103.448 28.7008 107.271 25.7948 111.153L28.1963 112.951C31.0565 109.13 34.1071 105.362 37.3163 101.648L35.0463 99.6864ZM17.4512 123.334C14.8088 127.594 12.4187 131.919 10.3222 136.307L13.0291 137.6C15.074 133.32 17.4103 129.091 20.0005 124.915L17.4512 123.334ZM4.81866 150.078C3.29415 154.834 2.14291 159.656 1.41402 164.541L4.38117 164.984C5.08449 160.27 6.19696 155.606 7.67548 150.993L4.81866 150.078ZM0.544121 179.395C0.705815 184.268 1.31454 189.191 2.41299 194.159L5.34223 193.511C4.2838 188.724 3.69807 183.985 3.54247 179.295L0.544121 179.395ZM6.87454 208.357C7.79655 210.614 8.82417 212.879 9.96099 215.15L12.6437 213.807C11.5403 211.603 10.5443 209.408 9.6518 207.222L6.87454 208.357ZM9.96099 215.15C11.1623 217.55 12.3525 219.929 13.5312 222.286L16.2142 220.943C15.0355 218.587 13.8452 216.208 12.6437 213.807L9.96099 215.15ZM20.6639 236.553C23.096 241.421 25.4717 246.179 27.7876 250.819L30.4719 249.479C28.1558 244.839 25.7799 240.081 23.3476 235.212L20.6639 236.553ZM34.9025 265.084C37.3508 269.995 39.7199 274.751 42.0052 279.34L44.6908 278.003C42.4052 273.413 40.0359 268.657 37.5874 263.745L34.9025 265.084ZM49.1164 293.631C51.607 298.639 53.9726 303.399 56.2055 307.895L58.8923 306.56C56.6592 302.064 54.2934 297.304 51.8025 292.295L49.1164 293.631ZM63.2961 322.18C65.9307 327.492 68.2995 332.272 70.3826 336.478L73.071 335.147C70.9876 330.94 68.6186 326.16 65.9837 320.847L63.2961 322.18ZM77.4538 350.77C78.603 353.095 79.4808 354.873 80.0713 356.069C80.3665 356.667 80.5899 357.12 80.7395 357.423C80.8143 357.575 80.8706 357.689 80.9082 357.765C80.927 357.804 80.9412 357.832 80.9506 357.851C80.9553 357.861 80.9589 357.868 80.9612 357.873C80.9624 357.875 80.9633 357.877 80.9639 357.878C80.9642 357.879 80.9644 357.879 80.9645 357.88C80.9646 357.88 80.9647 357.88 80.9647 357.88C80.9647 357.88 80.9647 357.88 80.9647 357.88C80.9648 357.88 80.9648 357.88 82.3101 357.217C83.6555 356.553 83.6555 356.553 83.6555 356.553C83.6555 356.553 83.6555 356.553 83.6554 356.553C83.6554 356.553 83.6553 356.553 83.6553 356.553C83.6551 356.553 83.6549 356.552 83.6546 356.552C83.654 356.55 83.6531 356.549 83.6519 356.546C83.6496 356.541 83.646 356.534 83.6413 356.525C83.6318 356.505 83.6177 356.477 83.5988 356.438C83.5611 356.362 83.5047 356.248 83.4299 356.096C83.2802 355.793 83.0567 355.34 82.7614 354.741C82.1707 353.545 81.2927 351.767 80.1433 349.441L77.4538 350.77ZM82.3101 357.217C80.9609 356.561 80.9608 356.561 80.9607 356.562C80.9607 356.562 80.9606 356.562 80.9605 356.562C80.9603 356.562 80.9601 356.563 80.9599 356.563C80.9596 356.564 80.9591 356.565 80.9586 356.566C80.9575 356.568 80.9562 356.571 80.9545 356.574C80.9513 356.581 80.947 356.59 80.9417 356.601C80.9309 356.624 80.916 356.656 80.8971 356.697C80.8593 356.778 80.8056 356.897 80.7381 357.05C80.6031 357.358 80.4126 357.809 80.1827 358.398C79.7229 359.576 79.1053 361.308 78.4582 363.554L81.341 364.384C81.9611 362.232 82.5487 360.587 82.9774 359.489C83.1917 358.939 83.3663 358.527 83.4852 358.256C83.5447 358.12 83.5903 358.02 83.62 357.956C83.6348 357.924 83.6457 357.901 83.6523 357.887C83.6556 357.88 83.6579 357.875 83.6591 357.873C83.6597 357.871 83.66 357.871 83.66 357.871C83.6601 357.871 83.66 357.871 83.6599 357.871C83.6598 357.871 83.6598 357.871 83.6597 357.871C83.6596 357.872 83.6595 357.872 83.6595 357.872C83.6594 357.872 83.6593 357.872 82.3101 357.217ZM75.6705 377.96C75.1943 382.267 74.944 387.163 75.1092 392.588L78.1078 392.497C77.9471 387.219 78.1909 382.464 78.6523 378.29L75.6705 377.96ZM76.4906 407.18C77.2005 411.689 78.2069 416.447 79.58 421.432L82.4723 420.635C81.1293 415.76 80.1466 411.112 79.454 406.713L76.4906 407.18ZM84.1747 435.285C85.8437 439.59 87.7881 444.029 90.0439 448.589L92.7329 447.258C90.5163 442.778 88.6081 438.422 86.9719 434.2L84.1747 435.285ZM97.0084 461.341C99.3985 465.34 102.03 469.417 104.924 473.565L107.384 471.849C104.53 467.757 101.937 463.739 99.5835 459.802L97.0084 461.341ZM113.608 485.211C116.505 488.858 119.607 492.554 122.927 496.293L125.17 494.302C121.886 490.602 118.819 486.949 115.957 483.345L113.608 485.211ZM132.824 506.895C136.103 510.243 139.559 513.622 143.202 517.029L145.251 514.838C141.64 511.46 138.215 508.112 134.967 504.796L132.824 506.895ZM153.982 526.717C157.535 529.788 161.241 532.879 165.106 535.989L166.987 533.651C163.148 530.563 159.47 527.495 155.944 524.447L153.982 526.717ZM176.528 544.877C178.462 546.333 180.432 547.794 182.437 549.257L184.205 546.834C182.212 545.379 180.255 543.928 178.333 542.481L176.528 544.877ZM182.437 549.257C184.618 550.849 186.778 552.418 188.916 553.963L190.674 551.532C188.539 549.989 186.383 548.423 184.205 546.834L182.437 549.257ZM201.776 563.173C206.191 566.304 210.507 569.332 214.725 572.26L216.435 569.795C212.226 566.873 207.918 563.851 203.511 560.726L201.776 563.173ZM227.764 581.206C232.258 584.254 236.632 587.18 240.888 589.991L242.541 587.487C238.296 584.684 233.932 581.764 229.447 578.723L227.764 581.206ZM254.131 598.61C258.763 601.581 263.241 604.402 267.567 607.083L269.147 604.533C264.835 601.861 260.37 599.047 255.75 596.085L254.131 598.61ZM281.048 615.279C285.833 618.13 290.406 620.791 294.775 623.275L296.258 620.667C291.907 618.194 287.351 615.543 282.584 612.702L281.048 615.279ZM308.63 630.938C313.641 633.627 318.327 636.05 322.703 638.233L324.043 635.548C319.694 633.38 315.034 630.97 310.049 628.294L308.63 630.938ZM336.988 645.032C342.532 647.534 347.395 649.555 351.623 651.188L352.704 648.389C348.531 646.777 343.718 644.778 338.222 642.298L336.988 645.032ZM366.744 656.287C369.433 657.029 371.4 657.455 372.708 657.697C373.361 657.818 373.85 657.892 374.183 657.937C374.349 657.96 374.475 657.975 374.564 657.985C374.608 657.99 374.643 657.993 374.668 657.996C374.681 657.997 374.691 657.998 374.699 657.999C374.703 657.999 374.706 657.999 374.709 658C374.711 658 374.712 658 374.713 658C374.714 658 374.714 658 374.715 658C374.715 658 374.715 658 374.715 658C374.716 658 374.716 658 374.842 656.506C374.968 655.011 374.968 655.011 374.969 655.011C374.969 655.011 374.969 655.011 374.969 655.011C374.97 655.011 374.97 655.011 374.97 655.011C374.971 655.011 374.971 655.011 374.971 655.011C374.972 655.011 374.972 655.011 374.971 655.011C374.969 655.011 374.966 655.011 374.959 655.01C374.947 655.009 374.925 655.007 374.893 655.003C374.83 654.996 374.728 654.984 374.587 654.965C374.303 654.926 373.861 654.859 373.253 654.747C372.036 654.522 370.153 654.116 367.541 653.395L366.744 656.287ZM374.842 656.506C375.422 657.889 375.422 657.889 375.422 657.889C375.422 657.889 375.422 657.889 375.422 657.889C375.422 657.889 375.422 657.889 375.422 657.889C375.422 657.889 375.422 657.889 375.423 657.889C375.424 657.888 375.425 657.888 375.427 657.887C375.432 657.885 375.438 657.882 375.447 657.878C375.466 657.871 375.493 657.859 375.53 657.844C375.605 657.813 375.717 657.767 375.866 657.706C376.165 657.584 376.614 657.401 377.209 657.164C378.4 656.69 380.175 655.995 382.507 655.115L381.448 652.308C379.098 653.195 377.306 653.896 376.099 654.377C375.495 654.618 375.038 654.803 374.731 654.929C374.577 654.992 374.461 655.04 374.383 655.072C374.344 655.088 374.314 655.101 374.294 655.109C374.284 655.113 374.276 655.116 374.271 655.118C374.268 655.12 374.266 655.12 374.265 655.121C374.264 655.121 374.264 655.122 374.263 655.122C374.263 655.122 374.263 655.122 374.263 655.122C374.263 655.122 374.263 655.122 374.263 655.122C374.262 655.122 374.262 655.122 374.842 656.506ZM397.062 649.898C401.376 648.421 406.295 646.793 411.783 645.059L410.879 642.198C405.368 643.94 400.426 645.576 396.091 647.06L397.062 649.898ZM426.611 640.548C431.305 639.173 436.289 637.762 441.548 636.333L440.762 633.438C435.483 634.872 430.48 636.288 425.767 637.669L426.611 640.548ZM456.543 632.411C461.37 631.197 466.382 629.981 471.571 628.776L470.892 625.854C465.685 627.063 460.656 628.283 455.811 629.502L456.543 632.411ZM486.698 625.407C491.63 624.354 496.696 623.318 501.892 622.306L501.318 619.361C496.105 620.377 491.021 621.417 486.072 622.473L486.698 625.407ZM517.138 619.476C522.131 618.594 527.228 617.74 532.425 616.917L531.956 613.954C526.742 614.779 521.627 615.637 516.616 616.521L517.138 619.476ZM547.749 614.632C552.788 613.926 557.908 613.254 563.108 612.62L562.745 609.642C557.527 610.278 552.389 610.953 547.333 611.661L547.749 614.632ZM578.499 610.885C583.572 610.359 588.714 609.873 593.919 609.429L593.664 606.44C588.44 606.885 583.281 607.374 578.19 607.901L578.499 610.885ZM609.367 608.255C614.469 607.914 619.628 607.617 624.839 607.366L624.695 604.37C619.465 604.621 614.288 604.919 609.167 605.261L609.367 608.255ZM640.332 606.768C645.456 606.619 650.627 606.516 655.842 606.464L655.812 603.465C650.578 603.517 645.388 603.62 640.245 603.769L640.332 606.768ZM671.329 606.46C676.447 606.508 681.604 606.606 686.798 606.757L686.885 603.758C681.671 603.607 676.495 603.508 671.358 603.46L671.329 606.46ZM702.27 607.361C707.395 607.612 712.552 607.917 717.74 608.277L717.948 605.284C712.739 604.922 707.562 604.617 702.417 604.365L702.27 607.361ZM733.202 609.509C738.311 609.969 743.447 610.485 748.607 611.058L748.938 608.077C743.757 607.501 738.601 606.983 733.471 606.521L733.202 609.509ZM763.965 612.929C766.528 613.269 769.098 613.623 771.672 613.992L772.098 611.023C769.513 610.652 766.933 610.296 764.359 609.955L763.965 612.929ZM771.672 613.992C774.191 614.354 776.702 614.723 779.203 615.101L779.651 612.134C777.142 611.756 774.624 611.385 772.098 611.023L771.672 613.992ZM794.148 617.465C799.162 618.295 804.139 619.156 809.079 620.045L809.611 617.093C804.657 616.201 799.666 615.338 794.638 614.505L794.148 617.465ZM823.992 622.839C828.986 623.81 833.938 624.81 838.848 625.835L839.461 622.899C834.538 621.87 829.572 620.868 824.565 619.894L823.992 622.839ZM853.644 629.032C858.603 630.139 863.516 631.271 868.382 632.426L869.075 629.507C864.196 628.349 859.27 627.214 854.297 626.104L853.644 629.032ZM883.129 636.032C888.078 637.276 892.974 638.544 897.815 639.83L898.585 636.931C893.731 635.641 888.823 634.37 883.861 633.122L883.129 636.032ZM912.438 643.819C917.353 645.195 922.207 646.588 926.999 647.997L927.845 645.119C923.041 643.706 918.174 642.309 913.247 640.93L912.438 643.819ZM941.498 652.362C946.381 653.867 951.194 655.385 955.935 656.913L956.855 654.057C952.102 652.525 947.277 651.003 942.381 649.495L941.498 652.362ZM970.311 661.649C975.171 663.284 979.947 664.927 984.637 666.573L985.63 663.742C980.929 662.092 976.14 660.445 971.268 658.805L970.311 661.649ZM998.906 671.684C1003.74 673.451 1008.47 675.216 1013.1 676.976L1014.16 674.172C1009.53 672.408 1004.78 670.638 999.936 668.866L998.906 671.684ZM1027.24 682.458C1032.06 684.365 1036.76 686.259 1041.32 688.132L1042.46 685.357C1037.89 683.479 1033.18 681.58 1028.34 679.669L1027.24 682.458ZM1055.32 693.994C1060.13 696.045 1064.77 698.062 1069.22 700.036L1070.44 697.293C1065.97 695.314 1061.32 693.291 1056.5 691.234L1055.32 693.994ZM1082.97 706.241C1087.84 708.48 1092.44 710.643 1096.76 712.713L1098.05 710.007C1093.72 707.931 1089.1 705.761 1084.22 703.516L1082.97 706.241ZM1110.34 719.348C1115.38 721.867 1119.89 724.179 1123.84 726.242L1125.23 723.584C1121.27 721.512 1116.74 719.191 1111.68 716.664L1110.34 719.348ZM1137.16 733.4C1139.3 734.591 1140.93 735.516 1142.02 736.143C1142.57 736.456 1142.98 736.695 1143.25 736.855C1143.39 736.935 1143.49 736.995 1143.56 737.035C1143.59 737.055 1143.62 737.07 1143.64 737.08C1143.64 737.085 1143.65 737.088 1143.65 737.091C1143.66 737.092 1143.66 737.093 1143.66 737.093C1143.66 737.094 1143.66 737.094 1143.66 737.094C1143.66 737.094 1143.66 737.094 1143.66 737.094C1143.66 737.094 1143.66 737.094 1143.66 737.094C1143.66 737.094 1143.66 737.094 1144.43 735.804C1145.19 734.515 1145.19 734.515 1145.19 734.515C1145.19 734.515 1145.19 734.515 1145.19 734.515C1145.19 734.515 1145.19 734.515 1145.19 734.514C1145.19 734.514 1145.19 734.514 1145.19 734.514C1145.19 734.513 1145.19 734.512 1145.18 734.51C1145.18 734.507 1145.17 734.503 1145.16 734.498C1145.15 734.487 1145.12 734.471 1145.08 734.45C1145.01 734.409 1144.91 734.347 1144.77 734.265C1144.49 734.101 1144.07 733.859 1143.52 733.542C1142.42 732.908 1140.77 731.975 1138.61 730.777L1137.16 733.4ZM1144.43 735.804C1144.22 737.29 1144.22 737.29 1144.22 737.29C1144.22 737.29 1144.22 737.29 1144.22 737.29C1144.22 737.29 1144.22 737.29 1144.22 737.29C1144.22 737.29 1144.22 737.29 1144.22 737.29C1144.22 737.29 1144.22 737.29 1144.22 737.291C1144.23 737.291 1144.24 737.293 1144.25 737.294C1144.27 737.297 1144.3 737.301 1144.34 737.306C1144.41 737.317 1144.53 737.333 1144.68 737.354C1144.99 737.396 1145.45 737.457 1146.04 737.534C1147.24 737.689 1148.99 737.909 1151.26 738.171L1151.6 735.191C1149.35 734.931 1147.61 734.712 1146.43 734.559C1145.84 734.483 1145.39 734.423 1145.09 734.382C1144.94 734.361 1144.82 734.345 1144.75 734.335C1144.71 734.33 1144.68 734.326 1144.66 734.323C1144.65 734.322 1144.65 734.321 1144.64 734.32C1144.64 734.32 1144.64 734.32 1144.64 734.319C1144.64 734.319 1144.64 734.319 1144.64 734.319C1144.64 734.319 1144.64 734.319 1144.64 734.319C1144.64 734.319 1144.64 734.319 1144.64 734.319C1144.64 734.319 1144.64 734.319 1144.43 735.804ZM1165.52 739.642C1169.78 740.031 1174.59 740.428 1179.84 740.798L1180.05 737.805C1174.82 737.437 1170.04 737.042 1165.8 736.654L1165.52 739.642ZM1194.13 741.657C1198.7 741.886 1203.5 742.08 1208.47 742.225L1208.56 739.226C1203.61 739.082 1198.83 738.889 1194.28 738.661L1194.13 741.657ZM1222.8 742.485C1227.48 742.517 1232.27 742.499 1237.14 742.418L1237.09 739.418C1232.25 739.499 1227.48 739.517 1222.83 739.485L1222.8 742.485ZM1251.48 741.996C1256.21 741.794 1261 741.525 1265.81 741.181L1265.59 738.189C1260.82 738.531 1256.06 738.798 1251.35 738.998L1251.48 741.996ZM1280.1 739.93C1284.86 739.434 1289.62 738.854 1294.35 738.182L1293.93 735.212C1289.24 735.878 1284.51 736.453 1279.79 736.946L1280.1 739.93ZM1308.53 735.864C1313.28 734.978 1317.98 733.986 1322.6 732.878L1321.9 729.961C1317.33 731.056 1312.68 732.037 1307.98 732.914L1308.53 735.864ZM1336.47 729.113C1341.14 727.686 1345.7 726.118 1350.11 724.397L1349.02 721.602C1344.68 723.293 1340.2 724.837 1335.59 726.245L1336.47 729.113ZM1363.29 718.561C1367.69 716.351 1371.89 713.947 1375.85 711.335L1374.19 708.832C1370.34 711.372 1366.25 713.717 1361.94 715.88L1363.29 718.561ZM1387.34 702.514C1389.16 700.886 1390.9 699.195 1392.55 697.438L1390.36 695.384C1388.77 697.076 1387.1 698.708 1385.34 700.28L1387.34 702.514ZM1392.55 697.438C1394.26 695.614 1395.93 693.79 1397.57 691.964L1395.33 689.962C1393.71 691.77 1392.06 693.578 1390.36 695.384L1392.55 697.438ZM1407.14 680.757C1410.32 676.847 1413.33 672.941 1416.18 669.048L1413.76 667.275C1410.94 671.128 1407.96 674.994 1404.81 678.865L1407.14 680.757ZM1424.61 656.912C1427.37 652.698 1429.96 648.509 1432.38 644.353L1429.78 642.844C1427.39 646.954 1424.83 651.097 1422.1 655.266L1424.61 656.912ZM1439.46 631.379C1441.77 626.869 1443.88 622.413 1445.82 618.025L1443.07 616.813C1441.16 621.151 1439.07 625.555 1436.79 630.014L1439.46 631.379ZM1451.39 604.354C1453.18 599.585 1454.76 594.92 1456.17 590.378L1453.3 589.492C1451.91 593.979 1450.35 598.589 1448.58 603.302L1451.39 604.354ZM1460.11 576.126C1461.34 571.084 1462.35 566.244 1463.18 561.637L1460.23 561.107C1459.41 565.655 1458.41 570.434 1457.19 575.414L1460.11 576.126ZM1465.33 546.986C1465.94 541.553 1466.3 536.606 1466.49 532.224L1463.49 532.096C1463.31 536.412 1462.95 541.288 1462.35 546.648L1465.33 546.986ZM1466.52 517.402C1466.41 515.022 1466.27 513.178 1466.16 511.923C1466.1 511.296 1466.05 510.816 1466.01 510.49C1465.99 510.327 1465.98 510.203 1465.96 510.118C1465.96 510.076 1465.95 510.043 1465.95 510.02C1465.95 510.009 1465.95 510 1465.95 509.994C1465.95 509.991 1465.95 509.988 1465.95 509.986C1465.95 509.985 1465.95 509.985 1465.95 509.984C1465.95 509.984 1465.95 509.983 1465.95 509.983C1465.95 509.983 1465.95 509.983 1465.95 509.983C1465.95 509.983 1465.95 509.982 1464.46 510.187C1462.97 510.391 1462.97 510.391 1462.97 510.391C1462.97 510.391 1462.97 510.39 1462.97 510.39C1462.97 510.39 1462.97 510.39 1462.97 510.39C1462.97 510.39 1462.97 510.39 1462.97 510.391C1462.97 510.391 1462.97 510.393 1462.98 510.394C1462.98 510.398 1462.98 510.404 1462.98 510.413C1462.98 510.43 1462.98 510.458 1462.99 510.495C1463 510.569 1463.01 510.682 1463.03 510.834C1463.06 511.138 1463.11 511.595 1463.17 512.2C1463.28 513.408 1463.42 515.204 1463.52 517.532L1466.52 517.402ZM1464.46 510.187C1465.03 511.576 1465.03 511.576 1465.03 511.576C1465.03 511.576 1465.03 511.576 1465.03 511.576C1465.03 511.576 1465.03 511.576 1465.03 511.576C1465.03 511.575 1465.03 511.575 1465.03 511.574C1465.03 511.573 1465.03 511.572 1465.04 511.571C1465.04 511.568 1465.05 511.565 1465.06 511.56C1465.09 511.551 1465.12 511.538 1465.15 511.522C1465.23 511.489 1465.34 511.44 1465.49 511.375C1465.78 511.244 1466.2 511.047 1466.75 510.774C1467.85 510.229 1469.45 509.38 1471.51 508.155L1469.97 505.578C1467.99 506.764 1466.45 507.575 1465.42 508.087C1464.9 508.343 1464.51 508.524 1464.26 508.639C1464.13 508.697 1464.04 508.738 1463.97 508.764C1463.94 508.777 1463.92 508.786 1463.91 508.791C1463.9 508.794 1463.9 508.796 1463.9 508.797C1463.9 508.797 1463.89 508.798 1463.89 508.798C1463.89 508.798 1463.89 508.798 1463.89 508.797C1463.9 508.797 1463.9 508.797 1463.9 508.797C1463.9 508.797 1463.9 508.797 1463.9 508.797C1463.9 508.797 1463.9 508.797 1464.46 510.187ZM1483.44 499.983C1486.77 497.437 1490.47 494.389 1494.51 490.76L1492.5 488.53C1488.53 492.106 1484.88 495.103 1481.62 497.601L1483.44 499.983ZM1504.84 480.835C1507.97 477.643 1511.23 474.143 1514.61 470.311L1512.36 468.327C1509.02 472.121 1505.79 475.581 1502.7 478.735L1504.84 480.835ZM1523.85 459.316C1526.71 455.751 1529.63 451.957 1532.61 447.921L1530.19 446.14C1527.24 450.144 1524.34 453.906 1521.51 457.439L1523.85 459.316ZM1540.88 436.266C1543.48 432.457 1546.11 428.464 1548.77 424.281L1546.24 422.671C1543.6 426.827 1540.98 430.792 1538.4 434.574L1540.88 436.266ZM1556.28 412.061C1558.65 408.088 1561.03 403.963 1563.41 399.681L1560.8 398.219C1558.42 402.478 1556.05 406.579 1553.71 410.528L1556.28 412.061ZM1570.23 387.099C1572.39 382.981 1574.56 378.732 1576.74 374.348L1574.05 373.015C1571.88 377.378 1569.72 381.607 1567.57 385.704L1570.23 387.099ZM1582.95 361.454C1584.93 357.231 1586.92 352.892 1588.9 348.437L1586.15 347.218C1584.18 351.656 1582.21 355.975 1580.24 360.18L1582.95 361.454ZM1594.58 335.307C1595.51 333.107 1596.44 330.88 1597.36 328.625L1594.59 327.485C1593.66 329.731 1592.74 331.949 1591.82 334.142L1594.58 335.307ZM1597.36 328.625C1598.34 326.246 1599.28 323.872 1600.19 321.501L1597.39 320.429C1596.49 322.776 1595.56 325.129 1594.59 327.485L1597.36 328.625ZM1605.28 307.157C1606.88 302.272 1608.34 297.411 1609.66 292.577L1606.76 291.786C1605.45 296.573 1604.01 301.386 1602.43 306.223L1605.28 307.157ZM1613.3 277.797C1614.41 272.78 1615.37 267.798 1616.2 262.854L1613.25 262.356C1612.42 267.251 1611.47 272.184 1610.37 277.152L1613.3 277.797ZM1618.36 247.789C1618.96 242.689 1619.42 237.638 1619.77 232.641L1616.77 232.436C1616.44 237.386 1615.97 242.388 1615.38 247.438L1618.36 247.789ZM1620.44 217.451C1620.54 212.302 1620.52 207.22 1620.38 202.209L1617.38 202.291C1617.52 207.256 1617.54 212.291 1617.44 217.391L1620.44 217.451ZM1619.61 186.994C1619.23 181.855 1618.73 176.803 1618.14 171.846L1615.16 172.202C1615.75 177.116 1616.24 182.122 1616.61 187.215L1619.61 186.994ZM1616 156.807C1615.16 151.691 1614.22 146.694 1613.21 141.822L1610.27 142.436C1611.28 147.266 1612.21 152.222 1613.04 157.293L1616 156.807ZM1609.78 126.996C1608.5 121.942 1607.15 117.051 1605.75 112.338L1602.87 113.193C1604.26 117.869 1605.6 122.719 1606.87 127.732L1609.78 126.996ZM1601.11 97.8398C1599.38 92.8079 1597.63 88.0317 1595.88 83.53L1593.08 84.6171C1594.82 89.0824 1596.56 93.8202 1598.27 98.8118L1601.11 97.8398ZM1590.07 69.4622C1587.82 64.3259 1585.66 59.7116 1583.67 55.6634L1580.97 56.9878C1582.95 60.9982 1585.09 65.572 1587.32 70.6651L1590.07 69.4622ZM1576.61 42.2024C1575.41 40.0647 1574.44 38.4273 1573.78 37.3214C1573.44 36.7685 1573.18 36.3485 1573.01 36.0653C1572.92 35.9237 1572.85 35.8163 1572.81 35.7436C1572.78 35.7072 1572.77 35.6795 1572.75 35.6606C1572.75 35.6511 1572.74 35.6438 1572.74 35.6387C1572.74 35.6362 1572.74 35.6342 1572.74 35.6327C1572.74 35.632 1572.74 35.6314 1572.74 35.631C1572.74 35.6307 1572.73 35.6305 1572.73 35.6304C1572.73 35.6303 1572.73 35.6302 1572.73 35.6302C1572.73 35.6301 1572.73 35.63 1571.47 36.4403C1570.21 37.2506 1570.21 37.2505 1570.21 37.2505C1570.21 37.2505 1570.21 37.2504 1570.21 37.2504C1570.21 37.2504 1570.21 37.2504 1570.21 37.2504C1570.21 37.2505 1570.21 37.2508 1570.21 37.2512C1570.21 37.2519 1570.21 37.2532 1570.21 37.255C1570.22 37.2587 1570.22 37.2646 1570.22 37.2726C1570.23 37.2887 1570.25 37.3135 1570.27 37.3469C1570.31 37.4138 1570.38 37.5153 1570.46 37.6509C1570.63 37.9222 1570.88 38.3299 1571.21 38.8702C1571.86 39.9508 1572.81 41.5616 1573.99 43.671L1576.61 42.2024Z" fill="#396FA1"/>
<path d="M1540.5 67.3391L1542.55 65.9088L1541.93 65.0137L1540.85 64.8631L1540.5 67.3391ZM742.959 131.787L741.939 134.069L742.78 134.446L743.665 134.185L742.959 131.787ZM114.883 349.918L117.094 351.085L117.715 349.909L117.087 348.737L114.883 349.918ZM394.932 613.567L394.739 616.06L395.303 616.103L395.831 615.9L394.932 613.567ZM1131.68 683.423L1130.48 685.617L1130.89 685.841L1131.35 685.902L1131.68 683.423ZM1438.06 484.672L1437.18 482.33L1435.28 483.039L1435.58 485.041L1438.06 484.672ZM1368.16 648.72L1369.91 650.506L1368.16 648.72ZM1540.5 67.3391C1540.85 64.8631 1540.84 64.8629 1540.84 64.8626C1540.84 64.8624 1540.84 64.862 1540.83 64.8614C1540.83 64.8603 1540.81 64.8587 1540.8 64.8566C1540.77 64.8524 1540.72 64.8461 1540.66 64.8378C1540.54 64.8212 1540.36 64.7965 1540.13 64.764C1539.65 64.699 1538.95 64.6029 1538.02 64.4781C1536.17 64.2286 1533.44 63.8646 1529.91 63.4059C1522.86 62.4886 1512.61 61.1928 1499.84 59.6779C1474.31 56.6484 1438.69 52.7423 1398.36 49.2361C1317.74 42.2275 1218.1 36.8013 1142.48 43.2153L1142.9 48.1974C1218.07 41.822 1317.34 47.2121 1397.93 54.2173C1438.2 57.718 1473.76 61.6181 1499.25 64.6431C1512 66.1555 1522.23 67.449 1529.27 68.3642C1532.79 68.8218 1535.51 69.1848 1537.36 69.4333C1538.28 69.5575 1538.98 69.6531 1539.45 69.7176C1539.68 69.7498 1539.86 69.7743 1539.98 69.7907C1540.04 69.7989 1540.08 69.805 1540.11 69.8091C1540.13 69.8112 1540.14 69.8127 1540.14 69.8137C1540.15 69.8143 1540.15 69.8146 1540.15 69.8149C1540.15 69.8151 1540.16 69.8152 1540.5 67.3391ZM1142.48 43.2153C1066.87 49.6278 966.774 71.1902 885.678 91.1148C845.11 101.082 809.258 110.649 783.548 117.725C770.692 121.263 760.371 124.178 753.263 126.209C749.709 127.224 746.958 128.019 745.095 128.56C744.163 128.83 743.453 129.037 742.976 129.177C742.738 129.246 742.557 129.299 742.436 129.335C742.376 129.353 742.33 129.366 742.3 129.375C742.284 129.379 742.273 129.383 742.265 129.385C742.261 129.386 742.258 129.387 742.256 129.388C742.254 129.388 742.253 129.389 742.959 131.787C743.665 134.185 743.666 134.185 743.668 134.184C743.67 134.184 743.672 134.183 743.676 134.182C743.683 134.18 743.695 134.176 743.71 134.172C743.739 134.163 743.784 134.15 743.844 134.133C743.963 134.097 744.142 134.045 744.379 133.976C744.854 133.837 745.56 133.631 746.488 133.362C748.345 132.823 751.09 132.03 754.637 131.016C761.731 128.989 772.036 126.079 784.874 122.546C810.551 115.479 846.357 105.924 886.871 95.9704C967.941 76.0522 1067.71 54.5744 1142.9 48.1974L1142.48 43.2153ZM171.402 43.6391C142.587 63.2341 100.63 89.3398 71.078 119.921C56.2826 135.231 44.4134 151.839 38.8796 169.522C33.3152 187.302 34.2 206.049 44.7092 225.371L49.1016 222.982C39.2654 204.898 38.4747 187.557 43.6514 171.015C48.8589 154.375 60.1476 138.427 74.6735 123.395C103.764 93.2917 145.104 67.5689 174.214 47.7736L171.402 43.6391ZM44.7092 225.371C65.053 262.775 82.046 294.207 93.9529 316.289C99.9063 327.329 104.588 336.032 107.782 341.975C109.378 344.946 110.603 347.227 111.428 348.765C111.841 349.534 112.154 350.118 112.364 350.509C112.468 350.704 112.547 350.852 112.6 350.95C112.627 350.999 112.646 351.037 112.66 351.061C112.666 351.074 112.671 351.083 112.675 351.089C112.676 351.092 112.677 351.094 112.678 351.096C112.679 351.097 112.679 351.097 112.679 351.098C112.679 351.098 112.68 351.098 114.883 349.918C117.087 348.737 117.087 348.737 117.086 348.736C117.086 348.736 117.086 348.735 117.086 348.734C117.085 348.733 117.083 348.731 117.082 348.727C117.078 348.721 117.073 348.712 117.067 348.7C117.053 348.675 117.034 348.638 117.007 348.588C116.954 348.489 116.875 348.342 116.77 348.146C116.56 347.755 116.247 347.171 115.834 346.401C115.008 344.862 113.783 342.58 112.186 339.608C108.991 333.663 104.308 324.959 98.3538 313.916C86.4446 291.83 69.4487 260.392 49.1016 222.982L44.7092 225.371ZM1438.06 484.672C1438.93 487.014 1438.93 487.013 1438.93 487.012C1438.94 487.012 1438.94 487.011 1438.94 487.01C1438.94 487.008 1438.95 487.006 1438.96 487.004C1438.97 486.999 1438.99 486.993 1439.01 486.985C1439.05 486.969 1439.1 486.947 1439.18 486.918C1439.32 486.86 1439.52 486.776 1439.79 486.662C1440.32 486.434 1441.08 486.089 1442.07 485.605C1444.05 484.637 1446.9 483.113 1450.5 480.863C1457.7 476.362 1467.88 468.958 1479.95 457.287C1504.08 433.942 1535.73 393.557 1566.24 325.248L1561.68 323.209C1531.39 391.006 1500.09 430.843 1476.47 453.693C1464.66 465.12 1454.76 472.307 1447.85 476.623C1444.4 478.781 1441.69 480.221 1439.87 481.116C1438.96 481.563 1438.27 481.873 1437.81 482.069C1437.59 482.166 1437.42 482.235 1437.31 482.278C1437.26 482.299 1437.22 482.314 1437.2 482.323C1437.19 482.327 1437.18 482.33 1437.18 482.331C1437.18 482.332 1437.18 482.332 1437.18 482.332C1437.18 482.332 1437.18 482.331 1437.18 482.331C1437.18 482.331 1437.18 482.33 1438.06 484.672ZM1566.24 325.248C1596.95 256.508 1591.01 191.651 1577.43 144.058C1570.65 120.262 1561.94 100.756 1554.94 87.1906C1551.43 80.4066 1548.35 75.1041 1546.13 71.4894C1545.03 69.6819 1544.14 68.2959 1543.52 67.3573C1543.21 66.888 1542.97 66.5305 1542.81 66.2881C1542.73 66.1668 1542.66 66.0743 1542.62 66.011C1542.6 65.9793 1542.58 65.9549 1542.57 65.9379C1542.57 65.9294 1542.56 65.9227 1542.56 65.9178C1542.56 65.9154 1542.55 65.9132 1542.55 65.912C1542.55 65.9102 1542.55 65.9088 1540.5 67.3391C1538.45 68.7695 1538.45 68.769 1538.45 68.7691C1538.45 68.7697 1538.45 68.7702 1538.45 68.7715C1538.45 68.774 1538.46 68.7784 1538.46 68.7845C1538.47 68.7969 1538.48 68.8165 1538.5 68.8434C1538.54 68.8972 1538.59 68.9801 1538.67 69.0915C1538.82 69.3144 1539.05 69.6517 1539.34 70.1003C1539.93 70.9975 1540.79 72.3394 1541.87 74.1004C1544.03 77.6226 1547.05 82.8196 1550.49 89.4857C1557.38 102.821 1565.95 122.017 1572.62 145.43C1585.98 192.255 1591.77 255.842 1561.68 323.209L1566.24 325.248ZM742.959 131.787C743.98 129.505 743.979 129.504 743.977 129.503C743.975 129.503 743.973 129.502 743.97 129.5C743.964 129.498 743.956 129.494 743.944 129.489C743.922 129.479 743.89 129.465 743.847 129.445C743.761 129.407 743.633 129.351 743.466 129.278C743.13 129.13 742.633 128.913 741.981 128.632C740.676 128.071 738.749 127.253 736.254 126.223C731.264 124.165 723.997 121.261 714.875 117.873C696.632 111.098 670.955 102.381 641.206 94.6091C581.79 79.0869 505.791 67.2426 440.322 82.4806L441.456 87.3504C505.719 72.393 580.755 83.9844 639.942 99.4467C669.494 107.167 695.009 115.829 713.134 122.561C722.195 125.926 729.406 128.807 734.347 130.845C736.818 131.865 738.721 132.673 740.003 133.225C740.645 133.501 741.131 133.713 741.456 133.856C741.618 133.927 741.74 133.981 741.821 134.017C741.861 134.035 741.891 134.048 741.911 134.057C741.921 134.061 741.928 134.064 741.933 134.066C741.935 134.067 741.936 134.068 741.938 134.069C741.938 134.069 741.939 134.069 742.959 131.787ZM440.322 82.4806C376.286 97.3852 324.392 78.0328 280.898 59.5618C259.252 50.369 239.443 41.2797 221.464 37.0283C203.362 32.7477 186.672 33.2549 171.402 43.6391L174.214 47.7736C187.906 38.4626 202.991 37.7978 220.314 41.8941C237.76 46.0196 257.026 54.8562 278.943 64.1639C322.576 82.6939 375.76 102.641 441.456 87.3504L440.322 82.4806ZM114.883 349.918C112.672 348.75 112.671 348.753 112.67 348.755C112.669 348.757 112.668 348.76 112.666 348.762C112.664 348.767 112.66 348.773 112.656 348.781C112.649 348.796 112.639 348.815 112.626 348.839C112.602 348.888 112.568 348.955 112.527 349.04C112.443 349.21 112.327 349.454 112.185 349.77C111.901 350.4 111.514 351.318 111.076 352.507C110.202 354.885 109.127 358.352 108.283 362.788C106.595 371.667 105.838 384.414 109.455 400.056C116.7 431.383 141.378 473.889 210.19 520.098L212.978 515.947C144.877 470.216 121.205 428.67 114.327 398.929C110.883 384.038 111.622 371.997 113.195 363.722C113.982 359.581 114.979 356.379 115.769 354.233C116.164 353.16 116.506 352.351 116.745 351.821C116.864 351.556 116.957 351.361 117.017 351.238C117.048 351.176 117.07 351.132 117.083 351.107C117.089 351.094 117.093 351.086 117.095 351.082C117.096 351.08 117.097 351.08 117.096 351.08C117.096 351.08 117.096 351.081 117.096 351.082C117.095 351.083 117.094 351.085 114.883 349.918ZM210.19 520.098C278.736 566.128 324.71 590.097 353.61 602.567C368.062 608.804 378.256 612.169 384.878 613.979C388.19 614.884 390.61 615.401 392.224 615.693C393.032 615.839 393.638 615.929 394.053 615.983C394.261 616.01 394.421 616.029 394.535 616.04C394.592 616.046 394.637 616.051 394.671 616.054C394.688 616.055 394.702 616.057 394.713 616.058C394.719 616.058 394.724 616.058 394.728 616.059C394.73 616.059 394.733 616.059 394.734 616.059C394.736 616.059 394.739 616.06 394.932 613.567C395.126 611.075 395.128 611.075 395.129 611.075C395.13 611.075 395.131 611.075 395.132 611.075C395.133 611.075 395.134 611.075 395.134 611.075C395.134 611.075 395.131 611.075 395.125 611.075C395.113 611.073 395.09 611.071 395.055 611.068C394.985 611.06 394.867 611.047 394.702 611.025C394.37 610.982 393.845 610.905 393.115 610.773C391.655 610.508 389.378 610.025 386.197 609.156C379.833 607.417 369.862 604.134 355.591 597.977C327.045 585.659 281.344 561.856 212.978 515.947L210.19 520.098ZM394.932 613.567C395.831 615.9 395.831 615.9 395.832 615.9C395.833 615.899 395.835 615.899 395.837 615.898C395.841 615.896 395.848 615.893 395.858 615.89C395.877 615.882 395.907 615.871 395.947 615.856C396.027 615.825 396.148 615.779 396.311 615.718C396.635 615.596 397.123 615.415 397.771 615.178C399.067 614.705 401 614.012 403.537 613.138C408.613 611.391 416.107 608.921 425.754 606.041C445.05 600.28 472.957 592.879 507.359 586.334C576.175 573.242 670.921 563.585 774.706 577.287L775.36 572.33C670.903 558.54 575.599 568.262 506.425 581.422C471.832 588.004 443.759 595.447 424.324 601.25C414.606 604.151 407.046 606.642 401.91 608.41C399.341 609.295 397.379 609.998 396.055 610.482C395.393 610.724 394.891 610.91 394.553 611.038C394.383 611.101 394.255 611.15 394.168 611.183C394.125 611.199 394.092 611.212 394.069 611.221C394.058 611.225 394.049 611.228 394.043 611.231C394.04 611.232 394.038 611.233 394.036 611.233C394.034 611.234 394.033 611.234 394.932 613.567ZM774.706 577.287C878.594 591.002 967.566 618.097 1030.57 641.765C1062.06 653.598 1087.06 664.572 1104.18 672.582C1112.73 676.587 1119.32 679.852 1123.76 682.112C1125.98 683.242 1127.66 684.121 1128.79 684.716C1129.36 685.014 1129.78 685.24 1130.06 685.392C1130.2 685.467 1130.31 685.524 1130.38 685.562C1130.41 685.581 1130.44 685.595 1130.45 685.604C1130.46 685.609 1130.47 685.612 1130.47 685.614C1130.47 685.615 1130.48 685.616 1130.48 685.616C1130.48 685.617 1130.48 685.617 1131.68 683.423C1132.88 681.229 1132.87 681.229 1132.87 681.228C1132.87 681.227 1132.87 681.226 1132.87 681.225C1132.86 681.222 1132.85 681.218 1132.84 681.213C1132.83 681.202 1132.8 681.187 1132.76 681.166C1132.68 681.126 1132.57 681.066 1132.43 680.987C1132.14 680.83 1131.7 680.598 1131.13 680.295C1129.98 679.688 1128.27 678.797 1126.03 677.656C1121.54 675.372 1114.9 672.084 1106.29 668.054C1089.08 659.995 1063.96 648.969 1032.32 637.085C969.063 613.319 879.714 586.107 775.36 572.33L774.706 577.287ZM1131.68 683.423C1131.35 685.902 1131.35 685.902 1131.36 685.902C1131.36 685.903 1131.36 685.903 1131.36 685.903C1131.37 685.904 1131.38 685.905 1131.39 685.907C1131.41 685.91 1131.45 685.914 1131.49 685.92C1131.58 685.931 1131.71 685.947 1131.88 685.969C1132.22 686.011 1132.73 686.073 1133.39 686.152C1134.71 686.308 1136.66 686.53 1139.16 686.792C1144.15 687.314 1151.33 687.995 1160.14 688.631C1177.76 689.902 1201.87 690.993 1227.84 690.268C1253.81 689.544 1281.71 687.004 1306.88 680.983C1332 674.974 1354.68 665.433 1369.91 650.506L1366.41 646.935C1352.12 660.938 1330.47 670.199 1305.72 676.121C1281.01 682.031 1253.48 684.551 1227.7 685.27C1201.94 685.988 1178 684.907 1160.5 683.644C1151.75 683.012 1144.62 682.336 1139.68 681.819C1137.2 681.56 1135.28 681.341 1133.98 681.186C1133.33 681.109 1132.83 681.048 1132.5 681.007C1132.33 680.986 1132.2 680.97 1132.12 680.96C1132.08 680.954 1132.05 680.951 1132.03 680.948C1132.02 680.947 1132.01 680.946 1132.01 680.945C1132 680.945 1132 680.944 1132 680.944C1132 680.944 1132 680.944 1131.68 683.423ZM1369.91 650.506C1411.46 609.803 1429.14 568.352 1436.42 537.009C1440.06 521.348 1441.09 508.224 1441.21 498.993C1441.27 494.377 1441.11 490.732 1440.92 488.228C1440.83 486.976 1440.73 486.009 1440.66 485.348C1440.62 485.017 1440.59 484.763 1440.57 484.588C1440.56 484.5 1440.55 484.433 1440.54 484.385C1440.54 484.361 1440.53 484.342 1440.53 484.329C1440.53 484.322 1440.53 484.316 1440.53 484.312C1440.53 484.31 1440.53 484.307 1440.53 484.306C1440.53 484.304 1440.53 484.303 1438.06 484.672C1435.58 485.041 1435.58 485.04 1435.58 485.039C1435.58 485.039 1435.58 485.039 1435.58 485.039C1435.58 485.04 1435.58 485.042 1435.58 485.045C1435.58 485.052 1435.59 485.064 1435.59 485.08C1435.59 485.113 1435.6 485.166 1435.61 485.239C1435.63 485.384 1435.66 485.608 1435.69 485.908C1435.76 486.507 1435.85 487.41 1435.94 488.596C1436.11 490.966 1436.27 494.466 1436.21 498.927C1436.1 507.85 1435.1 520.612 1431.55 535.879C1424.47 566.392 1407.21 606.965 1366.41 646.935L1369.91 650.506Z" fill="#396FA1"/>
</svg>
